<?xml version="1.0" encoding="UTF-8" standalone="no"?>
<!DOCTYPE svg PUBLIC "-//W3C//DTD SVG 1.1//EN"
 "http://www.w3.org/Graphics/SVG/1.1/DTD/svg11.dtd">
<!-- Generated by graphviz version 2.47.3 (20210619.1520)
 -->
<!-- Title: workflow Pages: 1 -->
<svg width="811pt" height="778pt"
 viewBox="0.00 0.00 810.56 778.00" xmlns="http://www.w3.org/2000/svg" xmlns:xlink="http://www.w3.org/1999/xlink">
<g id="graph0" class="graph" transform="scale(1 1) rotate(0) translate(4 774)">
<title>workflow</title>
<polygon fill="white" stroke="transparent" points="-4,4 -4,-774 806.56,-774 806.56,4 -4,4"/>
<!-- ClinVar VCF -->
<g id="node1" class="node">
<title>ClinVar VCF</title>
<polygon fill="none" stroke="black" points="176.59,-752 143.29,-770 76.71,-770 43.41,-752 76.71,-734 143.29,-734 176.59,-752"/>
<text text-anchor="middle" x="110" y="-748.3" font-family="Times,serif" font-size="14.00">ClinVar VCF</text>
</g>
<!-- ClinVar BED -->
<g id="node5" class="node">
<title>ClinVar BED</title>
<ellipse fill="none" stroke="black" cx="115" cy="-665" rx="57.69" ry="18"/>
<text text-anchor="middle" x="115" y="-661.3" font-family="Times,serif" font-size="14.00">ClinVar BED</text>
</g>
<!-- ClinVar VCF&#45;&gt;ClinVar BED -->
<g id="edge1" class="edge">
<title>ClinVar VCF&#45;&gt;ClinVar BED</title>
<path fill="none" stroke="black" d="M111.01,-733.8C111.7,-722.16 112.61,-706.55 113.4,-693.24"/>
<polygon fill="black" stroke="black" points="116.9,-693.36 113.99,-683.18 109.91,-692.95 116.9,-693.36"/>
<text text-anchor="middle" x="135" y="-704.8" font-family="Times,serif" font-size="14.00">vcf2bed</text>
</g>
<!-- GRCh38.p11 FASTA -->
<g id="node2" class="node">
<title>GRCh38.p11 FASTA</title>
<polygon fill="none" stroke="black" points="613.13,-291 562.57,-309 461.43,-309 410.87,-291 461.43,-273 562.57,-273 613.13,-291"/>
<text text-anchor="middle" x="512" y="-287.3" font-family="Times,serif" font-size="14.00">GRCh38.p11 FASTA</text>
</g>
<!-- Liftoff -->
<g id="node9" class="node">
<title>Liftoff</title>
<polygon fill="#d9d9d9" stroke="#d9d9d9" points="458,-236 243,-198 458,-160 673,-198 458,-236"/>
<text text-anchor="middle" x="458" y="-201.8" font-family="Times,serif" font-size="14.00">liftoff &#45;g &lt;GFF&gt; &#45;f &lt;feature types&gt; </text>
<text text-anchor="middle" x="458" y="-186.8" font-family="Times,serif" font-size="14.00">&lt;grch38&gt; &lt;t2t&gt;</text>
</g>
<!-- GRCh38.p11 FASTA&#45;&gt;Liftoff -->
<g id="edge8" class="edge">
<title>GRCh38.p11 FASTA&#45;&gt;Liftoff</title>
<path fill="none" stroke="black" d="M501.84,-272.88C496.54,-263.95 489.79,-252.58 483.19,-241.45"/>
<polygon fill="black" stroke="black" points="486.07,-239.44 477.96,-232.63 480.05,-243.02 486.07,-239.44"/>
</g>
<!-- T2T v1.1 FASTA -->
<g id="node3" class="node">
<title>T2T v1.1 FASTA</title>
<polygon fill="none" stroke="black" points="802.61,-291 759.81,-309 674.19,-309 631.39,-291 674.19,-273 759.81,-273 802.61,-291"/>
<text text-anchor="middle" x="717" y="-287.3" font-family="Times,serif" font-size="14.00">T2T v1.1 FASTA</text>
</g>
<!-- T2T v1.1 FASTA&#45;&gt;Liftoff -->
<g id="edge9" class="edge">
<title>T2T v1.1 FASTA&#45;&gt;Liftoff</title>
<path fill="none" stroke="black" d="M671.59,-274.04C634.69,-261.08 581.74,-242.48 537.8,-227.04"/>
<polygon fill="black" stroke="black" points="538.88,-223.71 528.28,-223.69 536.56,-230.31 538.88,-223.71"/>
</g>
<!-- GENCODE GFF -->
<g id="node4" class="node">
<title>GENCODE GFF</title>
<polygon fill="none" stroke="black" points="359.61,-752 318.3,-770 235.7,-770 194.39,-752 235.7,-734 318.3,-734 359.61,-752"/>
<text text-anchor="middle" x="277" y="-748.3" font-family="Times,serif" font-size="14.00">GENCODE GFF</text>
</g>
<!-- GENCODE BED -->
<g id="node6" class="node">
<title>GENCODE BED</title>
<ellipse fill="none" stroke="black" cx="273" cy="-665" rx="72.59" ry="18"/>
<text text-anchor="middle" x="273" y="-661.3" font-family="Times,serif" font-size="14.00">GENCODE BED</text>
</g>
<!-- GENCODE GFF&#45;&gt;GENCODE BED -->
<g id="edge2" class="edge">
<title>GENCODE GFF&#45;&gt;GENCODE BED</title>
<path fill="none" stroke="black" d="M276.19,-733.8C275.64,-722.16 274.91,-706.55 274.28,-693.24"/>
<polygon fill="black" stroke="black" points="277.77,-693 273.81,-683.18 270.78,-693.33 277.77,-693"/>
<text text-anchor="middle" x="297.5" y="-704.8" font-family="Times,serif" font-size="14.00">gff2bed</text>
</g>
<!-- bedtools intersect &#45;u -->
<g id="node10" class="node">
<title>bedtools intersect &#45;u</title>
<polygon fill="#d9d9d9" stroke="#d9d9d9" points="189,-596 0,-558 189,-520 378,-558 189,-596"/>
<text text-anchor="middle" x="189" y="-561.8" font-family="Times,serif" font-size="14.00">bedtools intersect &#45;u </text>
<text text-anchor="middle" x="189" y="-546.8" font-family="Times,serif" font-size="14.00">&#45;a &lt;GENCODE&gt; &#45;b &lt;ClinVar&gt;</text>
</g>
<!-- ClinVar BED&#45;&gt;bedtools intersect &#45;u -->
<g id="edge5" class="edge">
<title>ClinVar BED&#45;&gt;bedtools intersect &#45;u</title>
<path fill="none" stroke="black" d="M126.89,-647.13C135.87,-634.39 148.57,-616.36 160.16,-599.92"/>
<polygon fill="black" stroke="black" points="163.19,-601.7 166.09,-591.51 157.47,-597.66 163.19,-601.7"/>
<text text-anchor="middle" x="171.5" y="-617.8" font-family="Times,serif" font-size="14.00">ClinVar</text>
</g>
<!-- GENCODE BED&#45;&gt;bedtools intersect &#45;u -->
<g id="edge4" class="edge">
<title>GENCODE BED&#45;&gt;bedtools intersect &#45;u</title>
<path fill="none" stroke="black" d="M259.5,-647.13C249.14,-634.18 234.4,-615.75 221.07,-599.08"/>
<polygon fill="black" stroke="black" points="223.64,-596.7 214.66,-591.08 218.18,-601.07 223.64,-596.7"/>
<text text-anchor="middle" x="276.5" y="-617.8" font-family="Times,serif" font-size="14.00">GENCODE</text>
</g>
<!-- ClinVar GRCh38 regions BED -->
<g id="node7" class="node">
<title>ClinVar GRCh38 regions BED</title>
<polygon fill="none" stroke="black" points="365.09,-483 84.97,-483 12.91,-447 293.03,-447 365.09,-483"/>
<text text-anchor="middle" x="189" y="-461.3" font-family="Times,serif" font-size="14.00">ClinVar GRCh38 regions BED</text>
</g>
<!-- ClinVar regions GFF -->
<g id="node11" class="node">
<title>ClinVar regions GFF</title>
<ellipse fill="none" stroke="black" cx="189" cy="-378" rx="85.29" ry="18"/>
<text text-anchor="middle" x="189" y="-374.3" font-family="Times,serif" font-size="14.00">ClinVar regions GFF</text>
</g>
<!-- ClinVar GRCh38 regions BED&#45;&gt;ClinVar regions GFF -->
<g id="edge6" class="edge">
<title>ClinVar GRCh38 regions BED&#45;&gt;ClinVar regions GFF</title>
<path fill="none" stroke="black" d="M189,-446.8C189,-435.16 189,-419.55 189,-406.24"/>
<polygon fill="black" stroke="black" points="192.5,-406.18 189,-396.18 185.5,-406.18 192.5,-406.18"/>
<text text-anchor="middle" x="213.5" y="-417.8" font-family="Times,serif" font-size="14.00">bed2gff3</text>
</g>
<!-- ClinVar T2T regions BED -->
<g id="node8" class="node">
<title>ClinVar T2T regions BED</title>
<polygon fill="none" stroke="black" points="610.44,-36 367.94,-36 305.56,0 548.06,0 610.44,-36"/>
<text text-anchor="middle" x="458" y="-14.3" font-family="Times,serif" font-size="14.00">ClinVar T2T regions BED</text>
</g>
<!-- ClinVar T2T regions GFF -->
<g id="node13" class="node">
<title>ClinVar T2T regions GFF</title>
<ellipse fill="none" stroke="black" cx="458" cy="-105" rx="102.88" ry="18"/>
<text text-anchor="middle" x="458" y="-101.3" font-family="Times,serif" font-size="14.00">ClinVar T2T regions GFF</text>
</g>
<!-- Liftoff&#45;&gt;ClinVar T2T regions GFF -->
<g id="edge12" class="edge">
<title>Liftoff&#45;&gt;ClinVar T2T regions GFF</title>
<path fill="none" stroke="black" d="M458,-159.99C458,-150.99 458,-141.54 458,-133.1"/>
<polygon fill="black" stroke="black" points="461.5,-133.06 458,-123.06 454.5,-133.06 461.5,-133.06"/>
</g>
<!-- bedtools intersect &#45;u&#45;&gt;ClinVar GRCh38 regions BED -->
<g id="edge3" class="edge">
<title>bedtools intersect &#45;u&#45;&gt;ClinVar GRCh38 regions BED</title>
<path fill="none" stroke="black" d="M189,-519.99C189,-510.99 189,-501.54 189,-493.1"/>
<polygon fill="black" stroke="black" points="192.5,-493.06 189,-483.06 185.5,-493.06 192.5,-493.06"/>
</g>
<!-- ClinVar regions GFF&#45;&gt;Liftoff -->
<g id="edge7" class="edge">
<title>ClinVar regions GFF&#45;&gt;Liftoff</title>
<path fill="none" stroke="black" d="M183.86,-359.83C178.27,-337.35 172.52,-297.89 192,-273 210.65,-249.18 275.57,-230.86 336.61,-218.4"/>
<polygon fill="black" stroke="black" points="337.63,-221.77 346.76,-216.38 336.26,-214.9 337.63,-221.77"/>
</g>
<!-- ClinVar feature type list -->
<g id="node12" class="node">
<title>ClinVar feature type list</title>
<ellipse fill="none" stroke="black" cx="297" cy="-291" rx="95.58" ry="18"/>
<text text-anchor="middle" x="297" y="-287.3" font-family="Times,serif" font-size="14.00">ClinVar feature type list</text>
</g>
<!-- ClinVar regions GFF&#45;&gt;ClinVar feature type list -->
<g id="edge10" class="edge">
<title>ClinVar regions GFF&#45;&gt;ClinVar feature type list</title>
<path fill="none" stroke="black" d="M210.08,-360.41C226.48,-347.51 249.42,-329.45 267.62,-315.13"/>
<polygon fill="black" stroke="black" points="269.91,-317.77 275.6,-308.84 265.58,-312.27 269.91,-317.77"/>
<text text-anchor="middle" x="310" y="-330.8" font-family="Times,serif" font-size="14.00">cut &#45;f 3 &lt;GFF&gt; | uniq</text>
</g>
<!-- ClinVar feature type list&#45;&gt;Liftoff -->
<g id="edge11" class="edge">
<title>ClinVar feature type list&#45;&gt;Liftoff</title>
<path fill="none" stroke="black" d="M325.78,-273.73C346.17,-262.21 374.24,-246.34 399.27,-232.2"/>
<polygon fill="black" stroke="black" points="400.99,-235.24 407.98,-227.27 397.55,-229.15 400.99,-235.24"/>
</g>
<!-- ClinVar T2T regions GFF&#45;&gt;ClinVar T2T regions BED -->
<g id="edge13" class="edge">
<title>ClinVar T2T regions GFF&#45;&gt;ClinVar T2T regions BED</title>
<path fill="none" stroke="black" d="M458,-86.8C458,-75.16 458,-59.55 458,-46.24"/>
<polygon fill="black" stroke="black" points="461.5,-46.18 458,-36.18 454.5,-46.18 461.5,-46.18"/>
<text text-anchor="middle" x="482.5" y="-57.8" font-family="Times,serif" font-size="14.00">gff32bed</text>
</g>
</g>
</svg>
