<?xml version="1.0" encoding="UTF-8" standalone="no"?>
<!DOCTYPE svg PUBLIC "-//W3C//DTD SVG 1.1//EN"
 "http://www.w3.org/Graphics/SVG/1.1/DTD/svg11.dtd">
<!-- Generated by graphviz version 2.47.3 (20210619.1520)
 -->
<!-- Title: workflow Pages: 1 -->
<svg width="3071pt" height="1249pt"
 viewBox="0.00 0.00 3070.91 1248.69" xmlns="http://www.w3.org/2000/svg" xmlns:xlink="http://www.w3.org/1999/xlink">
<g id="graph0" class="graph" transform="scale(1 1) rotate(0) translate(4 1244.69)">
<title>workflow</title>
<polygon fill="white" stroke="transparent" points="-4,4 -4,-1244.69 3066.91,-1244.69 3066.91,4 -4,4"/>
<!-- grch38 fasta -->
<g id="node1" class="node">
<title>grch38 fasta</title>
<polygon fill="none" stroke="black" points="1349.13,-1135.69 1318.09,-1153.69 1256.01,-1153.69 1224.97,-1135.69 1256.01,-1117.69 1318.09,-1117.69 1349.13,-1135.69"/>
<text text-anchor="middle" x="1287.05" y="-1131.99" font-family="Times,serif" font-size="14.00">grch38 fasta</text>
</g>
<!-- MethylDackel extract &#45;@ 16 &#45;q &lt;cutoff&gt;\n&#45;&#45;CHH &#45;&#45;CHG &#45;&#45;OT 2,0,0,97_2 -->
<g id="node4" class="node">
<title>MethylDackel extract &#45;@ 16 &#45;q &lt;cutoff&gt;\n&#45;&#45;CHH &#45;&#45;CHG &#45;&#45;OT 2,0,0,97_2</title>
<polygon fill="#d9d9d9" stroke="#d9d9d9" points="1583.05,-1066.69 1324.05,-1028.69 1583.05,-990.69 1842.05,-1028.69 1583.05,-1066.69"/>
<text text-anchor="middle" x="1583.05" y="-1032.49" font-family="Times,serif" font-size="14.00">MethylDackel extract &#45;@ 16 &#45;m &lt;Bismap&gt; </text>
<text text-anchor="middle" x="1583.05" y="-1017.49" font-family="Times,serif" font-size="14.00">&#45;q &lt;cutoff&gt; &#45;&#45;CHH &#45;&#45;CHG &#45;&#45;OT 2,0,0,97</text>
</g>
<!-- grch38 fasta&#45;&gt;MethylDackel extract &#45;@ 16 &#45;q &lt;cutoff&gt;\n&#45;&#45;CHH &#45;&#45;CHG &#45;&#45;OT 2,0,0,97_2 -->
<g id="edge5" class="edge">
<title>grch38 fasta&#45;&gt;MethylDackel extract &#45;@ 16 &#45;q &lt;cutoff&gt;\n&#45;&#45;CHH &#45;&#45;CHG &#45;&#45;OT 2,0,0,97_2</title>
<path fill="none" stroke="black" d="M1324.54,-1121.4C1368.31,-1105.87 1442.03,-1079.72 1499.57,-1059.31"/>
<polygon fill="black" stroke="black" points="1500.77,-1062.6 1509.02,-1055.95 1498.43,-1056 1500.77,-1062.6"/>
</g>
<!-- Bismap complete bedGraph -->
<g id="node2" class="node">
<title>Bismap complete bedGraph</title>
<ellipse fill="none" stroke="black" cx="1478.05" cy="-1135.69" rx="110.48" ry="18"/>
<text text-anchor="middle" x="1478.05" y="-1131.99" font-family="Times,serif" font-size="14.00">Bismap complete bedGraph</text>
</g>
<!-- Bismap complete bedGraph&#45;&gt;MethylDackel extract &#45;@ 16 &#45;q &lt;cutoff&gt;\n&#45;&#45;CHH &#45;&#45;CHG &#45;&#45;OT 2,0,0,97_2 -->
<g id="edge2" class="edge">
<title>Bismap complete bedGraph&#45;&gt;MethylDackel extract &#45;@ 16 &#45;q &lt;cutoff&gt;\n&#45;&#45;CHH &#45;&#45;CHG &#45;&#45;OT 2,0,0,97_2</title>
<path fill="none" stroke="black" d="M1494.92,-1117.82C1507.89,-1104.85 1526.36,-1086.39 1543.04,-1069.71"/>
<polygon fill="black" stroke="black" points="1545.95,-1071.75 1550.55,-1062.2 1541,-1066.8 1545.95,-1071.75"/>
<text text-anchor="middle" x="1549.55" y="-1088.49" font-family="Times,serif" font-size="14.00">Bismap</text>
</g>
<!-- PREPROC_1 -->
<!-- PREPROC_1&#45;&gt;Bismap complete bedGraph -->
<g id="edge1" class="edge">
<title>PREPROC_1&#45;&gt;Bismap complete bedGraph</title>
<path fill="none" stroke="black" stroke-dasharray="1,5" d="M1478.05,-1204.49C1478.05,-1192.86 1478.05,-1177.24 1478.05,-1163.93"/>
<polygon fill="black" stroke="black" points="1481.55,-1163.87 1478.05,-1153.87 1474.55,-1163.87 1481.55,-1163.87"/>
<text text-anchor="middle" x="1531.05" y="-1175.49" font-family="Times,serif" font-size="14.00">from preprocessing</text>
</g>
<!-- CpG -->
<g id="node11" class="node">
<title>CpG</title>
<ellipse fill="none" stroke="black" cx="1508.05" cy="-935.69" rx="27.1" ry="18"/>
<text text-anchor="middle" x="1508.05" y="-931.99" font-family="Times,serif" font-size="14.00">CpG</text>
</g>
<!-- MethylDackel extract &#45;@ 16 &#45;q &lt;cutoff&gt;\n&#45;&#45;CHH &#45;&#45;CHG &#45;&#45;OT 2,0,0,97_2&#45;&gt;CpG -->
<g id="edge13" class="edge">
<title>MethylDackel extract &#45;@ 16 &#45;q &lt;cutoff&gt;\n&#45;&#45;CHH &#45;&#45;CHG &#45;&#45;OT 2,0,0,97_2&#45;&gt;CpG</title>
<path fill="none" stroke="black" d="M1555.76,-994.58C1546.25,-983.03 1535.78,-970.33 1527.08,-959.78"/>
<polygon fill="black" stroke="black" points="1529.59,-957.33 1520.53,-951.84 1524.19,-961.78 1529.59,-957.33"/>
</g>
<!-- CHG -->
<g id="node12" class="node">
<title>CHG</title>
<ellipse fill="none" stroke="black" cx="1583.05" cy="-935.69" rx="29.5" ry="18"/>
<text text-anchor="middle" x="1583.05" y="-931.99" font-family="Times,serif" font-size="14.00">CHG</text>
</g>
<!-- MethylDackel extract &#45;@ 16 &#45;q &lt;cutoff&gt;\n&#45;&#45;CHH &#45;&#45;CHG &#45;&#45;OT 2,0,0,97_2&#45;&gt;CHG -->
<g id="edge12" class="edge">
<title>MethylDackel extract &#45;@ 16 &#45;q &lt;cutoff&gt;\n&#45;&#45;CHH &#45;&#45;CHG &#45;&#45;OT 2,0,0,97_2&#45;&gt;CHG</title>
<path fill="none" stroke="black" d="M1583.05,-990.68C1583.05,-981.68 1583.05,-972.23 1583.05,-963.79"/>
<polygon fill="black" stroke="black" points="1586.55,-963.76 1583.05,-953.76 1579.55,-963.76 1586.55,-963.76"/>
</g>
<!-- CHH -->
<g id="node13" class="node">
<title>CHH</title>
<ellipse fill="none" stroke="black" cx="1659.05" cy="-935.69" rx="29.5" ry="18"/>
<text text-anchor="middle" x="1659.05" y="-931.99" font-family="Times,serif" font-size="14.00">CHH</text>
</g>
<!-- MethylDackel extract &#45;@ 16 &#45;q &lt;cutoff&gt;\n&#45;&#45;CHH &#45;&#45;CHG &#45;&#45;OT 2,0,0,97_2&#45;&gt;CHH -->
<g id="edge14" class="edge">
<title>MethylDackel extract &#45;@ 16 &#45;q &lt;cutoff&gt;\n&#45;&#45;CHH &#45;&#45;CHG &#45;&#45;OT 2,0,0,97_2&#45;&gt;CHH</title>
<path fill="none" stroke="black" d="M1610.71,-994.58C1620.22,-983.19 1630.66,-970.69 1639.41,-960.22"/>
<polygon fill="black" stroke="black" points="1642.28,-962.24 1646,-952.32 1636.9,-957.75 1642.28,-962.24"/>
</g>
<!-- Methylation sequencing reads -->
<g id="node5" class="node">
<title>Methylation sequencing reads</title>
<polygon fill="none" stroke="black" points="1834.23,-1222.69 1766.64,-1240.69 1631.46,-1240.69 1563.88,-1222.69 1631.46,-1204.69 1766.64,-1204.69 1834.23,-1222.69"/>
<text text-anchor="middle" x="1699.05" y="-1218.99" font-family="Times,serif" font-size="14.00">Methylation sequencing reads</text>
</g>
<!-- sorted alignment BAM -->
<g id="node6" class="node">
<title>sorted alignment BAM</title>
<ellipse fill="none" stroke="black" cx="1699.05" cy="-1135.69" rx="92.88" ry="18"/>
<text text-anchor="middle" x="1699.05" y="-1131.99" font-family="Times,serif" font-size="14.00">sorted alignment BAM</text>
</g>
<!-- Methylation sequencing reads&#45;&gt;sorted alignment BAM -->
<g id="edge3" class="edge">
<title>Methylation sequencing reads&#45;&gt;sorted alignment BAM</title>
<path fill="none" stroke="black" d="M1699.05,-1204.49C1699.05,-1192.86 1699.05,-1177.24 1699.05,-1163.93"/>
<polygon fill="black" stroke="black" points="1702.55,-1163.87 1699.05,-1153.87 1695.55,-1163.87 1702.55,-1163.87"/>
<text text-anchor="middle" x="1718.05" y="-1175.49" font-family="Times,serif" font-size="14.00">aligner</text>
</g>
<!-- sorted alignment BAM&#45;&gt;MethylDackel extract &#45;@ 16 &#45;q &lt;cutoff&gt;\n&#45;&#45;CHH &#45;&#45;CHG &#45;&#45;OT 2,0,0,97_2 -->
<g id="edge11" class="edge">
<title>sorted alignment BAM&#45;&gt;MethylDackel extract &#45;@ 16 &#45;q &lt;cutoff&gt;\n&#45;&#45;CHH &#45;&#45;CHG &#45;&#45;OT 2,0,0,97_2</title>
<path fill="none" stroke="black" d="M1680.42,-1117.82C1665.85,-1104.64 1645,-1085.77 1626.33,-1068.87"/>
<polygon fill="black" stroke="black" points="1628.25,-1065.89 1618.49,-1061.77 1623.56,-1071.08 1628.25,-1065.89"/>
</g>
<!-- MapQ cutoff -->
<g id="node7" class="node">
<title>MapQ cutoff</title>
<polygon fill="none" stroke="black" points="1942.14,-1135.69 1909.1,-1153.69 1843.01,-1153.69 1809.97,-1135.69 1843.01,-1117.69 1909.1,-1117.69 1942.14,-1135.69"/>
<text text-anchor="middle" x="1876.05" y="-1131.99" font-family="Times,serif" font-size="14.00">MapQ cutoff</text>
</g>
<!-- MapQ cutoff&#45;&gt;MethylDackel extract &#45;@ 16 &#45;q &lt;cutoff&gt;\n&#45;&#45;CHH &#45;&#45;CHG &#45;&#45;OT 2,0,0,97_2 -->
<g id="edge4" class="edge">
<title>MapQ cutoff&#45;&gt;MethylDackel extract &#45;@ 16 &#45;q &lt;cutoff&gt;\n&#45;&#45;CHH &#45;&#45;CHG &#45;&#45;OT 2,0,0,97_2</title>
<path fill="none" stroke="black" d="M1837.14,-1120.75C1793.73,-1105.19 1722.23,-1079.57 1666.12,-1059.46"/>
<polygon fill="black" stroke="black" points="1667.14,-1056.11 1656.54,-1056.03 1664.78,-1062.7 1667.14,-1056.11"/>
<text text-anchor="middle" x="1788.55" y="-1088.49" font-family="Times,serif" font-size="14.00">cutoff</text>
</g>
<!-- sort &#45;k1,1 &#45;k2,2n_2 -->
<g id="node8" class="node">
<title>sort &#45;k1,1 &#45;k2,2n_2</title>
<polygon fill="#d9d9d9" stroke="#d9d9d9" points="1583.05,-880.69 1484.01,-862.69 1583.05,-844.69 1682.09,-862.69 1583.05,-880.69"/>
<text text-anchor="middle" x="1583.05" y="-858.99" font-family="Times,serif" font-size="14.00">sort &#45;k1,1 &#45;k2,2n</text>
</g>
<!-- sorted methyl calls bedGraph -->
<g id="node9" class="node">
<title>sorted methyl calls bedGraph</title>
<ellipse fill="none" stroke="black" cx="1583.05" cy="-789.69" rx="115.08" ry="18"/>
<text text-anchor="middle" x="1583.05" y="-785.99" font-family="Times,serif" font-size="14.00">sorted methyl calls bedGraph</text>
</g>
<!-- sort &#45;k1,1 &#45;k2,2n_2&#45;&gt;sorted methyl calls bedGraph -->
<g id="edge6" class="edge">
<title>sort &#45;k1,1 &#45;k2,2n_2&#45;&gt;sorted methyl calls bedGraph</title>
<path fill="none" stroke="black" d="M1583.05,-844.51C1583.05,-836.48 1583.05,-826.74 1583.05,-817.76"/>
<polygon fill="black" stroke="black" points="1586.55,-817.72 1583.05,-807.72 1579.55,-817.72 1586.55,-817.72"/>
</g>
<!-- sorted methyl calls bedGraph\n(no headers) -->
<g id="node10" class="node">
<title>sorted methyl calls bedGraph\n(no headers)</title>
<polygon fill="none" stroke="black" points="1766.56,-720.69 1474.64,-720.69 1399.54,-644.69 1691.47,-644.69 1766.56,-720.69"/>
<text text-anchor="middle" x="1583.05" y="-686.49" font-family="Times,serif" font-size="14.00">sorted methyl calls bedGraph</text>
<text text-anchor="middle" x="1583.05" y="-671.49" font-family="Times,serif" font-size="14.00">(no headers)</text>
</g>
<!-- sorted methyl calls bedGraph&#45;&gt;sorted methyl calls bedGraph\n(no headers) -->
<g id="edge7" class="edge">
<title>sorted methyl calls bedGraph&#45;&gt;sorted methyl calls bedGraph\n(no headers)</title>
<path fill="none" stroke="black" d="M1583.05,-771.35C1583.05,-760.39 1583.05,-745.63 1583.05,-731.35"/>
<polygon fill="black" stroke="black" points="1586.55,-731.11 1583.05,-721.11 1579.55,-731.11 1586.55,-731.11"/>
<text text-anchor="middle" x="1611.05" y="-742.49" font-family="Times,serif" font-size="14.00">head &#45;n &#45;3</text>
</g>
<!-- bedtools intersect &#45;u_2 -->
<g id="node14" class="node">
<title>bedtools intersect &#45;u_2</title>
<polygon fill="#d9d9d9" stroke="#d9d9d9" points="851.05,-593.69 565.05,-555.69 851.05,-517.69 1137.05,-555.69 851.05,-593.69"/>
<text text-anchor="middle" x="851.05" y="-559.49" font-family="Times,serif" font-size="14.00">bedtools intersect &#45;u &#45;sorted </text>
<text text-anchor="middle" x="851.05" y="-544.49" font-family="Times,serif" font-size="14.00">&#45;a &lt;methyl calls&gt; &#45;b &lt;low map. clinvar regions&gt;</text>
</g>
<!-- sorted methyl calls bedGraph\n(no headers)&#45;&gt;bedtools intersect &#45;u_2 -->
<g id="edge15" class="edge">
<title>sorted methyl calls bedGraph\n(no headers)&#45;&gt;bedtools intersect &#45;u_2</title>
<path fill="none" stroke="black" d="M1402.52,-648C1338.06,-636.2 1264.86,-623.06 1198.05,-611.69 1129.85,-600.09 1053.96,-587.97 990.58,-578.07"/>
<polygon fill="black" stroke="black" points="990.94,-574.58 980.52,-576.5 989.86,-581.5 990.94,-574.58"/>
<text text-anchor="middle" x="1316.55" y="-615.49" font-family="Times,serif" font-size="14.00">methyl calls</text>
</g>
<!-- bedtools intersect &#45;u_2b -->
<g id="node15" class="node">
<title>bedtools intersect &#45;u_2b</title>
<polygon fill="#d9d9d9" stroke="#d9d9d9" points="1988.05,-593.69 1743.05,-555.69 1988.05,-517.69 2233.05,-555.69 1988.05,-593.69"/>
<text text-anchor="middle" x="1988.05" y="-559.49" font-family="Times,serif" font-size="14.00">bedtools intersect &#45;u &#45;sorted </text>
<text text-anchor="middle" x="1988.05" y="-544.49" font-family="Times,serif" font-size="14.00">&#45;a &lt;methyl calls&gt; &#45;b &lt;low map. regions&gt;</text>
</g>
<!-- sorted methyl calls bedGraph\n(no headers)&#45;&gt;bedtools intersect &#45;u_2b -->
<g id="edge16" class="edge">
<title>sorted methyl calls bedGraph\n(no headers)&#45;&gt;bedtools intersect &#45;u_2b</title>
<path fill="none" stroke="black" d="M1692.91,-646.06C1727.76,-634.9 1766.48,-622.64 1802.05,-611.69 1832.13,-602.44 1865.02,-592.62 1894.68,-583.87"/>
<polygon fill="black" stroke="black" points="1896,-587.13 1904.6,-580.95 1894.02,-580.41 1896,-587.13"/>
<text text-anchor="middle" x="1835.55" y="-615.49" font-family="Times,serif" font-size="14.00">methyl calls</text>
</g>
<!-- bedtools intersect &#45;u_2c -->
<g id="node16" class="node">
<title>bedtools intersect &#45;u_2c</title>
<polygon fill="#d9d9d9" stroke="#d9d9d9" points="2481.05,-593.69 2251.05,-555.69 2481.05,-517.69 2711.05,-555.69 2481.05,-593.69"/>
<text text-anchor="middle" x="2481.05" y="-559.49" font-family="Times,serif" font-size="14.00">bedtools intersect &#45;u &#45;sorted </text>
<text text-anchor="middle" x="2481.05" y="-544.49" font-family="Times,serif" font-size="14.00">&#45;a &lt;methyl calls&gt; &#45;b &lt;clinvar regions&gt;</text>
</g>
<!-- sorted methyl calls bedGraph\n(no headers)&#45;&gt;bedtools intersect &#45;u_2c -->
<g id="edge17" class="edge">
<title>sorted methyl calls bedGraph\n(no headers)&#45;&gt;bedtools intersect &#45;u_2c</title>
<path fill="none" stroke="black" d="M1707.61,-660.9C1758.01,-651.67 1816.59,-639.89 1869.05,-626.69 1890.73,-621.24 1895.06,-615.68 1917.05,-611.69 2059.4,-585.92 2098.18,-608.78 2242.05,-593.69 2281.34,-589.57 2324.04,-583.48 2362.33,-577.43"/>
<polygon fill="black" stroke="black" points="2363.16,-580.84 2372.48,-575.81 2362.06,-573.93 2363.16,-580.84"/>
<text text-anchor="middle" x="1950.55" y="-615.49" font-family="Times,serif" font-size="14.00">methyl calls</text>
</g>
<!-- awkfilter1 -->
<g id="node17" class="node">
<title>awkfilter1</title>
<polygon fill="#d9d9d9" stroke="#d9d9d9" points="204.05,-573.69 -0.05,-555.69 204.05,-537.69 408.16,-555.69 204.05,-573.69"/>
<text text-anchor="middle" x="204.05" y="-551.99" font-family="Times,serif" font-size="14.00">awk &#39;($4 == 100 || $4 == 0) { print }&#39;</text>
</g>
<!-- sorted methyl calls bedGraph\n(no headers)&#45;&gt;awkfilter1 -->
<g id="edge18" class="edge">
<title>sorted methyl calls bedGraph\n(no headers)&#45;&gt;awkfilter1</title>
<path fill="none" stroke="black" d="M1415.96,-661.54C1248.7,-641.43 1013.13,-613.27 992.05,-611.69 739.3,-592.77 674.25,-618.96 422.05,-593.69 371.31,-588.61 314.52,-578.84 271.63,-570.61"/>
<polygon fill="black" stroke="black" points="272.08,-567.13 261.59,-568.67 270.75,-574.01 272.08,-567.13"/>
<text text-anchor="middle" x="1153.55" y="-615.49" font-family="Times,serif" font-size="14.00">methyl calls</text>
</g>
<!-- awkfilter2 -->
<g id="node18" class="node">
<title>awkfilter2</title>
<polygon fill="#d9d9d9" stroke="#d9d9d9" points="1367.05,-573.69 1154.9,-555.69 1367.05,-537.69 1579.2,-555.69 1367.05,-573.69"/>
<text text-anchor="middle" x="1367.05" y="-551.99" font-family="Times,serif" font-size="14.00">awk &#39;($4 != 100 &amp;&amp; $4 != 0) { print }&#39;</text>
</g>
<!-- sorted methyl calls bedGraph\n(no headers)&#45;&gt;awkfilter2 -->
<g id="edge19" class="edge">
<title>sorted methyl calls bedGraph\n(no headers)&#45;&gt;awkfilter2</title>
<path fill="none" stroke="black" d="M1518.83,-644.53C1480.46,-622.32 1433.22,-594.98 1401.73,-576.76"/>
<polygon fill="black" stroke="black" points="1403.3,-573.62 1392.89,-571.64 1399.79,-579.68 1403.3,-573.62"/>
<text text-anchor="middle" x="1521.55" y="-615.49" font-family="Times,serif" font-size="14.00">methyl calls</text>
</g>
<!-- POSTPROC_1 -->
<!-- sorted methyl calls bedGraph\n(no headers)&#45;&gt;POSTPROC_1 -->
<g id="edge48" class="edge">
<title>sorted methyl calls bedGraph\n(no headers)&#45;&gt;POSTPROC_1</title>
<path fill="none" stroke="black" stroke-dasharray="1,5" d="M1606.24,-644.53C1618.71,-624.55 1633.77,-600.41 1644.95,-582.5"/>
<polygon fill="black" stroke="black" points="1648.08,-584.09 1650.4,-573.76 1642.14,-580.39 1648.08,-584.09"/>
<text text-anchor="middle" x="1674.55" y="-615.49" font-family="Times,serif" font-size="14.00">to postprocessing</text>
</g>
<!-- CpG&#45;&gt;sort &#45;k1,1 &#45;k2,2n_2 -->
<g id="edge8" class="edge">
<title>CpG&#45;&gt;sort &#45;k1,1 &#45;k2,2n_2</title>
<path fill="none" stroke="black" d="M1523.23,-920.33C1533.9,-910.22 1548.37,-896.52 1560.41,-885.13"/>
<polygon fill="black" stroke="black" points="1563.04,-887.46 1567.9,-878.04 1558.23,-882.37 1563.04,-887.46"/>
</g>
<!-- CHG&#45;&gt;sort &#45;k1,1 &#45;k2,2n_2 -->
<g id="edge9" class="edge">
<title>CHG&#45;&gt;sort &#45;k1,1 &#45;k2,2n_2</title>
<path fill="none" stroke="black" d="M1583.05,-917.51C1583.05,-909.48 1583.05,-899.74 1583.05,-890.76"/>
<polygon fill="black" stroke="black" points="1586.55,-890.72 1583.05,-880.72 1579.55,-890.72 1586.55,-890.72"/>
</g>
<!-- CHH&#45;&gt;sort &#45;k1,1 &#45;k2,2n_2 -->
<g id="edge10" class="edge">
<title>CHH&#45;&gt;sort &#45;k1,1 &#45;k2,2n_2</title>
<path fill="none" stroke="black" d="M1643.67,-920.33C1632.86,-910.22 1618.2,-896.52 1606,-885.13"/>
<polygon fill="black" stroke="black" points="1608.11,-882.31 1598.41,-878.04 1603.33,-887.42 1608.11,-882.31"/>
</g>
<!-- methylation calls in low\nmappability regions in ClinVar regions -->
<g id="node28" class="node">
<title>methylation calls in low\nmappability regions in ClinVar regions</title>
<ellipse fill="none" stroke="black" cx="851.05" cy="-439.82" rx="161.85" ry="26.74"/>
<text text-anchor="middle" x="851.05" y="-443.62" font-family="Times,serif" font-size="14.00">methylation calls in low</text>
<text text-anchor="middle" x="851.05" y="-428.62" font-family="Times,serif" font-size="14.00">mappability regions in ClinVar regions</text>
</g>
<!-- bedtools intersect &#45;u_2&#45;&gt;methylation calls in low\nmappability regions in ClinVar regions -->
<g id="edge28" class="edge">
<title>bedtools intersect &#45;u_2&#45;&gt;methylation calls in low\nmappability regions in ClinVar regions</title>
<path fill="none" stroke="black" d="M851.05,-517.41C851.05,-504.54 851.05,-490.14 851.05,-477.33"/>
<polygon fill="black" stroke="black" points="854.55,-477.01 851.05,-467.01 847.55,-477.01 854.55,-477.01"/>
</g>
<!-- methylation calls in low\nmappability regions -->
<g id="node29" class="node">
<title>methylation calls in low\nmappability regions</title>
<ellipse fill="none" stroke="black" cx="1988.05" cy="-439.82" rx="105.22" ry="26.74"/>
<text text-anchor="middle" x="1988.05" y="-443.62" font-family="Times,serif" font-size="14.00">methylation calls in low</text>
<text text-anchor="middle" x="1988.05" y="-428.62" font-family="Times,serif" font-size="14.00">mappability regions</text>
</g>
<!-- bedtools intersect &#45;u_2b&#45;&gt;methylation calls in low\nmappability regions -->
<g id="edge29" class="edge">
<title>bedtools intersect &#45;u_2b&#45;&gt;methylation calls in low\nmappability regions</title>
<path fill="none" stroke="black" d="M1988.05,-517.41C1988.05,-504.54 1988.05,-490.14 1988.05,-477.33"/>
<polygon fill="black" stroke="black" points="1991.55,-477.01 1988.05,-467.01 1984.55,-477.01 1991.55,-477.01"/>
</g>
<!-- methylation calls in ClinVar regions -->
<g id="node30" class="node">
<title>methylation calls in ClinVar regions</title>
<ellipse fill="none" stroke="black" cx="2481.05" cy="-439.82" rx="139.18" ry="18"/>
<text text-anchor="middle" x="2481.05" y="-436.12" font-family="Times,serif" font-size="14.00">methylation calls in ClinVar regions</text>
</g>
<!-- bedtools intersect &#45;u_2c&#45;&gt;methylation calls in ClinVar regions -->
<g id="edge30" class="edge">
<title>bedtools intersect &#45;u_2c&#45;&gt;methylation calls in ClinVar regions</title>
<path fill="none" stroke="black" d="M2481.05,-517.41C2481.05,-501.33 2481.05,-482.87 2481.05,-468.11"/>
<polygon fill="black" stroke="black" points="2484.55,-468.09 2481.05,-458.09 2477.55,-468.09 2484.55,-468.09"/>
</g>
<!-- pure methylation calls -->
<g id="node39" class="node">
<title>pure methylation calls</title>
<polygon fill="none" stroke="black" points="313.56,-457.82 104.36,-457.82 50.54,-421.82 259.75,-421.82 313.56,-457.82"/>
<text text-anchor="middle" x="182.05" y="-436.12" font-family="Times,serif" font-size="14.00">pure methylation calls</text>
</g>
<!-- awkfilter1&#45;&gt;pure methylation calls -->
<g id="edge36" class="edge">
<title>awkfilter1&#45;&gt;pure methylation calls</title>
<path fill="none" stroke="black" d="M200.81,-537.89C197.25,-519.5 191.5,-489.73 187.3,-468"/>
<polygon fill="black" stroke="black" points="190.72,-467.22 185.38,-458.07 183.85,-468.55 190.72,-467.22"/>
</g>
<!-- mixed methylation calls -->
<g id="node40" class="node">
<title>mixed methylation calls</title>
<polygon fill="none" stroke="black" points="1509.03,-457.82 1283.18,-457.82 1225.08,-421.82 1450.93,-421.82 1509.03,-457.82"/>
<text text-anchor="middle" x="1367.05" y="-436.12" font-family="Times,serif" font-size="14.00">mixed methylation calls</text>
</g>
<!-- awkfilter2&#45;&gt;mixed methylation calls -->
<g id="edge37" class="edge">
<title>awkfilter2&#45;&gt;mixed methylation calls</title>
<path fill="none" stroke="black" d="M1367.05,-537.4C1367.05,-518.98 1367.05,-489.58 1367.05,-468.05"/>
<polygon fill="black" stroke="black" points="1370.55,-467.91 1367.05,-457.91 1363.55,-467.91 1370.55,-467.91"/>
</g>
<!-- sorted low mappability regions\nin ClinVar annotations 2 -->
<g id="node19" class="node">
<title>sorted low mappability regions\nin ClinVar annotations 2</title>
<ellipse fill="none" stroke="black" cx="851.05" cy="-682.69" rx="131.54" ry="26.74"/>
<text text-anchor="middle" x="851.05" y="-686.49" font-family="Times,serif" font-size="14.00">sorted low mappability regions</text>
<text text-anchor="middle" x="851.05" y="-671.49" font-family="Times,serif" font-size="14.00">in ClinVar annotations</text>
</g>
<!-- sorted low mappability regions\nin ClinVar annotations 2&#45;&gt;bedtools intersect &#45;u_2 -->
<g id="edge23" class="edge">
<title>sorted low mappability regions\nin ClinVar annotations 2&#45;&gt;bedtools intersect &#45;u_2</title>
<path fill="none" stroke="black" d="M851.05,-655.79C851.05,-640.85 851.05,-621.59 851.05,-604.04"/>
<polygon fill="black" stroke="black" points="854.55,-603.94 851.05,-593.94 847.55,-603.94 854.55,-603.94"/>
<text text-anchor="middle" x="919.55" y="-615.49" font-family="Times,serif" font-size="14.00">low map. clinvar regions</text>
</g>
<!-- sorted low mappability regions 2 -->
<g id="node20" class="node">
<title>sorted low mappability regions 2</title>
<ellipse fill="none" stroke="black" cx="1988.05" cy="-682.69" rx="131.54" ry="26.74"/>
<text text-anchor="middle" x="1988.05" y="-686.49" font-family="Times,serif" font-size="14.00">sorted low mappability regions</text>
<text text-anchor="middle" x="1988.05" y="-671.49" font-family="Times,serif" font-size="14.00">in genome</text>
</g>
<!-- sorted low mappability regions 2&#45;&gt;bedtools intersect &#45;u_2b -->
<g id="edge24" class="edge">
<title>sorted low mappability regions 2&#45;&gt;bedtools intersect &#45;u_2b</title>
<path fill="none" stroke="black" d="M1988.05,-655.79C1988.05,-640.85 1988.05,-621.59 1988.05,-604.04"/>
<polygon fill="black" stroke="black" points="1991.55,-603.94 1988.05,-593.94 1984.55,-603.94 1991.55,-603.94"/>
<text text-anchor="middle" x="2036.05" y="-615.49" font-family="Times,serif" font-size="14.00">low map. regions</text>
</g>
<!-- sorted clinvar regions 3 -->
<g id="node21" class="node">
<title>sorted clinvar regions 3</title>
<ellipse fill="none" stroke="black" cx="2481.05" cy="-682.69" rx="98.08" ry="26.74"/>
<text text-anchor="middle" x="2481.05" y="-686.49" font-family="Times,serif" font-size="14.00">sorted ClinVar regions</text>
<text text-anchor="middle" x="2481.05" y="-671.49" font-family="Times,serif" font-size="14.00">in genome</text>
</g>
<!-- sorted clinvar regions 3&#45;&gt;bedtools intersect &#45;u_2c -->
<g id="edge25" class="edge">
<title>sorted clinvar regions 3&#45;&gt;bedtools intersect &#45;u_2c</title>
<path fill="none" stroke="black" d="M2481.05,-655.79C2481.05,-640.85 2481.05,-621.59 2481.05,-604.04"/>
<polygon fill="black" stroke="black" points="2484.55,-603.94 2481.05,-593.94 2477.55,-603.94 2484.55,-603.94"/>
<text text-anchor="middle" x="2522.05" y="-615.49" font-family="Times,serif" font-size="14.00">clinvar regions</text>
</g>
<!-- PREPROC_2 -->
<!-- PREPROC_2&#45;&gt;sorted low mappability regions\nin ClinVar annotations 2 -->
<g id="edge20" class="edge">
<title>PREPROC_2&#45;&gt;sorted low mappability regions\nin ClinVar annotations 2</title>
<path fill="none" stroke="black" stroke-dasharray="1,5" d="M851.05,-771.35C851.05,-757.46 851.05,-737.49 851.05,-720.12"/>
<polygon fill="black" stroke="black" points="854.55,-719.72 851.05,-709.72 847.55,-719.72 854.55,-719.72"/>
<text text-anchor="middle" x="904.05" y="-742.49" font-family="Times,serif" font-size="14.00">from preprocessing</text>
</g>
<!-- PREPROC_4 -->
<!-- PREPROC_4&#45;&gt;sorted low mappability regions 2 -->
<g id="edge21" class="edge">
<title>PREPROC_4&#45;&gt;sorted low mappability regions 2</title>
<path fill="none" stroke="black" stroke-dasharray="1,5" d="M1988.05,-771.35C1988.05,-757.46 1988.05,-737.49 1988.05,-720.12"/>
<polygon fill="black" stroke="black" points="1991.55,-719.72 1988.05,-709.72 1984.55,-719.72 1991.55,-719.72"/>
<text text-anchor="middle" x="2041.05" y="-742.49" font-family="Times,serif" font-size="14.00">from preprocessing</text>
</g>
<!-- PREPROC_5 -->
<!-- PREPROC_5&#45;&gt;sorted clinvar regions 3 -->
<g id="edge22" class="edge">
<title>PREPROC_5&#45;&gt;sorted clinvar regions 3</title>
<path fill="none" stroke="black" stroke-dasharray="1,5" d="M2481.05,-771.35C2481.05,-757.46 2481.05,-737.49 2481.05,-720.12"/>
<polygon fill="black" stroke="black" points="2484.55,-719.72 2481.05,-709.72 2477.55,-719.72 2484.55,-719.72"/>
<text text-anchor="middle" x="2534.05" y="-742.49" font-family="Times,serif" font-size="14.00">from preprocessing</text>
</g>
<!-- sorted low mappability ClinVar regions 2 -->
<g id="node25" class="node">
<title>sorted low mappability ClinVar regions 2</title>
<ellipse fill="none" stroke="black" cx="505.05" cy="-439.82" rx="150.57" ry="18"/>
<text text-anchor="middle" x="505.05" y="-436.12" font-family="Times,serif" font-size="14.00">sorted low mappability ClinVar regions</text>
</g>
<!-- bedtools intersect &#45;u_3b -->
<g id="node27" class="node">
<title>bedtools intersect &#45;u_3b</title>
<polygon fill="#d9d9d9" stroke="#d9d9d9" points="519.05,-361.95 259.05,-323.95 519.05,-285.95 779.05,-323.95 519.05,-361.95"/>
<text text-anchor="middle" x="519.05" y="-327.75" font-family="Times,serif" font-size="14.00">bedtools intersect &#45;wa &#45;sorted </text>
<text text-anchor="middle" x="519.05" y="-312.75" font-family="Times,serif" font-size="14.00">&#45;a &lt;ClinVar low map.&gt; &#45;b &lt;low map. calls&gt;</text>
</g>
<!-- sorted low mappability ClinVar regions 2&#45;&gt;bedtools intersect &#45;u_3b -->
<g id="edge27" class="edge">
<title>sorted low mappability ClinVar regions 2&#45;&gt;bedtools intersect &#45;u_3b</title>
<path fill="none" stroke="black" d="M507.18,-421.53C508.8,-408.32 511.12,-389.46 513.28,-371.9"/>
<polygon fill="black" stroke="black" points="516.78,-372.12 514.53,-361.77 509.83,-371.27 516.78,-372.12"/>
<text text-anchor="middle" x="561.05" y="-383.75" font-family="Times,serif" font-size="14.00">ClinVar low map.</text>
</g>
<!-- PREPROC_3 -->
<!-- PREPROC_3&#45;&gt;sorted low mappability ClinVar regions 2 -->
<g id="edge26" class="edge">
<title>PREPROC_3&#45;&gt;sorted low mappability ClinVar regions 2</title>
<path fill="none" stroke="black" stroke-dasharray="1,5" d="M491.48,-537.4C494.07,-518.98 498.2,-489.58 501.23,-468.05"/>
<polygon fill="black" stroke="black" points="504.73,-468.3 502.65,-457.91 497.79,-467.32 504.73,-468.3"/>
<text text-anchor="middle" x="552.05" y="-488.49" font-family="Times,serif" font-size="14.00">from preprocessing</text>
</g>
<!-- ClinVar regions for each low map. methylation call -->
<g id="node32" class="node">
<title>ClinVar regions for each low map. methylation call</title>
<ellipse fill="none" stroke="black" cx="505.05" cy="-211.48" rx="193.87" ry="18"/>
<text text-anchor="middle" x="505.05" y="-207.78" font-family="Times,serif" font-size="14.00">ClinVar regions for each low map. methylation call</text>
</g>
<!-- bedtools intersect &#45;u_3b&#45;&gt;ClinVar regions for each low map. methylation call -->
<g id="edge32" class="edge">
<title>bedtools intersect &#45;u_3b&#45;&gt;ClinVar regions for each low map. methylation call</title>
<path fill="none" stroke="black" d="M514.43,-286.47C512.5,-271.25 510.3,-253.86 508.51,-239.77"/>
<polygon fill="black" stroke="black" points="511.97,-239.21 507.24,-229.73 505.02,-240.09 511.97,-239.21"/>
</g>
<!-- methylation calls in low\nmappability regions in ClinVar regions&#45;&gt;bedtools intersect &#45;u_3b -->
<g id="edge31" class="edge">
<title>methylation calls in low\nmappability regions in ClinVar regions&#45;&gt;bedtools intersect &#45;u_3b</title>
<path fill="none" stroke="black" d="M782.66,-415.37C731.09,-397.68 660.03,-373.3 604.67,-354.32"/>
<polygon fill="black" stroke="black" points="605.48,-350.9 594.88,-350.96 603.21,-357.52 605.48,-350.9"/>
<text text-anchor="middle" x="755.55" y="-383.75" font-family="Times,serif" font-size="14.00">low map. calls</text>
</g>
<!-- awkaligner1 -->
<g id="node36" class="node">
<title>awkaligner1</title>
<polygon fill="#d9d9d9" stroke="#d9d9d9" points="968.05,-341.95 797.96,-323.95 968.05,-305.95 1138.14,-323.95 968.05,-341.95"/>
<text text-anchor="middle" x="968.05" y="-320.25" font-family="Times,serif" font-size="14.00">awk &#39;{ print $0&quot;\t&lt;aligner&gt;&quot; }&#39;</text>
</g>
<!-- methylation calls in low\nmappability regions in ClinVar regions&#45;&gt;awkaligner1 -->
<g id="edge38" class="edge">
<title>methylation calls in low\nmappability regions in ClinVar regions&#45;&gt;awkaligner1</title>
<path fill="none" stroke="black" d="M877.31,-413.27C897.53,-393.59 925.23,-366.63 944.69,-347.69"/>
<polygon fill="black" stroke="black" points="947.24,-350.09 951.97,-340.61 942.36,-345.08 947.24,-350.09"/>
</g>
<!-- awkaligner2 -->
<g id="node37" class="node">
<title>awkaligner2</title>
<polygon fill="#d9d9d9" stroke="#d9d9d9" points="1988.05,-341.95 1817.96,-323.95 1988.05,-305.95 2158.14,-323.95 1988.05,-341.95"/>
<text text-anchor="middle" x="1988.05" y="-320.25" font-family="Times,serif" font-size="14.00">awk &#39;{ print $0&quot;\t&lt;aligner&gt;&quot; }&#39;</text>
</g>
<!-- methylation calls in low\nmappability regions&#45;&gt;awkaligner2 -->
<g id="edge41" class="edge">
<title>methylation calls in low\nmappability regions&#45;&gt;awkaligner2</title>
<path fill="none" stroke="black" d="M1988.05,-412.7C1988.05,-394.59 1988.05,-370.52 1988.05,-352.17"/>
<polygon fill="black" stroke="black" points="1991.55,-352.12 1988.05,-342.12 1984.55,-352.12 1991.55,-352.12"/>
</g>
<!-- bedtools intersect &#45;u_3c -->
<g id="node31" class="node">
<title>bedtools intersect &#45;u_3c</title>
<polygon fill="#d9d9d9" stroke="#d9d9d9" points="2478.05,-361.95 2297.05,-323.95 2478.05,-285.95 2659.05,-323.95 2478.05,-361.95"/>
<text text-anchor="middle" x="2478.05" y="-327.75" font-family="Times,serif" font-size="14.00">bedtools intersect &#45;wa &#45;sorted </text>
<text text-anchor="middle" x="2478.05" y="-312.75" font-family="Times,serif" font-size="14.00">&#45;a &lt;ClinVar&gt; &#45;b &lt;calls&gt;</text>
</g>
<!-- methylation calls in ClinVar regions&#45;&gt;bedtools intersect &#45;u_3c -->
<g id="edge40" class="edge">
<title>methylation calls in ClinVar regions&#45;&gt;bedtools intersect &#45;u_3c</title>
<path fill="none" stroke="black" d="M2480.6,-421.53C2480.25,-408.32 2479.75,-389.46 2479.29,-371.9"/>
<polygon fill="black" stroke="black" points="2482.79,-371.67 2479.02,-361.77 2475.79,-371.86 2482.79,-371.67"/>
<text text-anchor="middle" x="2512.55" y="-383.75" font-family="Times,serif" font-size="14.00">clinvar calls</text>
</g>
<!-- awkaligner3 -->
<g id="node38" class="node">
<title>awkaligner3</title>
<polygon fill="#d9d9d9" stroke="#d9d9d9" points="2877.05,-341.95 2706.96,-323.95 2877.05,-305.95 3047.14,-323.95 2877.05,-341.95"/>
<text text-anchor="middle" x="2877.05" y="-320.25" font-family="Times,serif" font-size="14.00">awk &#39;{ print $0&quot;\t&lt;aligner&gt;&quot; }&#39;</text>
</g>
<!-- methylation calls in ClinVar regions&#45;&gt;awkaligner3 -->
<g id="edge39" class="edge">
<title>methylation calls in ClinVar regions&#45;&gt;awkaligner3</title>
<path fill="none" stroke="black" d="M2535.28,-423.23C2611.31,-401.37 2748.67,-361.87 2824.04,-340.2"/>
<polygon fill="black" stroke="black" points="2825.16,-343.52 2833.8,-337.39 2823.22,-336.79 2825.16,-343.52"/>
</g>
<!-- ClinVar regions for each methylation call -->
<g id="node33" class="node">
<title>ClinVar regions for each methylation call</title>
<ellipse fill="none" stroke="black" cx="2460.05" cy="-211.48" rx="157.07" ry="18"/>
<text text-anchor="middle" x="2460.05" y="-207.78" font-family="Times,serif" font-size="14.00">ClinVar regions for each methylation call</text>
</g>
<!-- bedtools intersect &#45;u_3c&#45;&gt;ClinVar regions for each methylation call -->
<g id="edge33" class="edge">
<title>bedtools intersect &#45;u_3c&#45;&gt;ClinVar regions for each methylation call</title>
<path fill="none" stroke="black" d="M2472.21,-287.08C2469.71,-271.72 2466.83,-254.07 2464.5,-239.79"/>
<polygon fill="black" stroke="black" points="2467.91,-238.93 2462.85,-229.63 2461,-240.06 2467.91,-238.93"/>
</g>
<!-- ClinVar regions with count of low map. methylation calls -->
<g id="node34" class="node">
<title>ClinVar regions with count of low map. methylation calls</title>
<polygon fill="none" stroke="black" points="744.3,-123 241.22,-123 111.8,-87 614.89,-87 744.3,-123"/>
<text text-anchor="middle" x="428.05" y="-101.3" font-family="Times,serif" font-size="14.00">ClinVar regions with count of low map. methylation calls</text>
</g>
<!-- ClinVar regions for each low map. methylation call&#45;&gt;ClinVar regions with count of low map. methylation calls -->
<g id="edge34" class="edge">
<title>ClinVar regions for each low map. methylation call&#45;&gt;ClinVar regions with count of low map. methylation calls</title>
<path fill="none" stroke="black" d="M492.34,-193.22C479.97,-176.44 461.02,-150.73 446.9,-131.57"/>
<polygon fill="black" stroke="black" points="449.54,-129.25 440.79,-123.28 443.9,-133.4 449.54,-129.25"/>
<text text-anchor="middle" x="504.55" y="-144.8" font-family="Times,serif" font-size="14.00">count_calls.py</text>
</g>
<!-- ClinVar regions with count of methylation calls -->
<g id="node35" class="node">
<title>ClinVar regions with count of methylation calls</title>
<polygon fill="none" stroke="black" points="2715.08,-123 2296.67,-123 2189.03,-87 2607.44,-87 2715.08,-123"/>
<text text-anchor="middle" x="2452.05" y="-101.3" font-family="Times,serif" font-size="14.00">ClinVar regions with count of methylation calls</text>
</g>
<!-- ClinVar regions for each methylation call&#45;&gt;ClinVar regions with count of methylation calls -->
<g id="edge35" class="edge">
<title>ClinVar regions for each methylation call&#45;&gt;ClinVar regions with count of methylation calls</title>
<path fill="none" stroke="black" d="M2458.73,-193.22C2457.49,-176.97 2455.6,-152.34 2454.15,-133.4"/>
<polygon fill="black" stroke="black" points="2457.63,-132.98 2453.38,-123.28 2450.65,-133.52 2457.63,-132.98"/>
<text text-anchor="middle" x="2494.55" y="-144.8" font-family="Times,serif" font-size="14.00">count_calls.py</text>
</g>
<!-- POSTPROC_6 -->
<!-- ClinVar regions with count of low map. methylation calls&#45;&gt;POSTPROC_6 -->
<g id="edge53" class="edge">
<title>ClinVar regions with count of low map. methylation calls&#45;&gt;POSTPROC_6</title>
<path fill="none" stroke="black" stroke-dasharray="1,5" d="M428.05,-86.8C428.05,-75.16 428.05,-59.55 428.05,-46.24"/>
<polygon fill="black" stroke="black" points="431.55,-46.18 428.05,-36.18 424.55,-46.18 431.55,-46.18"/>
<text text-anchor="middle" x="475.55" y="-57.8" font-family="Times,serif" font-size="14.00">to postprocessing</text>
</g>
<!-- POSTPROC_5 -->
<!-- ClinVar regions with count of methylation calls&#45;&gt;POSTPROC_5 -->
<g id="edge52" class="edge">
<title>ClinVar regions with count of methylation calls&#45;&gt;POSTPROC_5</title>
<path fill="none" stroke="black" stroke-dasharray="1,5" d="M2452.05,-86.8C2452.05,-75.16 2452.05,-59.55 2452.05,-46.24"/>
<polygon fill="black" stroke="black" points="2455.55,-46.18 2452.05,-36.18 2448.55,-46.18 2455.55,-46.18"/>
<text text-anchor="middle" x="2499.55" y="-57.8" font-family="Times,serif" font-size="14.00">to postprocessing</text>
</g>
<!-- methylation calls in low\nmappability regions in ClinVar regions\nwith identifier column -->
<g id="node42" class="node">
<title>methylation calls in low\nmappability regions in ClinVar regions\nwith identifier column</title>
<ellipse fill="none" stroke="black" cx="973.05" cy="-211.48" rx="161.85" ry="37.45"/>
<text text-anchor="middle" x="973.05" y="-222.78" font-family="Times,serif" font-size="14.00">methylation calls in low</text>
<text text-anchor="middle" x="973.05" y="-207.78" font-family="Times,serif" font-size="14.00">mappability regions in ClinVar regions</text>
<text text-anchor="middle" x="973.05" y="-192.78" font-family="Times,serif" font-size="14.00">with identifier column</text>
</g>
<!-- awkaligner1&#45;&gt;methylation calls in low\nmappability regions in ClinVar regions\nwith identifier column -->
<g id="edge43" class="edge">
<title>awkaligner1&#45;&gt;methylation calls in low\nmappability regions in ClinVar regions\nwith identifier column</title>
<path fill="none" stroke="black" d="M968.83,-305.69C969.4,-293.23 970.19,-275.76 970.93,-259.32"/>
<polygon fill="black" stroke="black" points="974.43,-259.41 971.39,-249.26 967.44,-259.1 974.43,-259.41"/>
</g>
<!-- methylation calls in low\nmappability regions\nwith identifier column -->
<g id="node41" class="node">
<title>methylation calls in low\nmappability regions\nwith identifier column</title>
<ellipse fill="none" stroke="black" cx="1988.05" cy="-211.48" rx="105.22" ry="37.45"/>
<text text-anchor="middle" x="1988.05" y="-222.78" font-family="Times,serif" font-size="14.00">methylation calls in low</text>
<text text-anchor="middle" x="1988.05" y="-207.78" font-family="Times,serif" font-size="14.00">mappability regions</text>
<text text-anchor="middle" x="1988.05" y="-192.78" font-family="Times,serif" font-size="14.00">with identifier column</text>
</g>
<!-- awkaligner2&#45;&gt;methylation calls in low\nmappability regions\nwith identifier column -->
<g id="edge42" class="edge">
<title>awkaligner2&#45;&gt;methylation calls in low\nmappability regions\nwith identifier column</title>
<path fill="none" stroke="black" d="M1988.05,-305.69C1988.05,-293.23 1988.05,-275.76 1988.05,-259.32"/>
<polygon fill="black" stroke="black" points="1991.55,-259.26 1988.05,-249.26 1984.55,-259.26 1991.55,-259.26"/>
</g>
<!-- methylation calls in ClinVar regions\nwith identifier column -->
<g id="node43" class="node">
<title>methylation calls in ClinVar regions\nwith identifier column</title>
<ellipse fill="none" stroke="black" cx="2895.05" cy="-211.48" rx="151.14" ry="26.74"/>
<text text-anchor="middle" x="2895.05" y="-215.28" font-family="Times,serif" font-size="14.00">methylation calls in ClinVar regions</text>
<text text-anchor="middle" x="2895.05" y="-200.28" font-family="Times,serif" font-size="14.00">with identifier column</text>
</g>
<!-- awkaligner3&#45;&gt;methylation calls in ClinVar regions\nwith identifier column -->
<g id="edge44" class="edge">
<title>awkaligner3&#45;&gt;methylation calls in ClinVar regions\nwith identifier column</title>
<path fill="none" stroke="black" d="M2879.79,-306.17C2882.27,-290.93 2886.02,-267.92 2889.18,-248.52"/>
<polygon fill="black" stroke="black" points="2892.66,-248.91 2890.82,-238.47 2885.75,-247.78 2892.66,-248.91"/>
</g>
<!-- POSTPROC_3 -->
<!-- pure methylation calls&#45;&gt;POSTPROC_3 -->
<g id="edge50" class="edge">
<title>pure methylation calls&#45;&gt;POSTPROC_3</title>
<path fill="none" stroke="black" stroke-dasharray="1,5" d="M181.29,-421.53C180.48,-403.11 179.19,-373.71 178.25,-352.18"/>
<polygon fill="black" stroke="black" points="181.74,-351.87 177.8,-342.04 174.75,-352.18 181.74,-351.87"/>
<text text-anchor="middle" x="227.55" y="-383.75" font-family="Times,serif" font-size="14.00">to postprocessing</text>
</g>
<!-- POSTPROC_4 -->
<!-- mixed methylation calls&#45;&gt;POSTPROC_4 -->
<g id="edge51" class="edge">
<title>mixed methylation calls&#45;&gt;POSTPROC_4</title>
<path fill="none" stroke="black" stroke-dasharray="1,5" d="M1367.05,-421.53C1367.05,-403.11 1367.05,-373.71 1367.05,-352.18"/>
<polygon fill="black" stroke="black" points="1370.55,-352.04 1367.05,-342.04 1363.55,-352.04 1370.55,-352.04"/>
<text text-anchor="middle" x="1414.55" y="-383.75" font-family="Times,serif" font-size="14.00">to postprocessing</text>
</g>
<!-- low map. methylation call data -->
<g id="node46" class="node">
<title>low map. methylation call data</title>
<polygon fill="gray" stroke="gray" points="2166.45,-123 1882.66,-123 1809.65,-87 2093.45,-87 2166.45,-123"/>
<text text-anchor="middle" x="1988.05" y="-101.3" font-family="Times,serif" font-size="14.00">low map. methylation call data</text>
</g>
<!-- methylation calls in low\nmappability regions\nwith identifier column&#45;&gt;low map. methylation call data -->
<g id="edge47" class="edge">
<title>methylation calls in low\nmappability regions\nwith identifier column&#45;&gt;low map. methylation call data</title>
<path fill="none" stroke="black" stroke-dasharray="5,2" d="M1988.05,-173.94C1988.05,-160.56 1988.05,-145.66 1988.05,-133.23"/>
<polygon fill="black" stroke="black" points="1991.55,-133.05 1988.05,-123.05 1984.55,-133.05 1991.55,-133.05"/>
<text text-anchor="middle" x="2040.05" y="-144.8" font-family="Times,serif" font-size="14.00">Display in Tableau</text>
</g>
<!-- low map. clinvar methylation call data -->
<g id="node45" class="node">
<title>low map. clinvar methylation call data</title>
<polygon fill="gray" stroke="gray" points="1197.09,-123 851.83,-123 763.01,-87 1108.28,-87 1197.09,-123"/>
<text text-anchor="middle" x="980.05" y="-101.3" font-family="Times,serif" font-size="14.00">low map. clinvar methylation call data</text>
</g>
<!-- methylation calls in low\nmappability regions in ClinVar regions\nwith identifier column&#45;&gt;low map. clinvar methylation call data -->
<g id="edge46" class="edge">
<title>methylation calls in low\nmappability regions in ClinVar regions\nwith identifier column&#45;&gt;low map. clinvar methylation call data</title>
<path fill="none" stroke="black" stroke-dasharray="5,2" d="M975.5,-173.94C976.4,-160.56 977.4,-145.66 978.23,-133.23"/>
<polygon fill="black" stroke="black" points="981.73,-133.26 978.91,-123.05 974.75,-132.79 981.73,-133.26"/>
<text text-anchor="middle" x="1030.05" y="-144.8" font-family="Times,serif" font-size="14.00">Display in Tableau</text>
</g>
<!-- clinvar methylation call data -->
<g id="node44" class="node">
<title>clinvar methylation call data</title>
<polygon fill="gray" stroke="gray" points="3062.77,-123 2800.74,-123 2733.34,-87 2995.36,-87 3062.77,-123"/>
<text text-anchor="middle" x="2898.05" y="-101.3" font-family="Times,serif" font-size="14.00">clinvar methylation call data</text>
</g>
<!-- methylation calls in ClinVar regions\nwith identifier column&#45;&gt;clinvar methylation call data -->
<g id="edge45" class="edge">
<title>methylation calls in ClinVar regions\nwith identifier column&#45;&gt;clinvar methylation call data</title>
<path fill="none" stroke="black" stroke-dasharray="5,2" d="M2895.8,-184.38C2896.25,-168.86 2896.81,-149.2 2897.26,-133.45"/>
<polygon fill="black" stroke="black" points="2900.77,-133.37 2897.56,-123.27 2893.77,-133.16 2900.77,-133.37"/>
<text text-anchor="middle" x="2948.05" y="-144.8" font-family="Times,serif" font-size="14.00">Display in Tableau</text>
</g>
<!-- POSTPROC_2 -->
<!-- clinvar methylation call data&#45;&gt;POSTPROC_2 -->
<g id="edge49" class="edge">
<title>clinvar methylation call data&#45;&gt;POSTPROC_2</title>
<path fill="none" stroke="black" stroke-dasharray="1,5" d="M2898.05,-86.8C2898.05,-75.16 2898.05,-59.55 2898.05,-46.24"/>
<polygon fill="black" stroke="black" points="2901.55,-46.18 2898.05,-36.18 2894.55,-46.18 2901.55,-46.18"/>
<text text-anchor="middle" x="2945.55" y="-57.8" font-family="Times,serif" font-size="14.00">to postprocessing</text>
</g>
<!-- POSTPROC_8 -->
<!-- low map. clinvar methylation call data&#45;&gt;POSTPROC_8 -->
<g id="edge55" class="edge">
<title>low map. clinvar methylation call data&#45;&gt;POSTPROC_8</title>
<path fill="none" stroke="black" stroke-dasharray="1,5" d="M980.05,-86.8C980.05,-75.16 980.05,-59.55 980.05,-46.24"/>
<polygon fill="black" stroke="black" points="983.55,-46.18 980.05,-36.18 976.55,-46.18 983.55,-46.18"/>
<text text-anchor="middle" x="1027.55" y="-57.8" font-family="Times,serif" font-size="14.00">to postprocessing</text>
</g>
<!-- POSTPROC_7 -->
<!-- low map. methylation call data&#45;&gt;POSTPROC_7 -->
<g id="edge54" class="edge">
<title>low map. methylation call data&#45;&gt;POSTPROC_7</title>
<path fill="none" stroke="black" stroke-dasharray="1,5" d="M1988.05,-86.8C1988.05,-75.16 1988.05,-59.55 1988.05,-46.24"/>
<polygon fill="black" stroke="black" points="1991.55,-46.18 1988.05,-36.18 1984.55,-46.18 1991.55,-46.18"/>
<text text-anchor="middle" x="2035.55" y="-57.8" font-family="Times,serif" font-size="14.00">to postprocessing</text>
</g>
</g>
</svg>
