<?xml version="1.0" encoding="UTF-8" standalone="no"?>
<!DOCTYPE svg PUBLIC "-//W3C//DTD SVG 1.1//EN"
 "http://www.w3.org/Graphics/SVG/1.1/DTD/svg11.dtd">
<!-- Generated by graphviz version 2.36.0 (20140111.2315)
 -->
<!-- Title: workflow Pages: 1 -->
<svg width="1162pt" height="2208pt"
 viewBox="0.00 0.00 1162.00 2208.00" xmlns="http://www.w3.org/2000/svg" xmlns:xlink="http://www.w3.org/1999/xlink">
<g id="graph0" class="graph" transform="scale(1 1) rotate(0) translate(4 2204)">
<title>workflow</title>
<polygon fill="white" stroke="none" points="-4,4 -4,-2204 1158,-2204 1158,4 -4,4"/>
<!-- ClinVar VCF -->
<g id="node1" class="node"><title>ClinVar VCF</title>
<polygon fill="none" stroke="black" points="311.512,-1740 278.756,-1758 213.244,-1758 180.488,-1740 213.244,-1722 278.756,-1722 311.512,-1740"/>
<text text-anchor="middle" x="246" y="-1735.8" font-family="Times,serif" font-size="14.00">ClinVar VCF</text>
</g>
<!-- ClinVar BED -->
<g id="node4" class="node"><title>ClinVar BED</title>
<ellipse fill="none" stroke="black" cx="241" cy="-1632" rx="57.2728" ry="18"/>
<text text-anchor="middle" x="241" y="-1627.8" font-family="Times,serif" font-size="14.00">ClinVar BED</text>
</g>
<!-- ClinVar VCF&#45;&gt;ClinVar BED -->
<g id="edge1" class="edge"><title>ClinVar VCF&#45;&gt;ClinVar BED</title>
<path fill="none" stroke="black" d="M245.197,-1721.97C244.414,-1705.38 243.211,-1679.88 242.294,-1660.43"/>
<polygon fill="black" stroke="black" points="245.785,-1660.16 241.818,-1650.34 238.793,-1660.49 245.785,-1660.16"/>
<text text-anchor="middle" x="267.545" y="-1681.8" font-family="Times,serif" font-size="14.00">vcf2bed</text>
</g>
<!-- grch38 fasta -->
<g id="node2" class="node"><title>grch38 fasta</title>
<polygon fill="none" stroke="black" points="681.285,-2096 650.642,-2114 589.358,-2114 558.715,-2096 589.358,-2078 650.642,-2078 681.285,-2096"/>
<text text-anchor="middle" x="620" y="-2091.8" font-family="Times,serif" font-size="14.00">grch38 fasta</text>
</g>
<!-- MethylDackel extract &#45;@ 16 &#45;q &lt;cutoff&gt;\n&#45;&#45;CHH &#45;&#45;CHG &#45;&#45;OT 2,0,0,97_2 -->
<g id="node27" class="node"><title>MethylDackel extract &#45;@ 16 &#45;q &lt;cutoff&gt;\n&#45;&#45;CHH &#45;&#45;CHG &#45;&#45;OT 2,0,0,97_2</title>
<polygon fill="#d9d9d9" stroke="#d9d9d9" points="911,-2028 667.716,-1992 911,-1956 1154.28,-1992 911,-2028"/>
<text text-anchor="middle" x="911" y="-1994.8" font-family="Times,serif" font-size="14.00">MethylDackel extract &#45;@ 16 &#45;q &lt;cutoff&gt;</text>
<text text-anchor="middle" x="911" y="-1980.8" font-family="Times,serif" font-size="14.00">&#45;&#45;CHH &#45;&#45;CHG &#45;&#45;OT 2,0,0,97</text>
</g>
<!-- grch38 fasta&#45;&gt;MethylDackel extract &#45;@ 16 &#45;q &lt;cutoff&gt;\n&#45;&#45;CHH &#45;&#45;CHG &#45;&#45;OT 2,0,0,97_2 -->
<g id="edge26" class="edge"><title>grch38 fasta&#45;&gt;MethylDackel extract &#45;@ 16 &#45;q &lt;cutoff&gt;\n&#45;&#45;CHH &#45;&#45;CHG &#45;&#45;OT 2,0,0,97_2</title>
<path fill="none" stroke="black" d="M657.447,-2081.87C701.053,-2066.59 774.321,-2040.91 830.915,-2021.07"/>
<polygon fill="black" stroke="black" points="832.281,-2024.3 840.561,-2017.69 829.966,-2017.7 832.281,-2024.3"/>
</g>
<!-- grch38 .fai file -->
<g id="node38" class="node"><title>grch38 .fai file</title>
<ellipse fill="none" stroke="black" cx="417" cy="-1992" rx="61.3867" ry="18"/>
<text text-anchor="middle" x="417" y="-1987.8" font-family="Times,serif" font-size="14.00">grch38 .fai file</text>
</g>
<!-- grch38 fasta&#45;&gt;grch38 .fai file -->
<g id="edge40" class="edge"><title>grch38 fasta&#45;&gt;grch38 .fai file</title>
<path fill="none" stroke="black" d="M587.834,-2078.84C552.071,-2060.87 494.31,-2031.85 456,-2012.6"/>
<polygon fill="black" stroke="black" points="457.211,-2009.29 446.704,-2007.93 454.068,-2015.54 457.211,-2009.29"/>
<text text-anchor="middle" x="590.022" y="-2048.8" font-family="Times,serif" font-size="14.00">samtools faidx</text>
</g>
<!-- GENCODE GFF -->
<g id="node3" class="node"><title>GENCODE GFF</title>
<polygon fill="none" stroke="black" points="162.61,-1740 121.805,-1758 40.1951,-1758 -0.609867,-1740 40.1951,-1722 121.805,-1722 162.61,-1740"/>
<text text-anchor="middle" x="81" y="-1735.8" font-family="Times,serif" font-size="14.00">GENCODE GFF</text>
</g>
<!-- GENCODE BED -->
<g id="node5" class="node"><title>GENCODE BED</title>
<ellipse fill="none" stroke="black" cx="87" cy="-1632" rx="71.8806" ry="18"/>
<text text-anchor="middle" x="87" y="-1627.8" font-family="Times,serif" font-size="14.00">GENCODE BED</text>
</g>
<!-- GENCODE GFF&#45;&gt;GENCODE BED -->
<g id="edge2" class="edge"><title>GENCODE GFF&#45;&gt;GENCODE BED</title>
<path fill="none" stroke="black" d="M81.964,-1721.97C82.9031,-1705.38 84.3463,-1679.88 85.4473,-1660.43"/>
<polygon fill="black" stroke="black" points="88.9476,-1660.52 86.0185,-1650.34 81.9588,-1660.13 88.9476,-1660.52"/>
<text text-anchor="middle" x="106.646" y="-1681.8" font-family="Times,serif" font-size="14.00">gff2bed</text>
</g>
<!-- bedtools intersect &#45;u -->
<g id="node6" class="node"><title>bedtools intersect &#45;u</title>
<polygon fill="#d9d9d9" stroke="#d9d9d9" points="241,-1526 125.439,-1508 241,-1490 356.561,-1508 241,-1526"/>
<text text-anchor="middle" x="241" y="-1503.8" font-family="Times,serif" font-size="14.00">bedtools intersect &#45;u</text>
</g>
<!-- ClinVar BED&#45;&gt;bedtools intersect &#45;u -->
<g id="edge5" class="edge"><title>ClinVar BED&#45;&gt;bedtools intersect &#45;u</title>
<path fill="none" stroke="black" d="M241,-1613.78C241,-1593.62 241,-1559.96 241,-1536.25"/>
<polygon fill="black" stroke="black" points="244.5,-1536.13 241,-1526.13 237.5,-1536.13 244.5,-1536.13"/>
<text text-anchor="middle" x="244.5" y="-1565.8" font-family="Times,serif" font-size="14.00">b</text>
</g>
<!-- GENCODE BED&#45;&gt;bedtools intersect &#45;u -->
<g id="edge4" class="edge"><title>GENCODE BED&#45;&gt;bedtools intersect &#45;u</title>
<path fill="none" stroke="black" d="M107.769,-1614.55C135.536,-1592.55 184.752,-1553.56 214.966,-1529.62"/>
<polygon fill="black" stroke="black" points="217.285,-1532.25 222.95,-1523.3 212.938,-1526.77 217.285,-1532.25"/>
<text text-anchor="middle" x="199.107" y="-1565.8" font-family="Times,serif" font-size="14.00">a</text>
</g>
<!-- ClinVar regions BED -->
<g id="node7" class="node"><title>ClinVar regions BED</title>
<ellipse fill="none" stroke="black" cx="241" cy="-1434" rx="85.1416" ry="18"/>
<text text-anchor="middle" x="241" y="-1429.8" font-family="Times,serif" font-size="14.00">ClinVar regions BED</text>
</g>
<!-- bedtools intersect &#45;u&#45;&gt;ClinVar regions BED -->
<g id="edge3" class="edge"><title>bedtools intersect &#45;u&#45;&gt;ClinVar regions BED</title>
<path fill="none" stroke="black" d="M241,-1489.94C241,-1481.81 241,-1471.88 241,-1462.7"/>
<polygon fill="black" stroke="black" points="244.5,-1462.44 241,-1452.44 237.5,-1462.44 244.5,-1462.44"/>
</g>
<!-- bedtools map &#45;o min -->
<g id="node13" class="node"><title>bedtools map &#45;o min</title>
<polygon fill="#d9d9d9" stroke="#d9d9d9" points="241,-1366 123.81,-1348 241,-1330 358.19,-1348 241,-1366"/>
<text text-anchor="middle" x="241" y="-1343.8" font-family="Times,serif" font-size="14.00">bedtools map &#45;o min</text>
</g>
<!-- ClinVar regions BED&#45;&gt;bedtools map &#45;o min -->
<g id="edge10" class="edge"><title>ClinVar regions BED&#45;&gt;bedtools map &#45;o min</title>
<path fill="none" stroke="black" d="M241,-1415.6C241,-1404.26 241,-1389.23 241,-1376.32"/>
<polygon fill="black" stroke="black" points="244.5,-1376.1 241,-1366.1 237.5,-1376.1 244.5,-1376.1"/>
<text text-anchor="middle" x="244.107" y="-1386.8" font-family="Times,serif" font-size="14.00">a</text>
</g>
<!-- bedtools map &#45;o mean -->
<g id="node14" class="node"><title>bedtools map &#45;o mean</title>
<polygon fill="#d9d9d9" stroke="#d9d9d9" points="503,-1366 377.869,-1348 503,-1330 628.131,-1348 503,-1366"/>
<text text-anchor="middle" x="503" y="-1343.8" font-family="Times,serif" font-size="14.00">bedtools map &#45;o mean</text>
</g>
<!-- ClinVar regions BED&#45;&gt;bedtools map &#45;o mean -->
<g id="edge12" class="edge"><title>ClinVar regions BED&#45;&gt;bedtools map &#45;o mean</title>
<path fill="none" stroke="black" d="M305.316,-1422.12C334.347,-1416.36 368.823,-1408.31 399,-1398 423.295,-1389.7 449.432,-1377.37 469.426,-1367.16"/>
<polygon fill="black" stroke="black" points="471.165,-1370.2 478.432,-1362.49 467.943,-1363.98 471.165,-1370.2"/>
<text text-anchor="middle" x="438.107" y="-1386.8" font-family="Times,serif" font-size="14.00">a</text>
</g>
<!-- Bismap bedGraph -->
<g id="node8" class="node"><title>Bismap bedGraph</title>
<ellipse fill="none" stroke="black" cx="590" cy="-1888" rx="74.3138" ry="18"/>
<text text-anchor="middle" x="590" y="-1883.8" font-family="Times,serif" font-size="14.00">Bismap bedGraph</text>
</g>
<!-- sort &#45;k1,1 &#45;k2,2n_again -->
<g id="node9" class="node"><title>sort &#45;k1,1 &#45;k2,2n_again</title>
<polygon fill="#d9d9d9" stroke="#d9d9d9" points="503,-1526 405.507,-1508 503,-1490 600.493,-1508 503,-1526"/>
<text text-anchor="middle" x="503" y="-1503.8" font-family="Times,serif" font-size="14.00">sort &#45;k1,1 &#45;k2,2n</text>
</g>
<!-- Bismap bedGraph&#45;&gt;sort &#45;k1,1 &#45;k2,2n_again -->
<g id="edge6" class="edge"><title>Bismap bedGraph&#45;&gt;sort &#45;k1,1 &#45;k2,2n_again</title>
<path fill="none" stroke="black" d="M591.117,-1869.84C591.97,-1855.26 593,-1833.77 593,-1815 593,-1815 593,-1815 593,-1631 593,-1588.3 556.862,-1550.73 530.385,-1528.93"/>
<polygon fill="black" stroke="black" points="532.534,-1526.17 522.529,-1522.69 528.178,-1531.65 532.534,-1526.17"/>
</g>
<!-- bedtools complement -->
<g id="node36" class="node"><title>bedtools complement</title>
<polygon fill="#d9d9d9" stroke="#d9d9d9" points="441,-1832 319.572,-1814 441,-1796 562.428,-1814 441,-1832"/>
<text text-anchor="middle" x="441" y="-1809.8" font-family="Times,serif" font-size="14.00">bedtools complement</text>
</g>
<!-- Bismap bedGraph&#45;&gt;bedtools complement -->
<g id="edge38" class="edge"><title>Bismap bedGraph&#45;&gt;bedtools complement</title>
<path fill="none" stroke="black" d="M558.036,-1871.55C534.227,-1860.05 501.703,-1844.33 476.982,-1832.39"/>
<polygon fill="black" stroke="black" points="478.452,-1829.21 467.925,-1828.01 475.406,-1835.51 478.452,-1829.21"/>
</g>
<!-- Bismap complete bedGraph -->
<g id="node10" class="node"><title>Bismap complete bedGraph</title>
<ellipse fill="none" stroke="black" cx="503" cy="-1434" rx="108.248" ry="18"/>
<text text-anchor="middle" x="503" y="-1429.8" font-family="Times,serif" font-size="14.00">Bismap complete bedGraph</text>
</g>
<!-- sort &#45;k1,1 &#45;k2,2n_again&#45;&gt;Bismap complete bedGraph -->
<g id="edge7" class="edge"><title>sort &#45;k1,1 &#45;k2,2n_again&#45;&gt;Bismap complete bedGraph</title>
<path fill="none" stroke="black" d="M503,-1489.94C503,-1481.81 503,-1471.88 503,-1462.7"/>
<polygon fill="black" stroke="black" points="506.5,-1462.44 503,-1452.44 499.5,-1462.44 506.5,-1462.44"/>
</g>
<!-- Bismap complete bedGraph&#45;&gt;bedtools map &#45;o min -->
<g id="edge11" class="edge"><title>Bismap complete bedGraph&#45;&gt;bedtools map &#45;o min</title>
<path fill="none" stroke="black" d="M455.554,-1417.79C407.644,-1402.43 334.146,-1378.86 286.824,-1363.69"/>
<polygon fill="black" stroke="black" points="287.733,-1360.31 277.142,-1360.59 285.596,-1366.97 287.733,-1360.31"/>
<text text-anchor="middle" x="391.5" y="-1386.8" font-family="Times,serif" font-size="14.00">b</text>
</g>
<!-- Bismap complete bedGraph&#45;&gt;bedtools map &#45;o mean -->
<g id="edge13" class="edge"><title>Bismap complete bedGraph&#45;&gt;bedtools map &#45;o mean</title>
<path fill="none" stroke="black" d="M503,-1415.6C503,-1404.26 503,-1389.23 503,-1376.32"/>
<polygon fill="black" stroke="black" points="506.5,-1376.1 503,-1366.1 499.5,-1376.1 506.5,-1376.1"/>
<text text-anchor="middle" x="506.5" y="-1386.8" font-family="Times,serif" font-size="14.00">b</text>
</g>
<!-- awk_again -->
<g id="node40" class="node"><title>awk_again</title>
<polygon fill="#d9d9d9" stroke="#d9d9d9" points="659,-850 508.758,-832 659,-814 809.242,-832 659,-850"/>
<text text-anchor="middle" x="659" y="-827.8" font-family="Times,serif" font-size="14.00">awk &#39; if $4&lt;=0.01 { print }&#39;</text>
</g>
<!-- Bismap complete bedGraph&#45;&gt;awk_again -->
<g id="edge43" class="edge"><title>Bismap complete bedGraph&#45;&gt;awk_again</title>
<path fill="none" stroke="black" d="M579.172,-1421.05C618.772,-1410.02 659,-1388.99 659,-1349 659,-1349 659,-1349 659,-913 659,-895.565 659,-875.993 659,-860.572"/>
<polygon fill="black" stroke="black" points="662.5,-860.166 659,-850.166 655.5,-860.166 662.5,-860.166"/>
</g>
<!-- 0 mappability regions bedGraph -->
<g id="node11" class="node"><title>0 mappability regions bedGraph</title>
<ellipse fill="none" stroke="black" cx="441" cy="-1632" rx="123.962" ry="18"/>
<text text-anchor="middle" x="441" y="-1627.8" font-family="Times,serif" font-size="14.00">0 mappability regions bedGraph</text>
</g>
<!-- 0 mappability regions bedGraph&#45;&gt;sort &#45;k1,1 &#45;k2,2n_again -->
<g id="edge8" class="edge"><title>0 mappability regions bedGraph&#45;&gt;sort &#45;k1,1 &#45;k2,2n_again</title>
<path fill="none" stroke="black" d="M449.621,-1614.04C460.207,-1593.21 478.249,-1557.7 490.393,-1533.81"/>
<polygon fill="black" stroke="black" points="493.631,-1535.16 495.041,-1524.66 487.391,-1531.99 493.631,-1535.16"/>
</g>
<!-- Bismap bigWig -->
<g id="node12" class="node"><title>Bismap bigWig</title>
<polygon fill="none" stroke="black" points="648.478,-1992 610.739,-2010 535.261,-2010 497.522,-1992 535.261,-1974 610.739,-1974 648.478,-1992"/>
<text text-anchor="middle" x="573" y="-1987.8" font-family="Times,serif" font-size="14.00">Bismap bigWig</text>
</g>
<!-- Bismap bigWig&#45;&gt;Bismap bedGraph -->
<g id="edge9" class="edge"><title>Bismap bigWig&#45;&gt;Bismap bedGraph</title>
<path fill="none" stroke="black" d="M575.884,-1973.7C578.513,-1957.92 582.439,-1934.36 585.484,-1916.09"/>
<polygon fill="black" stroke="black" points="588.967,-1916.49 587.159,-1906.05 582.062,-1915.34 588.967,-1916.49"/>
<text text-anchor="middle" x="641.776" y="-1926.8" font-family="Times,serif" font-size="14.00">bigWigToBedGraph</text>
</g>
<!-- ClinVar regions with\n min mappability bedGraph -->
<g id="node15" class="node"><title>ClinVar regions with\n min mappability bedGraph</title>
<ellipse fill="none" stroke="black" cx="240" cy="-1266" rx="120.189" ry="25.4118"/>
<text text-anchor="middle" x="240" y="-1268.8" font-family="Times,serif" font-size="14.00">ClinVar regions with</text>
<text text-anchor="middle" x="240" y="-1254.8" font-family="Times,serif" font-size="14.00"> min mappability bedGraph</text>
</g>
<!-- bedtools map &#45;o min&#45;&gt;ClinVar regions with\n min mappability bedGraph -->
<g id="edge14" class="edge"><title>bedtools map &#45;o min&#45;&gt;ClinVar regions with\n min mappability bedGraph</title>
<path fill="none" stroke="black" d="M240.783,-1329.64C240.681,-1321.47 240.555,-1311.43 240.435,-1301.79"/>
<polygon fill="black" stroke="black" points="243.932,-1301.56 240.308,-1291.61 236.933,-1301.65 243.932,-1301.56"/>
</g>
<!-- ClinVar regions with\n mean mappability bedGraph -->
<g id="node16" class="node"><title>ClinVar regions with\n mean mappability bedGraph</title>
<ellipse fill="none" stroke="black" cx="505" cy="-1266" rx="126.245" ry="25.4118"/>
<text text-anchor="middle" x="505" y="-1268.8" font-family="Times,serif" font-size="14.00">ClinVar regions with</text>
<text text-anchor="middle" x="505" y="-1254.8" font-family="Times,serif" font-size="14.00"> mean mappability bedGraph</text>
</g>
<!-- bedtools map &#45;o mean&#45;&gt;ClinVar regions with\n mean mappability bedGraph -->
<g id="edge15" class="edge"><title>bedtools map &#45;o mean&#45;&gt;ClinVar regions with\n mean mappability bedGraph</title>
<path fill="none" stroke="black" d="M503.424,-1330.03C503.632,-1321.73 503.89,-1311.41 504.136,-1301.55"/>
<polygon fill="black" stroke="black" points="507.636,-1301.62 504.387,-1291.53 500.638,-1301.44 507.636,-1301.62"/>
</g>
<!-- paste -->
<g id="node17" class="node"><title>paste</title>
<polygon fill="#d9d9d9" stroke="#d9d9d9" points="357,-1202 317.514,-1184 357,-1166 396.486,-1184 357,-1202"/>
<text text-anchor="middle" x="357" y="-1179.8" font-family="Times,serif" font-size="14.00">paste</text>
</g>
<!-- ClinVar regions with\n min mappability bedGraph&#45;&gt;paste -->
<g id="edge16" class="edge"><title>ClinVar regions with\n min mappability bedGraph&#45;&gt;paste</title>
<path fill="none" stroke="black" d="M274.471,-1241.43C293.353,-1228.52 316.278,-1212.84 333.17,-1201.29"/>
<polygon fill="black" stroke="black" points="335.59,-1203.88 341.869,-1195.35 331.639,-1198.1 335.59,-1203.88"/>
</g>
<!-- ClinVar regions with\n mean mappability bedGraph&#45;&gt;paste -->
<g id="edge18" class="edge"><title>ClinVar regions with\n mean mappability bedGraph&#45;&gt;paste</title>
<path fill="none" stroke="black" d="M462.192,-1241.86C436.759,-1228.11 405.309,-1211.11 383.454,-1199.3"/>
<polygon fill="black" stroke="black" points="384.895,-1196.1 374.433,-1194.42 381.566,-1202.26 384.895,-1196.1"/>
</g>
<!-- ClinVar regions with min and\n mean mappability bedGraph -->
<g id="node18" class="node"><title>ClinVar regions with min and\n mean mappability bedGraph</title>
<ellipse fill="none" stroke="black" cx="357" cy="-1102" rx="128.167" ry="25.4118"/>
<text text-anchor="middle" x="357" y="-1104.8" font-family="Times,serif" font-size="14.00">ClinVar regions with min and</text>
<text text-anchor="middle" x="357" y="-1090.8" font-family="Times,serif" font-size="14.00"> mean mappability bedGraph</text>
</g>
<!-- paste&#45;&gt;ClinVar regions with min and\n mean mappability bedGraph -->
<g id="edge17" class="edge"><title>paste&#45;&gt;ClinVar regions with min and\n mean mappability bedGraph</title>
<path fill="none" stroke="black" d="M357,-1165.64C357,-1157.47 357,-1147.43 357,-1137.79"/>
<polygon fill="black" stroke="black" points="360.5,-1137.61 357,-1127.61 353.5,-1137.61 360.5,-1137.61"/>
</g>
<!-- Mappability Distribution in ClinVar regions -->
<g id="node19" class="node"><title>Mappability Distribution in ClinVar regions</title>
<polygon fill="gray" stroke="gray" points="598.32,-1026 337.68,-1026 337.68,-990 598.32,-990 598.32,-1026"/>
<text text-anchor="middle" x="468" y="-1003.8" font-family="Times,serif" font-size="14.00">Mappability Distribution in ClinVar regions</text>
</g>
<!-- ClinVar regions with min and\n mean mappability bedGraph&#45;&gt;Mappability Distribution in ClinVar regions -->
<g id="edge19" class="edge"><title>ClinVar regions with min and\n mean mappability bedGraph&#45;&gt;Mappability Distribution in ClinVar regions</title>
<path fill="none" stroke="black" stroke-dasharray="5,2" d="M385.874,-1077.07C402.435,-1063.34 423.141,-1046.18 439.619,-1032.52"/>
<polygon fill="black" stroke="black" points="441.865,-1035.21 447.331,-1026.13 437.398,-1029.82 441.865,-1035.21"/>
<text text-anchor="middle" x="478.65" y="-1046.8" font-family="Times,serif" font-size="14.00">Display in Tableau</text>
</g>
<!-- awk &#39;$11 &lt;= min_cutoff { print }&#39; -->
<g id="node22" class="node"><title>awk &#39;$11 &lt;= min_cutoff { print }&#39;</title>
<polygon fill="#d9d9d9" stroke="#d9d9d9" points="309,-850 127.826,-832 309,-814 490.174,-832 309,-850"/>
<text text-anchor="middle" x="309" y="-827.8" font-family="Times,serif" font-size="14.00">awk &#39;$11 &lt;= min_cutoff { print }&#39;</text>
</g>
<!-- ClinVar regions with min and\n mean mappability bedGraph&#45;&gt;awk &#39;$11 &lt;= min_cutoff { print }&#39; -->
<g id="edge23" class="edge"><title>ClinVar regions with min and\n mean mappability bedGraph&#45;&gt;awk &#39;$11 &lt;= min_cutoff { print }&#39;</title>
<path fill="none" stroke="black" d="M345.602,-1076.54C339.385,-1062.13 332.135,-1043.38 328,-1026 314.206,-968.016 310.404,-897.936 309.371,-860.215"/>
<polygon fill="black" stroke="black" points="312.866,-859.951 309.139,-850.034 305.868,-860.111 312.866,-859.951"/>
</g>
<!-- low mappability cutoff value\n(min mappability &lt;= 0.01) -->
<g id="node21" class="node"><title>low mappability cutoff value\n(min mappability &lt;= 0.01)</title>
<ellipse fill="none" stroke="black" cx="468" cy="-914" rx="125.166" ry="25.4118"/>
<text text-anchor="middle" x="468" y="-916.8" font-family="Times,serif" font-size="14.00">low mappability cutoff value</text>
<text text-anchor="middle" x="468" y="-902.8" font-family="Times,serif" font-size="14.00">(min mappability &lt;= 0.01)</text>
</g>
<!-- Mappability Distribution in ClinVar regions&#45;&gt;low mappability cutoff value\n(min mappability &lt;= 0.01) -->
<g id="edge20" class="edge"><title>Mappability Distribution in ClinVar regions&#45;&gt;low mappability cutoff value\n(min mappability &lt;= 0.01)</title>
<path fill="none" stroke="black" stroke-dasharray="5,2" d="M468,-989.696C468,-978.413 468,-963.297 468,-949.615"/>
<polygon fill="black" stroke="black" points="471.5,-949.518 468,-939.518 464.5,-949.518 471.5,-949.518"/>
<text text-anchor="middle" x="526.909" y="-960.8" font-family="Times,serif" font-size="14.00">Examine distribution</text>
</g>
<!-- Examine Data -->
<!-- low mappability cutoff value\n(min mappability &lt;= 0.01)&#45;&gt;awk &#39;$11 &lt;= min_cutoff { print }&#39; -->
<g id="edge21" class="edge"><title>low mappability cutoff value\n(min mappability &lt;= 0.01)&#45;&gt;awk &#39;$11 &lt;= min_cutoff { print }&#39;</title>
<path fill="none" stroke="black" d="M422.437,-890.075C398.402,-877.982 369.273,-863.326 346.551,-851.893"/>
<polygon fill="black" stroke="black" points="348.06,-848.735 337.554,-847.367 344.914,-854.988 348.06,-848.735"/>
</g>
<!-- low mappability cutoff value\n(min mappability &lt;= 0.01)&#45;&gt;awk_again -->
<g id="edge44" class="edge"><title>low mappability cutoff value\n(min mappability &lt;= 0.01)&#45;&gt;awk_again</title>
<path fill="none" stroke="black" d="M520.951,-890.822C551.6,-877.984 589.599,-862.069 617.966,-850.187"/>
<polygon fill="black" stroke="black" points="619.321,-853.414 627.193,-846.322 616.617,-846.958 619.321,-853.414"/>
</g>
<!-- low mappability ClinVar regions -->
<g id="node23" class="node"><title>low mappability ClinVar regions</title>
<ellipse fill="none" stroke="black" cx="355" cy="-758" rx="125.19" ry="18"/>
<text text-anchor="middle" x="355" y="-753.8" font-family="Times,serif" font-size="14.00">low mappability ClinVar regions</text>
</g>
<!-- awk &#39;$11 &lt;= min_cutoff { print }&#39;&#45;&gt;low mappability ClinVar regions -->
<g id="edge22" class="edge"><title>awk &#39;$11 &lt;= min_cutoff { print }&#39;&#45;&gt;low mappability ClinVar regions</title>
<path fill="none" stroke="black" d="M319.438,-814.662C325.138,-805.741 332.322,-794.496 338.739,-784.453"/>
<polygon fill="black" stroke="black" points="341.689,-786.336 344.123,-776.025 335.79,-782.567 341.689,-786.336"/>
</g>
<!-- sorted low mappability ClinVar regions -->
<g id="node35" class="node"><title>sorted low mappability ClinVar regions</title>
<ellipse fill="none" stroke="black" cx="367" cy="-672" rx="149.424" ry="18"/>
<text text-anchor="middle" x="367" y="-667.8" font-family="Times,serif" font-size="14.00">sorted low mappability ClinVar regions</text>
</g>
<!-- low mappability ClinVar regions&#45;&gt;sorted low mappability ClinVar regions -->
<g id="edge37" class="edge"><title>low mappability ClinVar regions&#45;&gt;sorted low mappability ClinVar regions</title>
<path fill="none" stroke="black" d="M357.428,-740.001C359.06,-728.578 361.247,-713.274 363.118,-700.176"/>
<polygon fill="black" stroke="black" points="366.585,-700.656 364.534,-690.262 359.655,-699.666 366.585,-700.656"/>
<text text-anchor="middle" x="408.662" y="-710.8" font-family="Times,serif" font-size="14.00">sort &#45;k1,1 &#45;k2,2n</text>
</g>
<!-- EM&#45;seq methylation reads -->
<g id="node24" class="node"><title>EM&#45;seq methylation reads</title>
<polygon fill="none" stroke="black" points="955.145,-2182 895.573,-2200 776.427,-2200 716.855,-2182 776.427,-2164 895.573,-2164 955.145,-2182"/>
<text text-anchor="middle" x="836" y="-2177.8" font-family="Times,serif" font-size="14.00">EM&#45;seq methylation reads</text>
</g>
<!-- alignment BAM -->
<g id="node25" class="node"><title>alignment BAM</title>
<ellipse fill="none" stroke="black" cx="836" cy="-2096" rx="67.2482" ry="18"/>
<text text-anchor="middle" x="836" y="-2091.8" font-family="Times,serif" font-size="14.00">alignment BAM</text>
</g>
<!-- EM&#45;seq methylation reads&#45;&gt;alignment BAM -->
<g id="edge24" class="edge"><title>EM&#45;seq methylation reads&#45;&gt;alignment BAM</title>
<path fill="none" stroke="black" d="M836,-2163.6C836,-2152.26 836,-2137.23 836,-2124.32"/>
<polygon fill="black" stroke="black" points="839.5,-2124.1 836,-2114.1 832.5,-2124.1 839.5,-2124.1"/>
<text text-anchor="middle" x="861.659" y="-2134.8" font-family="Times,serif" font-size="14.00">bwameth</text>
</g>
<!-- alignment BAM&#45;&gt;MethylDackel extract &#45;@ 16 &#45;q &lt;cutoff&gt;\n&#45;&#45;CHH &#45;&#45;CHG &#45;&#45;OT 2,0,0,97_2 -->
<g id="edge32" class="edge"><title>alignment BAM&#45;&gt;MethylDackel extract &#45;@ 16 &#45;q &lt;cutoff&gt;\n&#45;&#45;CHH &#45;&#45;CHG &#45;&#45;OT 2,0,0,97_2</title>
<path fill="none" stroke="black" d="M848.385,-2078.16C857.455,-2065.82 870.153,-2048.55 881.745,-2032.79"/>
<polygon fill="black" stroke="black" points="884.576,-2034.84 887.681,-2024.71 878.937,-2030.7 884.576,-2034.84"/>
</g>
<!-- MapQ cutoff -->
<g id="node26" class="node"><title>MapQ cutoff</title>
<polygon fill="none" stroke="black" points="1050.28,-2096 1018.14,-2114 953.861,-2114 921.723,-2096 953.861,-2078 1018.14,-2078 1050.28,-2096"/>
<text text-anchor="middle" x="986" y="-2091.8" font-family="Times,serif" font-size="14.00">MapQ cutoff</text>
</g>
<!-- MapQ cutoff&#45;&gt;MethylDackel extract &#45;@ 16 &#45;q &lt;cutoff&gt;\n&#45;&#45;CHH &#45;&#45;CHG &#45;&#45;OT 2,0,0,97_2 -->
<g id="edge25" class="edge"><title>MapQ cutoff&#45;&gt;MethylDackel extract &#45;@ 16 &#45;q &lt;cutoff&gt;\n&#45;&#45;CHH &#45;&#45;CHG &#45;&#45;OT 2,0,0,97_2</title>
<path fill="none" stroke="black" d="M973.277,-2077.7C964.321,-2065.52 951.951,-2048.69 940.594,-2033.25"/>
<polygon fill="black" stroke="black" points="943.161,-2030.83 934.417,-2024.85 937.521,-2034.98 943.161,-2030.83"/>
<text text-anchor="middle" x="964.831" y="-2048.8" font-family="Times,serif" font-size="14.00">&#45;q</text>
</g>
<!-- CpG -->
<g id="node31" class="node"><title>CpG</title>
<ellipse fill="none" stroke="black" cx="804" cy="-1888" rx="27" ry="18"/>
<text text-anchor="middle" x="804" y="-1883.8" font-family="Times,serif" font-size="14.00">CpG</text>
</g>
<!-- MethylDackel extract &#45;@ 16 &#45;q &lt;cutoff&gt;\n&#45;&#45;CHH &#45;&#45;CHG &#45;&#45;OT 2,0,0,97_2&#45;&gt;CpG -->
<g id="edge34" class="edge"><title>MethylDackel extract &#45;@ 16 &#45;q &lt;cutoff&gt;\n&#45;&#45;CHH &#45;&#45;CHG &#45;&#45;OT 2,0,0,97_2&#45;&gt;CpG</title>
<path fill="none" stroke="black" d="M879.186,-1960.67C862.19,-1944.47 841.678,-1924.92 826.375,-1910.33"/>
<polygon fill="black" stroke="black" points="828.547,-1907.56 818.894,-1903.2 823.717,-1912.63 828.547,-1907.56"/>
</g>
<!-- CHG -->
<g id="node32" class="node"><title>CHG</title>
<ellipse fill="none" stroke="black" cx="878" cy="-1888" rx="28.1721" ry="18"/>
<text text-anchor="middle" x="878" y="-1883.8" font-family="Times,serif" font-size="14.00">CHG</text>
</g>
<!-- MethylDackel extract &#45;@ 16 &#45;q &lt;cutoff&gt;\n&#45;&#45;CHH &#45;&#45;CHG &#45;&#45;OT 2,0,0,97_2&#45;&gt;CHG -->
<g id="edge33" class="edge"><title>MethylDackel extract &#45;@ 16 &#45;q &lt;cutoff&gt;\n&#45;&#45;CHH &#45;&#45;CHG &#45;&#45;OT 2,0,0,97_2&#45;&gt;CHG</title>
<path fill="none" stroke="black" d="M900.103,-1957.32C895.689,-1943.67 890.667,-1928.15 886.527,-1915.36"/>
<polygon fill="black" stroke="black" points="889.832,-1914.2 883.424,-1905.77 883.172,-1916.36 889.832,-1914.2"/>
</g>
<!-- CHH -->
<g id="node33" class="node"><title>CHH</title>
<ellipse fill="none" stroke="black" cx="954" cy="-1888" rx="28.1721" ry="18"/>
<text text-anchor="middle" x="954" y="-1883.8" font-family="Times,serif" font-size="14.00">CHH</text>
</g>
<!-- MethylDackel extract &#45;@ 16 &#45;q &lt;cutoff&gt;\n&#45;&#45;CHH &#45;&#45;CHG &#45;&#45;OT 2,0,0,97_2&#45;&gt;CHH -->
<g id="edge35" class="edge"><title>MethylDackel extract &#45;@ 16 &#45;q &lt;cutoff&gt;\n&#45;&#45;CHH &#45;&#45;CHG &#45;&#45;OT 2,0,0,97_2&#45;&gt;CHH</title>
<path fill="none" stroke="black" d="M924.961,-1957.88C930.823,-1943.98 937.542,-1928.04 943.04,-1915"/>
<polygon fill="black" stroke="black" points="946.311,-1916.25 946.971,-1905.67 939.861,-1913.53 946.311,-1916.25"/>
</g>
<!-- sort &#45;k1,1 &#45;k2,2n_2 -->
<g id="node28" class="node"><title>sort &#45;k1,1 &#45;k2,2n_2</title>
<polygon fill="#d9d9d9" stroke="#d9d9d9" points="852,-1832 754.507,-1814 852,-1796 949.493,-1814 852,-1832"/>
<text text-anchor="middle" x="852" y="-1809.8" font-family="Times,serif" font-size="14.00">sort &#45;k1,1 &#45;k2,2n</text>
</g>
<!-- sorted bedGraph -->
<g id="node29" class="node"><title>sorted bedGraph</title>
<ellipse fill="none" stroke="black" cx="844" cy="-1686" rx="68.1994" ry="18"/>
<text text-anchor="middle" x="844" y="-1681.8" font-family="Times,serif" font-size="14.00">sorted bedGraph</text>
</g>
<!-- sort &#45;k1,1 &#45;k2,2n_2&#45;&gt;sorted bedGraph -->
<g id="edge27" class="edge"><title>sort &#45;k1,1 &#45;k2,2n_2&#45;&gt;sorted bedGraph</title>
<path fill="none" stroke="black" d="M850.921,-1796.01C849.591,-1775.06 847.314,-1739.19 845.736,-1714.35"/>
<polygon fill="black" stroke="black" points="849.214,-1713.88 845.087,-1704.13 842.228,-1714.33 849.214,-1713.88"/>
</g>
<!-- sorted bedGraph\n(no headers) -->
<g id="node30" class="node"><title>sorted bedGraph\n(no headers)</title>
<ellipse fill="none" stroke="black" cx="838" cy="-1570" rx="77.0208" ry="25.4118"/>
<text text-anchor="middle" x="838" y="-1572.8" font-family="Times,serif" font-size="14.00">sorted bedGraph</text>
<text text-anchor="middle" x="838" y="-1558.8" font-family="Times,serif" font-size="14.00">(no headers)</text>
</g>
<!-- sorted bedGraph&#45;&gt;sorted bedGraph\n(no headers) -->
<g id="edge28" class="edge"><title>sorted bedGraph&#45;&gt;sorted bedGraph\n(no headers)</title>
<path fill="none" stroke="black" d="M843.089,-1667.69C842.229,-1651.35 840.915,-1626.38 839.837,-1605.91"/>
<polygon fill="black" stroke="black" points="843.32,-1605.48 839.299,-1595.68 836.329,-1605.85 843.32,-1605.48"/>
<text text-anchor="middle" x="870.376" y="-1627.8" font-family="Times,serif" font-size="14.00">head &#45;n &#45;3</text>
</g>
<!-- bedtools intersect &#45;u_2 -->
<g id="node34" class="node"><title>bedtools intersect &#45;u_2</title>
<polygon fill="#d9d9d9" stroke="#d9d9d9" points="705,-428 551.656,-410 705,-392 858.344,-410 705,-428"/>
<text text-anchor="middle" x="705" y="-405.8" font-family="Times,serif" font-size="14.00">bedtools intersect &#45;u &#45;sorted</text>
</g>
<!-- sorted bedGraph\n(no headers)&#45;&gt;bedtools intersect &#45;u_2 -->
<g id="edge36" class="edge"><title>sorted bedGraph\n(no headers)&#45;&gt;bedtools intersect &#45;u_2</title>
<path fill="none" stroke="black" d="M837.605,-1544.28C837.325,-1524.68 837,-1496.59 837,-1472 837,-1472 837,-1472 837,-503 837,-463.511 796.748,-439.58 760.699,-426.067"/>
<polygon fill="black" stroke="black" points="761.762,-422.73 751.167,-422.69 759.424,-429.328 761.762,-422.73"/>
<text text-anchor="middle" x="840.107" y="-1003.8" font-family="Times,serif" font-size="14.00">a</text>
</g>
<!-- CpG&#45;&gt;sort &#45;k1,1 &#45;k2,2n_2 -->
<g id="edge29" class="edge"><title>CpG&#45;&gt;sort &#45;k1,1 &#45;k2,2n_2</title>
<path fill="none" stroke="black" d="M814.415,-1871.38C820.705,-1861.94 828.852,-1849.72 835.951,-1839.07"/>
<polygon fill="black" stroke="black" points="838.97,-1840.85 841.605,-1830.59 833.146,-1836.97 838.97,-1840.85"/>
</g>
<!-- CHG&#45;&gt;sort &#45;k1,1 &#45;k2,2n_2 -->
<g id="edge30" class="edge"><title>CHG&#45;&gt;sort &#45;k1,1 &#45;k2,2n_2</title>
<path fill="none" stroke="black" d="M871.97,-1870.3C868.808,-1861.54 864.865,-1850.63 861.32,-1840.81"/>
<polygon fill="black" stroke="black" points="864.507,-1839.33 857.819,-1831.11 857.923,-1841.71 864.507,-1839.33"/>
</g>
<!-- CHH&#45;&gt;sort &#45;k1,1 &#45;k2,2n_2 -->
<g id="edge31" class="edge"><title>CHH&#45;&gt;sort &#45;k1,1 &#45;k2,2n_2</title>
<path fill="none" stroke="black" d="M935.764,-1874.13C920.105,-1863.07 897.298,-1846.98 879.435,-1834.37"/>
<polygon fill="black" stroke="black" points="881.304,-1831.4 871.116,-1828.49 877.268,-1837.12 881.304,-1831.4"/>
</g>
<!-- methylation calls in low\nmappability regions in ClinVar regions\n(i.e. miscalls) -->
<g id="node45" class="node"><title>methylation calls in low\nmappability regions in ClinVar regions\n(i.e. miscalls)</title>
<ellipse fill="none" stroke="black" cx="705" cy="-318" rx="164.925" ry="35.2113"/>
<text text-anchor="middle" x="705" y="-327.8" font-family="Times,serif" font-size="14.00">methylation calls in low</text>
<text text-anchor="middle" x="705" y="-313.8" font-family="Times,serif" font-size="14.00">mappability regions in ClinVar regions</text>
<text text-anchor="middle" x="705" y="-299.8" font-family="Times,serif" font-size="14.00">(i.e. miscalls)</text>
</g>
<!-- bedtools intersect &#45;u_2&#45;&gt;methylation calls in low\nmappability regions in ClinVar regions\n(i.e. miscalls) -->
<g id="edge52" class="edge"><title>bedtools intersect &#45;u_2&#45;&gt;methylation calls in low\nmappability regions in ClinVar regions\n(i.e. miscalls)</title>
<path fill="none" stroke="black" d="M705,-391.647C705,-383.61 705,-373.652 705,-363.712"/>
<polygon fill="black" stroke="black" points="708.5,-363.442 705,-353.443 701.5,-363.443 708.5,-363.442"/>
</g>
<!-- bedtools intersect &#45;u_0 -->
<g id="node43" class="node"><title>bedtools intersect &#45;u_0</title>
<polygon fill="#d9d9d9" stroke="#d9d9d9" points="659,-604 518.973,-586 659,-568 799.027,-586 659,-604"/>
<text text-anchor="middle" x="659" y="-581.8" font-family="Times,serif" font-size="14.00">bedtools intersect &#45;sorted</text>
</g>
<!-- sorted low mappability ClinVar regions&#45;&gt;bedtools intersect &#45;u_0 -->
<g id="edge50" class="edge"><title>sorted low mappability ClinVar regions&#45;&gt;bedtools intersect &#45;u_0</title>
<path fill="none" stroke="black" d="M421.923,-655.2C475.468,-639.797 556.225,-616.565 608.285,-601.589"/>
<polygon fill="black" stroke="black" points="609.335,-604.929 617.978,-598.801 607.4,-598.202 609.335,-604.929"/>
<text text-anchor="middle" x="534.5" y="-624.8" font-family="Times,serif" font-size="14.00">b</text>
</g>
<!-- bedtools intersect &#45;u_3b -->
<g id="node46" class="node"><title>bedtools intersect &#45;u_3b</title>
<polygon fill="#d9d9d9" stroke="#d9d9d9" points="367,-232 205.661,-214 367,-196 528.339,-214 367,-232"/>
<text text-anchor="middle" x="367" y="-209.8" font-family="Times,serif" font-size="14.00">bedtools intersect &#45;wa &#45;sorted</text>
</g>
<!-- sorted low mappability ClinVar regions&#45;&gt;bedtools intersect &#45;u_3b -->
<g id="edge54" class="edge"><title>sorted low mappability ClinVar regions&#45;&gt;bedtools intersect &#45;u_3b</title>
<path fill="none" stroke="black" d="M367,-653.947C367,-636.975 367,-610.188 367,-587 367,-587 367,-587 367,-317 367,-291.782 367,-263.057 367,-242.531"/>
<polygon fill="black" stroke="black" points="370.5,-242.326 367,-232.326 363.5,-242.326 370.5,-242.326"/>
<text text-anchor="middle" x="370.107" y="-448.8" font-family="Times,serif" font-size="14.00">a</text>
</g>
<!-- 0 mappability regions BED -->
<g id="node37" class="node"><title>0 mappability regions BED</title>
<ellipse fill="none" stroke="black" cx="441" cy="-1740" rx="107.189" ry="18"/>
<text text-anchor="middle" x="441" y="-1735.8" font-family="Times,serif" font-size="14.00">0 mappability regions BED</text>
</g>
<!-- bedtools complement&#45;&gt;0 mappability regions BED -->
<g id="edge39" class="edge"><title>bedtools complement&#45;&gt;0 mappability regions BED</title>
<path fill="none" stroke="black" d="M441,-1795.94C441,-1787.81 441,-1777.88 441,-1768.7"/>
<polygon fill="black" stroke="black" points="444.5,-1768.44 441,-1758.44 437.5,-1768.44 444.5,-1768.44"/>
</g>
<!-- 0 mappability regions BED&#45;&gt;0 mappability regions bedGraph -->
<g id="edge46" class="edge"><title>0 mappability regions BED&#45;&gt;0 mappability regions bedGraph</title>
<path fill="none" stroke="black" d="M441,-1721.97C441,-1705.38 441,-1679.88 441,-1660.43"/>
<polygon fill="black" stroke="black" points="444.5,-1660.34 441,-1650.34 437.5,-1660.34 444.5,-1660.34"/>
<text text-anchor="middle" x="502.229" y="-1681.8" font-family="Times,serif" font-size="14.00">awk &#39;{ print $0&quot;\t&quot;0 }&#39;</text>
</g>
<!-- grch38 .genome file -->
<g id="node39" class="node"><title>grch38 .genome file</title>
<ellipse fill="none" stroke="black" cx="417" cy="-1888" rx="80.3865" ry="18"/>
<text text-anchor="middle" x="417" y="-1883.8" font-family="Times,serif" font-size="14.00">grch38 .genome file</text>
</g>
<!-- grch38 .fai file&#45;&gt;grch38 .genome file -->
<g id="edge41" class="edge"><title>grch38 .fai file&#45;&gt;grch38 .genome file</title>
<path fill="none" stroke="black" d="M417,-1973.7C417,-1957.92 417,-1934.36 417,-1916.09"/>
<polygon fill="black" stroke="black" points="420.5,-1916.05 417,-1906.05 413.5,-1916.05 420.5,-1916.05"/>
<text text-anchor="middle" x="442.464" y="-1926.8" font-family="Times,serif" font-size="14.00">cut &#45;f 1,2</text>
</g>
<!-- grch38 .genome file&#45;&gt;bedtools complement -->
<g id="edge42" class="edge"><title>grch38 .genome file&#45;&gt;bedtools complement</title>
<path fill="none" stroke="black" d="M422.688,-1869.94C425.568,-1861.3 429.127,-1850.62 432.339,-1840.98"/>
<polygon fill="black" stroke="black" points="435.676,-1842.04 435.518,-1831.44 429.036,-1839.82 435.676,-1842.04"/>
</g>
<!-- &lt;=0.01 mappability regions bedGraph -->
<g id="node41" class="node"><title>&lt;=0.01 mappability regions bedGraph</title>
<ellipse fill="none" stroke="black" cx="659" cy="-758" rx="145.005" ry="18"/>
<text text-anchor="middle" x="659" y="-753.8" font-family="Times,serif" font-size="14.00">&lt;=0.01 mappability regions bedGraph</text>
</g>
<!-- awk_again&#45;&gt;&lt;=0.01 mappability regions bedGraph -->
<g id="edge45" class="edge"><title>awk_again&#45;&gt;&lt;=0.01 mappability regions bedGraph</title>
<path fill="none" stroke="black" d="M659,-813.937C659,-805.807 659,-795.876 659,-786.705"/>
<polygon fill="black" stroke="black" points="662.5,-786.441 659,-776.441 655.5,-786.441 662.5,-786.441"/>
</g>
<!-- sorted low mappability regions -->
<g id="node42" class="node"><title>sorted low mappability regions</title>
<ellipse fill="none" stroke="black" cx="659" cy="-672" rx="119.342" ry="18"/>
<text text-anchor="middle" x="659" y="-667.8" font-family="Times,serif" font-size="14.00">sorted low mappability regions</text>
</g>
<!-- &lt;=0.01 mappability regions bedGraph&#45;&gt;sorted low mappability regions -->
<g id="edge47" class="edge"><title>&lt;=0.01 mappability regions bedGraph&#45;&gt;sorted low mappability regions</title>
<path fill="none" stroke="black" d="M659,-739.595C659,-728.257 659,-713.227 659,-700.315"/>
<polygon fill="black" stroke="black" points="662.5,-700.095 659,-690.095 655.5,-700.095 662.5,-700.095"/>
<text text-anchor="middle" x="705.662" y="-710.8" font-family="Times,serif" font-size="14.00">sort &#45;k1,1 &#45;k2,2n</text>
</g>
<!-- sorted low mappability regions&#45;&gt;bedtools intersect &#45;u_0 -->
<g id="edge48" class="edge"><title>sorted low mappability regions&#45;&gt;bedtools intersect &#45;u_0</title>
<path fill="none" stroke="black" d="M659,-653.595C659,-642.257 659,-627.227 659,-614.315"/>
<polygon fill="black" stroke="black" points="662.5,-614.095 659,-604.095 655.5,-614.095 662.5,-614.095"/>
<text text-anchor="middle" x="662.107" y="-624.8" font-family="Times,serif" font-size="14.00">a</text>
</g>
<!-- sorted low mappability regions\nin ClinVar annotations -->
<g id="node44" class="node"><title>sorted low mappability regions\nin ClinVar annotations</title>
<ellipse fill="none" stroke="black" cx="671" cy="-504" rx="134.317" ry="25.4118"/>
<text text-anchor="middle" x="671" y="-506.8" font-family="Times,serif" font-size="14.00">sorted low mappability regions</text>
<text text-anchor="middle" x="671" y="-492.8" font-family="Times,serif" font-size="14.00">in ClinVar annotations</text>
</g>
<!-- bedtools intersect &#45;u_0&#45;&gt;sorted low mappability regions\nin ClinVar annotations -->
<g id="edge49" class="edge"><title>bedtools intersect &#45;u_0&#45;&gt;sorted low mappability regions\nin ClinVar annotations</title>
<path fill="none" stroke="black" d="M661.545,-568.034C662.791,-559.728 664.338,-549.412 665.818,-539.547"/>
<polygon fill="black" stroke="black" points="669.298,-539.941 667.32,-529.533 662.375,-538.903 669.298,-539.941"/>
</g>
<!-- sorted low mappability regions\nin ClinVar annotations&#45;&gt;bedtools intersect &#45;u_2 -->
<g id="edge51" class="edge"><title>sorted low mappability regions\nin ClinVar annotations&#45;&gt;bedtools intersect &#45;u_2</title>
<path fill="none" stroke="black" d="M680.111,-478.346C684.83,-465.578 690.59,-449.992 695.38,-437.03"/>
<polygon fill="black" stroke="black" points="698.792,-437.895 698.975,-427.302 692.226,-435.469 698.792,-437.895"/>
<text text-anchor="middle" x="695.5" y="-448.8" font-family="Times,serif" font-size="14.00">b</text>
</g>
<!-- methylation calls in low\nmappability regions in ClinVar regions\n(i.e. miscalls)&#45;&gt;bedtools intersect &#45;u_3b -->
<g id="edge53" class="edge"><title>methylation calls in low\nmappability regions in ClinVar regions\n(i.e. miscalls)&#45;&gt;bedtools intersect &#45;u_3b</title>
<path fill="none" stroke="black" d="M611.297,-288.723C548.84,-269.875 469.136,-245.822 418.072,-230.412"/>
<polygon fill="black" stroke="black" points="418.839,-226.988 408.255,-227.45 416.817,-233.689 418.839,-226.988"/>
<text text-anchor="middle" x="529.5" y="-252.8" font-family="Times,serif" font-size="14.00">b</text>
</g>
<!-- awk \&#39;{ print $0&quot;\\t&lt;aligner&gt;&quot; }\&#39; -->
<g id="node50" class="node"><title>awk \&#39;{ print $0&quot;\\t&lt;aligner&gt;&quot; }\&#39;</title>
<polygon fill="#d9d9d9" stroke="#d9d9d9" points="760,-232 594.102,-214 760,-196 925.898,-214 760,-232"/>
<text text-anchor="middle" x="760" y="-209.8" font-family="Times,serif" font-size="14.00">awk &#39;{ print $0&quot;\t&lt;aligner&gt;&quot; }&#39;</text>
</g>
<!-- methylation calls in low\nmappability regions in ClinVar regions\n(i.e. miscalls)&#45;&gt;awk \&#39;{ print $0&quot;\\t&lt;aligner&gt;&quot; }\&#39; -->
<g id="edge57" class="edge"><title>methylation calls in low\nmappability regions in ClinVar regions\n(i.e. miscalls)&#45;&gt;awk \&#39;{ print $0&quot;\\t&lt;aligner&gt;&quot; }\&#39;</title>
<path fill="none" stroke="black" d="M723.467,-282.752C730.928,-268.916 739.386,-253.23 746.284,-240.438"/>
<polygon fill="black" stroke="black" points="749.546,-241.761 751.212,-231.298 743.385,-238.439 749.546,-241.761"/>
</g>
<!-- ClinVar regions for each methylation miscall -->
<g id="node47" class="node"><title>ClinVar regions for each methylation miscall</title>
<ellipse fill="none" stroke="black" cx="338" cy="-122" rx="168.5" ry="18"/>
<text text-anchor="middle" x="338" y="-117.8" font-family="Times,serif" font-size="14.00">ClinVar regions for each methylation miscall</text>
</g>
<!-- bedtools intersect &#45;u_3b&#45;&gt;ClinVar regions for each methylation miscall -->
<g id="edge55" class="edge"><title>bedtools intersect &#45;u_3b&#45;&gt;ClinVar regions for each methylation miscall</title>
<path fill="none" stroke="black" d="M361.681,-196.493C357.483,-183.463 351.54,-165.021 346.658,-149.87"/>
<polygon fill="black" stroke="black" points="349.881,-148.459 343.482,-140.014 343.218,-150.606 349.881,-148.459"/>
</g>
<!-- ClinVar regions with count of methylation miscalls -->
<g id="node48" class="node"><title>ClinVar regions with count of methylation miscalls</title>
<polygon fill="none" stroke="black" points="614.299,-36 169.997,-36 55.7007,-1.06581e-14 500.003,-0 614.299,-36"/>
<text text-anchor="middle" x="335" y="-13.8" font-family="Times,serif" font-size="14.00">ClinVar regions with count of methylation miscalls</text>
</g>
<!-- ClinVar regions for each methylation miscall&#45;&gt;ClinVar regions with count of methylation miscalls -->
<g id="edge56" class="edge"><title>ClinVar regions for each methylation miscall&#45;&gt;ClinVar regions with count of methylation miscalls</title>
<path fill="none" stroke="black" d="M337.491,-103.697C337.027,-87.9228 336.334,-64.3637 335.797,-46.0941"/>
<polygon fill="black" stroke="black" points="339.294,-45.9401 335.501,-36.0474 332.297,-46.146 339.294,-45.9401"/>
<text text-anchor="middle" x="387.743" y="-56.8" font-family="Times,serif" font-size="14.00">count_miscalls.py</text>
</g>
<!-- methylation miscall data -->
<g id="node49" class="node"><title>methylation miscall data</title>
<polygon fill="gray" stroke="gray" points="916.926,-36 691.153,-36 633.074,-1.06581e-14 858.847,-0 916.926,-36"/>
<text text-anchor="middle" x="775" y="-13.8" font-family="Times,serif" font-size="14.00">methylation miscall data</text>
</g>
<!-- methylation calls in low\nmappability regions in ClinVar regions\nwith identifier column -->
<g id="node51" class="node"><title>methylation calls in low\nmappability regions in ClinVar regions\nwith identifier column</title>
<ellipse fill="none" stroke="black" cx="774" cy="-122" rx="164.925" ry="35.2113"/>
<text text-anchor="middle" x="774" y="-131.8" font-family="Times,serif" font-size="14.00">methylation calls in low</text>
<text text-anchor="middle" x="774" y="-117.8" font-family="Times,serif" font-size="14.00">mappability regions in ClinVar regions</text>
<text text-anchor="middle" x="774" y="-103.8" font-family="Times,serif" font-size="14.00">with identifier column</text>
</g>
<!-- awk \&#39;{ print $0&quot;\\t&lt;aligner&gt;&quot; }\&#39;&#45;&gt;methylation calls in low\nmappability regions in ClinVar regions\nwith identifier column -->
<g id="edge58" class="edge"><title>awk \&#39;{ print $0&quot;\\t&lt;aligner&gt;&quot; }\&#39;&#45;&gt;methylation calls in low\nmappability regions in ClinVar regions\nwith identifier column</title>
<path fill="none" stroke="black" d="M762.633,-196.072C763.905,-187.899 765.496,-177.67 767.081,-167.476"/>
<polygon fill="black" stroke="black" points="770.574,-167.791 768.653,-157.372 763.658,-166.715 770.574,-167.791"/>
</g>
<!-- methylation calls in low\nmappability regions in ClinVar regions\nwith identifier column&#45;&gt;methylation miscall data -->
<g id="edge59" class="edge"><title>methylation calls in low\nmappability regions in ClinVar regions\nwith identifier column&#45;&gt;methylation miscall data</title>
<path fill="none" stroke="black" stroke-dasharray="5,2" d="M774.339,-86.4675C774.467,-73.3254 774.612,-58.5492 774.734,-46.1824"/>
<polygon fill="black" stroke="black" points="778.235,-46.0705 774.833,-36.0366 771.235,-46.0018 778.235,-46.0705"/>
<text text-anchor="middle" x="826.65" y="-56.8" font-family="Times,serif" font-size="14.00">Display in Tableau</text>
</g>
</g>
</svg>
