<?xml version="1.0" encoding="UTF-8" standalone="no"?>
<!DOCTYPE svg PUBLIC "-//W3C//DTD SVG 1.1//EN"
 "http://www.w3.org/Graphics/SVG/1.1/DTD/svg11.dtd">
<!-- Generated by graphviz version 2.36.0 (20140111.2315)
 -->
<!-- Title: workflow Pages: 1 -->
<svg width="1177pt" height="2266pt"
 viewBox="0.00 0.00 1177.00 2266.00" xmlns="http://www.w3.org/2000/svg" xmlns:xlink="http://www.w3.org/1999/xlink">
<g id="graph0" class="graph" transform="scale(1 1) rotate(0) translate(4 2262)">
<title>workflow</title>
<polygon fill="white" stroke="none" points="-4,4 -4,-2262 1173,-2262 1173,4 -4,4"/>
<!-- Clinvar VCF -->
<g id="node1" class="node"><title>Clinvar VCF</title>
<polygon fill="none" stroke="black" points="309.307,-1798 277.153,-1816 212.847,-1816 180.693,-1798 212.847,-1780 277.153,-1780 309.307,-1798"/>
<text text-anchor="middle" x="245" y="-1793.8" font-family="Times,serif" font-size="14.00">Clinvar VCF</text>
</g>
<!-- Clinvar BED -->
<g id="node4" class="node"><title>Clinvar BED</title>
<ellipse fill="none" stroke="black" cx="234" cy="-1690" rx="56.2959" ry="18"/>
<text text-anchor="middle" x="234" y="-1685.8" font-family="Times,serif" font-size="14.00">Clinvar BED</text>
</g>
<!-- Clinvar VCF&#45;&gt;Clinvar BED -->
<g id="edge1" class="edge"><title>Clinvar VCF&#45;&gt;Clinvar BED</title>
<path fill="none" stroke="black" d="M243.233,-1779.97C241.511,-1763.38 238.865,-1737.88 236.847,-1718.43"/>
<polygon fill="black" stroke="black" points="240.313,-1717.93 235.799,-1708.34 233.35,-1718.65 240.313,-1717.93"/>
<text text-anchor="middle" x="264.545" y="-1739.8" font-family="Times,serif" font-size="14.00">vcf2bed</text>
</g>
<!-- grch38 fasta -->
<g id="node2" class="node"><title>grch38 fasta</title>
<polygon fill="none" stroke="black" points="677.285,-2154 646.642,-2172 585.358,-2172 554.715,-2154 585.358,-2136 646.642,-2136 677.285,-2154"/>
<text text-anchor="middle" x="616" y="-2149.8" font-family="Times,serif" font-size="14.00">grch38 fasta</text>
</g>
<!-- MethylDackel extract &#45;@ 16 &#45;q &lt;cutoff&gt;\n&#45;&#45;CHH &#45;&#45;CHG &#45;&#45;OT 2,0,0,97_2 -->
<g id="node27" class="node"><title>MethylDackel extract &#45;@ 16 &#45;q &lt;cutoff&gt;\n&#45;&#45;CHH &#45;&#45;CHG &#45;&#45;OT 2,0,0,97_2</title>
<polygon fill="#d9d9d9" stroke="#d9d9d9" points="926,-2086 682.716,-2050 926,-2014 1169.28,-2050 926,-2086"/>
<text text-anchor="middle" x="926" y="-2052.8" font-family="Times,serif" font-size="14.00">MethylDackel extract &#45;@ 16 &#45;q &lt;cutoff&gt;</text>
<text text-anchor="middle" x="926" y="-2038.8" font-family="Times,serif" font-size="14.00">&#45;&#45;CHH &#45;&#45;CHG &#45;&#45;OT 2,0,0,97</text>
</g>
<!-- grch38 fasta&#45;&gt;MethylDackel extract &#45;@ 16 &#45;q &lt;cutoff&gt;\n&#45;&#45;CHH &#45;&#45;CHG &#45;&#45;OT 2,0,0,97_2 -->
<g id="edge26" class="edge"><title>grch38 fasta&#45;&gt;MethylDackel extract &#45;@ 16 &#45;q &lt;cutoff&gt;\n&#45;&#45;CHH &#45;&#45;CHG &#45;&#45;OT 2,0,0,97_2</title>
<path fill="none" stroke="black" d="M654.323,-2140.39C701.145,-2124.98 781.683,-2098.48 842.948,-2078.33"/>
<polygon fill="black" stroke="black" points="844.203,-2081.6 852.608,-2075.15 842.015,-2074.95 844.203,-2081.6"/>
</g>
<!-- grch38 .fai file -->
<g id="node38" class="node"><title>grch38 .fai file</title>
<ellipse fill="none" stroke="black" cx="430" cy="-2050" rx="61.3867" ry="18"/>
<text text-anchor="middle" x="430" y="-2045.8" font-family="Times,serif" font-size="14.00">grch38 .fai file</text>
</g>
<!-- grch38 fasta&#45;&gt;grch38 .fai file -->
<g id="edge40" class="edge"><title>grch38 fasta&#45;&gt;grch38 .fai file</title>
<path fill="none" stroke="black" d="M584.868,-2135.93C552.211,-2118.02 500.926,-2089.89 466.414,-2070.97"/>
<polygon fill="black" stroke="black" points="468.04,-2067.87 457.589,-2066.13 464.674,-2074.01 468.04,-2067.87"/>
<text text-anchor="middle" x="592.022" y="-2106.8" font-family="Times,serif" font-size="14.00">samtools faidx</text>
</g>
<!-- GENCODE GFF -->
<g id="node3" class="node"><title>GENCODE GFF</title>
<polygon fill="none" stroke="black" points="162.61,-1798 121.805,-1816 40.1951,-1816 -0.609867,-1798 40.1951,-1780 121.805,-1780 162.61,-1798"/>
<text text-anchor="middle" x="81" y="-1793.8" font-family="Times,serif" font-size="14.00">GENCODE GFF</text>
</g>
<!-- GENCODE BED -->
<g id="node5" class="node"><title>GENCODE BED</title>
<ellipse fill="none" stroke="black" cx="84" cy="-1690" rx="71.8806" ry="18"/>
<text text-anchor="middle" x="84" y="-1685.8" font-family="Times,serif" font-size="14.00">GENCODE BED</text>
</g>
<!-- GENCODE GFF&#45;&gt;GENCODE BED -->
<g id="edge2" class="edge"><title>GENCODE GFF&#45;&gt;GENCODE BED</title>
<path fill="none" stroke="black" d="M81.482,-1779.97C81.9516,-1763.38 82.6731,-1737.88 83.2237,-1718.43"/>
<polygon fill="black" stroke="black" points="86.7248,-1718.44 83.5092,-1708.34 79.7276,-1718.24 86.7248,-1718.44"/>
<text text-anchor="middle" x="104.646" y="-1739.8" font-family="Times,serif" font-size="14.00">gff2bed</text>
</g>
<!-- bedtools intersect &#45;u -->
<g id="node6" class="node"><title>bedtools intersect &#45;u</title>
<polygon fill="#d9d9d9" stroke="#d9d9d9" points="216,-1584 100.439,-1566 216,-1548 331.561,-1566 216,-1584"/>
<text text-anchor="middle" x="216" y="-1561.8" font-family="Times,serif" font-size="14.00">bedtools intersect &#45;u</text>
</g>
<!-- Clinvar BED&#45;&gt;bedtools intersect &#45;u -->
<g id="edge5" class="edge"><title>Clinvar BED&#45;&gt;bedtools intersect &#45;u</title>
<path fill="none" stroke="black" d="M231.459,-1671.78C228.467,-1651.5 223.463,-1617.58 219.961,-1593.85"/>
<polygon fill="black" stroke="black" points="223.392,-1593.12 218.47,-1583.74 216.467,-1594.15 223.392,-1593.12"/>
<text text-anchor="middle" x="232.5" y="-1623.8" font-family="Times,serif" font-size="14.00">b</text>
</g>
<!-- GENCODE BED&#45;&gt;bedtools intersect &#45;u -->
<g id="edge4" class="edge"><title>GENCODE BED&#45;&gt;bedtools intersect &#45;u</title>
<path fill="none" stroke="black" d="M101.802,-1672.55C125.271,-1650.86 166.618,-1612.64 192.595,-1588.63"/>
<polygon fill="black" stroke="black" points="195.159,-1591.03 200.127,-1581.67 190.408,-1585.89 195.159,-1591.03"/>
<text text-anchor="middle" x="180.107" y="-1623.8" font-family="Times,serif" font-size="14.00">a</text>
</g>
<!-- Clinvar regions BED -->
<g id="node7" class="node"><title>Clinvar regions BED</title>
<ellipse fill="none" stroke="black" cx="216" cy="-1492" rx="84.1647" ry="18"/>
<text text-anchor="middle" x="216" y="-1487.8" font-family="Times,serif" font-size="14.00">Clinvar regions BED</text>
</g>
<!-- bedtools intersect &#45;u&#45;&gt;Clinvar regions BED -->
<g id="edge3" class="edge"><title>bedtools intersect &#45;u&#45;&gt;Clinvar regions BED</title>
<path fill="none" stroke="black" d="M216,-1547.94C216,-1539.81 216,-1529.88 216,-1520.7"/>
<polygon fill="black" stroke="black" points="219.5,-1520.44 216,-1510.44 212.5,-1520.44 219.5,-1520.44"/>
</g>
<!-- bedtools map &#45;o min -->
<g id="node13" class="node"><title>bedtools map &#45;o min</title>
<polygon fill="#d9d9d9" stroke="#d9d9d9" points="194,-1424 76.8099,-1406 194,-1388 311.19,-1406 194,-1424"/>
<text text-anchor="middle" x="194" y="-1401.8" font-family="Times,serif" font-size="14.00">bedtools map &#45;o min</text>
</g>
<!-- Clinvar regions BED&#45;&gt;bedtools map &#45;o min -->
<g id="edge10" class="edge"><title>Clinvar regions BED&#45;&gt;bedtools map &#45;o min</title>
<path fill="none" stroke="black" d="M211.548,-1474C208.497,-1462.35 204.388,-1446.66 200.914,-1433.4"/>
<polygon fill="black" stroke="black" points="204.215,-1432.19 198.296,-1423.4 197.444,-1433.96 204.215,-1432.19"/>
<text text-anchor="middle" x="210.107" y="-1444.8" font-family="Times,serif" font-size="14.00">a</text>
</g>
<!-- bedtools map &#45;o mean -->
<g id="node14" class="node"><title>bedtools map &#45;o mean</title>
<polygon fill="#d9d9d9" stroke="#d9d9d9" points="455,-1424 329.869,-1406 455,-1388 580.131,-1406 455,-1424"/>
<text text-anchor="middle" x="455" y="-1401.8" font-family="Times,serif" font-size="14.00">bedtools map &#45;o mean</text>
</g>
<!-- Clinvar regions BED&#45;&gt;bedtools map &#45;o mean -->
<g id="edge12" class="edge"><title>Clinvar regions BED&#45;&gt;bedtools map &#45;o mean</title>
<path fill="none" stroke="black" d="M257.904,-1476.27C300.844,-1461.18 367.332,-1437.81 411.014,-1422.46"/>
<polygon fill="black" stroke="black" points="412.24,-1425.74 420.514,-1419.12 409.919,-1419.13 412.24,-1425.74"/>
<text text-anchor="middle" x="353.107" y="-1444.8" font-family="Times,serif" font-size="14.00">a</text>
</g>
<!-- Bismap bedGraph -->
<g id="node8" class="node"><title>Bismap bedGraph</title>
<ellipse fill="none" stroke="black" cx="591" cy="-1946" rx="74.3138" ry="18"/>
<text text-anchor="middle" x="591" y="-1941.8" font-family="Times,serif" font-size="14.00">Bismap bedGraph</text>
</g>
<!-- sort &#45;k1,1 &#45;k2,2n_again -->
<g id="node9" class="node"><title>sort &#45;k1,1 &#45;k2,2n_again</title>
<polygon fill="#d9d9d9" stroke="#d9d9d9" points="455,-1584 357.507,-1566 455,-1548 552.493,-1566 455,-1584"/>
<text text-anchor="middle" x="455" y="-1561.8" font-family="Times,serif" font-size="14.00">sort &#45;k1,1 &#45;k2,2n</text>
</g>
<!-- Bismap bedGraph&#45;&gt;sort &#45;k1,1 &#45;k2,2n_again -->
<g id="edge6" class="edge"><title>Bismap bedGraph&#45;&gt;sort &#45;k1,1 &#45;k2,2n_again</title>
<path fill="none" stroke="black" d="M591,-1927.83C591,-1913.25 591,-1891.75 591,-1873 591,-1873 591,-1873 591,-1689 591,-1636.88 534.963,-1601.4 494.83,-1582.68"/>
<polygon fill="black" stroke="black" points="496.077,-1579.4 485.521,-1578.5 493.21,-1585.79 496.077,-1579.4"/>
</g>
<!-- bedtools complement -->
<g id="node36" class="node"><title>bedtools complement</title>
<polygon fill="#d9d9d9" stroke="#d9d9d9" points="439,-1890 317.572,-1872 439,-1854 560.428,-1872 439,-1890"/>
<text text-anchor="middle" x="439" y="-1867.8" font-family="Times,serif" font-size="14.00">bedtools complement</text>
</g>
<!-- Bismap bedGraph&#45;&gt;bedtools complement -->
<g id="edge38" class="edge"><title>Bismap bedGraph&#45;&gt;bedtools complement</title>
<path fill="none" stroke="black" d="M558.765,-1929.73C534.501,-1918.24 501.209,-1902.47 475.884,-1890.47"/>
<polygon fill="black" stroke="black" points="477.139,-1887.19 466.603,-1886.08 474.142,-1893.52 477.139,-1887.19"/>
</g>
<!-- Bismap complete bedGraph -->
<g id="node10" class="node"><title>Bismap complete bedGraph</title>
<ellipse fill="none" stroke="black" cx="455" cy="-1492" rx="108.248" ry="18"/>
<text text-anchor="middle" x="455" y="-1487.8" font-family="Times,serif" font-size="14.00">Bismap complete bedGraph</text>
</g>
<!-- sort &#45;k1,1 &#45;k2,2n_again&#45;&gt;Bismap complete bedGraph -->
<g id="edge7" class="edge"><title>sort &#45;k1,1 &#45;k2,2n_again&#45;&gt;Bismap complete bedGraph</title>
<path fill="none" stroke="black" d="M455,-1547.94C455,-1539.81 455,-1529.88 455,-1520.7"/>
<polygon fill="black" stroke="black" points="458.5,-1520.44 455,-1510.44 451.5,-1520.44 458.5,-1520.44"/>
</g>
<!-- Bismap complete bedGraph&#45;&gt;bedtools map &#45;o min -->
<g id="edge11" class="edge"><title>Bismap complete bedGraph&#45;&gt;bedtools map &#45;o min</title>
<path fill="none" stroke="black" d="M390.231,-1477.55C365.226,-1471.77 336.542,-1464.39 311,-1456 283.541,-1446.98 253.484,-1434.33 230.711,-1424.14"/>
<polygon fill="black" stroke="black" points="231.98,-1420.87 221.426,-1419.94 229.096,-1427.25 231.98,-1420.87"/>
<text text-anchor="middle" x="314.5" y="-1444.8" font-family="Times,serif" font-size="14.00">b</text>
</g>
<!-- Bismap complete bedGraph&#45;&gt;bedtools map &#45;o mean -->
<g id="edge13" class="edge"><title>Bismap complete bedGraph&#45;&gt;bedtools map &#45;o mean</title>
<path fill="none" stroke="black" d="M455,-1473.6C455,-1462.26 455,-1447.23 455,-1434.32"/>
<polygon fill="black" stroke="black" points="458.5,-1434.1 455,-1424.1 451.5,-1434.1 458.5,-1434.1"/>
<text text-anchor="middle" x="458.5" y="-1444.8" font-family="Times,serif" font-size="14.00">b</text>
</g>
<!-- awk_again -->
<g id="node40" class="node"><title>awk_again</title>
<polygon fill="#d9d9d9" stroke="#d9d9d9" points="748,-1424 597.758,-1406 748,-1388 898.242,-1406 748,-1424"/>
<text text-anchor="middle" x="748" y="-1401.8" font-family="Times,serif" font-size="14.00">awk &#39; if $4&lt;=0.01 { print }&#39;</text>
</g>
<!-- Bismap complete bedGraph&#45;&gt;awk_again -->
<g id="edge43" class="edge"><title>Bismap complete bedGraph&#45;&gt;awk_again</title>
<path fill="none" stroke="black" d="M506.708,-1476.18C560.066,-1460.88 642.824,-1437.15 696.211,-1421.85"/>
<polygon fill="black" stroke="black" points="697.176,-1425.21 705.824,-1419.09 695.247,-1418.48 697.176,-1425.21"/>
</g>
<!-- 0 mappability regions bedGraph -->
<g id="node11" class="node"><title>0 mappability regions bedGraph</title>
<ellipse fill="none" stroke="black" cx="439" cy="-1690" rx="123.962" ry="18"/>
<text text-anchor="middle" x="439" y="-1685.8" font-family="Times,serif" font-size="14.00">0 mappability regions bedGraph</text>
</g>
<!-- 0 mappability regions bedGraph&#45;&gt;sort &#45;k1,1 &#45;k2,2n_again -->
<g id="edge8" class="edge"><title>0 mappability regions bedGraph&#45;&gt;sort &#45;k1,1 &#45;k2,2n_again</title>
<path fill="none" stroke="black" d="M441.258,-1671.78C443.918,-1651.5 448.366,-1617.58 451.479,-1593.85"/>
<polygon fill="black" stroke="black" points="454.974,-1594.11 452.804,-1583.74 448.034,-1593.2 454.974,-1594.11"/>
</g>
<!-- Bismap bigWig -->
<g id="node12" class="node"><title>Bismap bigWig</title>
<polygon fill="none" stroke="black" points="663.478,-2050 625.739,-2068 550.261,-2068 512.522,-2050 550.261,-2032 625.739,-2032 663.478,-2050"/>
<text text-anchor="middle" x="588" y="-2045.8" font-family="Times,serif" font-size="14.00">Bismap bigWig</text>
</g>
<!-- Bismap bigWig&#45;&gt;Bismap bedGraph -->
<g id="edge9" class="edge"><title>Bismap bigWig&#45;&gt;Bismap bedGraph</title>
<path fill="none" stroke="black" d="M588.509,-2031.7C588.973,-2015.92 589.666,-1992.36 590.203,-1974.09"/>
<polygon fill="black" stroke="black" points="593.703,-1974.15 590.499,-1964.05 586.706,-1973.94 593.703,-1974.15"/>
<text text-anchor="middle" x="646.776" y="-1984.8" font-family="Times,serif" font-size="14.00">bigWigToBedGraph</text>
</g>
<!-- Clinvar regions with\n min mappability bedGraph -->
<g id="node15" class="node"><title>Clinvar regions with\n min mappability bedGraph</title>
<ellipse fill="none" stroke="black" cx="193" cy="-1324" rx="120.189" ry="25.4118"/>
<text text-anchor="middle" x="193" y="-1326.8" font-family="Times,serif" font-size="14.00">Clinvar regions with</text>
<text text-anchor="middle" x="193" y="-1312.8" font-family="Times,serif" font-size="14.00"> min mappability bedGraph</text>
</g>
<!-- bedtools map &#45;o min&#45;&gt;Clinvar regions with\n min mappability bedGraph -->
<g id="edge14" class="edge"><title>bedtools map &#45;o min&#45;&gt;Clinvar regions with\n min mappability bedGraph</title>
<path fill="none" stroke="black" d="M193.783,-1387.64C193.681,-1379.47 193.555,-1369.43 193.435,-1359.79"/>
<polygon fill="black" stroke="black" points="196.932,-1359.56 193.308,-1349.61 189.933,-1359.65 196.932,-1359.56"/>
</g>
<!-- Clinvar regions with\n mean mappability bedGraph -->
<g id="node16" class="node"><title>Clinvar regions with\n mean mappability bedGraph</title>
<ellipse fill="none" stroke="black" cx="458" cy="-1324" rx="126.245" ry="25.4118"/>
<text text-anchor="middle" x="458" y="-1326.8" font-family="Times,serif" font-size="14.00">Clinvar regions with</text>
<text text-anchor="middle" x="458" y="-1312.8" font-family="Times,serif" font-size="14.00"> mean mappability bedGraph</text>
</g>
<!-- bedtools map &#45;o mean&#45;&gt;Clinvar regions with\n mean mappability bedGraph -->
<g id="edge15" class="edge"><title>bedtools map &#45;o mean&#45;&gt;Clinvar regions with\n mean mappability bedGraph</title>
<path fill="none" stroke="black" d="M455.636,-1388.03C455.948,-1379.73 456.335,-1369.41 456.704,-1359.55"/>
<polygon fill="black" stroke="black" points="460.203,-1359.66 457.08,-1349.53 453.208,-1359.39 460.203,-1359.66"/>
</g>
<!-- paste -->
<g id="node17" class="node"><title>paste</title>
<polygon fill="#d9d9d9" stroke="#d9d9d9" points="433,-1248 393.514,-1230 433,-1212 472.486,-1230 433,-1248"/>
<text text-anchor="middle" x="433" y="-1225.8" font-family="Times,serif" font-size="14.00">paste</text>
</g>
<!-- Clinvar regions with\n min mappability bedGraph&#45;&gt;paste -->
<g id="edge16" class="edge"><title>Clinvar regions with\n min mappability bedGraph&#45;&gt;paste</title>
<path fill="none" stroke="black" d="M249.269,-1301.43C297.345,-1283 364.645,-1257.2 403.031,-1242.49"/>
<polygon fill="black" stroke="black" points="404.51,-1245.67 412.594,-1238.82 402.004,-1239.13 404.51,-1245.67"/>
</g>
<!-- Clinvar regions with\n mean mappability bedGraph&#45;&gt;paste -->
<g id="edge18" class="edge"><title>Clinvar regions with\n mean mappability bedGraph&#45;&gt;paste</title>
<path fill="none" stroke="black" d="M451.3,-1298.35C447.74,-1285.24 443.372,-1269.17 439.797,-1256.01"/>
<polygon fill="black" stroke="black" points="443.13,-1254.93 437.13,-1246.2 436.375,-1256.77 443.13,-1254.93"/>
</g>
<!-- Clinvar regions with min and\n mean mappability bedGraph -->
<g id="node18" class="node"><title>Clinvar regions with min and\n mean mappability bedGraph</title>
<ellipse fill="none" stroke="black" cx="433" cy="-1114" rx="127.015" ry="25.4118"/>
<text text-anchor="middle" x="433" y="-1116.8" font-family="Times,serif" font-size="14.00">Clinvar regions with min and</text>
<text text-anchor="middle" x="433" y="-1102.8" font-family="Times,serif" font-size="14.00"> mean mappability bedGraph</text>
</g>
<!-- paste&#45;&gt;Clinvar regions with min and\n mean mappability bedGraph -->
<g id="edge17" class="edge"><title>paste&#45;&gt;Clinvar regions with min and\n mean mappability bedGraph</title>
<path fill="none" stroke="black" d="M433,-1211.69C433,-1195.35 433,-1170.38 433,-1149.91"/>
<polygon fill="black" stroke="black" points="436.5,-1149.68 433,-1139.68 429.5,-1149.68 436.5,-1149.68"/>
</g>
<!-- Mappability Distribution in Clinvar regions -->
<g id="node19" class="node"><title>Mappability Distribution in Clinvar regions</title>
<polygon fill="gray" stroke="gray" points="717.15,-1038 456.85,-1038 456.85,-1002 717.15,-1002 717.15,-1038"/>
<text text-anchor="middle" x="587" y="-1015.8" font-family="Times,serif" font-size="14.00">Mappability Distribution in Clinvar regions</text>
</g>
<!-- Clinvar regions with min and\n mean mappability bedGraph&#45;&gt;Mappability Distribution in Clinvar regions -->
<g id="edge19" class="edge"><title>Clinvar regions with min and\n mean mappability bedGraph&#45;&gt;Mappability Distribution in Clinvar regions</title>
<path fill="none" stroke="black" stroke-dasharray="5,2" d="M472.259,-1089.55C496.123,-1075.29 526.412,-1057.2 549.877,-1043.18"/>
<polygon fill="black" stroke="black" points="551.719,-1046.15 558.509,-1038.02 548.129,-1040.14 551.719,-1046.15"/>
<text text-anchor="middle" x="581.65" y="-1058.8" font-family="Times,serif" font-size="14.00">Display in Tableau</text>
</g>
<!-- awk &#39;$11 &lt;= min_cutoff { print }&#39; -->
<g id="node22" class="node"><title>awk &#39;$11 &lt;= min_cutoff { print }&#39;</title>
<polygon fill="#d9d9d9" stroke="#d9d9d9" points="547,-850 365.826,-832 547,-814 728.174,-832 547,-850"/>
<text text-anchor="middle" x="547" y="-827.8" font-family="Times,serif" font-size="14.00">awk &#39;$11 &lt;= min_cutoff { print }&#39;</text>
</g>
<!-- Clinvar regions with min and\n mean mappability bedGraph&#45;&gt;awk &#39;$11 &lt;= min_cutoff { print }&#39; -->
<g id="edge23" class="edge"><title>Clinvar regions with min and\n mean mappability bedGraph&#45;&gt;awk &#39;$11 &lt;= min_cutoff { print }&#39;</title>
<path fill="none" stroke="black" d="M428.363,-1088.35C421.83,-1046.5 414.268,-960.235 449,-900 461.32,-878.633 483.538,-862.602 503.706,-851.587"/>
<polygon fill="black" stroke="black" points="505.52,-854.588 512.786,-846.877 502.298,-848.375 505.52,-854.588"/>
</g>
<!-- low mappability cutoff value\n(min mappability &lt;= 0.01) -->
<g id="node21" class="node"><title>low mappability cutoff value\n(min mappability &lt;= 0.01)</title>
<ellipse fill="none" stroke="black" cx="584" cy="-926" rx="125.166" ry="25.4118"/>
<text text-anchor="middle" x="584" y="-928.8" font-family="Times,serif" font-size="14.00">low mappability cutoff value</text>
<text text-anchor="middle" x="584" y="-914.8" font-family="Times,serif" font-size="14.00">(min mappability &lt;= 0.01)</text>
</g>
<!-- Mappability Distribution in Clinvar regions&#45;&gt;low mappability cutoff value\n(min mappability &lt;= 0.01) -->
<g id="edge20" class="edge"><title>Mappability Distribution in Clinvar regions&#45;&gt;low mappability cutoff value\n(min mappability &lt;= 0.01)</title>
<path fill="none" stroke="black" stroke-dasharray="5,2" d="M586.436,-1001.7C586.068,-990.413 585.575,-975.297 585.129,-961.615"/>
<polygon fill="black" stroke="black" points="588.624,-961.399 584.8,-951.518 581.627,-961.627 588.624,-961.399"/>
<text text-anchor="middle" x="644.909" y="-972.8" font-family="Times,serif" font-size="14.00">Examine distribution</text>
</g>
<!-- Examine Data -->
<!-- low mappability cutoff value\n(min mappability &lt;= 0.01)&#45;&gt;awk &#39;$11 &lt;= min_cutoff { print }&#39; -->
<g id="edge21" class="edge"><title>low mappability cutoff value\n(min mappability &lt;= 0.01)&#45;&gt;awk &#39;$11 &lt;= min_cutoff { print }&#39;</title>
<path fill="none" stroke="black" d="M574.085,-900.346C568.933,-887.537 562.641,-871.89 557.418,-858.904"/>
<polygon fill="black" stroke="black" points="560.648,-857.554 553.669,-849.582 554.153,-860.166 560.648,-857.554"/>
</g>
<!-- low mappability Clinvar regions -->
<g id="node23" class="node"><title>low mappability Clinvar regions</title>
<ellipse fill="none" stroke="black" cx="564" cy="-758" rx="124.214" ry="18"/>
<text text-anchor="middle" x="564" y="-753.8" font-family="Times,serif" font-size="14.00">low mappability Clinvar regions</text>
</g>
<!-- awk &#39;$11 &lt;= min_cutoff { print }&#39;&#45;&gt;low mappability Clinvar regions -->
<g id="edge22" class="edge"><title>awk &#39;$11 &lt;= min_cutoff { print }&#39;&#45;&gt;low mappability Clinvar regions</title>
<path fill="none" stroke="black" d="M550.943,-814.301C552.931,-805.881 555.391,-795.461 557.638,-785.944"/>
<polygon fill="black" stroke="black" points="561.069,-786.645 559.96,-776.109 554.256,-785.037 561.069,-786.645"/>
</g>
<!-- sorted low mappability Clinvar regions -->
<g id="node35" class="node"><title>sorted low mappability Clinvar regions</title>
<ellipse fill="none" stroke="black" cx="573" cy="-672" rx="148.447" ry="18"/>
<text text-anchor="middle" x="573" y="-667.8" font-family="Times,serif" font-size="14.00">sorted low mappability Clinvar regions</text>
</g>
<!-- low mappability Clinvar regions&#45;&gt;sorted low mappability Clinvar regions -->
<g id="edge37" class="edge"><title>low mappability Clinvar regions&#45;&gt;sorted low mappability Clinvar regions</title>
<path fill="none" stroke="black" d="M565.821,-740.001C567.033,-728.691 568.653,-713.576 570.047,-700.566"/>
<polygon fill="black" stroke="black" points="573.565,-700.578 571.151,-690.262 566.605,-699.832 573.565,-700.578"/>
<text text-anchor="middle" x="616.662" y="-710.8" font-family="Times,serif" font-size="14.00">sort &#45;k1,1 &#45;k2,2n</text>
</g>
<!-- EM&#45;seq methylation reads -->
<g id="node24" class="node"><title>EM&#45;seq methylation reads</title>
<polygon fill="none" stroke="black" points="970.145,-2240 910.573,-2258 791.427,-2258 731.855,-2240 791.427,-2222 910.573,-2222 970.145,-2240"/>
<text text-anchor="middle" x="851" y="-2235.8" font-family="Times,serif" font-size="14.00">EM&#45;seq methylation reads</text>
</g>
<!-- alignment BAM -->
<g id="node25" class="node"><title>alignment BAM</title>
<ellipse fill="none" stroke="black" cx="851" cy="-2154" rx="67.2482" ry="18"/>
<text text-anchor="middle" x="851" y="-2149.8" font-family="Times,serif" font-size="14.00">alignment BAM</text>
</g>
<!-- EM&#45;seq methylation reads&#45;&gt;alignment BAM -->
<g id="edge24" class="edge"><title>EM&#45;seq methylation reads&#45;&gt;alignment BAM</title>
<path fill="none" stroke="black" d="M851,-2221.6C851,-2210.26 851,-2195.23 851,-2182.32"/>
<polygon fill="black" stroke="black" points="854.5,-2182.1 851,-2172.1 847.5,-2182.1 854.5,-2182.1"/>
<text text-anchor="middle" x="876.659" y="-2192.8" font-family="Times,serif" font-size="14.00">bwameth</text>
</g>
<!-- alignment BAM&#45;&gt;MethylDackel extract &#45;@ 16 &#45;q &lt;cutoff&gt;\n&#45;&#45;CHH &#45;&#45;CHG &#45;&#45;OT 2,0,0,97_2 -->
<g id="edge32" class="edge"><title>alignment BAM&#45;&gt;MethylDackel extract &#45;@ 16 &#45;q &lt;cutoff&gt;\n&#45;&#45;CHH &#45;&#45;CHG &#45;&#45;OT 2,0,0,97_2</title>
<path fill="none" stroke="black" d="M863.385,-2136.16C872.455,-2123.82 885.153,-2106.55 896.745,-2090.79"/>
<polygon fill="black" stroke="black" points="899.576,-2092.84 902.681,-2082.71 893.937,-2088.7 899.576,-2092.84"/>
</g>
<!-- MapQ cutoff -->
<g id="node26" class="node"><title>MapQ cutoff</title>
<polygon fill="none" stroke="black" points="1065.28,-2154 1033.14,-2172 968.861,-2172 936.723,-2154 968.861,-2136 1033.14,-2136 1065.28,-2154"/>
<text text-anchor="middle" x="1001" y="-2149.8" font-family="Times,serif" font-size="14.00">MapQ cutoff</text>
</g>
<!-- MapQ cutoff&#45;&gt;MethylDackel extract &#45;@ 16 &#45;q &lt;cutoff&gt;\n&#45;&#45;CHH &#45;&#45;CHG &#45;&#45;OT 2,0,0,97_2 -->
<g id="edge25" class="edge"><title>MapQ cutoff&#45;&gt;MethylDackel extract &#45;@ 16 &#45;q &lt;cutoff&gt;\n&#45;&#45;CHH &#45;&#45;CHG &#45;&#45;OT 2,0,0,97_2</title>
<path fill="none" stroke="black" d="M988.277,-2135.7C979.321,-2123.52 966.951,-2106.69 955.594,-2091.25"/>
<polygon fill="black" stroke="black" points="958.161,-2088.83 949.417,-2082.85 952.521,-2092.98 958.161,-2088.83"/>
<text text-anchor="middle" x="979.831" y="-2106.8" font-family="Times,serif" font-size="14.00">&#45;q</text>
</g>
<!-- CpG -->
<g id="node31" class="node"><title>CpG</title>
<ellipse fill="none" stroke="black" cx="852" cy="-1946" rx="27" ry="18"/>
<text text-anchor="middle" x="852" y="-1941.8" font-family="Times,serif" font-size="14.00">CpG</text>
</g>
<!-- MethylDackel extract &#45;@ 16 &#45;q &lt;cutoff&gt;\n&#45;&#45;CHH &#45;&#45;CHG &#45;&#45;OT 2,0,0,97_2&#45;&gt;CpG -->
<g id="edge34" class="edge"><title>MethylDackel extract &#45;@ 16 &#45;q &lt;cutoff&gt;\n&#45;&#45;CHH &#45;&#45;CHG &#45;&#45;OT 2,0,0,97_2&#45;&gt;CpG</title>
<path fill="none" stroke="black" d="M902.992,-2017.29C892.133,-2002.32 879.388,-1984.75 869.357,-1970.92"/>
<polygon fill="black" stroke="black" points="871.909,-1968.48 863.204,-1962.44 866.243,-1972.59 871.909,-1968.48"/>
</g>
<!-- CHG -->
<g id="node32" class="node"><title>CHG</title>
<ellipse fill="none" stroke="black" cx="926" cy="-1946" rx="28.1721" ry="18"/>
<text text-anchor="middle" x="926" y="-1941.8" font-family="Times,serif" font-size="14.00">CHG</text>
</g>
<!-- MethylDackel extract &#45;@ 16 &#45;q &lt;cutoff&gt;\n&#45;&#45;CHH &#45;&#45;CHG &#45;&#45;OT 2,0,0,97_2&#45;&gt;CHG -->
<g id="edge33" class="edge"><title>MethylDackel extract &#45;@ 16 &#45;q &lt;cutoff&gt;\n&#45;&#45;CHH &#45;&#45;CHG &#45;&#45;OT 2,0,0,97_2&#45;&gt;CHG</title>
<path fill="none" stroke="black" d="M926,-2013.9C926,-2000.88 926,-1986.33 926,-1974.14"/>
<polygon fill="black" stroke="black" points="929.5,-1974.12 926,-1964.12 922.5,-1974.12 929.5,-1974.12"/>
</g>
<!-- CHH -->
<g id="node33" class="node"><title>CHH</title>
<ellipse fill="none" stroke="black" cx="1002" cy="-1946" rx="28.1721" ry="18"/>
<text text-anchor="middle" x="1002" y="-1941.8" font-family="Times,serif" font-size="14.00">CHH</text>
</g>
<!-- MethylDackel extract &#45;@ 16 &#45;q &lt;cutoff&gt;\n&#45;&#45;CHH &#45;&#45;CHG &#45;&#45;OT 2,0,0,97_2&#45;&gt;CHH -->
<g id="edge35" class="edge"><title>MethylDackel extract &#45;@ 16 &#45;q &lt;cutoff&gt;\n&#45;&#45;CHH &#45;&#45;CHG &#45;&#45;OT 2,0,0,97_2&#45;&gt;CHH</title>
<path fill="none" stroke="black" d="M949.63,-2017.29C960.817,-2002.27 973.951,-1984.64 984.268,-1970.8"/>
<polygon fill="black" stroke="black" points="987.117,-1972.83 990.285,-1962.72 981.504,-1968.65 987.117,-1972.83"/>
</g>
<!-- sort &#45;k1,1 &#45;k2,2n_2 -->
<g id="node28" class="node"><title>sort &#45;k1,1 &#45;k2,2n_2</title>
<polygon fill="#d9d9d9" stroke="#d9d9d9" points="926,-1890 828.507,-1872 926,-1854 1023.49,-1872 926,-1890"/>
<text text-anchor="middle" x="926" y="-1867.8" font-family="Times,serif" font-size="14.00">sort &#45;k1,1 &#45;k2,2n</text>
</g>
<!-- sorted bedGraph -->
<g id="node29" class="node"><title>sorted bedGraph</title>
<ellipse fill="none" stroke="black" cx="926" cy="-1744" rx="68.1994" ry="18"/>
<text text-anchor="middle" x="926" y="-1739.8" font-family="Times,serif" font-size="14.00">sorted bedGraph</text>
</g>
<!-- sort &#45;k1,1 &#45;k2,2n_2&#45;&gt;sorted bedGraph -->
<g id="edge27" class="edge"><title>sort &#45;k1,1 &#45;k2,2n_2&#45;&gt;sorted bedGraph</title>
<path fill="none" stroke="black" d="M926,-1853.74C926,-1832.73 926,-1796.97 926,-1772.23"/>
<polygon fill="black" stroke="black" points="929.5,-1772.05 926,-1762.05 922.5,-1772.05 929.5,-1772.05"/>
</g>
<!-- sorted bedGraph\n(no headers) -->
<g id="node30" class="node"><title>sorted bedGraph\n(no headers)</title>
<ellipse fill="none" stroke="black" cx="926" cy="-1628" rx="77.0208" ry="25.4118"/>
<text text-anchor="middle" x="926" y="-1630.8" font-family="Times,serif" font-size="14.00">sorted bedGraph</text>
<text text-anchor="middle" x="926" y="-1616.8" font-family="Times,serif" font-size="14.00">(no headers)</text>
</g>
<!-- sorted bedGraph&#45;&gt;sorted bedGraph\n(no headers) -->
<g id="edge28" class="edge"><title>sorted bedGraph&#45;&gt;sorted bedGraph\n(no headers)</title>
<path fill="none" stroke="black" d="M926,-1725.69C926,-1709.35 926,-1684.38 926,-1663.91"/>
<polygon fill="black" stroke="black" points="929.5,-1663.68 926,-1653.68 922.5,-1663.68 929.5,-1663.68"/>
<text text-anchor="middle" x="954.376" y="-1685.8" font-family="Times,serif" font-size="14.00">head &#45;n &#45;3</text>
</g>
<!-- bedtools intersect &#45;u_2 -->
<g id="node34" class="node"><title>bedtools intersect &#45;u_2</title>
<polygon fill="#d9d9d9" stroke="#d9d9d9" points="769,-428 615.656,-410 769,-392 922.344,-410 769,-428"/>
<text text-anchor="middle" x="769" y="-405.8" font-family="Times,serif" font-size="14.00">bedtools intersect &#45;u &#45;sorted</text>
</g>
<!-- sorted bedGraph\n(no headers)&#45;&gt;bedtools intersect &#45;u_2 -->
<g id="edge36" class="edge"><title>sorted bedGraph\n(no headers)&#45;&gt;bedtools intersect &#45;u_2</title>
<path fill="none" stroke="black" d="M926,-1602.28C926,-1582.68 926,-1554.59 926,-1530 926,-1530 926,-1530 926,-503 926,-459.33 880.224,-435.996 838.107,-423.77"/>
<polygon fill="black" stroke="black" points="838.924,-420.365 828.355,-421.111 837.082,-427.119 838.924,-420.365"/>
<text text-anchor="middle" x="929.107" y="-1015.8" font-family="Times,serif" font-size="14.00">a</text>
</g>
<!-- CpG&#45;&gt;sort &#45;k1,1 &#45;k2,2n_2 -->
<g id="edge29" class="edge"><title>CpG&#45;&gt;sort &#45;k1,1 &#45;k2,2n_2</title>
<path fill="none" stroke="black" d="M866.62,-1930.78C877.193,-1920.49 891.671,-1906.4 903.685,-1894.71"/>
<polygon fill="black" stroke="black" points="906.431,-1896.92 911.157,-1887.44 901.549,-1891.91 906.431,-1896.92"/>
</g>
<!-- CHG&#45;&gt;sort &#45;k1,1 &#45;k2,2n_2 -->
<g id="edge30" class="edge"><title>CHG&#45;&gt;sort &#45;k1,1 &#45;k2,2n_2</title>
<path fill="none" stroke="black" d="M926,-1927.94C926,-1919.81 926,-1909.88 926,-1900.7"/>
<polygon fill="black" stroke="black" points="929.5,-1900.44 926,-1890.44 922.5,-1900.44 929.5,-1900.44"/>
</g>
<!-- CHH&#45;&gt;sort &#45;k1,1 &#45;k2,2n_2 -->
<g id="edge31" class="edge"><title>CHH&#45;&gt;sort &#45;k1,1 &#45;k2,2n_2</title>
<path fill="none" stroke="black" d="M986.62,-1930.43C975.629,-1920.02 960.668,-1905.84 948.359,-1894.18"/>
<polygon fill="black" stroke="black" points="950.764,-1891.64 941.097,-1887.3 945.95,-1896.72 950.764,-1891.64"/>
</g>
<!-- methylation calls in low\nmappability regions in Clinvar regions\n(i.e. miscalls) -->
<g id="node45" class="node"><title>methylation calls in low\nmappability regions in Clinvar regions\n(i.e. miscalls)</title>
<ellipse fill="none" stroke="black" cx="769" cy="-318" rx="164.271" ry="35.2113"/>
<text text-anchor="middle" x="769" y="-327.8" font-family="Times,serif" font-size="14.00">methylation calls in low</text>
<text text-anchor="middle" x="769" y="-313.8" font-family="Times,serif" font-size="14.00">mappability regions in Clinvar regions</text>
<text text-anchor="middle" x="769" y="-299.8" font-family="Times,serif" font-size="14.00">(i.e. miscalls)</text>
</g>
<!-- bedtools intersect &#45;u_2&#45;&gt;methylation calls in low\nmappability regions in Clinvar regions\n(i.e. miscalls) -->
<g id="edge51" class="edge"><title>bedtools intersect &#45;u_2&#45;&gt;methylation calls in low\nmappability regions in Clinvar regions\n(i.e. miscalls)</title>
<path fill="none" stroke="black" d="M769,-391.647C769,-383.61 769,-373.652 769,-363.712"/>
<polygon fill="black" stroke="black" points="772.5,-363.442 769,-353.443 765.5,-363.443 772.5,-363.442"/>
</g>
<!-- bedtools intersect &#45;u_0 -->
<g id="node43" class="node"><title>bedtools intersect &#45;u_0</title>
<polygon fill="#d9d9d9" stroke="#d9d9d9" points="757,-604 616.973,-586 757,-568 897.027,-586 757,-604"/>
<text text-anchor="middle" x="757" y="-581.8" font-family="Times,serif" font-size="14.00">bedtools intersect &#45;sorted</text>
</g>
<!-- sorted low mappability Clinvar regions&#45;&gt;bedtools intersect &#45;u_0 -->
<g id="edge49" class="edge"><title>sorted low mappability Clinvar regions&#45;&gt;bedtools intersect &#45;u_0</title>
<path fill="none" stroke="black" d="M609.352,-654.404C640.904,-640 686.444,-619.21 718.587,-604.537"/>
<polygon fill="black" stroke="black" points="720.044,-607.719 727.687,-600.382 717.137,-601.351 720.044,-607.719"/>
<text text-anchor="middle" x="680.5" y="-624.8" font-family="Times,serif" font-size="14.00">b</text>
</g>
<!-- bedtools intersect &#45;u_3b -->
<g id="node46" class="node"><title>bedtools intersect &#45;u_3b</title>
<polygon fill="#d9d9d9" stroke="#d9d9d9" points="573,-232 411.661,-214 573,-196 734.339,-214 573,-232"/>
<text text-anchor="middle" x="573" y="-209.8" font-family="Times,serif" font-size="14.00">bedtools intersect &#45;wa &#45;sorted</text>
</g>
<!-- sorted low mappability Clinvar regions&#45;&gt;bedtools intersect &#45;u_3b -->
<g id="edge53" class="edge"><title>sorted low mappability Clinvar regions&#45;&gt;bedtools intersect &#45;u_3b</title>
<path fill="none" stroke="black" d="M573,-653.947C573,-636.975 573,-610.188 573,-587 573,-587 573,-587 573,-317 573,-291.782 573,-263.057 573,-242.531"/>
<polygon fill="black" stroke="black" points="576.5,-242.326 573,-232.326 569.5,-242.326 576.5,-242.326"/>
<text text-anchor="middle" x="576.107" y="-448.8" font-family="Times,serif" font-size="14.00">a</text>
</g>
<!-- 0 mappability regions BED -->
<g id="node37" class="node"><title>0 mappability regions BED</title>
<ellipse fill="none" stroke="black" cx="439" cy="-1798" rx="107.189" ry="18"/>
<text text-anchor="middle" x="439" y="-1793.8" font-family="Times,serif" font-size="14.00">0 mappability regions BED</text>
</g>
<!-- bedtools complement&#45;&gt;0 mappability regions BED -->
<g id="edge39" class="edge"><title>bedtools complement&#45;&gt;0 mappability regions BED</title>
<path fill="none" stroke="black" d="M439,-1853.94C439,-1845.81 439,-1835.88 439,-1826.7"/>
<polygon fill="black" stroke="black" points="442.5,-1826.44 439,-1816.44 435.5,-1826.44 442.5,-1826.44"/>
</g>
<!-- 0 mappability regions BED&#45;&gt;0 mappability regions bedGraph -->
<g id="edge45" class="edge"><title>0 mappability regions BED&#45;&gt;0 mappability regions bedGraph</title>
<path fill="none" stroke="black" d="M439,-1779.97C439,-1763.38 439,-1737.88 439,-1718.43"/>
<polygon fill="black" stroke="black" points="442.5,-1718.34 439,-1708.34 435.5,-1718.34 442.5,-1718.34"/>
<text text-anchor="middle" x="500.229" y="-1739.8" font-family="Times,serif" font-size="14.00">awk &#39;{ print $0&quot;\t&quot;0 }&#39;</text>
</g>
<!-- grch38 .genome file -->
<g id="node39" class="node"><title>grch38 .genome file</title>
<ellipse fill="none" stroke="black" cx="418" cy="-1946" rx="80.3865" ry="18"/>
<text text-anchor="middle" x="418" y="-1941.8" font-family="Times,serif" font-size="14.00">grch38 .genome file</text>
</g>
<!-- grch38 .fai file&#45;&gt;grch38 .genome file -->
<g id="edge41" class="edge"><title>grch38 .fai file&#45;&gt;grch38 .genome file</title>
<path fill="none" stroke="black" d="M427.964,-2031.7C426.109,-2015.92 423.337,-1992.36 421.188,-1974.09"/>
<polygon fill="black" stroke="black" points="424.65,-1973.57 420.006,-1964.05 417.698,-1974.39 424.65,-1973.57"/>
<text text-anchor="middle" x="449.464" y="-1984.8" font-family="Times,serif" font-size="14.00">cut &#45;f 1,2</text>
</g>
<!-- grch38 .genome file&#45;&gt;bedtools complement -->
<g id="edge42" class="edge"><title>grch38 .genome file&#45;&gt;bedtools complement</title>
<path fill="none" stroke="black" d="M422.977,-1927.94C425.471,-1919.39 428.546,-1908.84 431.333,-1899.29"/>
<polygon fill="black" stroke="black" points="434.763,-1900.02 434.204,-1889.44 428.043,-1898.06 434.763,-1900.02"/>
</g>
<!-- &lt;=0.01 mappability regions bedGraph -->
<g id="node41" class="node"><title>&lt;=0.01 mappability regions bedGraph</title>
<ellipse fill="none" stroke="black" cx="752" cy="-1324" rx="145.005" ry="18"/>
<text text-anchor="middle" x="752" y="-1319.8" font-family="Times,serif" font-size="14.00">&lt;=0.01 mappability regions bedGraph</text>
</g>
<!-- awk_again&#45;&gt;&lt;=0.01 mappability regions bedGraph -->
<g id="edge44" class="edge"><title>awk_again&#45;&gt;&lt;=0.01 mappability regions bedGraph</title>
<path fill="none" stroke="black" d="M748.848,-1388.03C749.365,-1377.71 750.036,-1364.28 750.626,-1352.47"/>
<polygon fill="black" stroke="black" points="754.135,-1352.38 751.139,-1342.22 747.144,-1352.03 754.135,-1352.38"/>
</g>
<!-- sorted low mappability regions -->
<g id="node42" class="node"><title>sorted low mappability regions</title>
<ellipse fill="none" stroke="black" cx="756" cy="-1176" rx="119.342" ry="18"/>
<text text-anchor="middle" x="756" y="-1171.8" font-family="Times,serif" font-size="14.00">sorted low mappability regions</text>
</g>
<!-- &lt;=0.01 mappability regions bedGraph&#45;&gt;sorted low mappability regions -->
<g id="edge46" class="edge"><title>&lt;=0.01 mappability regions bedGraph&#45;&gt;sorted low mappability regions</title>
<path fill="none" stroke="black" d="M752.467,-1305.97C753.149,-1281.04 754.428,-1234.37 755.246,-1204.54"/>
<polygon fill="black" stroke="black" points="758.749,-1204.47 755.524,-1194.38 751.751,-1204.28 758.749,-1204.47"/>
<text text-anchor="middle" x="799.662" y="-1268.8" font-family="Times,serif" font-size="14.00">sort &#45;k1,1 &#45;k2,2n</text>
</g>
<!-- sorted low mappability regions&#45;&gt;bedtools intersect &#45;u_0 -->
<g id="edge47" class="edge"><title>sorted low mappability regions&#45;&gt;bedtools intersect &#45;u_0</title>
<path fill="none" stroke="black" d="M756.252,-1157.7C756.549,-1135.86 757,-1097.15 757,-1064 757,-1064 757,-1064 757,-671 757,-651.979 757,-630.535 757,-614.075"/>
<polygon fill="black" stroke="black" points="760.5,-614.053 757,-604.053 753.5,-614.053 760.5,-614.053"/>
<text text-anchor="middle" x="760.107" y="-870.8" font-family="Times,serif" font-size="14.00">a</text>
</g>
<!-- sorted low mappability regions\nin Clinvar annotations -->
<g id="node44" class="node"><title>sorted low mappability regions\nin Clinvar annotations</title>
<ellipse fill="none" stroke="black" cx="762" cy="-504" rx="134.317" ry="25.4118"/>
<text text-anchor="middle" x="762" y="-506.8" font-family="Times,serif" font-size="14.00">sorted low mappability regions</text>
<text text-anchor="middle" x="762" y="-492.8" font-family="Times,serif" font-size="14.00">in Clinvar annotations</text>
</g>
<!-- bedtools intersect &#45;u_0&#45;&gt;sorted low mappability regions\nin Clinvar annotations -->
<g id="edge48" class="edge"><title>bedtools intersect &#45;u_0&#45;&gt;sorted low mappability regions\nin Clinvar annotations</title>
<path fill="none" stroke="black" d="M758.06,-568.034C758.579,-559.728 759.224,-549.412 759.841,-539.547"/>
<polygon fill="black" stroke="black" points="763.336,-539.732 760.467,-529.533 756.35,-539.295 763.336,-539.732"/>
</g>
<!-- sorted low mappability regions\nin Clinvar annotations&#45;&gt;bedtools intersect &#45;u_2 -->
<g id="edge50" class="edge"><title>sorted low mappability regions\nin Clinvar annotations&#45;&gt;bedtools intersect &#45;u_2</title>
<path fill="none" stroke="black" d="M763.876,-478.346C764.825,-465.871 765.979,-450.705 766.951,-437.926"/>
<polygon fill="black" stroke="black" points="770.448,-438.101 767.717,-427.864 763.468,-437.57 770.448,-438.101"/>
<text text-anchor="middle" x="769.5" y="-448.8" font-family="Times,serif" font-size="14.00">b</text>
</g>
<!-- methylation calls in low\nmappability regions in Clinvar regions\n(i.e. miscalls)&#45;&gt;bedtools intersect &#45;u_3b -->
<g id="edge52" class="edge"><title>methylation calls in low\nmappability regions in Clinvar regions\n(i.e. miscalls)&#45;&gt;bedtools intersect &#45;u_3b</title>
<path fill="none" stroke="black" d="M707.791,-285.146C675.296,-268.236 636.489,-248.04 608.877,-233.671"/>
<polygon fill="black" stroke="black" points="610.454,-230.546 599.968,-229.034 607.223,-236.755 610.454,-230.546"/>
<text text-anchor="middle" x="669.5" y="-252.8" font-family="Times,serif" font-size="14.00">b</text>
</g>
<!-- awk \&#39;{ print $0&quot;\\t&lt;aligner&gt;&quot; }\&#39; -->
<g id="node50" class="node"><title>awk \&#39;{ print $0&quot;\\t&lt;aligner&gt;&quot; }\&#39;</title>
<polygon fill="#d9d9d9" stroke="#d9d9d9" points="965,-232 799.102,-214 965,-196 1130.9,-214 965,-232"/>
<text text-anchor="middle" x="965" y="-209.8" font-family="Times,serif" font-size="14.00">awk &#39;{ print $0&quot;\t&lt;aligner&gt;&quot; }&#39;</text>
</g>
<!-- methylation calls in low\nmappability regions in Clinvar regions\n(i.e. miscalls)&#45;&gt;awk \&#39;{ print $0&quot;\\t&lt;aligner&gt;&quot; }\&#39; -->
<g id="edge56" class="edge"><title>methylation calls in low\nmappability regions in Clinvar regions\n(i.e. miscalls)&#45;&gt;awk \&#39;{ print $0&quot;\\t&lt;aligner&gt;&quot; }\&#39;</title>
<path fill="none" stroke="black" d="M830.209,-285.146C862.603,-268.288 901.27,-248.166 928.865,-233.805"/>
<polygon fill="black" stroke="black" points="930.519,-236.89 937.774,-229.169 927.288,-230.68 930.519,-236.89"/>
</g>
<!-- Clinvar regions for each methylation miscall -->
<g id="node47" class="node"><title>Clinvar regions for each methylation miscall</title>
<ellipse fill="none" stroke="black" cx="544" cy="-122" rx="168.023" ry="18"/>
<text text-anchor="middle" x="544" y="-117.8" font-family="Times,serif" font-size="14.00">Clinvar regions for each methylation miscall</text>
</g>
<!-- bedtools intersect &#45;u_3b&#45;&gt;Clinvar regions for each methylation miscall -->
<g id="edge54" class="edge"><title>bedtools intersect &#45;u_3b&#45;&gt;Clinvar regions for each methylation miscall</title>
<path fill="none" stroke="black" d="M567.681,-196.493C563.483,-183.463 557.54,-165.021 552.658,-149.87"/>
<polygon fill="black" stroke="black" points="555.881,-148.459 549.482,-140.014 549.218,-150.606 555.881,-148.459"/>
</g>
<!-- Clinvar regions with count of methylation miscalls -->
<g id="node48" class="node"><title>Clinvar regions with count of methylation miscalls</title>
<polygon fill="none" stroke="black" points="819.134,-36 376.685,-36 262.866,-1.06581e-14 705.315,-0 819.134,-36"/>
<text text-anchor="middle" x="541" y="-13.8" font-family="Times,serif" font-size="14.00">Clinvar regions with count of methylation miscalls</text>
</g>
<!-- Clinvar regions for each methylation miscall&#45;&gt;Clinvar regions with count of methylation miscalls -->
<g id="edge55" class="edge"><title>Clinvar regions for each methylation miscall&#45;&gt;Clinvar regions with count of methylation miscalls</title>
<path fill="none" stroke="black" d="M543.491,-103.697C543.027,-87.9228 542.334,-64.3637 541.797,-46.0941"/>
<polygon fill="black" stroke="black" points="545.294,-45.9401 541.501,-36.0474 538.297,-46.146 545.294,-45.9401"/>
<text text-anchor="middle" x="593.743" y="-56.8" font-family="Times,serif" font-size="14.00">count_miscalls.py</text>
</g>
<!-- methylation miscall data -->
<g id="node49" class="node"><title>methylation miscall data</title>
<polygon fill="gray" stroke="gray" points="1121.93,-36 896.153,-36 838.074,-1.06581e-14 1063.85,-0 1121.93,-36"/>
<text text-anchor="middle" x="980" y="-13.8" font-family="Times,serif" font-size="14.00">methylation miscall data</text>
</g>
<!-- methylation calls in low\nmappability regions in Clinvar regions\nwith identifier column -->
<g id="node51" class="node"><title>methylation calls in low\nmappability regions in Clinvar regions\nwith identifier column</title>
<ellipse fill="none" stroke="black" cx="979" cy="-122" rx="164.271" ry="35.2113"/>
<text text-anchor="middle" x="979" y="-131.8" font-family="Times,serif" font-size="14.00">methylation calls in low</text>
<text text-anchor="middle" x="979" y="-117.8" font-family="Times,serif" font-size="14.00">mappability regions in Clinvar regions</text>
<text text-anchor="middle" x="979" y="-103.8" font-family="Times,serif" font-size="14.00">with identifier column</text>
</g>
<!-- awk \&#39;{ print $0&quot;\\t&lt;aligner&gt;&quot; }\&#39;&#45;&gt;methylation calls in low\nmappability regions in Clinvar regions\nwith identifier column -->
<g id="edge57" class="edge"><title>awk \&#39;{ print $0&quot;\\t&lt;aligner&gt;&quot; }\&#39;&#45;&gt;methylation calls in low\nmappability regions in Clinvar regions\nwith identifier column</title>
<path fill="none" stroke="black" d="M967.633,-196.072C968.905,-187.899 970.496,-177.67 972.081,-167.476"/>
<polygon fill="black" stroke="black" points="975.574,-167.791 973.653,-157.372 968.658,-166.715 975.574,-167.791"/>
</g>
<!-- methylation calls in low\nmappability regions in Clinvar regions\nwith identifier column&#45;&gt;methylation miscall data -->
<g id="edge58" class="edge"><title>methylation calls in low\nmappability regions in Clinvar regions\nwith identifier column&#45;&gt;methylation miscall data</title>
<path fill="none" stroke="black" stroke-dasharray="5,2" d="M979.339,-86.4675C979.467,-73.3254 979.612,-58.5492 979.734,-46.1824"/>
<polygon fill="black" stroke="black" points="983.235,-46.0705 979.833,-36.0366 976.235,-46.0018 983.235,-46.0705"/>
<text text-anchor="middle" x="1031.65" y="-56.8" font-family="Times,serif" font-size="14.00">Display in Tableau</text>
</g>
</g>
</svg>
