<?xml version="1.0" encoding="UTF-8" standalone="no"?>
<!DOCTYPE svg PUBLIC "-//W3C//DTD SVG 1.1//EN"
 "http://www.w3.org/Graphics/SVG/1.1/DTD/svg11.dtd">
<!-- Generated by graphviz version 2.36.0 (20140111.2315)
 -->
<!-- Title: workflow Pages: 1 -->
<svg width="1123pt" height="2134pt"
 viewBox="0.00 0.00 1123.00 2134.00" xmlns="http://www.w3.org/2000/svg" xmlns:xlink="http://www.w3.org/1999/xlink">
<g id="graph0" class="graph" transform="scale(1 1) rotate(0) translate(4 2130)">
<title>workflow</title>
<polygon fill="white" stroke="none" points="-4,4 -4,-2130 1119,-2130 1119,4 -4,4"/>
<!-- ClinVar VCF -->
<g id="node1" class="node"><title>ClinVar VCF</title>
<polygon fill="none" stroke="black" points="311.512,-1788 278.756,-1806 213.244,-1806 180.488,-1788 213.244,-1770 278.756,-1770 311.512,-1788"/>
<text text-anchor="middle" x="246" y="-1783.8" font-family="Times,serif" font-size="14.00">ClinVar VCF</text>
</g>
<!-- ClinVar BED -->
<g id="node4" class="node"><title>ClinVar BED</title>
<ellipse fill="none" stroke="black" cx="242" cy="-1702" rx="57.2728" ry="18"/>
<text text-anchor="middle" x="242" y="-1697.8" font-family="Times,serif" font-size="14.00">ClinVar BED</text>
</g>
<!-- ClinVar VCF&#45;&gt;ClinVar BED -->
<g id="edge1" class="edge"><title>ClinVar VCF&#45;&gt;ClinVar BED</title>
<path fill="none" stroke="black" d="M245.171,-1769.6C244.631,-1758.26 243.916,-1743.23 243.301,-1730.32"/>
<polygon fill="black" stroke="black" points="246.786,-1729.92 242.814,-1720.1 239.794,-1730.25 246.786,-1729.92"/>
<text text-anchor="middle" x="267.545" y="-1740.8" font-family="Times,serif" font-size="14.00">vcf2bed</text>
</g>
<!-- grch38 fasta -->
<g id="node2" class="node"><title>grch38 fasta</title>
<polygon fill="none" stroke="black" points="691.285,-2108 660.642,-2126 599.358,-2126 568.715,-2108 599.358,-2090 660.642,-2090 691.285,-2108"/>
<text text-anchor="middle" x="630" y="-2103.8" font-family="Times,serif" font-size="14.00">grch38 fasta</text>
</g>
<!-- MethylDackel extract &#45;@ 16 &#45;q &lt;cutoff&gt;\n&#45;&#45;CHH &#45;&#45;CHG &#45;&#45;OT 2,0,0,97_2 -->
<g id="node27" class="node"><title>MethylDackel extract &#45;@ 16 &#45;q &lt;cutoff&gt;\n&#45;&#45;CHH &#45;&#45;CHG &#45;&#45;OT 2,0,0,97_2</title>
<polygon fill="#d9d9d9" stroke="#d9d9d9" points="872,-1462 628.716,-1426 872,-1390 1115.28,-1426 872,-1462"/>
<text text-anchor="middle" x="872" y="-1428.8" font-family="Times,serif" font-size="14.00">MethylDackel extract &#45;@ 16 &#45;q &lt;cutoff&gt;</text>
<text text-anchor="middle" x="872" y="-1414.8" font-family="Times,serif" font-size="14.00">&#45;&#45;CHH &#45;&#45;CHG &#45;&#45;OT 2,0,0,97</text>
</g>
<!-- grch38 fasta&#45;&gt;MethylDackel extract &#45;@ 16 &#45;q &lt;cutoff&gt;\n&#45;&#45;CHH &#45;&#45;CHG &#45;&#45;OT 2,0,0,97_2 -->
<g id="edge27" class="edge"><title>grch38 fasta&#45;&gt;MethylDackel extract &#45;@ 16 &#45;q &lt;cutoff&gt;\n&#45;&#45;CHH &#45;&#45;CHG &#45;&#45;OT 2,0,0,97_2</title>
<path fill="none" stroke="black" d="M665.747,-2092.81C693.041,-2079.35 726,-2056.22 726,-2023 726,-2023 726,-2023 726,-1529 726,-1494.67 753.468,-1470.93 784.575,-1455.05"/>
<polygon fill="black" stroke="black" points="786.378,-1458.07 793.871,-1450.58 783.342,-1451.76 786.378,-1458.07"/>
</g>
<!-- grch38 .fai file -->
<g id="node38" class="node"><title>grch38 .fai file</title>
<ellipse fill="none" stroke="black" cx="439" cy="-2022" rx="61.3867" ry="18"/>
<text text-anchor="middle" x="439" y="-2017.8" font-family="Times,serif" font-size="14.00">grch38 .fai file</text>
</g>
<!-- grch38 fasta&#45;&gt;grch38 .fai file -->
<g id="edge41" class="edge"><title>grch38 fasta&#45;&gt;grch38 .fai file</title>
<path fill="none" stroke="black" d="M595.853,-2091.98C563.683,-2077.83 515.404,-2056.6 480.914,-2041.43"/>
<polygon fill="black" stroke="black" points="482.139,-2038.15 471.576,-2037.33 479.321,-2044.56 482.139,-2038.15"/>
<text text-anchor="middle" x="587.022" y="-2060.8" font-family="Times,serif" font-size="14.00">samtools faidx</text>
</g>
<!-- GENCODE GFF -->
<g id="node3" class="node"><title>GENCODE GFF</title>
<polygon fill="none" stroke="black" points="162.61,-1788 121.805,-1806 40.1951,-1806 -0.609867,-1788 40.1951,-1770 121.805,-1770 162.61,-1788"/>
<text text-anchor="middle" x="81" y="-1783.8" font-family="Times,serif" font-size="14.00">GENCODE GFF</text>
</g>
<!-- GENCODE BED -->
<g id="node5" class="node"><title>GENCODE BED</title>
<ellipse fill="none" stroke="black" cx="88" cy="-1702" rx="71.8806" ry="18"/>
<text text-anchor="middle" x="88" y="-1697.8" font-family="Times,serif" font-size="14.00">GENCODE BED</text>
</g>
<!-- GENCODE GFF&#45;&gt;GENCODE BED -->
<g id="edge2" class="edge"><title>GENCODE GFF&#45;&gt;GENCODE BED</title>
<path fill="none" stroke="black" d="M82.4504,-1769.6C83.3952,-1758.26 84.6477,-1743.23 85.7237,-1730.32"/>
<polygon fill="black" stroke="black" points="89.2328,-1730.35 86.5754,-1720.1 82.2569,-1729.77 89.2328,-1730.35"/>
<text text-anchor="middle" x="106.646" y="-1740.8" font-family="Times,serif" font-size="14.00">gff2bed</text>
</g>
<!-- bedtools intersect &#45;u -->
<g id="node6" class="node"><title>bedtools intersect &#45;u</title>
<polygon fill="#d9d9d9" stroke="#d9d9d9" points="218,-1634 102.439,-1616 218,-1598 333.561,-1616 218,-1634"/>
<text text-anchor="middle" x="218" y="-1611.8" font-family="Times,serif" font-size="14.00">bedtools intersect &#45;u</text>
</g>
<!-- ClinVar BED&#45;&gt;bedtools intersect &#45;u -->
<g id="edge5" class="edge"><title>ClinVar BED&#45;&gt;bedtools intersect &#45;u</title>
<path fill="none" stroke="black" d="M237.143,-1684C233.814,-1672.35 229.333,-1656.66 225.542,-1643.4"/>
<polygon fill="black" stroke="black" points="228.799,-1642.06 222.686,-1633.4 222.068,-1643.98 228.799,-1642.06"/>
<text text-anchor="middle" x="237.831" y="-1654.8" font-family="Times,serif" font-size="14.00">&#45;b</text>
</g>
<!-- GENCODE BED&#45;&gt;bedtools intersect &#45;u -->
<g id="edge4" class="edge"><title>GENCODE BED&#45;&gt;bedtools intersect &#45;u</title>
<path fill="none" stroke="black" d="M112.758,-1685C134.22,-1671.13 165.331,-1651.03 188.163,-1636.28"/>
<polygon fill="black" stroke="black" points="190.276,-1639.08 196.775,-1630.71 186.476,-1633.2 190.276,-1639.08"/>
<text text-anchor="middle" x="166.438" y="-1654.8" font-family="Times,serif" font-size="14.00">&#45;a</text>
</g>
<!-- ClinVar regions BED -->
<g id="node7" class="node"><title>ClinVar regions BED</title>
<ellipse fill="none" stroke="black" cx="218" cy="-1530" rx="85.1416" ry="18"/>
<text text-anchor="middle" x="218" y="-1525.8" font-family="Times,serif" font-size="14.00">ClinVar regions BED</text>
</g>
<!-- bedtools intersect &#45;u&#45;&gt;ClinVar regions BED -->
<g id="edge3" class="edge"><title>bedtools intersect &#45;u&#45;&gt;ClinVar regions BED</title>
<path fill="none" stroke="black" d="M218,-1597.6C218,-1586.26 218,-1571.23 218,-1558.32"/>
<polygon fill="black" stroke="black" points="221.5,-1558.1 218,-1548.1 214.5,-1558.1 221.5,-1558.1"/>
</g>
<!-- bedtools map &#45;o min -->
<g id="node13" class="node"><title>bedtools map &#45;o min</title>
<polygon fill="#d9d9d9" stroke="#d9d9d9" points="454,-1444 336.81,-1426 454,-1408 571.19,-1426 454,-1444"/>
<text text-anchor="middle" x="454" y="-1421.8" font-family="Times,serif" font-size="14.00">bedtools map &#45;o min</text>
</g>
<!-- ClinVar regions BED&#45;&gt;bedtools map &#45;o min -->
<g id="edge10" class="edge"><title>ClinVar regions BED&#45;&gt;bedtools map &#45;o min</title>
<path fill="none" stroke="black" d="M253.587,-1513.62C297.134,-1494.8 370.591,-1463.05 415.447,-1443.66"/>
<polygon fill="black" stroke="black" points="417.045,-1446.79 424.836,-1439.6 414.268,-1440.36 417.045,-1446.79"/>
<text text-anchor="middle" x="334.438" y="-1482.8" font-family="Times,serif" font-size="14.00">&#45;a</text>
</g>
<!-- bedtools map &#45;o mean -->
<g id="node14" class="node"><title>bedtools map &#45;o mean</title>
<polygon fill="#d9d9d9" stroke="#d9d9d9" points="193,-1444 67.869,-1426 193,-1408 318.131,-1426 193,-1444"/>
<text text-anchor="middle" x="193" y="-1421.8" font-family="Times,serif" font-size="14.00">bedtools map &#45;o mean</text>
</g>
<!-- ClinVar regions BED&#45;&gt;bedtools map &#45;o mean -->
<g id="edge12" class="edge"><title>ClinVar regions BED&#45;&gt;bedtools map &#45;o mean</title>
<path fill="none" stroke="black" d="M213.759,-1511.7C209.851,-1495.75 203.994,-1471.86 199.497,-1453.51"/>
<polygon fill="black" stroke="black" points="202.875,-1452.59 197.095,-1443.71 196.077,-1454.26 202.875,-1452.59"/>
<text text-anchor="middle" x="215.438" y="-1482.8" font-family="Times,serif" font-size="14.00">&#45;a</text>
</g>
<!-- Bismap bedGraph -->
<g id="node8" class="node"><title>Bismap bedGraph</title>
<ellipse fill="none" stroke="black" cx="607" cy="-1936" rx="74.3138" ry="18"/>
<text text-anchor="middle" x="607" y="-1931.8" font-family="Times,serif" font-size="14.00">Bismap bedGraph</text>
</g>
<!-- sort &#45;k1,1 &#45;k2,2n_again -->
<g id="node9" class="node"><title>sort &#45;k1,1 &#45;k2,2n_again</title>
<polygon fill="#d9d9d9" stroke="#d9d9d9" points="460,-1634 362.507,-1616 460,-1598 557.493,-1616 460,-1634"/>
<text text-anchor="middle" x="460" y="-1611.8" font-family="Times,serif" font-size="14.00">sort &#45;k1,1 &#45;k2,2n</text>
</g>
<!-- Bismap bedGraph&#45;&gt;sort &#45;k1,1 &#45;k2,2n_again -->
<g id="edge6" class="edge"><title>Bismap bedGraph&#45;&gt;sort &#45;k1,1 &#45;k2,2n_again</title>
<path fill="none" stroke="black" d="M607,-1917.83C607,-1903.25 607,-1881.75 607,-1863 607,-1863 607,-1863 607,-1701 607,-1659.05 561.304,-1637.76 520.867,-1627.14"/>
<polygon fill="black" stroke="black" points="521.546,-1623.7 511.001,-1624.73 519.882,-1630.5 521.546,-1623.7"/>
</g>
<!-- bedtools complement -->
<g id="node36" class="node"><title>bedtools complement</title>
<polygon fill="#d9d9d9" stroke="#d9d9d9" points="455,-1880 333.572,-1862 455,-1844 576.428,-1862 455,-1880"/>
<text text-anchor="middle" x="455" y="-1857.8" font-family="Times,serif" font-size="14.00">bedtools complement</text>
</g>
<!-- Bismap bedGraph&#45;&gt;bedtools complement -->
<g id="edge39" class="edge"><title>Bismap bedGraph&#45;&gt;bedtools complement</title>
<path fill="none" stroke="black" d="M574.765,-1919.73C550.501,-1908.24 517.209,-1892.47 491.884,-1880.47"/>
<polygon fill="black" stroke="black" points="493.139,-1877.19 482.603,-1876.08 490.142,-1883.52 493.139,-1877.19"/>
</g>
<!-- Bismap complete bedGraph -->
<g id="node10" class="node"><title>Bismap complete bedGraph</title>
<ellipse fill="none" stroke="black" cx="460" cy="-1530" rx="108.248" ry="18"/>
<text text-anchor="middle" x="460" y="-1525.8" font-family="Times,serif" font-size="14.00">Bismap complete bedGraph</text>
</g>
<!-- sort &#45;k1,1 &#45;k2,2n_again&#45;&gt;Bismap complete bedGraph -->
<g id="edge7" class="edge"><title>sort &#45;k1,1 &#45;k2,2n_again&#45;&gt;Bismap complete bedGraph</title>
<path fill="none" stroke="black" d="M460,-1597.6C460,-1586.26 460,-1571.23 460,-1558.32"/>
<polygon fill="black" stroke="black" points="463.5,-1558.1 460,-1548.1 456.5,-1558.1 463.5,-1558.1"/>
</g>
<!-- Bismap complete bedGraph&#45;&gt;bedtools map &#45;o min -->
<g id="edge11" class="edge"><title>Bismap complete bedGraph&#45;&gt;bedtools map &#45;o min</title>
<path fill="none" stroke="black" d="M458.982,-1511.7C458.054,-1495.92 456.668,-1472.36 455.594,-1454.09"/>
<polygon fill="black" stroke="black" points="459.084,-1453.82 455.003,-1444.05 452.096,-1454.24 459.084,-1453.82"/>
<text text-anchor="middle" x="463.831" y="-1482.8" font-family="Times,serif" font-size="14.00">&#45;b</text>
</g>
<!-- Bismap complete bedGraph&#45;&gt;bedtools map &#45;o mean -->
<g id="edge13" class="edge"><title>Bismap complete bedGraph&#45;&gt;bedtools map &#45;o mean</title>
<path fill="none" stroke="black" d="M423.331,-1513.01C400.381,-1503.16 370.121,-1490.46 343,-1480 308.156,-1466.56 268.274,-1452.53 238.396,-1442.29"/>
<polygon fill="black" stroke="black" points="239.263,-1438.88 228.669,-1438.96 237,-1445.51 239.263,-1438.88"/>
<text text-anchor="middle" x="381.831" y="-1482.8" font-family="Times,serif" font-size="14.00">&#45;b</text>
</g>
<!-- Bismap complete bedGraph&#45;&gt;MethylDackel extract &#45;@ 16 &#45;q &lt;cutoff&gt;\n&#45;&#45;CHH &#45;&#45;CHG &#45;&#45;OT 2,0,0,97_2 -->
<g id="edge25" class="edge"><title>Bismap complete bedGraph&#45;&gt;MethylDackel extract &#45;@ 16 &#45;q &lt;cutoff&gt;\n&#45;&#45;CHH &#45;&#45;CHG &#45;&#45;OT 2,0,0,97_2</title>
<path fill="none" stroke="black" d="M522.667,-1515.21C550.66,-1508.94 584.03,-1501.3 614,-1494 668.371,-1480.77 728.94,-1465.08 777.721,-1452.22"/>
<polygon fill="black" stroke="black" points="778.855,-1455.54 787.63,-1449.61 777.068,-1448.77 778.855,-1455.54"/>
<text text-anchor="middle" x="671.555" y="-1482.8" font-family="Times,serif" font-size="14.00">&#45;M</text>
</g>
<!-- awk_again -->
<g id="node40" class="node"><title>awk_again</title>
<polygon fill="#d9d9d9" stroke="#d9d9d9" points="602,-850 451.758,-832 602,-814 752.242,-832 602,-850"/>
<text text-anchor="middle" x="602" y="-827.8" font-family="Times,serif" font-size="14.00">awk &#39; if $4&lt;=0.01 { print }&#39;</text>
</g>
<!-- Bismap complete bedGraph&#45;&gt;awk_again -->
<g id="edge44" class="edge"><title>Bismap complete bedGraph&#45;&gt;awk_again</title>
<path fill="none" stroke="black" d="M512.529,-1514.07C552.255,-1499.19 600,-1471.96 600,-1427 600,-1427 600,-1427 600,-913 600,-895.56 600.481,-875.987 600.971,-860.567"/>
<polygon fill="black" stroke="black" points="604.483,-860.276 601.323,-850.163 597.487,-860.039 604.483,-860.276"/>
</g>
<!-- 0 mappability regions bedGraph -->
<g id="node11" class="node"><title>0 mappability regions bedGraph</title>
<ellipse fill="none" stroke="black" cx="455" cy="-1702" rx="123.962" ry="18"/>
<text text-anchor="middle" x="455" y="-1697.8" font-family="Times,serif" font-size="14.00">0 mappability regions bedGraph</text>
</g>
<!-- 0 mappability regions bedGraph&#45;&gt;sort &#45;k1,1 &#45;k2,2n_again -->
<g id="edge8" class="edge"><title>0 mappability regions bedGraph&#45;&gt;sort &#45;k1,1 &#45;k2,2n_again</title>
<path fill="none" stroke="black" d="M456.036,-1683.6C456.711,-1672.26 457.606,-1657.23 458.374,-1644.32"/>
<polygon fill="black" stroke="black" points="461.882,-1644.29 458.982,-1634.1 454.894,-1643.87 461.882,-1644.29"/>
</g>
<!-- Bismap bigWig -->
<g id="node12" class="node"><title>Bismap bigWig</title>
<polygon fill="none" stroke="black" points="672.478,-2022 634.739,-2040 559.261,-2040 521.522,-2022 559.261,-2004 634.739,-2004 672.478,-2022"/>
<text text-anchor="middle" x="597" y="-2017.8" font-family="Times,serif" font-size="14.00">Bismap bigWig</text>
</g>
<!-- Bismap bigWig&#45;&gt;Bismap bedGraph -->
<g id="edge9" class="edge"><title>Bismap bigWig&#45;&gt;Bismap bedGraph</title>
<path fill="none" stroke="black" d="M596.629,-2003.69C596.648,-1994.28 597.032,-1982.46 598.448,-1972 598.793,-1969.45 599.248,-1966.82 599.769,-1964.19"/>
<polygon fill="black" stroke="black" points="603.212,-1964.84 602.008,-1954.31 596.385,-1963.29 603.212,-1964.84"/>
<text text-anchor="middle" x="655.776" y="-1974.8" font-family="Times,serif" font-size="14.00">bigWigToBedGraph</text>
</g>
<!-- ClinVar regions with\n min mappability bedGraph -->
<g id="node15" class="node"><title>ClinVar regions with\n min mappability bedGraph</title>
<ellipse fill="none" stroke="black" cx="452" cy="-1326" rx="120.189" ry="25.4118"/>
<text text-anchor="middle" x="452" y="-1328.8" font-family="Times,serif" font-size="14.00">ClinVar regions with</text>
<text text-anchor="middle" x="452" y="-1314.8" font-family="Times,serif" font-size="14.00"> min mappability bedGraph</text>
</g>
<!-- bedtools map &#45;o min&#45;&gt;ClinVar regions with\n min mappability bedGraph -->
<g id="edge14" class="edge"><title>bedtools map &#45;o min&#45;&gt;ClinVar regions with\n min mappability bedGraph</title>
<path fill="none" stroke="black" d="M453.652,-1407.93C453.393,-1395.28 453.032,-1377.59 452.714,-1361.98"/>
<polygon fill="black" stroke="black" points="456.205,-1361.51 452.502,-1351.59 449.207,-1361.66 456.205,-1361.51"/>
</g>
<!-- ClinVar regions with\n mean mappability bedGraph -->
<g id="node16" class="node"><title>ClinVar regions with\n mean mappability bedGraph</title>
<ellipse fill="none" stroke="black" cx="187" cy="-1326" rx="126.245" ry="25.4118"/>
<text text-anchor="middle" x="187" y="-1328.8" font-family="Times,serif" font-size="14.00">ClinVar regions with</text>
<text text-anchor="middle" x="187" y="-1314.8" font-family="Times,serif" font-size="14.00"> mean mappability bedGraph</text>
</g>
<!-- bedtools map &#45;o mean&#45;&gt;ClinVar regions with\n mean mappability bedGraph -->
<g id="edge15" class="edge"><title>bedtools map &#45;o mean&#45;&gt;ClinVar regions with\n mean mappability bedGraph</title>
<path fill="none" stroke="black" d="M191.955,-1407.93C191.18,-1395.28 190.097,-1377.59 189.141,-1361.98"/>
<polygon fill="black" stroke="black" points="192.61,-1361.35 188.505,-1351.59 185.623,-1361.78 192.61,-1361.35"/>
</g>
<!-- paste -->
<g id="node17" class="node"><title>paste</title>
<polygon fill="#d9d9d9" stroke="#d9d9d9" points="300,-1262 260.514,-1244 300,-1226 339.486,-1244 300,-1262"/>
<text text-anchor="middle" x="300" y="-1239.8" font-family="Times,serif" font-size="14.00">paste</text>
</g>
<!-- ClinVar regions with\n min mappability bedGraph&#45;&gt;paste -->
<g id="edge16" class="edge"><title>ClinVar regions with\n min mappability bedGraph&#45;&gt;paste</title>
<path fill="none" stroke="black" d="M408.443,-1302.08C382.037,-1288.18 349.199,-1270.89 326.618,-1259.01"/>
<polygon fill="black" stroke="black" points="328.097,-1255.83 317.617,-1254.27 324.836,-1262.03 328.097,-1255.83"/>
</g>
<!-- ClinVar regions with\n mean mappability bedGraph&#45;&gt;paste -->
<g id="edge18" class="edge"><title>ClinVar regions with\n mean mappability bedGraph&#45;&gt;paste</title>
<path fill="none" stroke="black" d="M220.293,-1301.43C238.529,-1288.52 260.67,-1272.84 276.984,-1261.29"/>
<polygon fill="black" stroke="black" points="279.247,-1263.98 285.386,-1255.35 275.202,-1258.27 279.247,-1263.98"/>
</g>
<!-- ClinVar regions with min and\n mean mappability bedGraph -->
<g id="node18" class="node"><title>ClinVar regions with min and\n mean mappability bedGraph</title>
<ellipse fill="none" stroke="black" cx="300" cy="-1162" rx="128.167" ry="25.4118"/>
<text text-anchor="middle" x="300" y="-1164.8" font-family="Times,serif" font-size="14.00">ClinVar regions with min and</text>
<text text-anchor="middle" x="300" y="-1150.8" font-family="Times,serif" font-size="14.00"> mean mappability bedGraph</text>
</g>
<!-- paste&#45;&gt;ClinVar regions with min and\n mean mappability bedGraph -->
<g id="edge17" class="edge"><title>paste&#45;&gt;ClinVar regions with min and\n mean mappability bedGraph</title>
<path fill="none" stroke="black" d="M300,-1225.64C300,-1217.47 300,-1207.43 300,-1197.79"/>
<polygon fill="black" stroke="black" points="303.5,-1197.61 300,-1187.61 296.5,-1197.61 303.5,-1197.61"/>
</g>
<!-- Mappability Distribution in ClinVar regions -->
<g id="node19" class="node"><title>Mappability Distribution in ClinVar regions</title>
<polygon fill="gray" stroke="gray" points="541.32,-1064 280.68,-1064 280.68,-1028 541.32,-1028 541.32,-1064"/>
<text text-anchor="middle" x="411" y="-1041.8" font-family="Times,serif" font-size="14.00">Mappability Distribution in ClinVar regions</text>
</g>
<!-- ClinVar regions with min and\n mean mappability bedGraph&#45;&gt;Mappability Distribution in ClinVar regions -->
<g id="edge19" class="edge"><title>ClinVar regions with min and\n mean mappability bedGraph&#45;&gt;Mappability Distribution in ClinVar regions</title>
<path fill="none" stroke="black" stroke-dasharray="5,2" d="M323.54,-1136.82C342.305,-1117.55 368.463,-1090.69 387.276,-1071.37"/>
<polygon fill="black" stroke="black" points="389.876,-1073.71 394.345,-1064.11 384.861,-1068.83 389.876,-1073.71"/>
<text text-anchor="middle" x="428.65" y="-1095.8" font-family="Times,serif" font-size="14.00">Display in Tableau</text>
</g>
<!-- awk &#39;$11 &lt;= min_cutoff { print }&#39; -->
<g id="node22" class="node"><title>awk &#39;$11 &lt;= min_cutoff { print }&#39;</title>
<polygon fill="#d9d9d9" stroke="#d9d9d9" points="252,-850 70.8262,-832 252,-814 433.174,-832 252,-850"/>
<text text-anchor="middle" x="252" y="-827.8" font-family="Times,serif" font-size="14.00">awk &#39;$11 &lt;= min_cutoff { print }&#39;</text>
</g>
<!-- ClinVar regions with min and\n mean mappability bedGraph&#45;&gt;awk &#39;$11 &lt;= min_cutoff { print }&#39; -->
<g id="edge23" class="edge"><title>ClinVar regions with min and\n mean mappability bedGraph&#45;&gt;awk &#39;$11 &lt;= min_cutoff { print }&#39;</title>
<path fill="none" stroke="black" d="M291.034,-1136.23C284.397,-1116.84 275.72,-1089.05 271,-1064 257.293,-991.274 253.474,-903.819 252.411,-860.334"/>
<polygon fill="black" stroke="black" points="255.908,-860.184 252.195,-850.261 248.91,-860.334 255.908,-860.184"/>
</g>
<!-- low mappability cutoff value\n(min mappability &lt;= 0.01) -->
<g id="node21" class="node"><title>low mappability cutoff value\n(min mappability &lt;= 0.01)</title>
<ellipse fill="none" stroke="black" cx="411" cy="-914" rx="125.166" ry="25.4118"/>
<text text-anchor="middle" x="411" y="-916.8" font-family="Times,serif" font-size="14.00">low mappability cutoff value</text>
<text text-anchor="middle" x="411" y="-902.8" font-family="Times,serif" font-size="14.00">(min mappability &lt;= 0.01)</text>
</g>
<!-- Mappability Distribution in ClinVar regions&#45;&gt;low mappability cutoff value\n(min mappability &lt;= 0.01) -->
<g id="edge20" class="edge"><title>Mappability Distribution in ClinVar regions&#45;&gt;low mappability cutoff value\n(min mappability &lt;= 0.01)</title>
<path fill="none" stroke="black" stroke-dasharray="5,2" d="M411,-1027.74C411,-1008.04 411,-975.294 411,-950.157"/>
<polygon fill="black" stroke="black" points="414.5,-949.91 411,-939.91 407.5,-949.91 414.5,-949.91"/>
<text text-anchor="middle" x="469.909" y="-979.8" font-family="Times,serif" font-size="14.00">Examine distribution</text>
</g>
<!-- Examine Data -->
<!-- low mappability cutoff value\n(min mappability &lt;= 0.01)&#45;&gt;awk &#39;$11 &lt;= min_cutoff { print }&#39; -->
<g id="edge21" class="edge"><title>low mappability cutoff value\n(min mappability &lt;= 0.01)&#45;&gt;awk &#39;$11 &lt;= min_cutoff { print }&#39;</title>
<path fill="none" stroke="black" d="M365.437,-890.075C341.402,-877.982 312.273,-863.326 289.551,-851.893"/>
<polygon fill="black" stroke="black" points="291.06,-848.735 280.554,-847.367 287.914,-854.988 291.06,-848.735"/>
</g>
<!-- low mappability cutoff value\n(min mappability &lt;= 0.01)&#45;&gt;awk_again -->
<g id="edge45" class="edge"><title>low mappability cutoff value\n(min mappability &lt;= 0.01)&#45;&gt;awk_again</title>
<path fill="none" stroke="black" d="M463.951,-890.822C494.6,-877.984 532.599,-862.069 560.966,-850.187"/>
<polygon fill="black" stroke="black" points="562.321,-853.414 570.193,-846.322 559.617,-846.958 562.321,-853.414"/>
</g>
<!-- low mappability ClinVar regions -->
<g id="node23" class="node"><title>low mappability ClinVar regions</title>
<ellipse fill="none" stroke="black" cx="298" cy="-758" rx="125.19" ry="18"/>
<text text-anchor="middle" x="298" y="-753.8" font-family="Times,serif" font-size="14.00">low mappability ClinVar regions</text>
</g>
<!-- awk &#39;$11 &lt;= min_cutoff { print }&#39;&#45;&gt;low mappability ClinVar regions -->
<g id="edge22" class="edge"><title>awk &#39;$11 &lt;= min_cutoff { print }&#39;&#45;&gt;low mappability ClinVar regions</title>
<path fill="none" stroke="black" d="M262.438,-814.662C268.138,-805.741 275.322,-794.496 281.739,-784.453"/>
<polygon fill="black" stroke="black" points="284.689,-786.336 287.123,-776.025 278.79,-782.567 284.689,-786.336"/>
</g>
<!-- sorted low mappability ClinVar regions -->
<g id="node35" class="node"><title>sorted low mappability ClinVar regions</title>
<ellipse fill="none" stroke="black" cx="310" cy="-672" rx="149.424" ry="18"/>
<text text-anchor="middle" x="310" y="-667.8" font-family="Times,serif" font-size="14.00">sorted low mappability ClinVar regions</text>
</g>
<!-- low mappability ClinVar regions&#45;&gt;sorted low mappability ClinVar regions -->
<g id="edge38" class="edge"><title>low mappability ClinVar regions&#45;&gt;sorted low mappability ClinVar regions</title>
<path fill="none" stroke="black" d="M300.428,-740.001C302.06,-728.578 304.247,-713.274 306.118,-700.176"/>
<polygon fill="black" stroke="black" points="309.585,-700.656 307.534,-690.262 302.655,-699.666 309.585,-700.656"/>
<text text-anchor="middle" x="351.662" y="-710.8" font-family="Times,serif" font-size="14.00">sort &#45;k1,1 &#45;k2,2n</text>
</g>
<!-- EM&#45;seq methylation reads -->
<g id="node24" class="node"><title>EM&#45;seq methylation reads</title>
<polygon fill="none" stroke="black" points="992.145,-1616 932.573,-1634 813.427,-1634 753.855,-1616 813.427,-1598 932.573,-1598 992.145,-1616"/>
<text text-anchor="middle" x="873" y="-1611.8" font-family="Times,serif" font-size="14.00">EM&#45;seq methylation reads</text>
</g>
<!-- alignment BAM -->
<g id="node25" class="node"><title>alignment BAM</title>
<ellipse fill="none" stroke="black" cx="872" cy="-1530" rx="67.2482" ry="18"/>
<text text-anchor="middle" x="872" y="-1525.8" font-family="Times,serif" font-size="14.00">alignment BAM</text>
</g>
<!-- EM&#45;seq methylation reads&#45;&gt;alignment BAM -->
<g id="edge24" class="edge"><title>EM&#45;seq methylation reads&#45;&gt;alignment BAM</title>
<path fill="none" stroke="black" d="M872.793,-1597.6C872.658,-1586.26 872.479,-1571.23 872.325,-1558.32"/>
<polygon fill="black" stroke="black" points="875.822,-1558.05 872.204,-1548.1 868.823,-1558.14 875.822,-1558.05"/>
<text text-anchor="middle" x="891.435" y="-1568.8" font-family="Times,serif" font-size="14.00">aligner</text>
</g>
<!-- alignment BAM&#45;&gt;MethylDackel extract &#45;@ 16 &#45;q &lt;cutoff&gt;\n&#45;&#45;CHH &#45;&#45;CHG &#45;&#45;OT 2,0,0,97_2 -->
<g id="edge33" class="edge"><title>alignment BAM&#45;&gt;MethylDackel extract &#45;@ 16 &#45;q &lt;cutoff&gt;\n&#45;&#45;CHH &#45;&#45;CHG &#45;&#45;OT 2,0,0,97_2</title>
<path fill="none" stroke="black" d="M872,-1511.7C872,-1500.81 872,-1486.22 872,-1472.22"/>
<polygon fill="black" stroke="black" points="875.5,-1472.19 872,-1462.19 868.5,-1472.19 875.5,-1472.19"/>
</g>
<!-- MapQ cutoff -->
<g id="node26" class="node"><title>MapQ cutoff</title>
<polygon fill="none" stroke="black" points="1086.28,-1530 1054.14,-1548 989.861,-1548 957.723,-1530 989.861,-1512 1054.14,-1512 1086.28,-1530"/>
<text text-anchor="middle" x="1022" y="-1525.8" font-family="Times,serif" font-size="14.00">MapQ cutoff</text>
</g>
<!-- MapQ cutoff&#45;&gt;MethylDackel extract &#45;@ 16 &#45;q &lt;cutoff&gt;\n&#45;&#45;CHH &#45;&#45;CHG &#45;&#45;OT 2,0,0,97_2 -->
<g id="edge26" class="edge"><title>MapQ cutoff&#45;&gt;MethylDackel extract &#45;@ 16 &#45;q &lt;cutoff&gt;\n&#45;&#45;CHH &#45;&#45;CHG &#45;&#45;OT 2,0,0,97_2</title>
<path fill="none" stroke="black" d="M996.893,-1511.93C976.737,-1498.22 947.782,-1478.53 922.825,-1461.56"/>
<polygon fill="black" stroke="black" points="924.771,-1458.65 914.533,-1455.92 920.835,-1464.44 924.771,-1458.65"/>
<text text-anchor="middle" x="974.831" y="-1482.8" font-family="Times,serif" font-size="14.00">&#45;q</text>
</g>
<!-- CpG -->
<g id="node31" class="node"><title>CpG</title>
<ellipse fill="none" stroke="black" cx="770" cy="-1326" rx="27" ry="18"/>
<text text-anchor="middle" x="770" y="-1321.8" font-family="Times,serif" font-size="14.00">CpG</text>
</g>
<!-- MethylDackel extract &#45;@ 16 &#45;q &lt;cutoff&gt;\n&#45;&#45;CHH &#45;&#45;CHG &#45;&#45;OT 2,0,0,97_2&#45;&gt;CpG -->
<g id="edge35" class="edge"><title>MethylDackel extract &#45;@ 16 &#45;q &lt;cutoff&gt;\n&#45;&#45;CHH &#45;&#45;CHG &#45;&#45;OT 2,0,0,97_2&#45;&gt;CpG</title>
<path fill="none" stroke="black" d="M840.286,-1394.53C824.693,-1379.55 806.28,-1361.86 792.212,-1348.34"/>
<polygon fill="black" stroke="black" points="794.526,-1345.71 784.89,-1341.31 789.676,-1350.76 794.526,-1345.71"/>
</g>
<!-- CHG -->
<g id="node32" class="node"><title>CHG</title>
<ellipse fill="none" stroke="black" cx="844" cy="-1326" rx="28.1721" ry="18"/>
<text text-anchor="middle" x="844" y="-1321.8" font-family="Times,serif" font-size="14.00">CHG</text>
</g>
<!-- MethylDackel extract &#45;@ 16 &#45;q &lt;cutoff&gt;\n&#45;&#45;CHH &#45;&#45;CHG &#45;&#45;OT 2,0,0,97_2&#45;&gt;CHG -->
<g id="edge34" class="edge"><title>MethylDackel extract &#45;@ 16 &#45;q &lt;cutoff&gt;\n&#45;&#45;CHH &#45;&#45;CHG &#45;&#45;OT 2,0,0,97_2&#45;&gt;CHG</title>
<path fill="none" stroke="black" d="M862.364,-1391.27C858.876,-1379.07 854.986,-1365.45 851.688,-1353.91"/>
<polygon fill="black" stroke="black" points="854.966,-1352.64 848.853,-1343.99 848.235,-1354.56 854.966,-1352.64"/>
</g>
<!-- CHH -->
<g id="node33" class="node"><title>CHH</title>
<ellipse fill="none" stroke="black" cx="920" cy="-1326" rx="28.1721" ry="18"/>
<text text-anchor="middle" x="920" y="-1321.8" font-family="Times,serif" font-size="14.00">CHH</text>
</g>
<!-- MethylDackel extract &#45;@ 16 &#45;q &lt;cutoff&gt;\n&#45;&#45;CHH &#45;&#45;CHG &#45;&#45;OT 2,0,0,97_2&#45;&gt;CHH -->
<g id="edge36" class="edge"><title>MethylDackel extract &#45;@ 16 &#45;q &lt;cutoff&gt;\n&#45;&#45;CHH &#45;&#45;CHG &#45;&#45;OT 2,0,0,97_2&#45;&gt;CHH</title>
<path fill="none" stroke="black" d="M888.117,-1392.09C894.435,-1379.2 901.573,-1364.62 907.491,-1352.54"/>
<polygon fill="black" stroke="black" points="910.681,-1353.98 911.937,-1343.46 904.395,-1350.9 910.681,-1353.98"/>
</g>
<!-- sort &#45;k1,1 &#45;k2,2n_2 -->
<g id="node28" class="node"><title>sort &#45;k1,1 &#45;k2,2n_2</title>
<polygon fill="#d9d9d9" stroke="#d9d9d9" points="800,-1262 702.507,-1244 800,-1226 897.493,-1244 800,-1262"/>
<text text-anchor="middle" x="800" y="-1239.8" font-family="Times,serif" font-size="14.00">sort &#45;k1,1 &#45;k2,2n</text>
</g>
<!-- sorted bedGraph -->
<g id="node29" class="node"><title>sorted bedGraph</title>
<ellipse fill="none" stroke="black" cx="784" cy="-1100" rx="68.1994" ry="18"/>
<text text-anchor="middle" x="784" y="-1095.8" font-family="Times,serif" font-size="14.00">sorted bedGraph</text>
</g>
<!-- sort &#45;k1,1 &#45;k2,2n_2&#45;&gt;sorted bedGraph -->
<g id="edge28" class="edge"><title>sort &#45;k1,1 &#45;k2,2n_2&#45;&gt;sorted bedGraph</title>
<path fill="none" stroke="black" d="M798.102,-1226.15C795.386,-1202.05 790.36,-1157.45 787.1,-1128.51"/>
<polygon fill="black" stroke="black" points="790.543,-1127.81 785.946,-1118.27 783.587,-1128.6 790.543,-1127.81"/>
</g>
<!-- sorted bedGraph\n(no headers) -->
<g id="node30" class="node"><title>sorted bedGraph\n(no headers)</title>
<ellipse fill="none" stroke="black" cx="780" cy="-984" rx="77.0208" ry="25.4118"/>
<text text-anchor="middle" x="780" y="-986.8" font-family="Times,serif" font-size="14.00">sorted bedGraph</text>
<text text-anchor="middle" x="780" y="-972.8" font-family="Times,serif" font-size="14.00">(no headers)</text>
</g>
<!-- sorted bedGraph&#45;&gt;sorted bedGraph\n(no headers) -->
<g id="edge29" class="edge"><title>sorted bedGraph&#45;&gt;sorted bedGraph\n(no headers)</title>
<path fill="none" stroke="black" d="M783.392,-1081.69C782.819,-1065.35 781.943,-1040.38 781.225,-1019.91"/>
<polygon fill="black" stroke="black" points="784.715,-1019.55 780.866,-1009.68 777.719,-1019.8 784.715,-1019.55"/>
<text text-anchor="middle" x="810.376" y="-1041.8" font-family="Times,serif" font-size="14.00">head &#45;n &#45;3</text>
</g>
<!-- bedtools intersect &#45;u_2 -->
<g id="node34" class="node"><title>bedtools intersect &#45;u_2</title>
<polygon fill="#d9d9d9" stroke="#d9d9d9" points="648,-428 494.656,-410 648,-392 801.344,-410 648,-428"/>
<text text-anchor="middle" x="648" y="-405.8" font-family="Times,serif" font-size="14.00">bedtools intersect &#45;u &#45;sorted</text>
</g>
<!-- sorted bedGraph\n(no headers)&#45;&gt;bedtools intersect &#45;u_2 -->
<g id="edge37" class="edge"><title>sorted bedGraph\n(no headers)&#45;&gt;bedtools intersect &#45;u_2</title>
<path fill="none" stroke="black" d="M780,-958.311C780,-935.419 780,-900.408 780,-870 780,-870 780,-870 780,-503 780,-463.511 739.748,-439.58 703.699,-426.067"/>
<polygon fill="black" stroke="black" points="704.762,-422.73 694.167,-422.69 702.424,-429.328 704.762,-422.73"/>
<text text-anchor="middle" x="785.438" y="-710.8" font-family="Times,serif" font-size="14.00">&#45;a</text>
</g>
<!-- CpG&#45;&gt;sort &#45;k1,1 &#45;k2,2n_2 -->
<g id="edge30" class="edge"><title>CpG&#45;&gt;sort &#45;k1,1 &#45;k2,2n_2</title>
<path fill="none" stroke="black" d="M776.216,-1308.42C780.333,-1297.45 785.813,-1282.83 790.475,-1270.4"/>
<polygon fill="black" stroke="black" points="793.763,-1271.6 793.997,-1261.01 787.208,-1269.14 793.763,-1271.6"/>
</g>
<!-- CHG&#45;&gt;sort &#45;k1,1 &#45;k2,2n_2 -->
<g id="edge31" class="edge"><title>CHG&#45;&gt;sort &#45;k1,1 &#45;k2,2n_2</title>
<path fill="none" stroke="black" d="M835.096,-1308.81C828.872,-1297.5 820.45,-1282.18 813.416,-1269.39"/>
<polygon fill="black" stroke="black" points="816.477,-1267.7 808.591,-1260.62 810.344,-1271.07 816.477,-1267.7"/>
</g>
<!-- CHH&#45;&gt;sort &#45;k1,1 &#45;k2,2n_2 -->
<g id="edge32" class="edge"><title>CHH&#45;&gt;sort &#45;k1,1 &#45;k2,2n_2</title>
<path fill="none" stroke="black" d="M900.986,-1312.32C881.499,-1299.33 850.964,-1278.98 828.57,-1264.05"/>
<polygon fill="black" stroke="black" points="830.388,-1261.05 820.127,-1258.42 826.506,-1266.88 830.388,-1261.05"/>
</g>
<!-- methylation calls in low\nmappability regions in ClinVar regions\n(i.e. miscalls) -->
<g id="node45" class="node"><title>methylation calls in low\nmappability regions in ClinVar regions\n(i.e. miscalls)</title>
<ellipse fill="none" stroke="black" cx="648" cy="-318" rx="164.925" ry="35.2113"/>
<text text-anchor="middle" x="648" y="-327.8" font-family="Times,serif" font-size="14.00">methylation calls in low</text>
<text text-anchor="middle" x="648" y="-313.8" font-family="Times,serif" font-size="14.00">mappability regions in ClinVar regions</text>
<text text-anchor="middle" x="648" y="-299.8" font-family="Times,serif" font-size="14.00">(i.e. miscalls)</text>
</g>
<!-- bedtools intersect &#45;u_2&#45;&gt;methylation calls in low\nmappability regions in ClinVar regions\n(i.e. miscalls) -->
<g id="edge53" class="edge"><title>bedtools intersect &#45;u_2&#45;&gt;methylation calls in low\nmappability regions in ClinVar regions\n(i.e. miscalls)</title>
<path fill="none" stroke="black" d="M648,-391.647C648,-383.61 648,-373.652 648,-363.712"/>
<polygon fill="black" stroke="black" points="651.5,-363.442 648,-353.443 644.5,-363.443 651.5,-363.442"/>
</g>
<!-- bedtools intersect &#45;u_0 -->
<g id="node43" class="node"><title>bedtools intersect &#45;u_0</title>
<polygon fill="#d9d9d9" stroke="#d9d9d9" points="602,-604 461.973,-586 602,-568 742.027,-586 602,-604"/>
<text text-anchor="middle" x="602" y="-581.8" font-family="Times,serif" font-size="14.00">bedtools intersect &#45;sorted</text>
</g>
<!-- sorted low mappability ClinVar regions&#45;&gt;bedtools intersect &#45;u_0 -->
<g id="edge51" class="edge"><title>sorted low mappability ClinVar regions&#45;&gt;bedtools intersect &#45;u_0</title>
<path fill="none" stroke="black" d="M364.923,-655.2C418.468,-639.797 499.225,-616.565 551.285,-601.589"/>
<polygon fill="black" stroke="black" points="552.335,-604.929 560.978,-598.801 550.4,-598.202 552.335,-604.929"/>
<text text-anchor="middle" x="479.831" y="-624.8" font-family="Times,serif" font-size="14.00">&#45;b</text>
</g>
<!-- bedtools intersect &#45;u_3b -->
<g id="node46" class="node"><title>bedtools intersect &#45;u_3b</title>
<polygon fill="#d9d9d9" stroke="#d9d9d9" points="310,-232 148.661,-214 310,-196 471.339,-214 310,-232"/>
<text text-anchor="middle" x="310" y="-209.8" font-family="Times,serif" font-size="14.00">bedtools intersect &#45;wa &#45;sorted</text>
</g>
<!-- sorted low mappability ClinVar regions&#45;&gt;bedtools intersect &#45;u_3b -->
<g id="edge55" class="edge"><title>sorted low mappability ClinVar regions&#45;&gt;bedtools intersect &#45;u_3b</title>
<path fill="none" stroke="black" d="M310,-653.947C310,-636.975 310,-610.188 310,-587 310,-587 310,-587 310,-317 310,-291.782 310,-263.057 310,-242.531"/>
<polygon fill="black" stroke="black" points="313.5,-242.326 310,-232.326 306.5,-242.326 313.5,-242.326"/>
<text text-anchor="middle" x="315.438" y="-448.8" font-family="Times,serif" font-size="14.00">&#45;a</text>
</g>
<!-- 0 mappability regions BED -->
<g id="node37" class="node"><title>0 mappability regions BED</title>
<ellipse fill="none" stroke="black" cx="455" cy="-1788" rx="107.189" ry="18"/>
<text text-anchor="middle" x="455" y="-1783.8" font-family="Times,serif" font-size="14.00">0 mappability regions BED</text>
</g>
<!-- bedtools complement&#45;&gt;0 mappability regions BED -->
<g id="edge40" class="edge"><title>bedtools complement&#45;&gt;0 mappability regions BED</title>
<path fill="none" stroke="black" d="M455,-1843.94C455,-1835.81 455,-1825.88 455,-1816.7"/>
<polygon fill="black" stroke="black" points="458.5,-1816.44 455,-1806.44 451.5,-1816.44 458.5,-1816.44"/>
</g>
<!-- 0 mappability regions BED&#45;&gt;0 mappability regions bedGraph -->
<g id="edge47" class="edge"><title>0 mappability regions BED&#45;&gt;0 mappability regions bedGraph</title>
<path fill="none" stroke="black" d="M455,-1769.6C455,-1758.26 455,-1743.23 455,-1730.32"/>
<polygon fill="black" stroke="black" points="458.5,-1730.1 455,-1720.1 451.5,-1730.1 458.5,-1730.1"/>
<text text-anchor="middle" x="516.229" y="-1740.8" font-family="Times,serif" font-size="14.00">awk &#39;{ print $0&quot;\t&quot;0 }&#39;</text>
</g>
<!-- grch38 .genome file -->
<g id="node39" class="node"><title>grch38 .genome file</title>
<ellipse fill="none" stroke="black" cx="434" cy="-1936" rx="80.3865" ry="18"/>
<text text-anchor="middle" x="434" y="-1931.8" font-family="Times,serif" font-size="14.00">grch38 .genome file</text>
</g>
<!-- grch38 .fai file&#45;&gt;grch38 .genome file -->
<g id="edge42" class="edge"><title>grch38 .fai file&#45;&gt;grch38 .genome file</title>
<path fill="none" stroke="black" d="M437.988,-2004C437.315,-1992.69 436.415,-1977.58 435.641,-1964.57"/>
<polygon fill="black" stroke="black" points="439.116,-1964.04 435.027,-1954.26 432.128,-1964.45 439.116,-1964.04"/>
<text text-anchor="middle" x="462.464" y="-1974.8" font-family="Times,serif" font-size="14.00">cut &#45;f 1,2</text>
</g>
<!-- grch38 .genome file&#45;&gt;bedtools complement -->
<g id="edge43" class="edge"><title>grch38 .genome file&#45;&gt;bedtools complement</title>
<path fill="none" stroke="black" d="M438.977,-1917.94C441.471,-1909.39 444.546,-1898.84 447.333,-1889.29"/>
<polygon fill="black" stroke="black" points="450.763,-1890.02 450.204,-1879.44 444.043,-1888.06 450.763,-1890.02"/>
</g>
<!-- &lt;=0.01 mappability regions bedGraph -->
<g id="node41" class="node"><title>&lt;=0.01 mappability regions bedGraph</title>
<ellipse fill="none" stroke="black" cx="602" cy="-758" rx="145.005" ry="18"/>
<text text-anchor="middle" x="602" y="-753.8" font-family="Times,serif" font-size="14.00">&lt;=0.01 mappability regions bedGraph</text>
</g>
<!-- awk_again&#45;&gt;&lt;=0.01 mappability regions bedGraph -->
<g id="edge46" class="edge"><title>awk_again&#45;&gt;&lt;=0.01 mappability regions bedGraph</title>
<path fill="none" stroke="black" d="M602,-813.937C602,-805.807 602,-795.876 602,-786.705"/>
<polygon fill="black" stroke="black" points="605.5,-786.441 602,-776.441 598.5,-786.441 605.5,-786.441"/>
</g>
<!-- sorted low mappability regions -->
<g id="node42" class="node"><title>sorted low mappability regions</title>
<ellipse fill="none" stroke="black" cx="602" cy="-672" rx="119.342" ry="18"/>
<text text-anchor="middle" x="602" y="-667.8" font-family="Times,serif" font-size="14.00">sorted low mappability regions</text>
</g>
<!-- &lt;=0.01 mappability regions bedGraph&#45;&gt;sorted low mappability regions -->
<g id="edge48" class="edge"><title>&lt;=0.01 mappability regions bedGraph&#45;&gt;sorted low mappability regions</title>
<path fill="none" stroke="black" d="M602,-739.595C602,-728.257 602,-713.227 602,-700.315"/>
<polygon fill="black" stroke="black" points="605.5,-700.095 602,-690.095 598.5,-700.095 605.5,-700.095"/>
<text text-anchor="middle" x="648.662" y="-710.8" font-family="Times,serif" font-size="14.00">sort &#45;k1,1 &#45;k2,2n</text>
</g>
<!-- sorted low mappability regions&#45;&gt;bedtools intersect &#45;u_0 -->
<g id="edge49" class="edge"><title>sorted low mappability regions&#45;&gt;bedtools intersect &#45;u_0</title>
<path fill="none" stroke="black" d="M602,-653.595C602,-642.257 602,-627.227 602,-614.315"/>
<polygon fill="black" stroke="black" points="605.5,-614.095 602,-604.095 598.5,-614.095 605.5,-614.095"/>
<text text-anchor="middle" x="607.438" y="-624.8" font-family="Times,serif" font-size="14.00">&#45;a</text>
</g>
<!-- sorted low mappability regions\nin ClinVar annotations -->
<g id="node44" class="node"><title>sorted low mappability regions\nin ClinVar annotations</title>
<ellipse fill="none" stroke="black" cx="614" cy="-504" rx="134.317" ry="25.4118"/>
<text text-anchor="middle" x="614" y="-506.8" font-family="Times,serif" font-size="14.00">sorted low mappability regions</text>
<text text-anchor="middle" x="614" y="-492.8" font-family="Times,serif" font-size="14.00">in ClinVar annotations</text>
</g>
<!-- bedtools intersect &#45;u_0&#45;&gt;sorted low mappability regions\nin ClinVar annotations -->
<g id="edge50" class="edge"><title>bedtools intersect &#45;u_0&#45;&gt;sorted low mappability regions\nin ClinVar annotations</title>
<path fill="none" stroke="black" d="M604.545,-568.034C605.791,-559.728 607.338,-549.412 608.818,-539.547"/>
<polygon fill="black" stroke="black" points="612.298,-539.941 610.32,-529.533 605.375,-538.903 612.298,-539.941"/>
</g>
<!-- sorted low mappability regions\nin ClinVar annotations&#45;&gt;bedtools intersect &#45;u_2 -->
<g id="edge52" class="edge"><title>sorted low mappability regions\nin ClinVar annotations&#45;&gt;bedtools intersect &#45;u_2</title>
<path fill="none" stroke="black" d="M623.111,-478.346C627.83,-465.578 633.59,-449.992 638.38,-437.03"/>
<polygon fill="black" stroke="black" points="641.792,-437.895 641.975,-427.302 635.226,-435.469 641.792,-437.895"/>
<text text-anchor="middle" x="641.831" y="-448.8" font-family="Times,serif" font-size="14.00">&#45;b</text>
</g>
<!-- methylation calls in low\nmappability regions in ClinVar regions\n(i.e. miscalls)&#45;&gt;bedtools intersect &#45;u_3b -->
<g id="edge54" class="edge"><title>methylation calls in low\nmappability regions in ClinVar regions\n(i.e. miscalls)&#45;&gt;bedtools intersect &#45;u_3b</title>
<path fill="none" stroke="black" d="M554.297,-288.723C491.84,-269.875 412.136,-245.822 361.072,-230.412"/>
<polygon fill="black" stroke="black" points="361.839,-226.988 351.255,-227.45 359.817,-233.689 361.839,-226.988"/>
<text text-anchor="middle" x="474.831" y="-252.8" font-family="Times,serif" font-size="14.00">&#45;b</text>
</g>
<!-- awk \&#39;{ print $0&quot;\\t&lt;aligner&gt;&quot; }\&#39; -->
<g id="node50" class="node"><title>awk \&#39;{ print $0&quot;\\t&lt;aligner&gt;&quot; }\&#39;</title>
<polygon fill="#d9d9d9" stroke="#d9d9d9" points="659,-232 493.102,-214 659,-196 824.898,-214 659,-232"/>
<text text-anchor="middle" x="659" y="-209.8" font-family="Times,serif" font-size="14.00">awk &#39;{ print $0&quot;\t&lt;aligner&gt;&quot; }&#39;</text>
</g>
<!-- methylation calls in low\nmappability regions in ClinVar regions\n(i.e. miscalls)&#45;&gt;awk \&#39;{ print $0&quot;\\t&lt;aligner&gt;&quot; }\&#39; -->
<g id="edge58" class="edge"><title>methylation calls in low\nmappability regions in ClinVar regions\n(i.e. miscalls)&#45;&gt;awk \&#39;{ print $0&quot;\\t&lt;aligner&gt;&quot; }\&#39;</title>
<path fill="none" stroke="black" d="M651.724,-282.467C653.141,-269.325 654.735,-254.549 656.069,-242.182"/>
<polygon fill="black" stroke="black" points="659.57,-242.354 657.163,-232.037 652.611,-241.604 659.57,-242.354"/>
</g>
<!-- ClinVar regions for each methylation miscall -->
<g id="node47" class="node"><title>ClinVar regions for each methylation miscall</title>
<ellipse fill="none" stroke="black" cx="309" cy="-122" rx="168.5" ry="18"/>
<text text-anchor="middle" x="309" y="-117.8" font-family="Times,serif" font-size="14.00">ClinVar regions for each methylation miscall</text>
</g>
<!-- bedtools intersect &#45;u_3b&#45;&gt;ClinVar regions for each methylation miscall -->
<g id="edge56" class="edge"><title>bedtools intersect &#45;u_3b&#45;&gt;ClinVar regions for each methylation miscall</title>
<path fill="none" stroke="black" d="M309.807,-195.647C309.665,-182.823 309.468,-165.108 309.304,-150.381"/>
<polygon fill="black" stroke="black" points="312.803,-150.26 309.192,-140.3 305.804,-150.338 312.803,-150.26"/>
</g>
<!-- ClinVar regions with count of methylation miscalls -->
<g id="node48" class="node"><title>ClinVar regions with count of methylation miscalls</title>
<polygon fill="none" stroke="black" points="566.299,-36 121.997,-36 7.70075,-1.06581e-14 452.003,-0 566.299,-36"/>
<text text-anchor="middle" x="287" y="-13.8" font-family="Times,serif" font-size="14.00">ClinVar regions with count of methylation miscalls</text>
</g>
<!-- ClinVar regions for each methylation miscall&#45;&gt;ClinVar regions with count of methylation miscalls -->
<g id="edge57" class="edge"><title>ClinVar regions for each methylation miscall&#45;&gt;ClinVar regions with count of methylation miscalls</title>
<path fill="none" stroke="black" d="M305.268,-103.697C301.85,-87.8491 296.737,-64.1433 292.789,-45.8384"/>
<polygon fill="black" stroke="black" points="296.207,-45.0846 290.677,-36.0474 289.364,-46.5605 296.207,-45.0846"/>
<text text-anchor="middle" x="348.743" y="-56.8" font-family="Times,serif" font-size="14.00">count_miscalls.py</text>
</g>
<!-- methylation miscall data -->
<g id="node49" class="node"><title>methylation miscall data</title>
<polygon fill="gray" stroke="gray" points="868.926,-36 643.153,-36 585.074,-1.06581e-14 810.847,-0 868.926,-36"/>
<text text-anchor="middle" x="727" y="-13.8" font-family="Times,serif" font-size="14.00">methylation miscall data</text>
</g>
<!-- methylation calls in low\nmappability regions in ClinVar regions\nwith identifier column -->
<g id="node51" class="node"><title>methylation calls in low\nmappability regions in ClinVar regions\nwith identifier column</title>
<ellipse fill="none" stroke="black" cx="705" cy="-122" rx="164.925" ry="35.2113"/>
<text text-anchor="middle" x="705" y="-131.8" font-family="Times,serif" font-size="14.00">methylation calls in low</text>
<text text-anchor="middle" x="705" y="-117.8" font-family="Times,serif" font-size="14.00">mappability regions in ClinVar regions</text>
<text text-anchor="middle" x="705" y="-103.8" font-family="Times,serif" font-size="14.00">with identifier column</text>
</g>
<!-- awk \&#39;{ print $0&quot;\\t&lt;aligner&gt;&quot; }\&#39;&#45;&gt;methylation calls in low\nmappability regions in ClinVar regions\nwith identifier column -->
<g id="edge59" class="edge"><title>awk \&#39;{ print $0&quot;\\t&lt;aligner&gt;&quot; }\&#39;&#45;&gt;methylation calls in low\nmappability regions in ClinVar regions\nwith identifier column</title>
<path fill="none" stroke="black" d="M667.437,-196.493C671.814,-187.929 677.386,-177.027 682.89,-166.258"/>
<polygon fill="black" stroke="black" points="686.035,-167.795 687.47,-157.298 679.802,-164.609 686.035,-167.795"/>
</g>
<!-- methylation calls in low\nmappability regions in ClinVar regions\nwith identifier column&#45;&gt;methylation miscall data -->
<g id="edge60" class="edge"><title>methylation calls in low\nmappability regions in ClinVar regions\nwith identifier column&#45;&gt;methylation miscall data</title>
<path fill="none" stroke="black" stroke-dasharray="5,2" d="M712.448,-86.4675C715.283,-73.3254 718.47,-58.5492 721.137,-46.1824"/>
<polygon fill="black" stroke="black" points="724.638,-46.5498 723.325,-36.0366 717.796,-45.0739 724.638,-46.5498"/>
<text text-anchor="middle" x="771.65" y="-56.8" font-family="Times,serif" font-size="14.00">Display in Tableau</text>
</g>
</g>
</svg>
