<?xml version="1.0" encoding="UTF-8" standalone="no"?>
<!DOCTYPE svg PUBLIC "-//W3C//DTD SVG 1.1//EN"
 "http://www.w3.org/Graphics/SVG/1.1/DTD/svg11.dtd">
<!-- Generated by graphviz version 2.36.0 (20140111.2315)
 -->
<!-- Title: workflow Pages: 1 -->
<svg width="1121pt" height="1138pt"
 viewBox="0.00 0.00 1121.00 1138.00" xmlns="http://www.w3.org/2000/svg" xmlns:xlink="http://www.w3.org/1999/xlink">
<g id="graph0" class="graph" transform="scale(1 1) rotate(0) translate(4 1134)">
<title>workflow</title>
<polygon fill="white" stroke="none" points="-4,4 -4,-1134 1117,-1134 1117,4 -4,4"/>
<!-- grch38 fasta -->
<g id="node1" class="node"><title>grch38 fasta</title>
<polygon fill="none" stroke="black" points="122.285,-1026 91.6423,-1044 30.3577,-1044 -0.284667,-1026 30.3577,-1008 91.6423,-1008 122.285,-1026"/>
<text text-anchor="middle" x="61" y="-1021.8" font-family="Times,serif" font-size="14.00">grch38 fasta</text>
</g>
<!-- MethylDackel extract &#45;@ 16 &#45;q &lt;cutoff&gt;\n&#45;&#45;CHH &#45;&#45;CHG &#45;&#45;OT 2,0,0,97_2 -->
<g id="node4" class="node"><title>MethylDackel extract &#45;@ 16 &#45;q &lt;cutoff&gt;\n&#45;&#45;CHH &#45;&#45;CHG &#45;&#45;OT 2,0,0,97_2</title>
<polygon fill="#d9d9d9" stroke="#d9d9d9" points="359,-958 98.7355,-922 359,-886 619.265,-922 359,-958"/>
<text text-anchor="middle" x="359" y="-924.8" font-family="Times,serif" font-size="14.00">MethylDackel extract &#45;@ 16 &#45;m &lt;Bismap&gt; </text>
<text text-anchor="middle" x="359" y="-910.8" font-family="Times,serif" font-size="14.00">&#45;q &lt;cutoff&gt; &#45;&#45;CHH &#45;&#45;CHG &#45;&#45;OT 2,0,0,97</text>
</g>
<!-- grch38 fasta&#45;&gt;MethylDackel extract &#45;@ 16 &#45;q &lt;cutoff&gt;\n&#45;&#45;CHH &#45;&#45;CHG &#45;&#45;OT 2,0,0,97_2 -->
<g id="edge5" class="edge"><title>grch38 fasta&#45;&gt;MethylDackel extract &#45;@ 16 &#45;q &lt;cutoff&gt;\n&#45;&#45;CHH &#45;&#45;CHG &#45;&#45;OT 2,0,0,97_2</title>
<path fill="none" stroke="black" d="M98.7419,-1012.08C143.175,-996.873 218.276,-971.167 276.415,-951.267"/>
<polygon fill="black" stroke="black" points="277.632,-954.55 285.959,-948 275.365,-947.928 277.632,-954.55"/>
</g>
<!-- Bismap complete bedGraph -->
<g id="node2" class="node"><title>Bismap complete bedGraph</title>
<ellipse fill="none" stroke="black" cx="250" cy="-1026" rx="108.248" ry="18"/>
<text text-anchor="middle" x="250" y="-1021.8" font-family="Times,serif" font-size="14.00">Bismap complete bedGraph</text>
</g>
<!-- Bismap complete bedGraph&#45;&gt;MethylDackel extract &#45;@ 16 &#45;q &lt;cutoff&gt;\n&#45;&#45;CHH &#45;&#45;CHG &#45;&#45;OT 2,0,0,97_2 -->
<g id="edge2" class="edge"><title>Bismap complete bedGraph&#45;&gt;MethylDackel extract &#45;@ 16 &#45;q &lt;cutoff&gt;\n&#45;&#45;CHH &#45;&#45;CHG &#45;&#45;OT 2,0,0,97_2</title>
<path fill="none" stroke="black" d="M267.999,-1008.16C281.755,-995.284 301.254,-977.038 318.675,-960.735"/>
<polygon fill="black" stroke="black" points="321.081,-963.277 325.991,-953.889 316.298,-958.166 321.081,-963.277"/>
<text text-anchor="middle" x="323.39" y="-978.8" font-family="Times,serif" font-size="14.00">Bismap</text>
</g>
<!-- PREPROC_1 -->
<!-- PREPROC_1&#45;&gt;Bismap complete bedGraph -->
<g id="edge1" class="edge"><title>PREPROC_1&#45;&gt;Bismap complete bedGraph</title>
<path fill="none" stroke="black" stroke-dasharray="1,5" d="M250,-1093.6C250,-1082.26 250,-1067.23 250,-1054.32"/>
<polygon fill="black" stroke="black" points="253.5,-1054.1 250,-1044.1 246.5,-1054.1 253.5,-1054.1"/>
<text text-anchor="middle" x="304.233" y="-1064.8" font-family="Times,serif" font-size="14.00">from preprocessing</text>
</g>
<!-- CpG -->
<g id="node11" class="node"><title>CpG</title>
<ellipse fill="none" stroke="black" cx="285" cy="-830" rx="27" ry="18"/>
<text text-anchor="middle" x="285" y="-825.8" font-family="Times,serif" font-size="14.00">CpG</text>
</g>
<!-- MethylDackel extract &#45;@ 16 &#45;q &lt;cutoff&gt;\n&#45;&#45;CHH &#45;&#45;CHG &#45;&#45;OT 2,0,0,97_2&#45;&gt;CpG -->
<g id="edge13" class="edge"><title>MethylDackel extract &#45;@ 16 &#45;q &lt;cutoff&gt;\n&#45;&#45;CHH &#45;&#45;CHG &#45;&#45;OT 2,0,0,97_2&#45;&gt;CpG</title>
<path fill="none" stroke="black" d="M333.118,-889.522C323.553,-877.889 312.895,-864.926 304.046,-854.164"/>
<polygon fill="black" stroke="black" points="306.734,-851.922 297.679,-846.42 301.327,-856.368 306.734,-851.922"/>
</g>
<!-- CHG -->
<g id="node12" class="node"><title>CHG</title>
<ellipse fill="none" stroke="black" cx="359" cy="-830" rx="28.1721" ry="18"/>
<text text-anchor="middle" x="359" y="-825.8" font-family="Times,serif" font-size="14.00">CHG</text>
</g>
<!-- MethylDackel extract &#45;@ 16 &#45;q &lt;cutoff&gt;\n&#45;&#45;CHH &#45;&#45;CHG &#45;&#45;OT 2,0,0,97_2&#45;&gt;CHG -->
<g id="edge12" class="edge"><title>MethylDackel extract &#45;@ 16 &#45;q &lt;cutoff&gt;\n&#45;&#45;CHH &#45;&#45;CHG &#45;&#45;OT 2,0,0,97_2&#45;&gt;CHG</title>
<path fill="none" stroke="black" d="M359,-885.946C359,-876.682 359,-866.827 359,-858.058"/>
<polygon fill="black" stroke="black" points="362.5,-858.014 359,-848.014 355.5,-858.014 362.5,-858.014"/>
</g>
<!-- CHH -->
<g id="node13" class="node"><title>CHH</title>
<ellipse fill="none" stroke="black" cx="435" cy="-830" rx="28.1721" ry="18"/>
<text text-anchor="middle" x="435" y="-825.8" font-family="Times,serif" font-size="14.00">CHH</text>
</g>
<!-- MethylDackel extract &#45;@ 16 &#45;q &lt;cutoff&gt;\n&#45;&#45;CHH &#45;&#45;CHG &#45;&#45;OT 2,0,0,97_2&#45;&gt;CHH -->
<g id="edge14" class="edge"><title>MethylDackel extract &#45;@ 16 &#45;q &lt;cutoff&gt;\n&#45;&#45;CHH &#45;&#45;CHG &#45;&#45;OT 2,0,0,97_2&#45;&gt;CHH</title>
<path fill="none" stroke="black" d="M385.581,-889.522C395.405,-877.889 406.351,-864.926 415.44,-854.164"/>
<polygon fill="black" stroke="black" points="418.201,-856.319 421.978,-846.42 412.852,-851.803 418.201,-856.319"/>
</g>
<!-- Methylation sequencing reads -->
<g id="node5" class="node"><title>Methylation sequencing reads</title>
<polygon fill="none" stroke="black" points="602.261,-1112 535.131,-1130 400.869,-1130 333.739,-1112 400.869,-1094 535.131,-1094 602.261,-1112"/>
<text text-anchor="middle" x="468" y="-1107.8" font-family="Times,serif" font-size="14.00">Methylation sequencing reads</text>
</g>
<!-- sorted alignment BAM -->
<g id="node6" class="node"><title>sorted alignment BAM</title>
<ellipse fill="none" stroke="black" cx="468" cy="-1026" rx="91.4809" ry="18"/>
<text text-anchor="middle" x="468" y="-1021.8" font-family="Times,serif" font-size="14.00">sorted alignment BAM</text>
</g>
<!-- Methylation sequencing reads&#45;&gt;sorted alignment BAM -->
<g id="edge3" class="edge"><title>Methylation sequencing reads&#45;&gt;sorted alignment BAM</title>
<path fill="none" stroke="black" d="M468,-1093.6C468,-1082.26 468,-1067.23 468,-1054.32"/>
<polygon fill="black" stroke="black" points="471.5,-1054.1 468,-1044.1 464.5,-1054.1 471.5,-1054.1"/>
<text text-anchor="middle" x="487.435" y="-1064.8" font-family="Times,serif" font-size="14.00">aligner</text>
</g>
<!-- sorted alignment BAM&#45;&gt;MethylDackel extract &#45;@ 16 &#45;q &lt;cutoff&gt;\n&#45;&#45;CHH &#45;&#45;CHG &#45;&#45;OT 2,0,0,97_2 -->
<g id="edge11" class="edge"><title>sorted alignment BAM&#45;&gt;MethylDackel extract &#45;@ 16 &#45;q &lt;cutoff&gt;\n&#45;&#45;CHH &#45;&#45;CHG &#45;&#45;OT 2,0,0,97_2</title>
<path fill="none" stroke="black" d="M450.001,-1008.16C436.245,-995.284 416.746,-977.038 399.325,-960.735"/>
<polygon fill="black" stroke="black" points="401.702,-958.166 392.009,-953.889 396.919,-963.277 401.702,-958.166"/>
</g>
<!-- MapQ cutoff -->
<g id="node7" class="node"><title>MapQ cutoff</title>
<polygon fill="none" stroke="black" points="706.277,-1026 674.139,-1044 609.861,-1044 577.723,-1026 609.861,-1008 674.139,-1008 706.277,-1026"/>
<text text-anchor="middle" x="642" y="-1021.8" font-family="Times,serif" font-size="14.00">MapQ cutoff</text>
</g>
<!-- MapQ cutoff&#45;&gt;MethylDackel extract &#45;@ 16 &#45;q &lt;cutoff&gt;\n&#45;&#45;CHH &#45;&#45;CHG &#45;&#45;OT 2,0,0,97_2 -->
<g id="edge4" class="edge"><title>MapQ cutoff&#45;&gt;MethylDackel extract &#45;@ 16 &#45;q &lt;cutoff&gt;\n&#45;&#45;CHH &#45;&#45;CHG &#45;&#45;OT 2,0,0,97_2</title>
<path fill="none" stroke="black" d="M603.833,-1011.24C561.776,-996.085 492.938,-971.275 438.949,-951.816"/>
<polygon fill="black" stroke="black" points="439.988,-948.47 429.394,-948.372 437.615,-955.055 439.988,-948.47"/>
<text text-anchor="middle" x="559.591" y="-978.8" font-family="Times,serif" font-size="14.00">cutoff</text>
</g>
<!-- sort &#45;k1,1 &#45;k2,2n_2 -->
<g id="node8" class="node"><title>sort &#45;k1,1 &#45;k2,2n_2</title>
<polygon fill="#d9d9d9" stroke="#d9d9d9" points="359,-774 261.507,-756 359,-738 456.493,-756 359,-774"/>
<text text-anchor="middle" x="359" y="-751.8" font-family="Times,serif" font-size="14.00">sort &#45;k1,1 &#45;k2,2n</text>
</g>
<!-- sorted bedGraph -->
<g id="node9" class="node"><title>sorted bedGraph</title>
<ellipse fill="none" stroke="black" cx="359" cy="-682" rx="68.1994" ry="18"/>
<text text-anchor="middle" x="359" y="-677.8" font-family="Times,serif" font-size="14.00">sorted bedGraph</text>
</g>
<!-- sort &#45;k1,1 &#45;k2,2n_2&#45;&gt;sorted bedGraph -->
<g id="edge6" class="edge"><title>sort &#45;k1,1 &#45;k2,2n_2&#45;&gt;sorted bedGraph</title>
<path fill="none" stroke="black" d="M359,-737.937C359,-729.807 359,-719.876 359,-710.705"/>
<polygon fill="black" stroke="black" points="362.5,-710.441 359,-700.441 355.5,-710.441 362.5,-710.441"/>
</g>
<!-- sorted bedGraph\n(no headers) -->
<g id="node10" class="node"><title>sorted bedGraph\n(no headers)</title>
<ellipse fill="none" stroke="black" cx="359" cy="-588" rx="77.0208" ry="25.4118"/>
<text text-anchor="middle" x="359" y="-590.8" font-family="Times,serif" font-size="14.00">sorted bedGraph</text>
<text text-anchor="middle" x="359" y="-576.8" font-family="Times,serif" font-size="14.00">(no headers)</text>
</g>
<!-- sorted bedGraph&#45;&gt;sorted bedGraph\n(no headers) -->
<g id="edge7" class="edge"><title>sorted bedGraph&#45;&gt;sorted bedGraph\n(no headers)</title>
<path fill="none" stroke="black" d="M359,-663.696C359,-652.413 359,-637.297 359,-623.615"/>
<polygon fill="black" stroke="black" points="362.5,-623.518 359,-613.518 355.5,-623.518 362.5,-623.518"/>
<text text-anchor="middle" x="387.376" y="-634.8" font-family="Times,serif" font-size="14.00">head &#45;n &#45;3</text>
</g>
<!-- bedtools intersect &#45;u_2 -->
<g id="node14" class="node"><title>bedtools intersect &#45;u_2</title>
<polygon fill="#d9d9d9" stroke="#d9d9d9" points="490,-512 244.787,-476 490,-440 735.213,-476 490,-512"/>
<text text-anchor="middle" x="490" y="-478.8" font-family="Times,serif" font-size="14.00">bedtools intersect &#45;u &#45;sorted </text>
<text text-anchor="middle" x="490" y="-464.8" font-family="Times,serif" font-size="14.00">&#45;a &lt;methyl calls&gt; &#45;b &lt;low map. regions&gt;</text>
</g>
<!-- sorted bedGraph\n(no headers)&#45;&gt;bedtools intersect &#45;u_2 -->
<g id="edge15" class="edge"><title>sorted bedGraph\n(no headers)&#45;&gt;bedtools intersect &#45;u_2</title>
<path fill="none" stroke="black" d="M386.462,-563.94C403.815,-549.369 426.62,-530.22 446.409,-513.603"/>
<polygon fill="black" stroke="black" points="448.703,-516.247 454.11,-507.136 444.201,-510.887 448.703,-516.247"/>
<text text-anchor="middle" x="459.019" y="-532.8" font-family="Times,serif" font-size="14.00">methyl calls</text>
</g>
<!-- CpG&#45;&gt;sort &#45;k1,1 &#45;k2,2n_2 -->
<g id="edge8" class="edge"><title>CpG&#45;&gt;sort &#45;k1,1 &#45;k2,2n_2</title>
<path fill="none" stroke="black" d="M299.62,-814.775C310.193,-804.488 324.671,-790.401 336.685,-778.712"/>
<polygon fill="black" stroke="black" points="339.431,-780.924 344.157,-771.442 334.549,-775.907 339.431,-780.924"/>
</g>
<!-- CHG&#45;&gt;sort &#45;k1,1 &#45;k2,2n_2 -->
<g id="edge9" class="edge"><title>CHG&#45;&gt;sort &#45;k1,1 &#45;k2,2n_2</title>
<path fill="none" stroke="black" d="M359,-811.937C359,-803.807 359,-793.876 359,-784.705"/>
<polygon fill="black" stroke="black" points="362.5,-784.441 359,-774.441 355.5,-784.441 362.5,-784.441"/>
</g>
<!-- CHH&#45;&gt;sort &#45;k1,1 &#45;k2,2n_2 -->
<g id="edge10" class="edge"><title>CHH&#45;&gt;sort &#45;k1,1 &#45;k2,2n_2</title>
<path fill="none" stroke="black" d="M419.62,-814.43C408.629,-804.017 393.668,-789.844 381.359,-778.183"/>
<polygon fill="black" stroke="black" points="383.764,-775.64 374.097,-771.303 378.95,-780.721 383.764,-775.64"/>
</g>
<!-- methylation calls in low\nmappability regions in ClinVar regions\n(i.e. miscalls) -->
<g id="node20" class="node"><title>methylation calls in low\nmappability regions in ClinVar regions\n(i.e. miscalls)</title>
<ellipse fill="none" stroke="black" cx="490" cy="-354" rx="164.925" ry="35.2113"/>
<text text-anchor="middle" x="490" y="-363.8" font-family="Times,serif" font-size="14.00">methylation calls in low</text>
<text text-anchor="middle" x="490" y="-349.8" font-family="Times,serif" font-size="14.00">mappability regions in ClinVar regions</text>
<text text-anchor="middle" x="490" y="-335.8" font-family="Times,serif" font-size="14.00">(i.e. miscalls)</text>
</g>
<!-- bedtools intersect &#45;u_2&#45;&gt;methylation calls in low\nmappability regions in ClinVar regions\n(i.e. miscalls) -->
<g id="edge20" class="edge"><title>bedtools intersect &#45;u_2&#45;&gt;methylation calls in low\nmappability regions in ClinVar regions\n(i.e. miscalls)</title>
<path fill="none" stroke="black" d="M490,-439.968C490,-427.414 490,-413.083 490,-399.814"/>
<polygon fill="black" stroke="black" points="493.5,-399.454 490,-389.454 486.5,-399.454 493.5,-399.454"/>
</g>
<!-- sorted low mappability regions\nin ClinVar annotations 2 -->
<g id="node15" class="node"><title>sorted low mappability regions\nin ClinVar annotations 2</title>
<ellipse fill="none" stroke="black" cx="588" cy="-588" rx="134.317" ry="25.4118"/>
<text text-anchor="middle" x="588" y="-590.8" font-family="Times,serif" font-size="14.00">sorted low mappability regions</text>
<text text-anchor="middle" x="588" y="-576.8" font-family="Times,serif" font-size="14.00">in ClinVar annotations</text>
</g>
<!-- sorted low mappability regions\nin ClinVar annotations 2&#45;&gt;bedtools intersect &#45;u_2 -->
<g id="edge17" class="edge"><title>sorted low mappability regions\nin ClinVar annotations 2&#45;&gt;bedtools intersect &#45;u_2</title>
<path fill="none" stroke="black" d="M566.493,-562.86C554.195,-549.055 538.479,-531.416 524.496,-515.72"/>
<polygon fill="black" stroke="black" points="527.059,-513.335 517.793,-508.196 521.832,-517.991 527.059,-513.335"/>
<text text-anchor="middle" x="596.409" y="-532.8" font-family="Times,serif" font-size="14.00">low map. regions</text>
</g>
<!-- PREPROC_2 -->
<!-- PREPROC_2&#45;&gt;sorted low mappability regions\nin ClinVar annotations 2 -->
<g id="edge16" class="edge"><title>PREPROC_2&#45;&gt;sorted low mappability regions\nin ClinVar annotations 2</title>
<path fill="none" stroke="black" stroke-dasharray="1,5" d="M588,-663.696C588,-652.413 588,-637.297 588,-623.615"/>
<polygon fill="black" stroke="black" points="591.5,-623.518 588,-613.518 584.5,-623.518 591.5,-623.518"/>
<text text-anchor="middle" x="642.233" y="-634.8" font-family="Times,serif" font-size="14.00">from preprocessing</text>
</g>
<!-- sorted low mappability ClinVar regions 2 -->
<g id="node17" class="node"><title>sorted low mappability ClinVar regions 2</title>
<ellipse fill="none" stroke="black" cx="824" cy="-354" rx="149.424" ry="18"/>
<text text-anchor="middle" x="824" y="-349.8" font-family="Times,serif" font-size="14.00">sorted low mappability ClinVar regions</text>
</g>
<!-- bedtools intersect &#45;u_3b -->
<g id="node19" class="node"><title>bedtools intersect &#45;u_3b</title>
<polygon fill="#d9d9d9" stroke="#d9d9d9" points="824,-268 598.513,-232 824,-196 1049.49,-232 824,-268"/>
<text text-anchor="middle" x="824" y="-234.8" font-family="Times,serif" font-size="14.00">bedtools intersect &#45;wa &#45;sorted </text>
<text text-anchor="middle" x="824" y="-220.8" font-family="Times,serif" font-size="14.00">&#45;a &lt;ClinVar low map.&gt; &#45;b &lt;miscalls&gt;</text>
</g>
<!-- sorted low mappability ClinVar regions 2&#45;&gt;bedtools intersect &#45;u_3b -->
<g id="edge19" class="edge"><title>sorted low mappability ClinVar regions 2&#45;&gt;bedtools intersect &#45;u_3b</title>
<path fill="none" stroke="black" d="M824,-335.807C824,-320.906 824,-298.656 824,-278.663"/>
<polygon fill="black" stroke="black" points="827.5,-278.464 824,-268.464 820.5,-278.464 827.5,-278.464"/>
<text text-anchor="middle" x="873.578" y="-288.8" font-family="Times,serif" font-size="14.00">ClinVar low map.</text>
</g>
<!-- PREPROC_3 -->
<!-- PREPROC_3&#45;&gt;sorted low mappability ClinVar regions 2 -->
<g id="edge18" class="edge"><title>PREPROC_3&#45;&gt;sorted low mappability ClinVar regions 2</title>
<path fill="none" stroke="black" stroke-dasharray="1,5" d="M824,-457.807C824,-438.114 824,-405.583 824,-382.39"/>
<polygon fill="black" stroke="black" points="827.5,-382.161 824,-372.161 820.5,-382.161 827.5,-382.161"/>
<text text-anchor="middle" x="878.233" y="-410.8" font-family="Times,serif" font-size="14.00">from preprocessing</text>
</g>
<!-- ClinVar regions for each methylation miscall -->
<g id="node21" class="node"><title>ClinVar regions for each methylation miscall</title>
<ellipse fill="none" stroke="black" cx="834" cy="-122" rx="168.5" ry="18"/>
<text text-anchor="middle" x="834" y="-117.8" font-family="Times,serif" font-size="14.00">ClinVar regions for each methylation miscall</text>
</g>
<!-- bedtools intersect &#45;u_3b&#45;&gt;ClinVar regions for each methylation miscall -->
<g id="edge22" class="edge"><title>bedtools intersect &#45;u_3b&#45;&gt;ClinVar regions for each methylation miscall</title>
<path fill="none" stroke="black" d="M827.219,-196.234C828.602,-181.296 830.195,-164.099 831.488,-150.125"/>
<polygon fill="black" stroke="black" points="834.974,-150.438 832.411,-140.158 828.004,-149.792 834.974,-150.438"/>
</g>
<!-- methylation calls in low\nmappability regions in ClinVar regions\n(i.e. miscalls)&#45;&gt;bedtools intersect &#45;u_3b -->
<g id="edge21" class="edge"><title>methylation calls in low\nmappability regions in ClinVar regions\n(i.e. miscalls)&#45;&gt;bedtools intersect &#45;u_3b</title>
<path fill="none" stroke="black" d="M572.562,-323.337C625.846,-304.193 694.695,-279.457 746.872,-260.711"/>
<polygon fill="black" stroke="black" points="748.186,-263.958 756.413,-257.283 745.819,-257.37 748.186,-263.958"/>
<text text-anchor="middle" x="690.941" y="-288.8" font-family="Times,serif" font-size="14.00">miscalls</text>
</g>
<!-- awk \&#39;{ print $0&quot;\\t&lt;aligner&gt;&quot; }\&#39; -->
<g id="node24" class="node"><title>awk \&#39;{ print $0&quot;\\t&lt;aligner&gt;&quot; }\&#39;</title>
<polygon fill="#d9d9d9" stroke="#d9d9d9" points="410,-250 244.102,-232 410,-214 575.898,-232 410,-250"/>
<text text-anchor="middle" x="410" y="-227.8" font-family="Times,serif" font-size="14.00">awk &#39;{ print $0&quot;\t&lt;aligner&gt;&quot; }&#39;</text>
</g>
<!-- methylation calls in low\nmappability regions in ClinVar regions\n(i.e. miscalls)&#45;&gt;awk \&#39;{ print $0&quot;\\t&lt;aligner&gt;&quot; }\&#39; -->
<g id="edge24" class="edge"><title>methylation calls in low\nmappability regions in ClinVar regions\n(i.e. miscalls)&#45;&gt;awk \&#39;{ print $0&quot;\\t&lt;aligner&gt;&quot; }\&#39;</title>
<path fill="none" stroke="black" d="M467.289,-318.934C454.229,-299.344 438.124,-275.186 426.319,-257.479"/>
<polygon fill="black" stroke="black" points="429.036,-255.244 420.577,-248.865 423.212,-259.127 429.036,-255.244"/>
</g>
<!-- ClinVar regions with count of methylation miscalls -->
<g id="node22" class="node"><title>ClinVar regions with count of methylation miscalls</title>
<polygon fill="none" stroke="black" points="1113.3,-36 668.997,-36 554.701,-1.06581e-14 999.003,-0 1113.3,-36"/>
<text text-anchor="middle" x="834" y="-13.8" font-family="Times,serif" font-size="14.00">ClinVar regions with count of methylation miscalls</text>
</g>
<!-- ClinVar regions for each methylation miscall&#45;&gt;ClinVar regions with count of methylation miscalls -->
<g id="edge23" class="edge"><title>ClinVar regions for each methylation miscall&#45;&gt;ClinVar regions with count of methylation miscalls</title>
<path fill="none" stroke="black" d="M834,-103.697C834,-87.9228 834,-64.3637 834,-46.0941"/>
<polygon fill="black" stroke="black" points="837.5,-46.0473 834,-36.0474 830.5,-46.0474 837.5,-46.0473"/>
<text text-anchor="middle" x="884.743" y="-56.8" font-family="Times,serif" font-size="14.00">count_miscalls.py</text>
</g>
<!-- methylation miscall data -->
<g id="node23" class="node"><title>methylation miscall data</title>
<polygon fill="gray" stroke="gray" points="535.926,-36 310.153,-36 252.074,-1.06581e-14 477.847,-0 535.926,-36"/>
<text text-anchor="middle" x="394" y="-13.8" font-family="Times,serif" font-size="14.00">methylation miscall data</text>
</g>
<!-- methylation calls in low\nmappability regions in ClinVar regions\nwith identifier column -->
<g id="node25" class="node"><title>methylation calls in low\nmappability regions in ClinVar regions\nwith identifier column</title>
<ellipse fill="none" stroke="black" cx="395" cy="-122" rx="164.925" ry="35.2113"/>
<text text-anchor="middle" x="395" y="-131.8" font-family="Times,serif" font-size="14.00">methylation calls in low</text>
<text text-anchor="middle" x="395" y="-117.8" font-family="Times,serif" font-size="14.00">mappability regions in ClinVar regions</text>
<text text-anchor="middle" x="395" y="-103.8" font-family="Times,serif" font-size="14.00">with identifier column</text>
</g>
<!-- awk \&#39;{ print $0&quot;\\t&lt;aligner&gt;&quot; }\&#39;&#45;&gt;methylation calls in low\nmappability regions in ClinVar regions\nwith identifier column -->
<g id="edge25" class="edge"><title>awk \&#39;{ print $0&quot;\\t&lt;aligner&gt;&quot; }\&#39;&#45;&gt;methylation calls in low\nmappability regions in ClinVar regions\nwith identifier column</title>
<path fill="none" stroke="black" d="M407.656,-214.125C405.923,-201.646 403.478,-184.041 401.198,-167.627"/>
<polygon fill="black" stroke="black" points="404.65,-167.041 399.808,-157.618 397.717,-168.004 404.65,-167.041"/>
</g>
<!-- methylation calls in low\nmappability regions in ClinVar regions\nwith identifier column&#45;&gt;methylation miscall data -->
<g id="edge26" class="edge"><title>methylation calls in low\nmappability regions in ClinVar regions\nwith identifier column&#45;&gt;methylation miscall data</title>
<path fill="none" stroke="black" stroke-dasharray="5,2" d="M394.661,-86.4675C394.533,-73.3254 394.388,-58.5492 394.266,-46.1824"/>
<polygon fill="black" stroke="black" points="397.765,-46.0018 394.167,-36.0366 390.765,-46.0705 397.765,-46.0018"/>
<text text-anchor="middle" x="447.65" y="-56.8" font-family="Times,serif" font-size="14.00">Display in Tableau</text>
</g>
</g>
</svg>
