<?xml version="1.0" encoding="UTF-8" standalone="no"?>
<!DOCTYPE svg PUBLIC "-//W3C//DTD SVG 1.1//EN"
 "http://www.w3.org/Graphics/SVG/1.1/DTD/svg11.dtd">
<!-- Generated by graphviz version 2.47.3 (20210619.1520)
 -->
<!-- Title: workflow Pages: 1 -->
<svg width="1152pt" height="1813pt"
 viewBox="0.00 0.00 1152.00 1812.70" xmlns="http://www.w3.org/2000/svg" xmlns:xlink="http://www.w3.org/1999/xlink">
<g id="graph0" class="graph" transform="scale(1 1) rotate(0) translate(4 1808.7)">
<title>workflow</title>
<polygon fill="white" stroke="transparent" points="-4,4 -4,-1808.7 1148,-1808.7 1148,4 -4,4"/>
<!-- ClinVar regions BED -->
<g id="node1" class="node">
<title>ClinVar regions BED</title>
<polygon fill="none" stroke="black" points="544.63,-1233.7 494.82,-1251.7 395.18,-1251.7 345.37,-1233.7 395.18,-1215.7 494.82,-1215.7 544.63,-1233.7"/>
<text text-anchor="middle" x="445" y="-1230" font-family="Times,serif" font-size="14.00">ClinVar regions BED</text>
</g>
<!-- bedtools map &#45;o min -->
<g id="node9" class="node">
<title>bedtools map &#45;o min</title>
<polygon fill="#d9d9d9" stroke="#d9d9d9" points="519,-1164.7 352,-1126.7 519,-1088.7 686,-1126.7 519,-1164.7"/>
<text text-anchor="middle" x="519" y="-1130.5" font-family="Times,serif" font-size="14.00">bedtools map &#45;o min </text>
<text text-anchor="middle" x="519" y="-1115.5" font-family="Times,serif" font-size="14.00">&#45;a &lt;ClinVar&gt; &#45;b &lt;Bismap&gt;</text>
</g>
<!-- ClinVar regions BED&#45;&gt;bedtools map &#45;o min -->
<g id="edge6" class="edge">
<title>ClinVar regions BED&#45;&gt;bedtools map &#45;o min</title>
<path fill="none" stroke="black" d="M457.22,-1215.36C466.24,-1202.56 478.89,-1184.61 490.4,-1168.28"/>
<polygon fill="black" stroke="black" points="493.39,-1170.11 496.29,-1159.92 487.67,-1166.08 493.39,-1170.11"/>
<text text-anchor="middle" x="501.5" y="-1186.5" font-family="Times,serif" font-size="14.00">ClinVar</text>
</g>
<!-- bedtools map &#45;o mean -->
<g id="node10" class="node">
<title>bedtools map &#45;o mean</title>
<polygon fill="#d9d9d9" stroke="#d9d9d9" points="167,-1164.7 0,-1126.7 167,-1088.7 334,-1126.7 167,-1164.7"/>
<text text-anchor="middle" x="167" y="-1130.5" font-family="Times,serif" font-size="14.00">bedtools map &#45;o mean </text>
<text text-anchor="middle" x="167" y="-1115.5" font-family="Times,serif" font-size="14.00">&#45;a &lt;ClinVar&gt; &#45;b &lt;Bismap&gt;</text>
</g>
<!-- ClinVar regions BED&#45;&gt;bedtools map &#45;o mean -->
<g id="edge8" class="edge">
<title>ClinVar regions BED&#45;&gt;bedtools map &#45;o mean</title>
<path fill="none" stroke="black" d="M399.72,-1215.6C355.92,-1199.06 288.89,-1173.74 238,-1154.52"/>
<polygon fill="black" stroke="black" points="238.96,-1151.14 228.37,-1150.88 236.49,-1157.69 238.96,-1151.14"/>
<text text-anchor="middle" x="369.5" y="-1186.5" font-family="Times,serif" font-size="14.00">ClinVar</text>
</g>
<!-- grch38 fasta 2 -->
<g id="node2" class="node">
<title>grch38 fasta 2</title>
<polygon fill="none" stroke="black" points="924.09,-1786.7 888.05,-1804.7 815.95,-1804.7 779.91,-1786.7 815.95,-1768.7 888.05,-1768.7 924.09,-1786.7"/>
<text text-anchor="middle" x="852" y="-1783" font-family="Times,serif" font-size="14.00">reference fasta</text>
</g>
<!-- grch38 .fai file -->
<g id="node24" class="node">
<title>grch38 .fai file</title>
<ellipse fill="none" stroke="black" cx="852" cy="-1699.7" rx="63.09" ry="18"/>
<text text-anchor="middle" x="852" y="-1696" font-family="Times,serif" font-size="14.00">grch38 .fai file</text>
</g>
<!-- grch38 fasta 2&#45;&gt;grch38 .fai file -->
<g id="edge24" class="edge">
<title>grch38 fasta 2&#45;&gt;grch38 .fai file</title>
<path fill="none" stroke="black" d="M852,-1768.5C852,-1756.86 852,-1741.25 852,-1727.94"/>
<polygon fill="black" stroke="black" points="855.5,-1727.88 852,-1717.88 848.5,-1727.88 855.5,-1727.88"/>
<text text-anchor="middle" x="892.5" y="-1739.5" font-family="Times,serif" font-size="14.00">samtools faidx</text>
</g>
<!-- Bismap bedGraph -->
<g id="node3" class="node">
<title>Bismap bedGraph</title>
<ellipse fill="none" stroke="black" cx="677" cy="-1612.7" rx="75.29" ry="18"/>
<text text-anchor="middle" x="677" y="-1609" font-family="Times,serif" font-size="14.00">Bismap bedGraph</text>
</g>
<!-- sort &#45;k1,1 &#45;k2,2n_again -->
<g id="node4" class="node">
<title>sort &#45;k1,1 &#45;k2,2n_again</title>
<polygon fill="#d9d9d9" stroke="#d9d9d9" points="689,-1324.7 589.96,-1306.7 689,-1288.7 788.04,-1306.7 689,-1324.7"/>
<text text-anchor="middle" x="689" y="-1303" font-family="Times,serif" font-size="14.00">sort &#45;k1,1 &#45;k2,2n</text>
</g>
<!-- Bismap bedGraph&#45;&gt;sort &#45;k1,1 &#45;k2,2n_again -->
<g id="edge1" class="edge">
<title>Bismap bedGraph&#45;&gt;sort &#45;k1,1 &#45;k2,2n_again</title>
<path fill="none" stroke="black" d="M677,-1594.48C677,-1580.11 677,-1559.07 677,-1540.7 677,-1540.7 677,-1540.7 677,-1378.7 677,-1363.71 679.63,-1347.18 682.43,-1333.84"/>
<polygon fill="black" stroke="black" points="685.88,-1334.45 684.67,-1323.93 679.06,-1332.91 685.88,-1334.45"/>
</g>
<!-- bedtools complement -->
<g id="node22" class="node">
<title>bedtools complement</title>
<polygon fill="#d9d9d9" stroke="#d9d9d9" points="830,-1557.7 706.67,-1539.7 830,-1521.7 953.33,-1539.7 830,-1557.7"/>
<text text-anchor="middle" x="830" y="-1536" font-family="Times,serif" font-size="14.00">bedtools complement</text>
</g>
<!-- Bismap bedGraph&#45;&gt;bedtools complement -->
<g id="edge22" class="edge">
<title>Bismap bedGraph&#45;&gt;bedtools complement</title>
<path fill="none" stroke="black" d="M709.82,-1596.47C734.11,-1585.2 767.24,-1569.82 792.57,-1558.07"/>
<polygon fill="black" stroke="black" points="794.26,-1561.15 801.85,-1553.76 791.31,-1554.8 794.26,-1561.15"/>
</g>
<!-- Bismap complete bedGraph -->
<g id="node5" class="node">
<title>Bismap complete bedGraph</title>
<ellipse fill="none" stroke="black" cx="689" cy="-1233.7" rx="110.48" ry="18"/>
<text text-anchor="middle" x="689" y="-1230" font-family="Times,serif" font-size="14.00">Bismap complete bedGraph</text>
</g>
<!-- sort &#45;k1,1 &#45;k2,2n_again&#45;&gt;Bismap complete bedGraph -->
<g id="edge2" class="edge">
<title>sort &#45;k1,1 &#45;k2,2n_again&#45;&gt;Bismap complete bedGraph</title>
<path fill="none" stroke="black" d="M689,-1288.51C689,-1280.49 689,-1270.75 689,-1261.77"/>
<polygon fill="black" stroke="black" points="692.5,-1261.73 689,-1251.73 685.5,-1261.73 692.5,-1261.73"/>
</g>
<!-- BAM_PROC_1 -->
<!-- Bismap complete bedGraph&#45;&gt;BAM_PROC_1 -->
<g id="edge3" class="edge">
<title>Bismap complete bedGraph&#45;&gt;BAM_PROC_1</title>
<path fill="none" stroke="black" stroke-dasharray="1,5" d="M704.44,-1215.86C709.5,-1210.18 715.09,-1203.75 720,-1197.7 731.74,-1183.24 744.21,-1166.51 753.99,-1153.03"/>
<polygon fill="black" stroke="black" points="756.99,-1154.86 760,-1144.7 751.31,-1150.76 756.99,-1154.86"/>
<text text-anchor="middle" x="786" y="-1186.5" font-family="Times,serif" font-size="14.00">to BAM processing</text>
</g>
<!-- Bismap complete bedGraph&#45;&gt;bedtools map &#45;o min -->
<g id="edge7" class="edge">
<title>Bismap complete bedGraph&#45;&gt;bedtools map &#45;o min</title>
<path fill="none" stroke="black" d="M675.31,-1215.82C666.14,-1205.31 653.34,-1192.04 640,-1182.7 624.85,-1172.09 607.33,-1162.73 590.4,-1154.88"/>
<polygon fill="black" stroke="black" points="591.63,-1151.6 581.07,-1150.68 588.75,-1157.98 591.63,-1151.6"/>
<text text-anchor="middle" x="679.5" y="-1186.5" font-family="Times,serif" font-size="14.00">Bismap</text>
</g>
<!-- Bismap complete bedGraph&#45;&gt;bedtools map &#45;o mean -->
<g id="edge9" class="edge">
<title>Bismap complete bedGraph&#45;&gt;bedtools map &#45;o mean</title>
<path fill="none" stroke="black" d="M646.63,-1217.04C614.3,-1205.73 568.41,-1191.03 527,-1182.7 446.44,-1166.5 424.22,-1177.17 343,-1164.7 314.96,-1160.4 284.66,-1154.49 257.23,-1148.65"/>
<polygon fill="black" stroke="black" points="257.78,-1145.19 247.27,-1146.51 256.31,-1152.04 257.78,-1145.19"/>
<text text-anchor="middle" x="607.5" y="-1186.5" font-family="Times,serif" font-size="14.00">Bismap</text>
</g>
<!-- awk_again -->
<g id="node26" class="node">
<title>awk_again</title>
<polygon fill="#d9d9d9" stroke="#d9d9d9" points="869,-605.48 715.5,-587.48 869,-569.48 1022.5,-587.48 869,-605.48"/>
<text text-anchor="middle" x="869" y="-583.78" font-family="Times,serif" font-size="14.00">awk &#39; if $4&lt;=0.01 { print }&#39;</text>
</g>
<!-- Bismap complete bedGraph&#45;&gt;awk_again -->
<g id="edge27" class="edge">
<title>Bismap complete bedGraph&#45;&gt;awk_again</title>
<path fill="none" stroke="black" d="M770.82,-1221.51C801.88,-1215.78 832.54,-1207.85 844,-1197.7 868.73,-1175.8 869,-1160.74 869,-1127.7 869,-1127.7 869,-1127.7 869,-668.35 869,-650.94 869,-631.4 869,-616.01"/>
<polygon fill="black" stroke="black" points="872.5,-615.62 869,-605.62 865.5,-615.62 872.5,-615.62"/>
</g>
<!-- 0 mappability regions bedGraph -->
<g id="node7" class="node">
<title>0 mappability regions bedGraph</title>
<ellipse fill="none" stroke="black" cx="830" cy="-1379.7" rx="125.38" ry="18"/>
<text text-anchor="middle" x="830" y="-1376" font-family="Times,serif" font-size="14.00">0 mappability regions bedGraph</text>
</g>
<!-- 0 mappability regions bedGraph&#45;&gt;sort &#45;k1,1 &#45;k2,2n_again -->
<g id="edge4" class="edge">
<title>0 mappability regions bedGraph&#45;&gt;sort &#45;k1,1 &#45;k2,2n_again</title>
<path fill="none" stroke="black" d="M797.3,-1362.23C775.09,-1351.05 745.77,-1336.29 723.24,-1324.94"/>
<polygon fill="black" stroke="black" points="724.55,-1321.68 714.05,-1320.31 721.4,-1327.94 724.55,-1321.68"/>
</g>
<!-- Bismap bigWig -->
<g id="node8" class="node">
<title>Bismap bigWig</title>
<polygon fill="none" stroke="black" points="754.1,-1699.7 715.55,-1717.7 638.45,-1717.7 599.9,-1699.7 638.45,-1681.7 715.55,-1681.7 754.1,-1699.7"/>
<text text-anchor="middle" x="677" y="-1696" font-family="Times,serif" font-size="14.00">Bismap bigWig</text>
</g>
<!-- Bismap bigWig&#45;&gt;Bismap bedGraph -->
<g id="edge5" class="edge">
<title>Bismap bigWig&#45;&gt;Bismap bedGraph</title>
<path fill="none" stroke="black" d="M677,-1681.5C677,-1669.86 677,-1654.25 677,-1640.94"/>
<polygon fill="black" stroke="black" points="680.5,-1640.88 677,-1630.88 673.5,-1640.88 680.5,-1640.88"/>
<text text-anchor="middle" x="733" y="-1652.5" font-family="Times,serif" font-size="14.00">bigWigToBedGraph</text>
</g>
<!-- ClinVar regions with\n min mappability bedGraph -->
<g id="node11" class="node">
<title>ClinVar regions with\n min mappability bedGraph</title>
<ellipse fill="none" stroke="black" cx="517" cy="-1024.83" rx="118.59" ry="26.74"/>
<text text-anchor="middle" x="517" y="-1028.63" font-family="Times,serif" font-size="14.00">ClinVar regions with</text>
<text text-anchor="middle" x="517" y="-1013.63" font-family="Times,serif" font-size="14.00"> min mappability bedGraph</text>
</g>
<!-- bedtools map &#45;o min&#45;&gt;ClinVar regions with\n min mappability bedGraph -->
<g id="edge10" class="edge">
<title>bedtools map &#45;o min&#45;&gt;ClinVar regions with\n min mappability bedGraph</title>
<path fill="none" stroke="black" d="M518.26,-1088.8C518.09,-1080.11 517.9,-1070.85 517.73,-1062.18"/>
<polygon fill="black" stroke="black" points="521.22,-1061.91 517.52,-1051.98 514.22,-1062.05 521.22,-1061.91"/>
</g>
<!-- ClinVar regions with\n mean mappability bedGraph -->
<g id="node12" class="node">
<title>ClinVar regions with\n mean mappability bedGraph</title>
<ellipse fill="none" stroke="black" cx="233" cy="-1024.83" rx="124.4" ry="26.74"/>
<text text-anchor="middle" x="233" y="-1028.63" font-family="Times,serif" font-size="14.00">ClinVar regions with</text>
<text text-anchor="middle" x="233" y="-1013.63" font-family="Times,serif" font-size="14.00"> mean mappability bedGraph</text>
</g>
<!-- bedtools map &#45;o mean&#45;&gt;ClinVar regions with\n mean mappability bedGraph -->
<g id="edge11" class="edge">
<title>bedtools map &#45;o mean&#45;&gt;ClinVar regions with\n mean mappability bedGraph</title>
<path fill="none" stroke="black" d="M188.43,-1093.28C195.5,-1082.58 203.38,-1070.66 210.52,-1059.84"/>
<polygon fill="black" stroke="black" points="213.47,-1061.73 216.06,-1051.46 207.63,-1057.87 213.47,-1061.73"/>
</g>
<!-- paste -->
<g id="node13" class="node">
<title>paste</title>
<polygon fill="#d9d9d9" stroke="#d9d9d9" points="515,-960.96 474.61,-942.96 515,-924.96 555.39,-942.96 515,-960.96"/>
<text text-anchor="middle" x="515" y="-939.26" font-family="Times,serif" font-size="14.00">paste</text>
</g>
<!-- ClinVar regions with\n min mappability bedGraph&#45;&gt;paste -->
<g id="edge12" class="edge">
<title>ClinVar regions with\n min mappability bedGraph&#45;&gt;paste</title>
<path fill="none" stroke="black" d="M516.35,-997.68C516.13,-989.23 515.9,-979.85 515.69,-971.32"/>
<polygon fill="black" stroke="black" points="519.18,-971.02 515.43,-961.11 512.18,-971.19 519.18,-971.02"/>
</g>
<!-- ClinVar regions with\n mean mappability bedGraph&#45;&gt;paste -->
<g id="edge14" class="edge">
<title>ClinVar regions with\n mean mappability bedGraph&#45;&gt;paste</title>
<path fill="none" stroke="black" d="M306.36,-1003.05C363.16,-986.96 439.17,-965.44 482.01,-953.3"/>
<polygon fill="black" stroke="black" points="482.98,-956.67 491.65,-950.58 481.07,-949.93 482.98,-956.67"/>
</g>
<!-- ClinVar regions with min and\n mean mappability bedGraph -->
<g id="node14" class="node">
<title>ClinVar regions with min and\n mean mappability bedGraph</title>
<ellipse fill="none" stroke="black" cx="515" cy="-861.09" rx="126.64" ry="26.74"/>
<text text-anchor="middle" x="515" y="-864.89" font-family="Times,serif" font-size="14.00">ClinVar regions with min and</text>
<text text-anchor="middle" x="515" y="-849.89" font-family="Times,serif" font-size="14.00"> mean mappability bedGraph</text>
</g>
<!-- paste&#45;&gt;ClinVar regions with min and\n mean mappability bedGraph -->
<g id="edge13" class="edge">
<title>paste&#45;&gt;ClinVar regions with min and\n mean mappability bedGraph</title>
<path fill="none" stroke="black" d="M515,-924.63C515,-916.9 515,-907.48 515,-898.32"/>
<polygon fill="black" stroke="black" points="518.5,-898.19 515,-888.19 511.5,-898.19 518.5,-898.19"/>
</g>
<!-- Mappability Distribution in ClinVar regions -->
<g id="node15" class="node">
<title>Mappability Distribution in ClinVar regions</title>
<polygon fill="gray" stroke="gray" points="795,-783.22 539,-783.22 539,-747.22 795,-747.22 795,-783.22"/>
<text text-anchor="middle" x="667" y="-761.52" font-family="Times,serif" font-size="14.00">Mappability Distribution in ClinVar regions</text>
</g>
<!-- ClinVar regions with min and\n mean mappability bedGraph&#45;&gt;Mappability Distribution in ClinVar regions -->
<g id="edge15" class="edge">
<title>ClinVar regions with min and\n mean mappability bedGraph&#45;&gt;Mappability Distribution in ClinVar regions</title>
<path fill="none" stroke="black" stroke-dasharray="5,2" d="M554.94,-835.43C578.39,-820.94 607.8,-802.78 630.61,-788.69"/>
<polygon fill="black" stroke="black" points="632.64,-791.55 639.31,-783.32 628.97,-785.59 632.64,-791.55"/>
<text text-anchor="middle" x="662" y="-805.02" font-family="Times,serif" font-size="14.00">Display in Tableau</text>
</g>
<!-- awk &#39;$11 &lt;= min_cutoff { print }&#39; -->
<g id="node18" class="node">
<title>awk &#39;$11 &lt;= min_cutoff { print }&#39;</title>
<polygon fill="#d9d9d9" stroke="#d9d9d9" points="511,-605.48 324.32,-587.48 511,-569.48 697.68,-587.48 511,-605.48"/>
<text text-anchor="middle" x="511" y="-583.78" font-family="Times,serif" font-size="14.00">awk &#39;$11 &lt;= min_cutoff { print }&#39;</text>
</g>
<!-- ClinVar regions with min and\n mean mappability bedGraph&#45;&gt;awk &#39;$11 &lt;= min_cutoff { print }&#39; -->
<g id="edge19" class="edge">
<title>ClinVar regions with min and\n mean mappability bedGraph&#45;&gt;awk &#39;$11 &lt;= min_cutoff { print }&#39;</title>
<path fill="none" stroke="black" d="M514.62,-834.05C513.86,-782.6 512.18,-668.4 511.4,-615.88"/>
<polygon fill="black" stroke="black" points="514.9,-615.6 511.25,-605.65 507.9,-615.7 514.9,-615.6"/>
</g>
<!-- low mappability cutoff value\n(min mappability &lt;= 0.01) -->
<g id="node17" class="node">
<title>low mappability cutoff value\n(min mappability &lt;= 0.01)</title>
<ellipse fill="none" stroke="black" cx="667" cy="-669.35" rx="123.99" ry="26.74"/>
<text text-anchor="middle" x="667" y="-673.15" font-family="Times,serif" font-size="14.00">low mappability cutoff value</text>
<text text-anchor="middle" x="667" y="-658.15" font-family="Times,serif" font-size="14.00">(min mappability &lt;= 0.01)</text>
</g>
<!-- Mappability Distribution in ClinVar regions&#45;&gt;low mappability cutoff value\n(min mappability &lt;= 0.01) -->
<g id="edge16" class="edge">
<title>Mappability Distribution in ClinVar regions&#45;&gt;low mappability cutoff value\n(min mappability &lt;= 0.01)</title>
<path fill="none" stroke="black" stroke-dasharray="5,2" d="M667,-747C667,-735.7 667,-720.49 667,-706.6"/>
<polygon fill="black" stroke="black" points="670.5,-706.32 667,-696.32 663.5,-706.32 670.5,-706.32"/>
<text text-anchor="middle" x="724.5" y="-718.02" font-family="Times,serif" font-size="14.00">Examine distribution</text>
</g>
<!-- Examine Data -->
<!-- low mappability cutoff value\n(min mappability &lt;= 0.01)&#45;&gt;awk &#39;$11 &lt;= min_cutoff { print }&#39; -->
<g id="edge17" class="edge">
<title>low mappability cutoff value\n(min mappability &lt;= 0.01)&#45;&gt;awk &#39;$11 &lt;= min_cutoff { print }&#39;</title>
<path fill="none" stroke="black" d="M620.19,-644.39C597.21,-632.62 569.9,-618.64 548.34,-607.6"/>
<polygon fill="black" stroke="black" points="549.68,-604.35 539.18,-602.91 546.49,-610.58 549.68,-604.35"/>
</g>
<!-- low mappability cutoff value\n(min mappability &lt;= 0.01)&#45;&gt;awk_again -->
<g id="edge28" class="edge">
<title>low mappability cutoff value\n(min mappability &lt;= 0.01)&#45;&gt;awk_again</title>
<path fill="none" stroke="black" d="M724.61,-645.57C756.88,-632.81 796.45,-617.17 826,-605.48"/>
<polygon fill="black" stroke="black" points="827.59,-608.62 835.61,-601.68 825.02,-602.11 827.59,-608.62"/>
</g>
<!-- low mappability ClinVar regions -->
<g id="node19" class="node">
<title>low mappability ClinVar regions</title>
<ellipse fill="none" stroke="black" cx="511" cy="-514.48" rx="126.98" ry="18"/>
<text text-anchor="middle" x="511" y="-510.78" font-family="Times,serif" font-size="14.00">low mappability ClinVar regions</text>
</g>
<!-- awk &#39;$11 &lt;= min_cutoff { print }&#39;&#45;&gt;low mappability ClinVar regions -->
<g id="edge18" class="edge">
<title>awk &#39;$11 &lt;= min_cutoff { print }&#39;&#45;&gt;low mappability ClinVar regions</title>
<path fill="none" stroke="black" d="M511,-569.29C511,-561.27 511,-551.53 511,-542.55"/>
<polygon fill="black" stroke="black" points="514.5,-542.51 511,-532.51 507.5,-542.51 514.5,-542.51"/>
</g>
<!-- sorted low mappability ClinVar regions -->
<g id="node20" class="node">
<title>sorted low mappability ClinVar regions</title>
<ellipse fill="none" stroke="black" cx="511" cy="-427.48" rx="150.57" ry="18"/>
<text text-anchor="middle" x="511" y="-423.78" font-family="Times,serif" font-size="14.00">sorted low mappability ClinVar regions</text>
</g>
<!-- low mappability ClinVar regions&#45;&gt;sorted low mappability ClinVar regions -->
<g id="edge20" class="edge">
<title>low mappability ClinVar regions&#45;&gt;sorted low mappability ClinVar regions</title>
<path fill="none" stroke="black" d="M511,-496.28C511,-484.64 511,-469.03 511,-455.72"/>
<polygon fill="black" stroke="black" points="514.5,-455.66 511,-445.66 507.5,-455.66 514.5,-455.66"/>
<text text-anchor="middle" x="557" y="-467.28" font-family="Times,serif" font-size="14.00">sort &#45;k1,1 &#45;k2,2n</text>
</g>
<!-- BAM_PROC_2 -->
<!-- sorted low mappability ClinVar regions&#45;&gt;BAM_PROC_2 -->
<g id="edge21" class="edge">
<title>sorted low mappability ClinVar regions&#45;&gt;BAM_PROC_2</title>
<path fill="none" stroke="black" stroke-dasharray="1,5" d="M510.5,-409.14C510.03,-392.7 509.32,-367.76 508.78,-348.67"/>
<polygon fill="black" stroke="black" points="512.27,-348.39 508.49,-338.5 505.27,-348.59 512.27,-348.39"/>
<text text-anchor="middle" x="564" y="-380.28" font-family="Times,serif" font-size="14.00">to BAM processing</text>
</g>
<!-- bedtools intersect &#45;u_0 -->
<g id="node29" class="node">
<title>bedtools intersect &#45;u_0</title>
<polygon fill="#d9d9d9" stroke="#d9d9d9" points="869,-358.48 594,-320.48 869,-282.48 1144,-320.48 869,-358.48"/>
<text text-anchor="middle" x="869" y="-324.28" font-family="Times,serif" font-size="14.00">bedtools intersect &#45;sorted </text>
<text text-anchor="middle" x="869" y="-309.28" font-family="Times,serif" font-size="14.00">&#45;a &lt;low map. regions&gt; &#45;b &lt;ClinVar low map.&gt;</text>
</g>
<!-- sorted low mappability ClinVar regions&#45;&gt;bedtools intersect &#45;u_0 -->
<g id="edge36" class="edge">
<title>sorted low mappability ClinVar regions&#45;&gt;bedtools intersect &#45;u_0</title>
<path fill="none" stroke="black" d="M564.98,-410.65C620.09,-394.48 706.78,-369.06 773.51,-349.49"/>
<polygon fill="black" stroke="black" points="774.59,-352.82 783.2,-346.64 772.62,-346.1 774.59,-352.82"/>
<text text-anchor="middle" x="729" y="-380.28" font-family="Times,serif" font-size="14.00">ClinVar low map.</text>
</g>
<!-- 0 mappability regions BED -->
<g id="node23" class="node">
<title>0 mappability regions BED</title>
<ellipse fill="none" stroke="black" cx="830" cy="-1466.7" rx="108.58" ry="18"/>
<text text-anchor="middle" x="830" y="-1463" font-family="Times,serif" font-size="14.00">0 mappability regions BED</text>
</g>
<!-- bedtools complement&#45;&gt;0 mappability regions BED -->
<g id="edge23" class="edge">
<title>bedtools complement&#45;&gt;0 mappability regions BED</title>
<path fill="none" stroke="black" d="M830,-1521.51C830,-1513.49 830,-1503.75 830,-1494.77"/>
<polygon fill="black" stroke="black" points="833.5,-1494.73 830,-1484.73 826.5,-1494.73 833.5,-1494.73"/>
</g>
<!-- 0 mappability regions BED&#45;&gt;0 mappability regions bedGraph -->
<g id="edge30" class="edge">
<title>0 mappability regions BED&#45;&gt;0 mappability regions bedGraph</title>
<path fill="none" stroke="black" d="M830,-1448.5C830,-1436.86 830,-1421.25 830,-1407.94"/>
<polygon fill="black" stroke="black" points="833.5,-1407.88 830,-1397.88 826.5,-1407.88 833.5,-1407.88"/>
<text text-anchor="middle" x="890.5" y="-1419.5" font-family="Times,serif" font-size="14.00">awk &#39;{ print $0&quot;\t&quot;0 }&#39;</text>
</g>
<!-- grch38 .genome file -->
<g id="node25" class="node">
<title>grch38 .genome file</title>
<ellipse fill="none" stroke="black" cx="852" cy="-1612.7" rx="81.79" ry="18"/>
<text text-anchor="middle" x="852" y="-1609" font-family="Times,serif" font-size="14.00">grch38 .genome file</text>
</g>
<!-- grch38 .fai file&#45;&gt;grch38 .genome file -->
<g id="edge25" class="edge">
<title>grch38 .fai file&#45;&gt;grch38 .genome file</title>
<path fill="none" stroke="black" d="M852,-1681.5C852,-1669.86 852,-1654.25 852,-1640.94"/>
<polygon fill="black" stroke="black" points="855.5,-1640.88 852,-1630.88 848.5,-1640.88 855.5,-1640.88"/>
<text text-anchor="middle" x="877.5" y="-1652.5" font-family="Times,serif" font-size="14.00">cut &#45;f 1,2</text>
</g>
<!-- grch38 .genome file&#45;&gt;bedtools complement -->
<g id="edge26" class="edge">
<title>grch38 .genome file&#45;&gt;bedtools complement</title>
<path fill="none" stroke="black" d="M846.67,-1594.51C844.12,-1586.28 841.01,-1576.25 838.17,-1567.08"/>
<polygon fill="black" stroke="black" points="841.43,-1565.76 835.13,-1557.24 834.74,-1567.83 841.43,-1565.76"/>
</g>
<!-- &lt;=0.01 mappability regions bedGraph -->
<g id="node27" class="node">
<title>&lt;=0.01 mappability regions bedGraph</title>
<ellipse fill="none" stroke="black" cx="869" cy="-514.48" rx="147.57" ry="18"/>
<text text-anchor="middle" x="869" y="-510.78" font-family="Times,serif" font-size="14.00">&lt;=0.01 mappability regions bedGraph</text>
</g>
<!-- awk_again&#45;&gt;&lt;=0.01 mappability regions bedGraph -->
<g id="edge29" class="edge">
<title>awk_again&#45;&gt;&lt;=0.01 mappability regions bedGraph</title>
<path fill="none" stroke="black" d="M869,-569.29C869,-561.27 869,-551.53 869,-542.55"/>
<polygon fill="black" stroke="black" points="872.5,-542.51 869,-532.51 865.5,-542.51 872.5,-542.51"/>
</g>
<!-- sorted low mappability regions -->
<g id="node28" class="node">
<title>sorted low mappability regions</title>
<ellipse fill="none" stroke="black" cx="869" cy="-427.48" rx="120.78" ry="18"/>
<text text-anchor="middle" x="869" y="-423.78" font-family="Times,serif" font-size="14.00">sorted low mappability regions</text>
</g>
<!-- &lt;=0.01 mappability regions bedGraph&#45;&gt;sorted low mappability regions -->
<g id="edge31" class="edge">
<title>&lt;=0.01 mappability regions bedGraph&#45;&gt;sorted low mappability regions</title>
<path fill="none" stroke="black" d="M869,-496.28C869,-484.64 869,-469.03 869,-455.72"/>
<polygon fill="black" stroke="black" points="872.5,-455.66 869,-445.66 865.5,-455.66 872.5,-455.66"/>
<text text-anchor="middle" x="915" y="-467.28" font-family="Times,serif" font-size="14.00">sort &#45;k1,1 &#45;k2,2n</text>
</g>
<!-- sorted low mappability regions&#45;&gt;bedtools intersect &#45;u_0 -->
<g id="edge32" class="edge">
<title>sorted low mappability regions&#45;&gt;bedtools intersect &#45;u_0</title>
<path fill="none" stroke="black" d="M869,-409.14C869,-398.17 869,-383.42 869,-369.14"/>
<polygon fill="black" stroke="black" points="872.5,-368.89 869,-358.89 865.5,-368.89 872.5,-368.89"/>
<text text-anchor="middle" x="917" y="-380.28" font-family="Times,serif" font-size="14.00">low map. regions</text>
</g>
<!-- sorted low mappability regions\nin ClinVar annotations -->
<g id="node30" class="node">
<title>sorted low mappability regions\nin ClinVar annotations</title>
<ellipse fill="none" stroke="black" cx="869" cy="-218.61" rx="131.54" ry="26.74"/>
<text text-anchor="middle" x="869" y="-222.41" font-family="Times,serif" font-size="14.00">sorted low mappability regions</text>
<text text-anchor="middle" x="869" y="-207.41" font-family="Times,serif" font-size="14.00">in ClinVar annotations</text>
</g>
<!-- bedtools intersect &#45;u_0&#45;&gt;sorted low mappability regions\nin ClinVar annotations -->
<g id="edge33" class="edge">
<title>bedtools intersect &#45;u_0&#45;&gt;sorted low mappability regions\nin ClinVar annotations</title>
<path fill="none" stroke="black" d="M869,-282.29C869,-273.62 869,-264.39 869,-255.77"/>
<polygon fill="black" stroke="black" points="872.5,-255.61 869,-245.61 865.5,-255.61 872.5,-255.61"/>
</g>
<!-- expanded sorted low mappability regions\nin ClinVar annotations -->
<g id="node31" class="node">
<title>expanded sorted low mappability regions\nin ClinVar annotations</title>
<ellipse fill="none" stroke="black" cx="869" cy="-113.87" rx="171.24" ry="26.74"/>
<text text-anchor="middle" x="869" y="-117.67" font-family="Times,serif" font-size="14.00">expanded sorted low mappability regions</text>
<text text-anchor="middle" x="869" y="-102.67" font-family="Times,serif" font-size="14.00">in ClinVar annotations</text>
</g>
<!-- sorted low mappability regions\nin ClinVar annotations&#45;&gt;expanded sorted low mappability regions\nin ClinVar annotations -->
<g id="edge34" class="edge">
<title>sorted low mappability regions\nin ClinVar annotations&#45;&gt;expanded sorted low mappability regions\nin ClinVar annotations</title>
<path fill="none" stroke="black" d="M869,-191.68C869,-179.4 869,-164.51 869,-151.12"/>
<polygon fill="black" stroke="black" points="872.5,-150.79 869,-140.79 865.5,-150.79 872.5,-150.79"/>
<text text-anchor="middle" x="905.5" y="-162.54" font-family="Times,serif" font-size="14.00">bedtools slop</text>
</g>
<!-- BAM_PROC_3 -->
<!-- expanded sorted low mappability regions\nin ClinVar annotations&#45;&gt;BAM_PROC_3 -->
<g id="edge35" class="edge">
<title>expanded sorted low mappability regions\nin ClinVar annotations&#45;&gt;BAM_PROC_3</title>
<path fill="none" stroke="black" stroke-dasharray="1,5" d="M869,-86.97C869,-74.34 869,-59.14 869,-46.32"/>
<polygon fill="black" stroke="black" points="872.5,-46.22 869,-36.22 865.5,-46.22 872.5,-46.22"/>
<text text-anchor="middle" x="923" y="-57.8" font-family="Times,serif" font-size="14.00">to BAM processing</text>
</g>
</g>
</svg>
