<?xml version="1.0" encoding="UTF-8" standalone="no"?>
<!DOCTYPE svg PUBLIC "-//W3C//DTD SVG 1.1//EN"
 "http://www.w3.org/Graphics/SVG/1.1/DTD/svg11.dtd">
<!-- Generated by graphviz version 2.47.3 (20210619.1520)
 -->
<!-- Title: workflow Pages: 1 -->
<svg width="1152pt" height="1903pt"
 viewBox="0.00 0.00 1152.00 1902.96" xmlns="http://www.w3.org/2000/svg" xmlns:xlink="http://www.w3.org/1999/xlink">
<g id="graph0" class="graph" transform="scale(1 1) rotate(0) translate(4 1898.96)">
<title>workflow</title>
<polygon fill="white" stroke="transparent" points="-4,4 -4,-1898.96 1148,-1898.96 1148,4 -4,4"/>
<!-- ClinVar regions BED -->
<g id="node1" class="node">
<title>ClinVar regions BED</title>
<polygon fill="none" stroke="black" points="544.63,-1323.96 494.82,-1341.96 395.18,-1341.96 345.37,-1323.96 395.18,-1305.96 494.82,-1305.96 544.63,-1323.96"/>
<text text-anchor="middle" x="445" y="-1320.26" font-family="Times,serif" font-size="14.00">ClinVar regions BED</text>
</g>
<!-- bedtools map &#45;o min -->
<g id="node9" class="node">
<title>bedtools map &#45;o min</title>
<polygon fill="#d9d9d9" stroke="#d9d9d9" points="519,-1254.96 352,-1216.96 519,-1178.96 686,-1216.96 519,-1254.96"/>
<text text-anchor="middle" x="519" y="-1220.76" font-family="Times,serif" font-size="14.00">bedtools map &#45;o min </text>
<text text-anchor="middle" x="519" y="-1205.76" font-family="Times,serif" font-size="14.00">&#45;a &lt;ClinVar&gt; &#45;b &lt;Bismap&gt;</text>
</g>
<!-- ClinVar regions BED&#45;&gt;bedtools map &#45;o min -->
<g id="edge6" class="edge">
<title>ClinVar regions BED&#45;&gt;bedtools map &#45;o min</title>
<path fill="none" stroke="black" d="M457.22,-1305.62C466.24,-1292.82 478.89,-1274.87 490.4,-1258.54"/>
<polygon fill="black" stroke="black" points="493.39,-1260.37 496.29,-1250.18 487.67,-1256.34 493.39,-1260.37"/>
<text text-anchor="middle" x="501.5" y="-1276.76" font-family="Times,serif" font-size="14.00">ClinVar</text>
</g>
<!-- bedtools map &#45;o mean -->
<g id="node10" class="node">
<title>bedtools map &#45;o mean</title>
<polygon fill="#d9d9d9" stroke="#d9d9d9" points="167,-1254.96 0,-1216.96 167,-1178.96 334,-1216.96 167,-1254.96"/>
<text text-anchor="middle" x="167" y="-1220.76" font-family="Times,serif" font-size="14.00">bedtools map &#45;o mean </text>
<text text-anchor="middle" x="167" y="-1205.76" font-family="Times,serif" font-size="14.00">&#45;a &lt;ClinVar&gt; &#45;b &lt;Bismap&gt;</text>
</g>
<!-- ClinVar regions BED&#45;&gt;bedtools map &#45;o mean -->
<g id="edge8" class="edge">
<title>ClinVar regions BED&#45;&gt;bedtools map &#45;o mean</title>
<path fill="none" stroke="black" d="M399.72,-1305.86C355.92,-1289.32 288.89,-1264 238,-1244.78"/>
<polygon fill="black" stroke="black" points="238.96,-1241.4 228.37,-1241.14 236.49,-1247.95 238.96,-1241.4"/>
<text text-anchor="middle" x="369.5" y="-1276.76" font-family="Times,serif" font-size="14.00">ClinVar</text>
</g>
<!-- grch38 fasta 2 -->
<g id="node2" class="node">
<title>grch38 fasta 2</title>
<polygon fill="none" stroke="black" points="924.09,-1876.96 888.05,-1894.96 815.95,-1894.96 779.91,-1876.96 815.95,-1858.96 888.05,-1858.96 924.09,-1876.96"/>
<text text-anchor="middle" x="852" y="-1873.26" font-family="Times,serif" font-size="14.00">reference fasta</text>
</g>
<!-- grch38 .fai file -->
<g id="node25" class="node">
<title>grch38 .fai file</title>
<ellipse fill="none" stroke="black" cx="852" cy="-1789.96" rx="63.09" ry="18"/>
<text text-anchor="middle" x="852" y="-1786.26" font-family="Times,serif" font-size="14.00">grch38 .fai file</text>
</g>
<!-- grch38 fasta 2&#45;&gt;grch38 .fai file -->
<g id="edge24" class="edge">
<title>grch38 fasta 2&#45;&gt;grch38 .fai file</title>
<path fill="none" stroke="black" d="M852,-1858.76C852,-1847.12 852,-1831.51 852,-1818.2"/>
<polygon fill="black" stroke="black" points="855.5,-1818.14 852,-1808.14 848.5,-1818.14 855.5,-1818.14"/>
<text text-anchor="middle" x="892.5" y="-1829.76" font-family="Times,serif" font-size="14.00">samtools faidx</text>
</g>
<!-- Bismap bedGraph -->
<g id="node3" class="node">
<title>Bismap bedGraph</title>
<ellipse fill="none" stroke="black" cx="677" cy="-1702.96" rx="75.29" ry="18"/>
<text text-anchor="middle" x="677" y="-1699.26" font-family="Times,serif" font-size="14.00">Bismap bedGraph</text>
</g>
<!-- sort &#45;k1,1 &#45;k2,2n_again -->
<g id="node4" class="node">
<title>sort &#45;k1,1 &#45;k2,2n_again</title>
<polygon fill="#d9d9d9" stroke="#d9d9d9" points="689,-1414.96 589.96,-1396.96 689,-1378.96 788.04,-1396.96 689,-1414.96"/>
<text text-anchor="middle" x="689" y="-1393.26" font-family="Times,serif" font-size="14.00">sort &#45;k1,1 &#45;k2,2n</text>
</g>
<!-- Bismap bedGraph&#45;&gt;sort &#45;k1,1 &#45;k2,2n_again -->
<g id="edge1" class="edge">
<title>Bismap bedGraph&#45;&gt;sort &#45;k1,1 &#45;k2,2n_again</title>
<path fill="none" stroke="black" d="M677,-1684.74C677,-1670.37 677,-1649.33 677,-1630.96 677,-1630.96 677,-1630.96 677,-1468.96 677,-1453.97 679.63,-1437.44 682.43,-1424.1"/>
<polygon fill="black" stroke="black" points="685.88,-1424.71 684.67,-1414.18 679.06,-1423.17 685.88,-1424.71"/>
</g>
<!-- bedtools complement -->
<g id="node23" class="node">
<title>bedtools complement</title>
<polygon fill="#d9d9d9" stroke="#d9d9d9" points="830,-1647.96 706.67,-1629.96 830,-1611.96 953.33,-1629.96 830,-1647.96"/>
<text text-anchor="middle" x="830" y="-1626.26" font-family="Times,serif" font-size="14.00">bedtools complement</text>
</g>
<!-- Bismap bedGraph&#45;&gt;bedtools complement -->
<g id="edge22" class="edge">
<title>Bismap bedGraph&#45;&gt;bedtools complement</title>
<path fill="none" stroke="black" d="M709.82,-1686.73C734.11,-1675.46 767.24,-1660.08 792.57,-1648.33"/>
<polygon fill="black" stroke="black" points="794.26,-1651.41 801.85,-1644.02 791.31,-1645.06 794.26,-1651.41"/>
</g>
<!-- Bismap complete bedGraph -->
<g id="node5" class="node">
<title>Bismap complete bedGraph</title>
<ellipse fill="none" stroke="black" cx="689" cy="-1323.96" rx="110.48" ry="18"/>
<text text-anchor="middle" x="689" y="-1320.26" font-family="Times,serif" font-size="14.00">Bismap complete bedGraph</text>
</g>
<!-- sort &#45;k1,1 &#45;k2,2n_again&#45;&gt;Bismap complete bedGraph -->
<g id="edge2" class="edge">
<title>sort &#45;k1,1 &#45;k2,2n_again&#45;&gt;Bismap complete bedGraph</title>
<path fill="none" stroke="black" d="M689,-1378.77C689,-1370.75 689,-1361.01 689,-1352.03"/>
<polygon fill="black" stroke="black" points="692.5,-1351.99 689,-1341.99 685.5,-1351.99 692.5,-1351.99"/>
</g>
<!-- BAM_PROC_1 -->
<!-- Bismap complete bedGraph&#45;&gt;BAM_PROC_1 -->
<g id="edge3" class="edge">
<title>Bismap complete bedGraph&#45;&gt;BAM_PROC_1</title>
<path fill="none" stroke="black" stroke-dasharray="1,5" d="M704.44,-1306.12C709.5,-1300.44 715.09,-1294.01 720,-1287.96 731.74,-1273.5 744.21,-1256.77 753.99,-1243.29"/>
<polygon fill="black" stroke="black" points="756.99,-1245.12 760,-1234.96 751.31,-1241.02 756.99,-1245.12"/>
<text text-anchor="middle" x="786" y="-1276.76" font-family="Times,serif" font-size="14.00">to BAM processing</text>
</g>
<!-- Bismap complete bedGraph&#45;&gt;bedtools map &#45;o min -->
<g id="edge7" class="edge">
<title>Bismap complete bedGraph&#45;&gt;bedtools map &#45;o min</title>
<path fill="none" stroke="black" d="M675.31,-1306.08C666.14,-1295.57 653.34,-1282.3 640,-1272.96 624.85,-1262.35 607.33,-1252.99 590.4,-1245.14"/>
<polygon fill="black" stroke="black" points="591.63,-1241.86 581.07,-1240.94 588.75,-1248.24 591.63,-1241.86"/>
<text text-anchor="middle" x="679.5" y="-1276.76" font-family="Times,serif" font-size="14.00">Bismap</text>
</g>
<!-- Bismap complete bedGraph&#45;&gt;bedtools map &#45;o mean -->
<g id="edge9" class="edge">
<title>Bismap complete bedGraph&#45;&gt;bedtools map &#45;o mean</title>
<path fill="none" stroke="black" d="M646.63,-1307.3C614.3,-1295.99 568.41,-1281.29 527,-1272.96 446.44,-1256.76 424.22,-1267.43 343,-1254.96 314.96,-1250.66 284.66,-1244.75 257.23,-1238.91"/>
<polygon fill="black" stroke="black" points="257.78,-1235.45 247.27,-1236.77 256.31,-1242.3 257.78,-1235.45"/>
<text text-anchor="middle" x="607.5" y="-1276.76" font-family="Times,serif" font-size="14.00">Bismap</text>
</g>
<!-- awk_again -->
<g id="node27" class="node">
<title>awk_again</title>
<polygon fill="#d9d9d9" stroke="#d9d9d9" points="869,-695.74 715.5,-677.74 869,-659.74 1022.5,-677.74 869,-695.74"/>
<text text-anchor="middle" x="869" y="-674.04" font-family="Times,serif" font-size="14.00">awk &#39; if $4&lt;=0.01 { print }&#39;</text>
</g>
<!-- Bismap complete bedGraph&#45;&gt;awk_again -->
<g id="edge27" class="edge">
<title>Bismap complete bedGraph&#45;&gt;awk_again</title>
<path fill="none" stroke="black" d="M770.82,-1311.77C801.88,-1306.04 832.54,-1298.11 844,-1287.96 868.73,-1266.06 869,-1251 869,-1217.96 869,-1217.96 869,-1217.96 869,-758.61 869,-741.2 869,-721.66 869,-706.27"/>
<polygon fill="black" stroke="black" points="872.5,-705.88 869,-695.88 865.5,-705.88 872.5,-705.88"/>
</g>
<!-- 0 mappability regions bedGraph -->
<g id="node7" class="node">
<title>0 mappability regions bedGraph</title>
<ellipse fill="none" stroke="black" cx="830" cy="-1469.96" rx="125.38" ry="18"/>
<text text-anchor="middle" x="830" y="-1466.26" font-family="Times,serif" font-size="14.00">0 mappability regions bedGraph</text>
</g>
<!-- 0 mappability regions bedGraph&#45;&gt;sort &#45;k1,1 &#45;k2,2n_again -->
<g id="edge4" class="edge">
<title>0 mappability regions bedGraph&#45;&gt;sort &#45;k1,1 &#45;k2,2n_again</title>
<path fill="none" stroke="black" d="M797.3,-1452.49C775.09,-1441.31 745.77,-1426.55 723.24,-1415.2"/>
<polygon fill="black" stroke="black" points="724.55,-1411.94 714.05,-1410.57 721.4,-1418.2 724.55,-1411.94"/>
</g>
<!-- Bismap bigWig -->
<g id="node8" class="node">
<title>Bismap bigWig</title>
<polygon fill="none" stroke="black" points="754.1,-1789.96 715.55,-1807.96 638.45,-1807.96 599.9,-1789.96 638.45,-1771.96 715.55,-1771.96 754.1,-1789.96"/>
<text text-anchor="middle" x="677" y="-1786.26" font-family="Times,serif" font-size="14.00">Bismap bigWig</text>
</g>
<!-- Bismap bigWig&#45;&gt;Bismap bedGraph -->
<g id="edge5" class="edge">
<title>Bismap bigWig&#45;&gt;Bismap bedGraph</title>
<path fill="none" stroke="black" d="M677,-1771.76C677,-1760.12 677,-1744.51 677,-1731.2"/>
<polygon fill="black" stroke="black" points="680.5,-1731.14 677,-1721.14 673.5,-1731.14 680.5,-1731.14"/>
<text text-anchor="middle" x="733" y="-1742.76" font-family="Times,serif" font-size="14.00">bigWigToBedGraph</text>
</g>
<!-- ClinVar regions with\n min mappability bedGraph -->
<g id="node11" class="node">
<title>ClinVar regions with\n min mappability bedGraph</title>
<ellipse fill="none" stroke="black" cx="518" cy="-1115.09" rx="118.59" ry="26.74"/>
<text text-anchor="middle" x="518" y="-1118.89" font-family="Times,serif" font-size="14.00">ClinVar regions with</text>
<text text-anchor="middle" x="518" y="-1103.89" font-family="Times,serif" font-size="14.00"> min mappability bedGraph</text>
</g>
<!-- bedtools map &#45;o min&#45;&gt;ClinVar regions with\n min mappability bedGraph -->
<g id="edge10" class="edge">
<title>bedtools map &#45;o min&#45;&gt;ClinVar regions with\n min mappability bedGraph</title>
<path fill="none" stroke="black" d="M518.63,-1178.77C518.54,-1170.1 518.45,-1160.87 518.36,-1152.25"/>
<polygon fill="black" stroke="black" points="521.86,-1152.06 518.26,-1142.09 514.86,-1152.13 521.86,-1152.06"/>
</g>
<!-- ClinVar regions with\n mean mappability bedGraph -->
<g id="node12" class="node">
<title>ClinVar regions with\n mean mappability bedGraph</title>
<ellipse fill="none" stroke="black" cx="235" cy="-1115.09" rx="124.4" ry="26.74"/>
<text text-anchor="middle" x="235" y="-1118.89" font-family="Times,serif" font-size="14.00">ClinVar regions with</text>
<text text-anchor="middle" x="235" y="-1103.89" font-family="Times,serif" font-size="14.00"> mean mappability bedGraph</text>
</g>
<!-- bedtools map &#45;o mean&#45;&gt;ClinVar regions with\n mean mappability bedGraph -->
<g id="edge11" class="edge">
<title>bedtools map &#45;o mean&#45;&gt;ClinVar regions with\n mean mappability bedGraph</title>
<path fill="none" stroke="black" d="M188.89,-1183.81C196.18,-1173.1 204.33,-1161.14 211.72,-1150.28"/>
<polygon fill="black" stroke="black" points="214.72,-1152.09 217.46,-1141.86 208.94,-1148.15 214.72,-1152.09"/>
</g>
<!-- paste -->
<g id="node13" class="node">
<title>paste</title>
<polygon fill="#d9d9d9" stroke="#d9d9d9" points="515,-1051.22 474.61,-1033.22 515,-1015.22 555.39,-1033.22 515,-1051.22"/>
<text text-anchor="middle" x="515" y="-1029.52" font-family="Times,serif" font-size="14.00">paste</text>
</g>
<!-- ClinVar regions with\n min mappability bedGraph&#45;&gt;paste -->
<g id="edge12" class="edge">
<title>ClinVar regions with\n min mappability bedGraph&#45;&gt;paste</title>
<path fill="none" stroke="black" d="M517.02,-1087.94C516.7,-1079.49 516.35,-1070.11 516.03,-1061.58"/>
<polygon fill="black" stroke="black" points="519.52,-1061.23 515.64,-1051.37 512.52,-1061.49 519.52,-1061.23"/>
</g>
<!-- ClinVar regions with\n mean mappability bedGraph&#45;&gt;paste -->
<g id="edge14" class="edge">
<title>ClinVar regions with\n mean mappability bedGraph&#45;&gt;paste</title>
<path fill="none" stroke="black" d="M308.2,-1093.21C364.34,-1077.2 439.18,-1055.85 481.72,-1043.71"/>
<polygon fill="black" stroke="black" points="482.9,-1047.02 491.56,-1040.91 480.98,-1040.29 482.9,-1047.02"/>
</g>
<!-- ClinVar regions with min and\n mean mappability bedGraph -->
<g id="node14" class="node">
<title>ClinVar regions with min and\n mean mappability bedGraph</title>
<ellipse fill="none" stroke="black" cx="515" cy="-951.35" rx="126.64" ry="26.74"/>
<text text-anchor="middle" x="515" y="-955.15" font-family="Times,serif" font-size="14.00">ClinVar regions with min and</text>
<text text-anchor="middle" x="515" y="-940.15" font-family="Times,serif" font-size="14.00"> mean mappability bedGraph</text>
</g>
<!-- paste&#45;&gt;ClinVar regions with min and\n mean mappability bedGraph -->
<g id="edge13" class="edge">
<title>paste&#45;&gt;ClinVar regions with min and\n mean mappability bedGraph</title>
<path fill="none" stroke="black" d="M515,-1014.89C515,-1007.16 515,-997.74 515,-988.58"/>
<polygon fill="black" stroke="black" points="518.5,-988.45 515,-978.45 511.5,-988.45 518.5,-988.45"/>
</g>
<!-- Mappability Distribution in ClinVar regions -->
<g id="node15" class="node">
<title>Mappability Distribution in ClinVar regions</title>
<polygon fill="gray" stroke="gray" points="795,-873.48 539,-873.48 539,-837.48 795,-837.48 795,-873.48"/>
<text text-anchor="middle" x="667" y="-851.78" font-family="Times,serif" font-size="14.00">Mappability Distribution in ClinVar regions</text>
</g>
<!-- ClinVar regions with min and\n mean mappability bedGraph&#45;&gt;Mappability Distribution in ClinVar regions -->
<g id="edge15" class="edge">
<title>ClinVar regions with min and\n mean mappability bedGraph&#45;&gt;Mappability Distribution in ClinVar regions</title>
<path fill="none" stroke="black" stroke-dasharray="5,2" d="M554.94,-925.69C578.39,-911.2 607.8,-893.04 630.61,-878.95"/>
<polygon fill="black" stroke="black" points="632.64,-881.81 639.31,-873.58 628.97,-875.85 632.64,-881.81"/>
<text text-anchor="middle" x="662" y="-895.28" font-family="Times,serif" font-size="14.00">Display in Tableau</text>
</g>
<!-- awk &#39;$11 &lt;= min_cutoff { print }&#39; -->
<g id="node18" class="node">
<title>awk &#39;$11 &lt;= min_cutoff { print }&#39;</title>
<polygon fill="#d9d9d9" stroke="#d9d9d9" points="511,-695.74 324.32,-677.74 511,-659.74 697.68,-677.74 511,-695.74"/>
<text text-anchor="middle" x="511" y="-674.04" font-family="Times,serif" font-size="14.00">awk &#39;$11 &lt;= min_cutoff { print }&#39;</text>
</g>
<!-- ClinVar regions with min and\n mean mappability bedGraph&#45;&gt;awk &#39;$11 &lt;= min_cutoff { print }&#39; -->
<g id="edge19" class="edge">
<title>ClinVar regions with min and\n mean mappability bedGraph&#45;&gt;awk &#39;$11 &lt;= min_cutoff { print }&#39;</title>
<path fill="none" stroke="black" d="M514.62,-924.31C513.86,-872.86 512.18,-758.66 511.4,-706.14"/>
<polygon fill="black" stroke="black" points="514.9,-705.86 511.25,-695.91 507.9,-705.96 514.9,-705.86"/>
</g>
<!-- low mappability cutoff value\n(min mappability &lt;= 0.01) -->
<g id="node17" class="node">
<title>low mappability cutoff value\n(min mappability &lt;= 0.01)</title>
<ellipse fill="none" stroke="black" cx="667" cy="-759.61" rx="123.99" ry="26.74"/>
<text text-anchor="middle" x="667" y="-763.41" font-family="Times,serif" font-size="14.00">low mappability cutoff value</text>
<text text-anchor="middle" x="667" y="-748.41" font-family="Times,serif" font-size="14.00">(min mappability &lt;= 0.01)</text>
</g>
<!-- Mappability Distribution in ClinVar regions&#45;&gt;low mappability cutoff value\n(min mappability &lt;= 0.01) -->
<g id="edge16" class="edge">
<title>Mappability Distribution in ClinVar regions&#45;&gt;low mappability cutoff value\n(min mappability &lt;= 0.01)</title>
<path fill="none" stroke="black" stroke-dasharray="5,2" d="M667,-837.26C667,-825.96 667,-810.75 667,-796.86"/>
<polygon fill="black" stroke="black" points="670.5,-796.58 667,-786.58 663.5,-796.58 670.5,-796.58"/>
<text text-anchor="middle" x="724.5" y="-808.28" font-family="Times,serif" font-size="14.00">Examine distribution</text>
</g>
<!-- Examine Data -->
<!-- low mappability cutoff value\n(min mappability &lt;= 0.01)&#45;&gt;awk &#39;$11 &lt;= min_cutoff { print }&#39; -->
<g id="edge17" class="edge">
<title>low mappability cutoff value\n(min mappability &lt;= 0.01)&#45;&gt;awk &#39;$11 &lt;= min_cutoff { print }&#39;</title>
<path fill="none" stroke="black" d="M620.19,-734.65C597.21,-722.88 569.9,-708.9 548.34,-697.86"/>
<polygon fill="black" stroke="black" points="549.68,-694.61 539.18,-693.17 546.49,-700.84 549.68,-694.61"/>
</g>
<!-- low mappability cutoff value\n(min mappability &lt;= 0.01)&#45;&gt;awk_again -->
<g id="edge28" class="edge">
<title>low mappability cutoff value\n(min mappability &lt;= 0.01)&#45;&gt;awk_again</title>
<path fill="none" stroke="black" d="M724.61,-735.83C756.88,-723.07 796.45,-707.43 826,-695.74"/>
<polygon fill="black" stroke="black" points="827.59,-698.88 835.61,-691.94 825.02,-692.37 827.59,-698.88"/>
</g>
<!-- low mappability ClinVar regions -->
<g id="node19" class="node">
<title>low mappability ClinVar regions</title>
<ellipse fill="none" stroke="black" cx="511" cy="-604.74" rx="126.98" ry="18"/>
<text text-anchor="middle" x="511" y="-601.04" font-family="Times,serif" font-size="14.00">low mappability ClinVar regions</text>
</g>
<!-- awk &#39;$11 &lt;= min_cutoff { print }&#39;&#45;&gt;low mappability ClinVar regions -->
<g id="edge18" class="edge">
<title>awk &#39;$11 &lt;= min_cutoff { print }&#39;&#45;&gt;low mappability ClinVar regions</title>
<path fill="none" stroke="black" d="M511,-659.55C511,-651.53 511,-641.79 511,-632.81"/>
<polygon fill="black" stroke="black" points="514.5,-632.77 511,-622.77 507.5,-632.77 514.5,-632.77"/>
</g>
<!-- sorted low mappability ClinVar regions -->
<g id="node20" class="node">
<title>sorted low mappability ClinVar regions</title>
<ellipse fill="none" stroke="black" cx="511" cy="-517.74" rx="150.57" ry="18"/>
<text text-anchor="middle" x="511" y="-514.04" font-family="Times,serif" font-size="14.00">sorted low mappability ClinVar regions</text>
</g>
<!-- low mappability ClinVar regions&#45;&gt;sorted low mappability ClinVar regions -->
<g id="edge20" class="edge">
<title>low mappability ClinVar regions&#45;&gt;sorted low mappability ClinVar regions</title>
<path fill="none" stroke="black" d="M511,-586.54C511,-574.9 511,-559.29 511,-545.98"/>
<polygon fill="black" stroke="black" points="514.5,-545.92 511,-535.92 507.5,-545.92 514.5,-545.92"/>
<text text-anchor="middle" x="557" y="-557.54" font-family="Times,serif" font-size="14.00">sort &#45;k1,1 &#45;k2,2n</text>
</g>
<!-- expanded low mappability ClinVar regions -->
<g id="node32" class="node">
<title>expanded low mappability ClinVar regions</title>
<ellipse fill="none" stroke="black" cx="511" cy="-409.74" rx="163.27" ry="18"/>
<text text-anchor="middle" x="511" y="-406.04" font-family="Times,serif" font-size="14.00">expanded low mappability ClinVar regions</text>
</g>
<!-- sorted low mappability ClinVar regions&#45;&gt;expanded low mappability ClinVar regions -->
<g id="edge34" class="edge">
<title>sorted low mappability ClinVar regions&#45;&gt;expanded low mappability ClinVar regions</title>
<path fill="none" stroke="black" d="M511,-499.71C511,-483.12 511,-457.62 511,-438.17"/>
<polygon fill="black" stroke="black" points="514.5,-438.08 511,-428.08 507.5,-438.08 514.5,-438.08"/>
<text text-anchor="middle" x="587" y="-460.04" font-family="Times,serif" font-size="14.00">bedtools slop &#45;l 2000 &#45;r 0 &#45;s</text>
</g>
<!-- expanded sorted low mappability ClinVar regions -->
<g id="node21" class="node">
<title>expanded sorted low mappability ClinVar regions</title>
<ellipse fill="none" stroke="black" cx="511" cy="-322.74" rx="186.57" ry="18"/>
<text text-anchor="middle" x="511" y="-319.04" font-family="Times,serif" font-size="14.00">expanded sorted low mappability ClinVar regions</text>
</g>
<!-- BAM_PROC_2 -->
<!-- expanded sorted low mappability ClinVar regions&#45;&gt;BAM_PROC_2 -->
<g id="edge21" class="edge">
<title>expanded sorted low mappability ClinVar regions&#45;&gt;BAM_PROC_2</title>
<path fill="none" stroke="black" stroke-dasharray="1,5" d="M510.5,-304.4C510.03,-287.96 509.32,-263.02 508.78,-243.93"/>
<polygon fill="black" stroke="black" points="512.27,-243.65 508.49,-233.76 505.27,-243.85 512.27,-243.65"/>
<text text-anchor="middle" x="617.5" y="-275.54" font-family="Times,serif" font-size="14.00">to BAM processing and postprocessing</text>
</g>
<!-- bedtools intersect &#45;u_0 -->
<g id="node30" class="node">
<title>bedtools intersect &#45;u_0</title>
<polygon fill="#d9d9d9" stroke="#d9d9d9" points="869,-253.74 594,-215.74 869,-177.74 1144,-215.74 869,-253.74"/>
<text text-anchor="middle" x="869" y="-219.54" font-family="Times,serif" font-size="14.00">bedtools intersect &#45;sorted </text>
<text text-anchor="middle" x="869" y="-204.54" font-family="Times,serif" font-size="14.00">&#45;a &lt;low map. regions&gt; &#45;b &lt;ClinVar low map.&gt;</text>
</g>
<!-- expanded sorted low mappability ClinVar regions&#45;&gt;bedtools intersect &#45;u_0 -->
<g id="edge37" class="edge">
<title>expanded sorted low mappability ClinVar regions&#45;&gt;bedtools intersect &#45;u_0</title>
<path fill="none" stroke="black" d="M634.38,-309.24C665.75,-304.08 699.04,-296.85 729,-286.74 742.38,-282.23 744.44,-278.19 757,-271.74 770.83,-264.64 785.71,-257.2 799.97,-250.16"/>
<polygon fill="black" stroke="black" points="801.8,-253.16 809.23,-245.61 798.71,-246.88 801.8,-253.16"/>
<text text-anchor="middle" x="806" y="-275.54" font-family="Times,serif" font-size="14.00">ClinVar low map.</text>
</g>
<!-- 0 mappability regions BED -->
<g id="node24" class="node">
<title>0 mappability regions BED</title>
<ellipse fill="none" stroke="black" cx="830" cy="-1556.96" rx="108.58" ry="18"/>
<text text-anchor="middle" x="830" y="-1553.26" font-family="Times,serif" font-size="14.00">0 mappability regions BED</text>
</g>
<!-- bedtools complement&#45;&gt;0 mappability regions BED -->
<g id="edge23" class="edge">
<title>bedtools complement&#45;&gt;0 mappability regions BED</title>
<path fill="none" stroke="black" d="M830,-1611.77C830,-1603.75 830,-1594.01 830,-1585.03"/>
<polygon fill="black" stroke="black" points="833.5,-1584.99 830,-1574.99 826.5,-1584.99 833.5,-1584.99"/>
</g>
<!-- 0 mappability regions BED&#45;&gt;0 mappability regions bedGraph -->
<g id="edge30" class="edge">
<title>0 mappability regions BED&#45;&gt;0 mappability regions bedGraph</title>
<path fill="none" stroke="black" d="M830,-1538.76C830,-1527.12 830,-1511.51 830,-1498.2"/>
<polygon fill="black" stroke="black" points="833.5,-1498.14 830,-1488.14 826.5,-1498.14 833.5,-1498.14"/>
<text text-anchor="middle" x="890.5" y="-1509.76" font-family="Times,serif" font-size="14.00">awk &#39;{ print $0&quot;\t&quot;0 }&#39;</text>
</g>
<!-- grch38 .genome file -->
<g id="node26" class="node">
<title>grch38 .genome file</title>
<ellipse fill="none" stroke="black" cx="852" cy="-1702.96" rx="81.79" ry="18"/>
<text text-anchor="middle" x="852" y="-1699.26" font-family="Times,serif" font-size="14.00">grch38 .genome file</text>
</g>
<!-- grch38 .fai file&#45;&gt;grch38 .genome file -->
<g id="edge25" class="edge">
<title>grch38 .fai file&#45;&gt;grch38 .genome file</title>
<path fill="none" stroke="black" d="M852,-1771.76C852,-1760.12 852,-1744.51 852,-1731.2"/>
<polygon fill="black" stroke="black" points="855.5,-1731.14 852,-1721.14 848.5,-1731.14 855.5,-1731.14"/>
<text text-anchor="middle" x="877.5" y="-1742.76" font-family="Times,serif" font-size="14.00">cut &#45;f 1,2</text>
</g>
<!-- grch38 .genome file&#45;&gt;bedtools complement -->
<g id="edge26" class="edge">
<title>grch38 .genome file&#45;&gt;bedtools complement</title>
<path fill="none" stroke="black" d="M846.67,-1684.77C844.12,-1676.54 841.01,-1666.51 838.17,-1657.34"/>
<polygon fill="black" stroke="black" points="841.43,-1656.02 835.13,-1647.5 834.74,-1658.09 841.43,-1656.02"/>
</g>
<!-- &lt;=0.01 mappability regions bedGraph -->
<g id="node28" class="node">
<title>&lt;=0.01 mappability regions bedGraph</title>
<ellipse fill="none" stroke="black" cx="869" cy="-604.74" rx="147.57" ry="18"/>
<text text-anchor="middle" x="869" y="-601.04" font-family="Times,serif" font-size="14.00">&lt;=0.01 mappability regions bedGraph</text>
</g>
<!-- awk_again&#45;&gt;&lt;=0.01 mappability regions bedGraph -->
<g id="edge29" class="edge">
<title>awk_again&#45;&gt;&lt;=0.01 mappability regions bedGraph</title>
<path fill="none" stroke="black" d="M869,-659.55C869,-651.53 869,-641.79 869,-632.81"/>
<polygon fill="black" stroke="black" points="872.5,-632.77 869,-622.77 865.5,-632.77 872.5,-632.77"/>
</g>
<!-- sorted low mappability regions -->
<g id="node29" class="node">
<title>sorted low mappability regions</title>
<ellipse fill="none" stroke="black" cx="869" cy="-463.74" rx="120.78" ry="18"/>
<text text-anchor="middle" x="869" y="-460.04" font-family="Times,serif" font-size="14.00">sorted low mappability regions</text>
</g>
<!-- &lt;=0.01 mappability regions bedGraph&#45;&gt;sorted low mappability regions -->
<g id="edge31" class="edge">
<title>&lt;=0.01 mappability regions bedGraph&#45;&gt;sorted low mappability regions</title>
<path fill="none" stroke="black" d="M869,-586.7C869,-563.14 869,-520.38 869,-492.27"/>
<polygon fill="black" stroke="black" points="872.5,-491.92 869,-481.92 865.5,-491.92 872.5,-491.92"/>
<text text-anchor="middle" x="915" y="-557.54" font-family="Times,serif" font-size="14.00">sort &#45;k1,1 &#45;k2,2n</text>
</g>
<!-- sorted low mappability regions&#45;&gt;bedtools intersect &#45;u_0 -->
<g id="edge32" class="edge">
<title>sorted low mappability regions&#45;&gt;bedtools intersect &#45;u_0</title>
<path fill="none" stroke="black" d="M869,-445.44C869,-408.25 869,-319.56 869,-264.2"/>
<polygon fill="black" stroke="black" points="872.5,-263.93 869,-253.93 865.5,-263.93 872.5,-263.93"/>
<text text-anchor="middle" x="917" y="-362.54" font-family="Times,serif" font-size="14.00">low map. regions</text>
</g>
<!-- sorted low mappability regions\nin ClinVar annotations -->
<g id="node31" class="node">
<title>sorted low mappability regions\nin ClinVar annotations</title>
<ellipse fill="none" stroke="black" cx="869" cy="-113.87" rx="131.54" ry="26.74"/>
<text text-anchor="middle" x="869" y="-117.67" font-family="Times,serif" font-size="14.00">sorted low mappability regions</text>
<text text-anchor="middle" x="869" y="-102.67" font-family="Times,serif" font-size="14.00">in ClinVar annotations</text>
</g>
<!-- bedtools intersect &#45;u_0&#45;&gt;sorted low mappability regions\nin ClinVar annotations -->
<g id="edge33" class="edge">
<title>bedtools intersect &#45;u_0&#45;&gt;sorted low mappability regions\nin ClinVar annotations</title>
<path fill="none" stroke="black" d="M869,-177.55C869,-168.88 869,-159.65 869,-151.03"/>
<polygon fill="black" stroke="black" points="872.5,-150.87 869,-140.87 865.5,-150.87 872.5,-150.87"/>
</g>
<!-- BAM_PROC_3 -->
<!-- sorted low mappability regions\nin ClinVar annotations&#45;&gt;BAM_PROC_3 -->
<g id="edge36" class="edge">
<title>sorted low mappability regions\nin ClinVar annotations&#45;&gt;BAM_PROC_3</title>
<path fill="none" stroke="black" stroke-dasharray="1,5" d="M869,-86.97C869,-74.34 869,-59.14 869,-46.32"/>
<polygon fill="black" stroke="black" points="872.5,-46.22 869,-36.22 865.5,-46.22 872.5,-46.22"/>
<text text-anchor="middle" x="976.5" y="-57.8" font-family="Times,serif" font-size="14.00">to BAM processing and postprocessing</text>
</g>
<!-- expanded low mappability ClinVar regions&#45;&gt;expanded sorted low mappability ClinVar regions -->
<g id="edge35" class="edge">
<title>expanded low mappability ClinVar regions&#45;&gt;expanded sorted low mappability ClinVar regions</title>
<path fill="none" stroke="black" d="M511,-391.54C511,-379.9 511,-364.29 511,-350.98"/>
<polygon fill="black" stroke="black" points="514.5,-350.92 511,-340.92 507.5,-350.92 514.5,-350.92"/>
<text text-anchor="middle" x="557" y="-362.54" font-family="Times,serif" font-size="14.00">sort &#45;k1,1 &#45;k2,2n</text>
</g>
</g>
</svg>
