<?xml version="1.0" encoding="UTF-8" standalone="no"?>
<!DOCTYPE svg PUBLIC "-//W3C//DTD SVG 1.1//EN"
 "http://www.w3.org/Graphics/SVG/1.1/DTD/svg11.dtd">
<!-- Generated by graphviz version 2.47.3 (20210619.1520)
 -->
<!-- Title: workflow Pages: 1 -->
<svg width="2614pt" height="761pt"
 viewBox="0.00 0.00 2613.52 761.48" xmlns="http://www.w3.org/2000/svg" xmlns:xlink="http://www.w3.org/1999/xlink">
<g id="graph0" class="graph" transform="scale(1 1) rotate(0) translate(4 757.48)">
<title>workflow</title>
<polygon fill="white" stroke="transparent" points="-4,4 -4,-757.48 2609.52,-757.48 2609.52,4 -4,4"/>
<!-- BAMPROC_1a -->
<!-- unfiltered methyl calls bedGraph -->
<g id="node2" class="node">
<title>unfiltered methyl calls bedGraph</title>
<ellipse fill="none" stroke="black" cx="703.04" cy="-648.48" rx="127.28" ry="18"/>
<text text-anchor="middle" x="703.04" y="-644.78" font-family="Times,serif" font-size="14.00">unfiltered methyl calls bedGraph</text>
</g>
<!-- BAMPROC_1a&#45;&gt;unfiltered methyl calls bedGraph -->
<g id="edge1" class="edge">
<title>BAMPROC_1a&#45;&gt;unfiltered methyl calls bedGraph</title>
<path fill="none" stroke="black" stroke-dasharray="1,5" d="M703.04,-717.28C703.04,-705.64 703.04,-690.03 703.04,-676.72"/>
<polygon fill="black" stroke="black" points="706.54,-676.66 703.04,-666.66 699.54,-676.66 706.54,-676.66"/>
<text text-anchor="middle" x="765.04" y="-688.28" font-family="Times,serif" font-size="14.00">from BAM processing</text>
</g>
<!-- bedtools intersect &#45;v_1 -->
<g id="node25" class="node">
<title>bedtools intersect &#45;v_1</title>
<polygon fill="#d9d9d9" stroke="#d9d9d9" points="722.04,-579.48 593.17,-561.48 722.04,-543.48 850.9,-561.48 722.04,-579.48"/>
<text text-anchor="middle" x="722.04" y="-557.78" font-family="Times,serif" font-size="14.00">bedtools intersect &#45;v_1</text>
</g>
<!-- unfiltered methyl calls bedGraph&#45;&gt;bedtools intersect &#45;v_1 -->
<g id="edge13" class="edge">
<title>unfiltered methyl calls bedGraph&#45;&gt;bedtools intersect &#45;v_1</title>
<path fill="none" stroke="black" d="M706.88,-630.28C709.52,-618.49 713.06,-602.62 716.06,-589.19"/>
<polygon fill="black" stroke="black" points="719.56,-589.6 718.33,-579.08 712.73,-588.07 719.56,-589.6"/>
<text text-anchor="middle" x="740.04" y="-601.28" font-family="Times,serif" font-size="14.00">unfiltered</text>
</g>
<!-- BAMPROC_2a -->
<!-- unfiltered clinvar methylation call data -->
<g id="node4" class="node">
<title>unfiltered clinvar methylation call data</title>
<ellipse fill="none" stroke="black" cx="1383.04" cy="-648.48" rx="148.37" ry="18"/>
<text text-anchor="middle" x="1383.04" y="-644.78" font-family="Times,serif" font-size="14.00">unfiltered clinvar methylation call data</text>
</g>
<!-- BAMPROC_2a&#45;&gt;unfiltered clinvar methylation call data -->
<g id="edge2" class="edge">
<title>BAMPROC_2a&#45;&gt;unfiltered clinvar methylation call data</title>
<path fill="none" stroke="black" stroke-dasharray="1,5" d="M1383.04,-717.28C1383.04,-705.64 1383.04,-690.03 1383.04,-676.72"/>
<polygon fill="black" stroke="black" points="1386.54,-676.66 1383.04,-666.66 1379.54,-676.66 1386.54,-676.66"/>
<text text-anchor="middle" x="1445.04" y="-688.28" font-family="Times,serif" font-size="14.00">from BAM processing</text>
</g>
<!-- bedtools intersect &#45;v_2 -->
<g id="node26" class="node">
<title>bedtools intersect &#45;v_2</title>
<polygon fill="#d9d9d9" stroke="#d9d9d9" points="1674.04,-579.48 1545.17,-561.48 1674.04,-543.48 1802.9,-561.48 1674.04,-579.48"/>
<text text-anchor="middle" x="1674.04" y="-557.78" font-family="Times,serif" font-size="14.00">bedtools intersect &#45;v_2</text>
</g>
<!-- unfiltered clinvar methylation call data&#45;&gt;bedtools intersect &#45;v_2 -->
<g id="edge15" class="edge">
<title>unfiltered clinvar methylation call data&#45;&gt;bedtools intersect &#45;v_2</title>
<path fill="none" stroke="black" d="M1437.09,-631.69C1490.82,-616 1572.54,-592.13 1624.6,-576.92"/>
<polygon fill="black" stroke="black" points="1625.67,-580.26 1634.28,-574.09 1623.7,-573.54 1625.67,-580.26"/>
<text text-anchor="middle" x="1572.04" y="-601.28" font-family="Times,serif" font-size="14.00">unfiltered</text>
</g>
<!-- BAMPROC_4a -->
<!-- unfiltered mixed methylation calls -->
<g id="node6" class="node">
<title>unfiltered mixed methylation calls</title>
<ellipse fill="none" stroke="black" cx="147.04" cy="-648.48" rx="132.68" ry="18"/>
<text text-anchor="middle" x="147.04" y="-644.78" font-family="Times,serif" font-size="14.00">unfiltered mixed methylation calls</text>
</g>
<!-- BAMPROC_4a&#45;&gt;unfiltered mixed methylation calls -->
<g id="edge3" class="edge">
<title>BAMPROC_4a&#45;&gt;unfiltered mixed methylation calls</title>
<path fill="none" stroke="black" stroke-dasharray="1,5" d="M147.04,-717.28C147.04,-705.64 147.04,-690.03 147.04,-676.72"/>
<polygon fill="black" stroke="black" points="150.54,-676.66 147.04,-666.66 143.54,-676.66 150.54,-676.66"/>
<text text-anchor="middle" x="209.04" y="-688.28" font-family="Times,serif" font-size="14.00">from BAM processing</text>
</g>
<!-- bedtools intersect &#45;wa_wb_3 -->
<g id="node27" class="node">
<title>bedtools intersect &#45;wa_wb_3</title>
<polygon fill="#d9d9d9" stroke="#d9d9d9" points="195.04,-579.48 36.01,-561.48 195.04,-543.48 354.06,-561.48 195.04,-579.48"/>
<text text-anchor="middle" x="195.04" y="-557.78" font-family="Times,serif" font-size="14.00">bedtools intersect &#45;wa_wb_3</text>
</g>
<!-- unfiltered mixed methylation calls&#45;&gt;bedtools intersect &#45;wa_wb_3 -->
<g id="edge17" class="edge">
<title>unfiltered mixed methylation calls&#45;&gt;bedtools intersect &#45;wa_wb_3</title>
<path fill="none" stroke="black" d="M156.75,-630.28C163.69,-617.98 173.15,-601.24 180.92,-587.47"/>
<polygon fill="black" stroke="black" points="184.12,-588.93 185.99,-578.51 178.02,-585.49 184.12,-588.93"/>
<text text-anchor="middle" x="200.04" y="-601.28" font-family="Times,serif" font-size="14.00">unfiltered</text>
</g>
<!-- BAMPROC_5 -->
<!-- ClinVar regions -->
<g id="node8" class="node">
<title>ClinVar regions</title>
<ellipse fill="none" stroke="black" cx="454.04" cy="-474.48" rx="66.09" ry="18"/>
<text text-anchor="middle" x="454.04" y="-470.78" font-family="Times,serif" font-size="14.00">ClinVar regions</text>
</g>
<!-- BAMPROC_5&#45;&gt;ClinVar regions -->
<g id="edge4" class="edge">
<title>BAMPROC_5&#45;&gt;ClinVar regions</title>
<path fill="none" stroke="black" stroke-dasharray="1,5" d="M454.04,-543.28C454.04,-531.64 454.04,-516.03 454.04,-502.72"/>
<polygon fill="black" stroke="black" points="457.54,-502.66 454.04,-492.66 450.54,-502.66 457.54,-502.66"/>
<text text-anchor="middle" x="507.04" y="-514.28" font-family="Times,serif" font-size="14.00">from preprocessing</text>
</g>
<!-- bedtools intersect &#45;wa_4 -->
<g id="node28" class="node">
<title>bedtools intersect &#45;wa_4</title>
<polygon fill="#d9d9d9" stroke="#d9d9d9" points="195.04,-405.48 58.13,-387.48 195.04,-369.48 331.94,-387.48 195.04,-405.48"/>
<text text-anchor="middle" x="195.04" y="-383.78" font-family="Times,serif" font-size="14.00">bedtools intersect &#45;wa_4</text>
</g>
<!-- ClinVar regions&#45;&gt;bedtools intersect &#45;wa_4 -->
<g id="edge40" class="edge">
<title>ClinVar regions&#45;&gt;bedtools intersect &#45;wa_4</title>
<path fill="none" stroke="black" d="M413.57,-460.2C367.11,-444.95 291.04,-419.99 242.01,-403.9"/>
<polygon fill="black" stroke="black" points="242.87,-400.5 232.28,-400.7 240.69,-407.15 242.87,-400.5"/>
<text text-anchor="middle" x="360.04" y="-427.28" font-family="Times,serif" font-size="14.00">clinvar</text>
</g>
<!-- bedtools intersect &#45;wa_5 -->
<g id="node29" class="node">
<title>bedtools intersect &#45;wa_5</title>
<polygon fill="#d9d9d9" stroke="#d9d9d9" points="534.04,-405.48 397.13,-387.48 534.04,-369.48 670.94,-387.48 534.04,-405.48"/>
<text text-anchor="middle" x="534.04" y="-383.78" font-family="Times,serif" font-size="14.00">bedtools intersect &#45;wa_5</text>
</g>
<!-- ClinVar regions&#45;&gt;bedtools intersect &#45;wa_5 -->
<g id="edge30" class="edge">
<title>ClinVar regions&#45;&gt;bedtools intersect &#45;wa_5</title>
<path fill="none" stroke="black" d="M469.84,-456.69C482.06,-443.71 499.1,-425.6 512.55,-411.3"/>
<polygon fill="black" stroke="black" points="515.3,-413.49 519.61,-403.81 510.2,-408.69 515.3,-413.49"/>
<text text-anchor="middle" x="518.04" y="-427.28" font-family="Times,serif" font-size="14.00">clinvar</text>
</g>
<!-- BAMPROC_6 -->
<!-- low map. ClinVar regions -->
<g id="node10" class="node">
<title>low map. ClinVar regions</title>
<ellipse fill="none" stroke="black" cx="1086.04" cy="-291.61" rx="102.88" ry="18"/>
<text text-anchor="middle" x="1086.04" y="-287.91" font-family="Times,serif" font-size="14.00">low map. ClinVar regions</text>
</g>
<!-- BAMPROC_6&#45;&gt;low map. ClinVar regions -->
<g id="edge5" class="edge">
<title>BAMPROC_6&#45;&gt;low map. ClinVar regions</title>
<path fill="none" stroke="black" stroke-dasharray="1,5" d="M1086.04,-369.26C1086.04,-355.5 1086.04,-335.95 1086.04,-320.04"/>
<polygon fill="black" stroke="black" points="1089.54,-319.72 1086.04,-309.72 1082.54,-319.72 1089.54,-319.72"/>
<text text-anchor="middle" x="1139.04" y="-340.28" font-family="Times,serif" font-size="14.00">from preprocessing</text>
</g>
<!-- bedtools intersect &#45;wa_6 -->
<g id="node30" class="node">
<title>bedtools intersect &#45;wa_6</title>
<polygon fill="#d9d9d9" stroke="#d9d9d9" points="1225.04,-213.74 1088.13,-195.74 1225.04,-177.74 1361.94,-195.74 1225.04,-213.74"/>
<text text-anchor="middle" x="1225.04" y="-192.04" font-family="Times,serif" font-size="14.00">bedtools intersect &#45;wa_6</text>
</g>
<!-- low map. ClinVar regions&#45;&gt;bedtools intersect &#45;wa_6 -->
<g id="edge31" class="edge">
<title>low map. ClinVar regions&#45;&gt;bedtools intersect &#45;wa_6</title>
<path fill="none" stroke="black" d="M1110.57,-274.04C1134.27,-258.04 1170.2,-233.77 1195.47,-216.7"/>
<polygon fill="black" stroke="black" points="1197.6,-219.49 1203.93,-210.99 1193.69,-213.69 1197.6,-219.49"/>
<text text-anchor="middle" x="1192.04" y="-235.54" font-family="Times,serif" font-size="14.00">clinvar</text>
</g>
<!-- BAMPROC_7a -->
<!-- unfiltered low map. methylation call data -->
<g id="node12" class="node">
<title>unfiltered low map. methylation call data</title>
<ellipse fill="none" stroke="black" cx="1031.04" cy="-474.48" rx="157.07" ry="18"/>
<text text-anchor="middle" x="1031.04" y="-470.78" font-family="Times,serif" font-size="14.00">unfiltered low map. methylation call data</text>
</g>
<!-- BAMPROC_7a&#45;&gt;unfiltered low map. methylation call data -->
<g id="edge6" class="edge">
<title>BAMPROC_7a&#45;&gt;unfiltered low map. methylation call data</title>
<path fill="none" stroke="black" stroke-dasharray="1,5" d="M1031.04,-543.28C1031.04,-531.64 1031.04,-516.03 1031.04,-502.72"/>
<polygon fill="black" stroke="black" points="1034.54,-502.66 1031.04,-492.66 1027.54,-502.66 1034.54,-502.66"/>
<text text-anchor="middle" x="1093.04" y="-514.28" font-family="Times,serif" font-size="14.00">from BAM processing</text>
</g>
<!-- bedtools intersect &#45;v_7 -->
<g id="node31" class="node">
<title>bedtools intersect &#45;v_7</title>
<polygon fill="#d9d9d9" stroke="#d9d9d9" points="1358.04,-405.48 1229.17,-387.48 1358.04,-369.48 1486.9,-387.48 1358.04,-405.48"/>
<text text-anchor="middle" x="1358.04" y="-383.78" font-family="Times,serif" font-size="14.00">bedtools intersect &#45;v_7</text>
</g>
<!-- unfiltered low map. methylation call data&#45;&gt;bedtools intersect &#45;v_7 -->
<g id="edge19" class="edge">
<title>unfiltered low map. methylation call data&#45;&gt;bedtools intersect &#45;v_7</title>
<path fill="none" stroke="black" d="M1091.39,-457.79C1152.8,-441.83 1247.01,-417.34 1305.45,-402.15"/>
<polygon fill="black" stroke="black" points="1306.42,-405.51 1315.22,-399.61 1304.66,-398.74 1306.42,-405.51"/>
<text text-anchor="middle" x="1241.04" y="-427.28" font-family="Times,serif" font-size="14.00">unfiltered</text>
</g>
<!-- bedtools intersect &#45;v_9 -->
<g id="node33" class="node">
<title>bedtools intersect &#45;v_9</title>
<polygon fill="#d9d9d9" stroke="#d9d9d9" points="846.04,-405.48 717.17,-387.48 846.04,-369.48 974.9,-387.48 846.04,-405.48"/>
<text text-anchor="middle" x="846.04" y="-383.78" font-family="Times,serif" font-size="14.00">bedtools intersect &#45;v_9</text>
</g>
<!-- unfiltered low map. methylation call data&#45;&gt;bedtools intersect &#45;v_9 -->
<g id="edge37" class="edge">
<title>unfiltered low map. methylation call data&#45;&gt;bedtools intersect &#45;v_9</title>
<path fill="none" stroke="black" d="M994.93,-456.89C962.86,-442.16 916.19,-420.71 883.67,-405.77"/>
<polygon fill="black" stroke="black" points="885.03,-402.55 874.48,-401.55 882.11,-408.91 885.03,-402.55"/>
<text text-anchor="middle" x="976.04" y="-427.28" font-family="Times,serif" font-size="14.00">unfiltered</text>
</g>
<!-- BAMPROC_8a -->
<!-- unfiltered low map. clinvar methylation call data -->
<g id="node14" class="node">
<title>unfiltered low map. clinvar methylation call data</title>
<ellipse fill="none" stroke="black" cx="2052.04" cy="-648.48" rx="184.67" ry="18"/>
<text text-anchor="middle" x="2052.04" y="-644.78" font-family="Times,serif" font-size="14.00">unfiltered low map. clinvar methylation call data</text>
</g>
<!-- BAMPROC_8a&#45;&gt;unfiltered low map. clinvar methylation call data -->
<g id="edge7" class="edge">
<title>BAMPROC_8a&#45;&gt;unfiltered low map. clinvar methylation call data</title>
<path fill="none" stroke="black" stroke-dasharray="1,5" d="M2052.04,-717.28C2052.04,-705.64 2052.04,-690.03 2052.04,-676.72"/>
<polygon fill="black" stroke="black" points="2055.54,-676.66 2052.04,-666.66 2048.54,-676.66 2055.54,-676.66"/>
<text text-anchor="middle" x="2114.04" y="-688.28" font-family="Times,serif" font-size="14.00">from BAM processing</text>
</g>
<!-- bedtools intersect &#45;v_8 -->
<g id="node32" class="node">
<title>bedtools intersect &#45;v_8</title>
<polygon fill="#d9d9d9" stroke="#d9d9d9" points="2058.04,-579.48 1929.17,-561.48 2058.04,-543.48 2186.9,-561.48 2058.04,-579.48"/>
<text text-anchor="middle" x="2058.04" y="-557.78" font-family="Times,serif" font-size="14.00">bedtools intersect &#45;v_8</text>
</g>
<!-- unfiltered low map. clinvar methylation call data&#45;&gt;bedtools intersect &#45;v_8 -->
<g id="edge21" class="edge">
<title>unfiltered low map. clinvar methylation call data&#45;&gt;bedtools intersect &#45;v_8</title>
<path fill="none" stroke="black" d="M2053.25,-630.28C2054.08,-618.57 2055.19,-602.82 2056.13,-589.45"/>
<polygon fill="black" stroke="black" points="2059.63,-589.59 2056.84,-579.37 2052.65,-589.09 2059.63,-589.59"/>
<text text-anchor="middle" x="2082.04" y="-601.28" font-family="Times,serif" font-size="14.00">unfiltered</text>
</g>
<!-- BAMPROC_1b -->
<!-- filtered methyl calls bedGraph -->
<g id="node16" class="node">
<title>filtered methyl calls bedGraph</title>
<ellipse fill="none" stroke="black" cx="967.04" cy="-648.48" rx="118.08" ry="18"/>
<text text-anchor="middle" x="967.04" y="-644.78" font-family="Times,serif" font-size="14.00">filtered methyl calls bedGraph</text>
</g>
<!-- BAMPROC_1b&#45;&gt;filtered methyl calls bedGraph -->
<g id="edge8" class="edge">
<title>BAMPROC_1b&#45;&gt;filtered methyl calls bedGraph</title>
<path fill="none" stroke="black" stroke-dasharray="1,5" d="M967.04,-717.28C967.04,-705.64 967.04,-690.03 967.04,-676.72"/>
<polygon fill="black" stroke="black" points="970.54,-676.66 967.04,-666.66 963.54,-676.66 970.54,-676.66"/>
<text text-anchor="middle" x="1029.04" y="-688.28" font-family="Times,serif" font-size="14.00">from BAM processing</text>
</g>
<!-- filtered methyl calls bedGraph&#45;&gt;bedtools intersect &#45;v_1 -->
<g id="edge14" class="edge">
<title>filtered methyl calls bedGraph&#45;&gt;bedtools intersect &#45;v_1</title>
<path fill="none" stroke="black" d="M921.81,-631.79C877.59,-616.45 810.67,-593.23 766.66,-577.96"/>
<polygon fill="black" stroke="black" points="767.68,-574.61 757.08,-574.64 765.39,-581.22 767.68,-574.61"/>
<text text-anchor="middle" x="879.54" y="-601.28" font-family="Times,serif" font-size="14.00">filtered</text>
</g>
<!-- BAMPROC_2b -->
<!-- filtered clinvar methylation call data -->
<g id="node18" class="node">
<title>filtered clinvar methylation call data</title>
<ellipse fill="none" stroke="black" cx="1689.04" cy="-648.48" rx="139.98" ry="18"/>
<text text-anchor="middle" x="1689.04" y="-644.78" font-family="Times,serif" font-size="14.00">filtered clinvar methylation call data</text>
</g>
<!-- BAMPROC_2b&#45;&gt;filtered clinvar methylation call data -->
<g id="edge9" class="edge">
<title>BAMPROC_2b&#45;&gt;filtered clinvar methylation call data</title>
<path fill="none" stroke="black" stroke-dasharray="1,5" d="M1689.04,-717.28C1689.04,-705.64 1689.04,-690.03 1689.04,-676.72"/>
<polygon fill="black" stroke="black" points="1692.54,-676.66 1689.04,-666.66 1685.54,-676.66 1692.54,-676.66"/>
<text text-anchor="middle" x="1751.04" y="-688.28" font-family="Times,serif" font-size="14.00">from BAM processing</text>
</g>
<!-- filtered clinvar methylation call data&#45;&gt;bedtools intersect &#45;v_2 -->
<g id="edge16" class="edge">
<title>filtered clinvar methylation call data&#45;&gt;bedtools intersect &#45;v_2</title>
<path fill="none" stroke="black" d="M1686,-630.28C1683.92,-618.49 1681.12,-602.62 1678.75,-589.19"/>
<polygon fill="black" stroke="black" points="1682.15,-588.32 1676.96,-579.08 1675.26,-589.53 1682.15,-588.32"/>
<text text-anchor="middle" x="1702.54" y="-601.28" font-family="Times,serif" font-size="14.00">filtered</text>
</g>
<!-- BAMPROC_3b -->
<!-- filtered pure methylation calls -->
<g id="node20" class="node">
<title>filtered pure methylation calls</title>
<ellipse fill="none" stroke="black" cx="415.04" cy="-648.48" rx="116.98" ry="18"/>
<text text-anchor="middle" x="415.04" y="-644.78" font-family="Times,serif" font-size="14.00">filtered pure methylation calls</text>
</g>
<!-- BAMPROC_3b&#45;&gt;filtered pure methylation calls -->
<g id="edge10" class="edge">
<title>BAMPROC_3b&#45;&gt;filtered pure methylation calls</title>
<path fill="none" stroke="black" stroke-dasharray="1,5" d="M415.04,-717.28C415.04,-705.64 415.04,-690.03 415.04,-676.72"/>
<polygon fill="black" stroke="black" points="418.54,-676.66 415.04,-666.66 411.54,-676.66 418.54,-676.66"/>
<text text-anchor="middle" x="477.04" y="-688.28" font-family="Times,serif" font-size="14.00">from BAM processing</text>
</g>
<!-- filtered pure methylation calls&#45;&gt;bedtools intersect &#45;wa_wb_3 -->
<g id="edge18" class="edge">
<title>filtered pure methylation calls&#45;&gt;bedtools intersect &#45;wa_wb_3</title>
<path fill="none" stroke="black" d="M373.91,-631.59C335.39,-616.71 278.01,-594.54 238.69,-579.35"/>
<polygon fill="black" stroke="black" points="239.69,-575.98 229.1,-575.64 237.17,-582.51 239.69,-575.98"/>
<text text-anchor="middle" x="338.54" y="-601.28" font-family="Times,serif" font-size="14.00">filtered</text>
</g>
<!-- BAMPROC_7b -->
<!-- filtered low map. methylation call data -->
<g id="node22" class="node">
<title>filtered low map. methylation call data</title>
<ellipse fill="none" stroke="black" cx="1358.04" cy="-474.48" rx="148.67" ry="18"/>
<text text-anchor="middle" x="1358.04" y="-470.78" font-family="Times,serif" font-size="14.00">filtered low map. methylation call data</text>
</g>
<!-- BAMPROC_7b&#45;&gt;filtered low map. methylation call data -->
<g id="edge11" class="edge">
<title>BAMPROC_7b&#45;&gt;filtered low map. methylation call data</title>
<path fill="none" stroke="black" stroke-dasharray="1,5" d="M1358.04,-543.28C1358.04,-531.64 1358.04,-516.03 1358.04,-502.72"/>
<polygon fill="black" stroke="black" points="1361.54,-502.66 1358.04,-492.66 1354.54,-502.66 1361.54,-502.66"/>
<text text-anchor="middle" x="1420.04" y="-514.28" font-family="Times,serif" font-size="14.00">from BAM processing</text>
</g>
<!-- filtered low map. methylation call data&#45;&gt;bedtools intersect &#45;v_7 -->
<g id="edge20" class="edge">
<title>filtered low map. methylation call data&#45;&gt;bedtools intersect &#45;v_7</title>
<path fill="none" stroke="black" d="M1358.04,-456.28C1358.04,-444.64 1358.04,-429.03 1358.04,-415.72"/>
<polygon fill="black" stroke="black" points="1361.54,-415.66 1358.04,-405.66 1354.54,-415.66 1361.54,-415.66"/>
<text text-anchor="middle" x="1377.54" y="-427.28" font-family="Times,serif" font-size="14.00">filtered</text>
</g>
<!-- BAMPROC_8b -->
<!-- filtered low map. clinvar methylation call data -->
<g id="node24" class="node">
<title>filtered low map. clinvar methylation call data</title>
<ellipse fill="none" stroke="black" cx="2430.04" cy="-648.48" rx="175.47" ry="18"/>
<text text-anchor="middle" x="2430.04" y="-644.78" font-family="Times,serif" font-size="14.00">filtered low map. clinvar methylation call data</text>
</g>
<!-- BAMPROC_8b&#45;&gt;filtered low map. clinvar methylation call data -->
<g id="edge12" class="edge">
<title>BAMPROC_8b&#45;&gt;filtered low map. clinvar methylation call data</title>
<path fill="none" stroke="black" stroke-dasharray="1,5" d="M2430.04,-717.28C2430.04,-705.64 2430.04,-690.03 2430.04,-676.72"/>
<polygon fill="black" stroke="black" points="2433.54,-676.66 2430.04,-666.66 2426.54,-676.66 2433.54,-676.66"/>
<text text-anchor="middle" x="2492.04" y="-688.28" font-family="Times,serif" font-size="14.00">from BAM processing</text>
</g>
<!-- filtered low map. clinvar methylation call data&#45;&gt;bedtools intersect &#45;v_8 -->
<g id="edge22" class="edge">
<title>filtered low map. clinvar methylation call data&#45;&gt;bedtools intersect &#45;v_8</title>
<path fill="none" stroke="black" d="M2361.8,-631.89C2290.68,-615.64 2180.52,-590.47 2114.23,-575.32"/>
<polygon fill="black" stroke="black" points="2114.91,-571.89 2104.38,-573.07 2113.35,-578.71 2114.91,-571.89"/>
<text text-anchor="middle" x="2286.54" y="-601.28" font-family="Times,serif" font-size="14.00">filtered</text>
</g>
<!-- miscalled methyl calls bedGraph -->
<g id="node34" class="node">
<title>miscalled methyl calls bedGraph</title>
<ellipse fill="none" stroke="black" cx="722.04" cy="-474.48" rx="128.08" ry="18"/>
<text text-anchor="middle" x="722.04" y="-470.78" font-family="Times,serif" font-size="14.00">miscalled methyl calls bedGraph</text>
</g>
<!-- bedtools intersect &#45;v_1&#45;&gt;miscalled methyl calls bedGraph -->
<g id="edge23" class="edge">
<title>bedtools intersect &#45;v_1&#45;&gt;miscalled methyl calls bedGraph</title>
<path fill="none" stroke="black" d="M722.04,-543.28C722.04,-531.64 722.04,-516.03 722.04,-502.72"/>
<polygon fill="black" stroke="black" points="725.54,-502.66 722.04,-492.66 718.54,-502.66 725.54,-502.66"/>
</g>
<!-- miscalled clinvar methylation call data -->
<g id="node35" class="node">
<title>miscalled clinvar methylation call data</title>
<ellipse fill="none" stroke="black" cx="1674.04" cy="-474.48" rx="148.67" ry="18"/>
<text text-anchor="middle" x="1674.04" y="-470.78" font-family="Times,serif" font-size="14.00">miscalled clinvar methylation call data</text>
</g>
<!-- bedtools intersect &#45;v_2&#45;&gt;miscalled clinvar methylation call data -->
<g id="edge24" class="edge">
<title>bedtools intersect &#45;v_2&#45;&gt;miscalled clinvar methylation call data</title>
<path fill="none" stroke="black" d="M1674.04,-543.28C1674.04,-531.64 1674.04,-516.03 1674.04,-502.72"/>
<polygon fill="black" stroke="black" points="1677.54,-502.66 1674.04,-492.66 1670.54,-502.66 1677.54,-502.66"/>
</g>
<!-- resolved methylation calls -->
<g id="node36" class="node">
<title>resolved methylation calls</title>
<ellipse fill="none" stroke="black" cx="195.04" cy="-474.48" rx="103.98" ry="18"/>
<text text-anchor="middle" x="195.04" y="-470.78" font-family="Times,serif" font-size="14.00">resolved methylation calls</text>
</g>
<!-- bedtools intersect &#45;wa_wb_3&#45;&gt;resolved methylation calls -->
<g id="edge25" class="edge">
<title>bedtools intersect &#45;wa_wb_3&#45;&gt;resolved methylation calls</title>
<path fill="none" stroke="black" d="M195.04,-543.28C195.04,-531.64 195.04,-516.03 195.04,-502.72"/>
<polygon fill="black" stroke="black" points="198.54,-502.66 195.04,-492.66 191.54,-502.66 198.54,-502.66"/>
</g>
<!-- ClinVar regions with resolved calls\nwith duplicates -->
<g id="node44" class="node">
<title>ClinVar regions with resolved calls\nwith duplicates</title>
<ellipse fill="none" stroke="black" cx="185.04" cy="-291.61" rx="147.16" ry="26.74"/>
<text text-anchor="middle" x="185.04" y="-295.41" font-family="Times,serif" font-size="14.00">ClinVar regions with resolved calls</text>
<text text-anchor="middle" x="185.04" y="-280.41" font-family="Times,serif" font-size="14.00">with duplicates</text>
</g>
<!-- bedtools intersect &#45;wa_4&#45;&gt;ClinVar regions with resolved calls\nwith duplicates -->
<g id="edge41" class="edge">
<title>bedtools intersect &#45;wa_4&#45;&gt;ClinVar regions with resolved calls\nwith duplicates</title>
<path fill="none" stroke="black" d="M193.25,-369.7C192.05,-358.44 190.42,-343.16 188.93,-329.17"/>
<polygon fill="black" stroke="black" points="192.37,-328.39 187.83,-318.82 185.41,-329.13 192.37,-328.39"/>
</g>
<!-- ClinVar regions with methylation miscalls\nwith duplicates -->
<g id="node39" class="node">
<title>ClinVar regions with methylation miscalls\nwith duplicates</title>
<ellipse fill="none" stroke="black" cx="534.04" cy="-291.61" rx="175.23" ry="26.74"/>
<text text-anchor="middle" x="534.04" y="-295.41" font-family="Times,serif" font-size="14.00">ClinVar regions with methylation miscalls</text>
<text text-anchor="middle" x="534.04" y="-280.41" font-family="Times,serif" font-size="14.00">with duplicates</text>
</g>
<!-- bedtools intersect &#45;wa_5&#45;&gt;ClinVar regions with methylation miscalls\nwith duplicates -->
<g id="edge32" class="edge">
<title>bedtools intersect &#45;wa_5&#45;&gt;ClinVar regions with methylation miscalls\nwith duplicates</title>
<path fill="none" stroke="black" d="M534.04,-369.26C534.04,-357.96 534.04,-342.75 534.04,-328.86"/>
<polygon fill="black" stroke="black" points="537.54,-328.58 534.04,-318.58 530.54,-328.58 537.54,-328.58"/>
</g>
<!-- low map. ClinVar regions with methylation miscalls\nwith duplicates -->
<g id="node40" class="node">
<title>low map. ClinVar regions with methylation miscalls\nwith duplicates</title>
<ellipse fill="none" stroke="black" cx="1225.04" cy="-113.87" rx="214.01" ry="26.74"/>
<text text-anchor="middle" x="1225.04" y="-117.67" font-family="Times,serif" font-size="14.00">low map. ClinVar regions with methylation miscalls</text>
<text text-anchor="middle" x="1225.04" y="-102.67" font-family="Times,serif" font-size="14.00">with duplicates</text>
</g>
<!-- bedtools intersect &#45;wa_6&#45;&gt;low map. ClinVar regions with methylation miscalls\nwith duplicates -->
<g id="edge33" class="edge">
<title>bedtools intersect &#45;wa_6&#45;&gt;low map. ClinVar regions with methylation miscalls\nwith duplicates</title>
<path fill="none" stroke="black" d="M1225.04,-177.41C1225.04,-169.68 1225.04,-160.26 1225.04,-151.1"/>
<polygon fill="black" stroke="black" points="1228.54,-150.97 1225.04,-140.97 1221.54,-150.97 1228.54,-150.97"/>
</g>
<!-- miscalled low map. methylation call data -->
<g id="node37" class="node">
<title>miscalled low map. methylation call data</title>
<ellipse fill="none" stroke="black" cx="1365.04" cy="-291.61" rx="157.87" ry="18"/>
<text text-anchor="middle" x="1365.04" y="-287.91" font-family="Times,serif" font-size="14.00">miscalled low map. methylation call data</text>
</g>
<!-- bedtools intersect &#45;v_7&#45;&gt;miscalled low map. methylation call data -->
<g id="edge26" class="edge">
<title>bedtools intersect &#45;v_7&#45;&gt;miscalled low map. methylation call data</title>
<path fill="none" stroke="black" d="M1359.32,-369.26C1360.35,-355.5 1361.8,-335.95 1362.99,-320.04"/>
<polygon fill="black" stroke="black" points="1366.51,-319.95 1363.76,-309.72 1359.53,-319.43 1366.51,-319.95"/>
</g>
<!-- miscalled low map. clinvar methylation call data -->
<g id="node38" class="node">
<title>miscalled low map. clinvar methylation call data</title>
<ellipse fill="none" stroke="black" cx="2058.04" cy="-474.48" rx="184.67" ry="18"/>
<text text-anchor="middle" x="2058.04" y="-470.78" font-family="Times,serif" font-size="14.00">miscalled low map. clinvar methylation call data</text>
</g>
<!-- bedtools intersect &#45;v_8&#45;&gt;miscalled low map. clinvar methylation call data -->
<g id="edge27" class="edge">
<title>bedtools intersect &#45;v_8&#45;&gt;miscalled low map. clinvar methylation call data</title>
<path fill="none" stroke="black" d="M2058.04,-543.28C2058.04,-531.64 2058.04,-516.03 2058.04,-502.72"/>
<polygon fill="black" stroke="black" points="2061.54,-502.66 2058.04,-492.66 2054.54,-502.66 2061.54,-502.66"/>
</g>
<!-- underfiltered methylation calls -->
<g id="node43" class="node">
<title>underfiltered methylation calls</title>
<ellipse fill="none" stroke="black" cx="846.04" cy="-291.61" rx="118.88" ry="18"/>
<text text-anchor="middle" x="846.04" y="-287.91" font-family="Times,serif" font-size="14.00">underfiltered methylation calls</text>
</g>
<!-- bedtools intersect &#45;v_9&#45;&gt;underfiltered methylation calls -->
<g id="edge38" class="edge">
<title>bedtools intersect &#45;v_9&#45;&gt;underfiltered methylation calls</title>
<path fill="none" stroke="black" d="M846.04,-369.26C846.04,-355.5 846.04,-335.95 846.04,-320.04"/>
<polygon fill="black" stroke="black" points="849.54,-319.72 846.04,-309.72 842.54,-319.72 849.54,-319.72"/>
</g>
<!-- miscalled methyl calls bedGraph&#45;&gt;bedtools intersect &#45;wa_5 -->
<g id="edge28" class="edge">
<title>miscalled methyl calls bedGraph&#45;&gt;bedtools intersect &#45;wa_5</title>
<path fill="none" stroke="black" d="M685.79,-457.09C653.35,-442.43 605.94,-420.99 572.76,-405.99"/>
<polygon fill="black" stroke="black" points="573.94,-402.68 563.38,-401.75 571.05,-409.06 573.94,-402.68"/>
<text text-anchor="middle" x="663.04" y="-427.28" font-family="Times,serif" font-size="14.00">miscalls</text>
</g>
<!-- miscalled methyl calls bedGraph&#45;&gt;bedtools intersect &#45;v_9 -->
<g id="edge36" class="edge">
<title>miscalled methyl calls bedGraph&#45;&gt;bedtools intersect &#45;v_9</title>
<path fill="none" stroke="black" d="M746.53,-456.69C766.76,-442.82 795.51,-423.12 816.91,-408.45"/>
<polygon fill="black" stroke="black" points="819.02,-411.24 825.29,-402.7 815.06,-405.47 819.02,-411.24"/>
<text text-anchor="middle" x="818.54" y="-427.28" font-family="Times,serif" font-size="14.00">miscalled</text>
</g>
<!-- resolved methylation calls&#45;&gt;bedtools intersect &#45;wa_4 -->
<g id="edge39" class="edge">
<title>resolved methylation calls&#45;&gt;bedtools intersect &#45;wa_4</title>
<path fill="none" stroke="black" d="M195.04,-456.28C195.04,-444.64 195.04,-429.03 195.04,-415.72"/>
<polygon fill="black" stroke="black" points="198.54,-415.66 195.04,-405.66 191.54,-415.66 198.54,-415.66"/>
<text text-anchor="middle" x="218.04" y="-427.28" font-family="Times,serif" font-size="14.00">resolved</text>
</g>
<!-- miscalled low map. methylation call data&#45;&gt;bedtools intersect &#45;wa_6 -->
<g id="edge29" class="edge">
<title>miscalled low map. methylation call data&#45;&gt;bedtools intersect &#45;wa_6</title>
<path fill="none" stroke="black" d="M1340.01,-273.83C1316.23,-257.88 1280.44,-233.89 1255.12,-216.91"/>
<polygon fill="black" stroke="black" points="1256.89,-213.88 1246.63,-211.22 1252.99,-219.7 1256.89,-213.88"/>
<text text-anchor="middle" x="1323.04" y="-235.54" font-family="Times,serif" font-size="14.00">miscalls</text>
</g>
<!-- ClinVar regions with count of methylation miscalls -->
<g id="node41" class="node">
<title>ClinVar regions with count of methylation miscalls</title>
<ellipse fill="none" stroke="black" cx="544.04" cy="-195.74" rx="192.27" ry="18"/>
<text text-anchor="middle" x="544.04" y="-192.04" font-family="Times,serif" font-size="14.00">ClinVar regions with count of methylation miscalls</text>
</g>
<!-- ClinVar regions with methylation miscalls\nwith duplicates&#45;&gt;ClinVar regions with count of methylation miscalls -->
<g id="edge34" class="edge">
<title>ClinVar regions with methylation miscalls\nwith duplicates&#45;&gt;ClinVar regions with count of methylation miscalls</title>
<path fill="none" stroke="black" d="M536.79,-264.71C538.14,-252.08 539.76,-236.88 541.12,-224.06"/>
<polygon fill="black" stroke="black" points="544.62,-224.28 542.2,-213.96 537.66,-223.53 544.62,-224.28"/>
<text text-anchor="middle" x="580.54" y="-235.54" font-family="Times,serif" font-size="14.00">count_calls.py</text>
</g>
<!-- low map. ClinVar regions with count of methylation miscalls -->
<g id="node42" class="node">
<title>low map. ClinVar regions with count of methylation miscalls</title>
<ellipse fill="none" stroke="black" cx="1225.04" cy="-18" rx="228.56" ry="18"/>
<text text-anchor="middle" x="1225.04" y="-14.3" font-family="Times,serif" font-size="14.00">low map. ClinVar regions with count of methylation miscalls</text>
</g>
<!-- low map. ClinVar regions with methylation miscalls\nwith duplicates&#45;&gt;low map. ClinVar regions with count of methylation miscalls -->
<g id="edge35" class="edge">
<title>low map. ClinVar regions with methylation miscalls\nwith duplicates&#45;&gt;low map. ClinVar regions with count of methylation miscalls</title>
<path fill="none" stroke="black" d="M1225.04,-86.97C1225.04,-74.34 1225.04,-59.14 1225.04,-46.32"/>
<polygon fill="black" stroke="black" points="1228.54,-46.22 1225.04,-36.22 1221.54,-46.22 1228.54,-46.22"/>
<text text-anchor="middle" x="1264.54" y="-57.8" font-family="Times,serif" font-size="14.00">count_calls.py</text>
</g>
<!-- ClinVar regions with count of resolved calls -->
<g id="node45" class="node">
<title>ClinVar regions with count of resolved calls</title>
<ellipse fill="none" stroke="black" cx="167.04" cy="-195.74" rx="167.07" ry="18"/>
<text text-anchor="middle" x="167.04" y="-192.04" font-family="Times,serif" font-size="14.00">ClinVar regions with count of resolved calls</text>
</g>
<!-- ClinVar regions with resolved calls\nwith duplicates&#45;&gt;ClinVar regions with count of resolved calls -->
<g id="edge42" class="edge">
<title>ClinVar regions with resolved calls\nwith duplicates&#45;&gt;ClinVar regions with count of resolved calls</title>
<path fill="none" stroke="black" d="M180.07,-264.71C177.65,-252.08 174.73,-236.88 172.27,-224.06"/>
<polygon fill="black" stroke="black" points="175.66,-223.12 170.34,-213.96 168.78,-224.44 175.66,-223.12"/>
<text text-anchor="middle" x="216.54" y="-235.54" font-family="Times,serif" font-size="14.00">count_calls.py</text>
</g>
</g>
</svg>
