<?xml version="1.0" encoding="UTF-8" standalone="no"?>
<!DOCTYPE svg PUBLIC "-//W3C//DTD SVG 1.1//EN"
 "http://www.w3.org/Graphics/SVG/1.1/DTD/svg11.dtd">
<!-- Generated by graphviz version 2.36.0 (20140111.2315)
 -->
<!-- Title: workflow Pages: 1 -->
<svg width="1150pt" height="1742pt"
 viewBox="0.00 0.00 1150.00 1742.00" xmlns="http://www.w3.org/2000/svg" xmlns:xlink="http://www.w3.org/1999/xlink">
<g id="graph0" class="graph" transform="scale(1 1) rotate(0) translate(4 1738)">
<title>workflow</title>
<polygon fill="white" stroke="none" points="-4,4 -4,-1738 1146,-1738 1146,4 -4,4"/>
<!-- ClinVar VCF -->
<g id="node1" class="node"><title>ClinVar VCF</title>
<polygon fill="none" stroke="black" points="262.512,-1396 229.756,-1414 164.244,-1414 131.488,-1396 164.244,-1378 229.756,-1378 262.512,-1396"/>
<text text-anchor="middle" x="197" y="-1391.8" font-family="Times,serif" font-size="14.00">ClinVar VCF</text>
</g>
<!-- ClinVar BED -->
<g id="node4" class="node"><title>ClinVar BED</title>
<ellipse fill="none" stroke="black" cx="205" cy="-1310" rx="57.2728" ry="18"/>
<text text-anchor="middle" x="205" y="-1305.8" font-family="Times,serif" font-size="14.00">ClinVar BED</text>
</g>
<!-- ClinVar VCF&#45;&gt;ClinVar BED -->
<g id="edge1" class="edge"><title>ClinVar VCF&#45;&gt;ClinVar BED</title>
<path fill="none" stroke="black" d="M198.658,-1377.6C199.737,-1366.26 201.169,-1351.23 202.399,-1338.32"/>
<polygon fill="black" stroke="black" points="205.908,-1338.38 203.372,-1328.1 198.939,-1337.72 205.908,-1338.38"/>
<text text-anchor="middle" x="224.545" y="-1348.8" font-family="Times,serif" font-size="14.00">vcf2bed</text>
</g>
<!-- grch38 fasta 2 -->
<g id="node2" class="node"><title>grch38 fasta 2</title>
<polygon fill="none" stroke="black" points="863.285,-1716 832.642,-1734 771.358,-1734 740.715,-1716 771.358,-1698 832.642,-1698 863.285,-1716"/>
<text text-anchor="middle" x="802" y="-1711.8" font-family="Times,serif" font-size="14.00">grch38 fasta</text>
</g>
<!-- grch38 .fai file -->
<g id="node29" class="node"><title>grch38 .fai file</title>
<ellipse fill="none" stroke="black" cx="802" cy="-1630" rx="61.3867" ry="18"/>
<text text-anchor="middle" x="802" y="-1625.8" font-family="Times,serif" font-size="14.00">grch38 .fai file</text>
</g>
<!-- grch38 fasta 2&#45;&gt;grch38 .fai file -->
<g id="edge29" class="edge"><title>grch38 fasta 2&#45;&gt;grch38 .fai file</title>
<path fill="none" stroke="black" d="M802,-1697.6C802,-1686.26 802,-1671.23 802,-1658.32"/>
<polygon fill="black" stroke="black" points="805.5,-1658.1 802,-1648.1 798.5,-1658.1 805.5,-1658.1"/>
<text text-anchor="middle" x="843.022" y="-1668.8" font-family="Times,serif" font-size="14.00">samtools faidx</text>
</g>
<!-- GENCODE GFF -->
<g id="node3" class="node"><title>GENCODE GFF</title>
<polygon fill="none" stroke="black" points="443.61,-1396 402.805,-1414 321.195,-1414 280.39,-1396 321.195,-1378 402.805,-1378 443.61,-1396"/>
<text text-anchor="middle" x="362" y="-1391.8" font-family="Times,serif" font-size="14.00">GENCODE GFF</text>
</g>
<!-- GENCODE BED -->
<g id="node5" class="node"><title>GENCODE BED</title>
<ellipse fill="none" stroke="black" cx="358" cy="-1310" rx="71.8806" ry="18"/>
<text text-anchor="middle" x="358" y="-1305.8" font-family="Times,serif" font-size="14.00">GENCODE BED</text>
</g>
<!-- GENCODE GFF&#45;&gt;GENCODE BED -->
<g id="edge2" class="edge"><title>GENCODE GFF&#45;&gt;GENCODE BED</title>
<path fill="none" stroke="black" d="M361.171,-1377.6C360.631,-1366.26 359.916,-1351.23 359.301,-1338.32"/>
<polygon fill="black" stroke="black" points="362.786,-1337.92 358.814,-1328.1 355.794,-1338.25 362.786,-1337.92"/>
<text text-anchor="middle" x="382.646" y="-1348.8" font-family="Times,serif" font-size="14.00">gff2bed</text>
</g>
<!-- bedtools intersect &#45;u -->
<g id="node6" class="node"><title>bedtools intersect &#45;u</title>
<polygon fill="#d9d9d9" stroke="#d9d9d9" points="292,-1242 100.918,-1206 292,-1170 483.082,-1206 292,-1242"/>
<text text-anchor="middle" x="292" y="-1208.8" font-family="Times,serif" font-size="14.00">bedtools intersect &#45;u </text>
<text text-anchor="middle" x="292" y="-1194.8" font-family="Times,serif" font-size="14.00">&#45;a &lt;GENCODE&gt; &#45;b &lt;ClinVar&gt;</text>
</g>
<!-- ClinVar BED&#45;&gt;bedtools intersect &#45;u -->
<g id="edge5" class="edge"><title>ClinVar BED&#45;&gt;bedtools intersect &#45;u</title>
<path fill="none" stroke="black" d="M219.366,-1292.16C230.233,-1279.42 245.589,-1261.41 259.384,-1245.24"/>
<polygon fill="black" stroke="black" points="262.177,-1247.36 266.004,-1237.48 256.852,-1242.82 262.177,-1247.36"/>
<text text-anchor="middle" x="267.776" y="-1262.8" font-family="Times,serif" font-size="14.00">ClinVar</text>
</g>
<!-- GENCODE BED&#45;&gt;bedtools intersect &#45;u -->
<g id="edge4" class="edge"><title>GENCODE BED&#45;&gt;bedtools intersect &#45;u</title>
<path fill="none" stroke="black" d="M347.101,-1292.16C339.131,-1279.84 327.978,-1262.6 317.789,-1246.86"/>
<polygon fill="black" stroke="black" points="320.625,-1244.8 312.254,-1238.3 314.748,-1248.6 320.625,-1244.8"/>
<text text-anchor="middle" x="368.441" y="-1262.8" font-family="Times,serif" font-size="14.00">GENCODE</text>
</g>
<!-- ClinVar regions BED -->
<g id="node7" class="node"><title>ClinVar regions BED</title>
<ellipse fill="none" stroke="black" cx="292" cy="-1114" rx="85.1416" ry="18"/>
<text text-anchor="middle" x="292" y="-1109.8" font-family="Times,serif" font-size="14.00">ClinVar regions BED</text>
</g>
<!-- bedtools intersect &#45;u&#45;&gt;ClinVar regions BED -->
<g id="edge3" class="edge"><title>bedtools intersect &#45;u&#45;&gt;ClinVar regions BED</title>
<path fill="none" stroke="black" d="M292,-1169.95C292,-1160.68 292,-1150.83 292,-1142.06"/>
<polygon fill="black" stroke="black" points="295.5,-1142.01 292,-1132.01 288.5,-1142.01 295.5,-1142.01"/>
</g>
<!-- bedtools map &#45;o min -->
<g id="node14" class="node"><title>bedtools map &#45;o min</title>
<polygon fill="#d9d9d9" stroke="#d9d9d9" points="518,-1046 351.573,-1010 518,-974 684.427,-1010 518,-1046"/>
<text text-anchor="middle" x="518" y="-1012.8" font-family="Times,serif" font-size="14.00">bedtools map &#45;o min </text>
<text text-anchor="middle" x="518" y="-998.8" font-family="Times,serif" font-size="14.00">&#45;a &lt;ClinVar&gt; &#45;b &lt;Bismap&gt;</text>
</g>
<!-- ClinVar regions BED&#45;&gt;bedtools map &#45;o min -->
<g id="edge11" class="edge"><title>ClinVar regions BED&#45;&gt;bedtools map &#45;o min</title>
<path fill="none" stroke="black" d="M326.325,-1097.51C360.65,-1082.02 414.202,-1057.85 455.986,-1038.99"/>
<polygon fill="black" stroke="black" points="457.577,-1042.11 465.252,-1034.81 454.697,-1035.73 457.577,-1042.11"/>
<text text-anchor="middle" x="420.776" y="-1066.8" font-family="Times,serif" font-size="14.00">ClinVar</text>
</g>
<!-- bedtools map &#45;o mean -->
<g id="node15" class="node"><title>bedtools map &#45;o mean</title>
<polygon fill="#d9d9d9" stroke="#d9d9d9" points="166,-1046 -0.426911,-1010 166,-974 332.427,-1010 166,-1046"/>
<text text-anchor="middle" x="166" y="-1012.8" font-family="Times,serif" font-size="14.00">bedtools map &#45;o mean </text>
<text text-anchor="middle" x="166" y="-998.8" font-family="Times,serif" font-size="14.00">&#45;a &lt;ClinVar&gt; &#45;b &lt;Bismap&gt;</text>
</g>
<!-- ClinVar regions BED&#45;&gt;bedtools map &#45;o mean -->
<g id="edge13" class="edge"><title>ClinVar regions BED&#45;&gt;bedtools map &#45;o mean</title>
<path fill="none" stroke="black" d="M271.475,-1096.38C254.409,-1082.57 229.559,-1062.45 208.266,-1045.22"/>
<polygon fill="black" stroke="black" points="210.277,-1042.34 200.303,-1038.77 205.873,-1047.78 210.277,-1042.34"/>
<text text-anchor="middle" x="269.776" y="-1066.8" font-family="Times,serif" font-size="14.00">ClinVar</text>
</g>
<!-- Bismap bedGraph -->
<g id="node8" class="node"><title>Bismap bedGraph</title>
<ellipse fill="none" stroke="black" cx="629" cy="-1544" rx="74.3138" ry="18"/>
<text text-anchor="middle" x="629" y="-1539.8" font-family="Times,serif" font-size="14.00">Bismap bedGraph</text>
</g>
<!-- sort &#45;k1,1 &#45;k2,2n_again -->
<g id="node9" class="node"><title>sort &#45;k1,1 &#45;k2,2n_again</title>
<polygon fill="#d9d9d9" stroke="#d9d9d9" points="656,-1224 558.507,-1206 656,-1188 753.493,-1206 656,-1224"/>
<text text-anchor="middle" x="656" y="-1201.8" font-family="Times,serif" font-size="14.00">sort &#45;k1,1 &#45;k2,2n</text>
</g>
<!-- Bismap bedGraph&#45;&gt;sort &#45;k1,1 &#45;k2,2n_again -->
<g id="edge6" class="edge"><title>Bismap bedGraph&#45;&gt;sort &#45;k1,1 &#45;k2,2n_again</title>
<path fill="none" stroke="black" d="M629,-1525.83C629,-1511.25 629,-1489.75 629,-1471 629,-1471 629,-1471 629,-1309 629,-1282.2 637.816,-1252.73 645.373,-1232.38"/>
<polygon fill="black" stroke="black" points="648.694,-1233.5 649.047,-1222.91 642.168,-1230.97 648.694,-1233.5"/>
</g>
<!-- bedtools complement -->
<g id="node27" class="node"><title>bedtools complement</title>
<polygon fill="#d9d9d9" stroke="#d9d9d9" points="781,-1488 659.572,-1470 781,-1452 902.428,-1470 781,-1488"/>
<text text-anchor="middle" x="781" y="-1465.8" font-family="Times,serif" font-size="14.00">bedtools complement</text>
</g>
<!-- Bismap bedGraph&#45;&gt;bedtools complement -->
<g id="edge27" class="edge"><title>Bismap bedGraph&#45;&gt;bedtools complement</title>
<path fill="none" stroke="black" d="M661.235,-1527.73C685.499,-1516.24 718.791,-1500.47 744.116,-1488.47"/>
<polygon fill="black" stroke="black" points="745.858,-1491.52 753.397,-1484.08 742.861,-1485.19 745.858,-1491.52"/>
</g>
<!-- Bismap complete bedGraph -->
<g id="node10" class="node"><title>Bismap complete bedGraph</title>
<ellipse fill="none" stroke="black" cx="656" cy="-1114" rx="108.248" ry="18"/>
<text text-anchor="middle" x="656" y="-1109.8" font-family="Times,serif" font-size="14.00">Bismap complete bedGraph</text>
</g>
<!-- sort &#45;k1,1 &#45;k2,2n_again&#45;&gt;Bismap complete bedGraph -->
<g id="edge7" class="edge"><title>sort &#45;k1,1 &#45;k2,2n_again&#45;&gt;Bismap complete bedGraph</title>
<path fill="none" stroke="black" d="M656,-1187.65C656,-1174.82 656,-1157.11 656,-1142.38"/>
<polygon fill="black" stroke="black" points="659.5,-1142.3 656,-1132.3 652.5,-1142.3 659.5,-1142.3"/>
</g>
<!-- BAM_PROC_1 -->
<!-- Bismap complete bedGraph&#45;&gt;BAM_PROC_1 -->
<g id="edge8" class="edge"><title>Bismap complete bedGraph&#45;&gt;BAM_PROC_1</title>
<path fill="none" stroke="black" stroke-dasharray="1,5" d="M674.825,-1096.16C693.667,-1079.3 722.808,-1053.22 743.882,-1034.37"/>
<polygon fill="black" stroke="black" points="746.407,-1036.81 751.526,-1027.53 741.739,-1031.59 746.407,-1036.81"/>
<text text-anchor="middle" x="764.831" y="-1066.8" font-family="Times,serif" font-size="14.00">to BAM processing</text>
</g>
<!-- Bismap complete bedGraph&#45;&gt;bedtools map &#45;o min -->
<g id="edge12" class="edge"><title>Bismap complete bedGraph&#45;&gt;bedtools map &#45;o min</title>
<path fill="none" stroke="black" d="M633.521,-1096.38C614.46,-1082.3 586.533,-1061.65 562.912,-1044.2"/>
<polygon fill="black" stroke="black" points="564.881,-1041.3 554.758,-1038.17 560.72,-1046.93 564.881,-1041.3"/>
<text text-anchor="middle" x="629.39" y="-1066.8" font-family="Times,serif" font-size="14.00">Bismap</text>
</g>
<!-- Bismap complete bedGraph&#45;&gt;bedtools map &#45;o mean -->
<g id="edge14" class="edge"><title>Bismap complete bedGraph&#45;&gt;bedtools map &#45;o mean</title>
<path fill="none" stroke="black" d="M598.706,-1098.69C556.598,-1088.4 497.915,-1074.54 446,-1064 400.028,-1054.67 388.119,-1054.58 342,-1046 315.248,-1041.03 286.264,-1035.37 259.684,-1030.08"/>
<polygon fill="black" stroke="black" points="260.116,-1026.6 249.625,-1028.07 258.746,-1033.46 260.116,-1026.6"/>
<text text-anchor="middle" x="531.39" y="-1066.8" font-family="Times,serif" font-size="14.00">Bismap</text>
</g>
<!-- awk_again -->
<g id="node31" class="node"><title>awk_again</title>
<polygon fill="#d9d9d9" stroke="#d9d9d9" points="866,-494 715.758,-476 866,-458 1016.24,-476 866,-494"/>
<text text-anchor="middle" x="866" y="-471.8" font-family="Times,serif" font-size="14.00">awk &#39; if $4&lt;=0.01 { print }&#39;</text>
</g>
<!-- Bismap complete bedGraph&#45;&gt;awk_again -->
<g id="edge32" class="edge"><title>Bismap complete bedGraph&#45;&gt;awk_again</title>
<path fill="none" stroke="black" d="M752.377,-1105.6C776.891,-1100.4 802.166,-1091.88 823,-1078 852.449,-1058.39 866,-1046.38 866,-1011 866,-1011 866,-1011 866,-557 866,-539.565 866,-519.993 866,-504.572"/>
<polygon fill="black" stroke="black" points="869.5,-504.166 866,-494.166 862.5,-504.166 869.5,-504.166"/>
</g>
<!-- 0 mappability regions bedGraph -->
<g id="node12" class="node"><title>0 mappability regions bedGraph</title>
<ellipse fill="none" stroke="black" cx="781" cy="-1310" rx="123.962" ry="18"/>
<text text-anchor="middle" x="781" y="-1305.8" font-family="Times,serif" font-size="14.00">0 mappability regions bedGraph</text>
</g>
<!-- 0 mappability regions bedGraph&#45;&gt;sort &#45;k1,1 &#45;k2,2n_again -->
<g id="edge9" class="edge"><title>0 mappability regions bedGraph&#45;&gt;sort &#45;k1,1 &#45;k2,2n_again</title>
<path fill="none" stroke="black" d="M760.359,-1292.16C738.62,-1274.42 704.377,-1246.48 681.092,-1227.48"/>
<polygon fill="black" stroke="black" points="683.014,-1224.53 673.053,-1220.92 678.588,-1229.95 683.014,-1224.53"/>
</g>
<!-- Bismap bigWig -->
<g id="node13" class="node"><title>Bismap bigWig</title>
<polygon fill="none" stroke="black" points="704.478,-1630 666.739,-1648 591.261,-1648 553.522,-1630 591.261,-1612 666.739,-1612 704.478,-1630"/>
<text text-anchor="middle" x="629" y="-1625.8" font-family="Times,serif" font-size="14.00">Bismap bigWig</text>
</g>
<!-- Bismap bigWig&#45;&gt;Bismap bedGraph -->
<g id="edge10" class="edge"><title>Bismap bigWig&#45;&gt;Bismap bedGraph</title>
<path fill="none" stroke="black" d="M629,-1611.6C629,-1600.26 629,-1585.23 629,-1572.32"/>
<polygon fill="black" stroke="black" points="632.5,-1572.1 629,-1562.1 625.5,-1572.1 632.5,-1572.1"/>
<text text-anchor="middle" x="685.776" y="-1582.8" font-family="Times,serif" font-size="14.00">bigWigToBedGraph</text>
</g>
<!-- ClinVar regions with\n min mappability bedGraph -->
<g id="node16" class="node"><title>ClinVar regions with\n min mappability bedGraph</title>
<ellipse fill="none" stroke="black" cx="517" cy="-910" rx="120.189" ry="25.4118"/>
<text text-anchor="middle" x="517" y="-912.8" font-family="Times,serif" font-size="14.00">ClinVar regions with</text>
<text text-anchor="middle" x="517" y="-898.8" font-family="Times,serif" font-size="14.00"> min mappability bedGraph</text>
</g>
<!-- bedtools map &#45;o min&#45;&gt;ClinVar regions with\n min mappability bedGraph -->
<g id="edge15" class="edge"><title>bedtools map &#45;o min&#45;&gt;ClinVar regions with\n min mappability bedGraph</title>
<path fill="none" stroke="black" d="M517.642,-973.897C517.549,-964.817 517.449,-955.044 517.357,-945.972"/>
<polygon fill="black" stroke="black" points="520.854,-945.69 517.252,-935.727 513.855,-945.762 520.854,-945.69"/>
</g>
<!-- ClinVar regions with\n mean mappability bedGraph -->
<g id="node17" class="node"><title>ClinVar regions with\n mean mappability bedGraph</title>
<ellipse fill="none" stroke="black" cx="231" cy="-910" rx="126.245" ry="25.4118"/>
<text text-anchor="middle" x="231" y="-912.8" font-family="Times,serif" font-size="14.00">ClinVar regions with</text>
<text text-anchor="middle" x="231" y="-898.8" font-family="Times,serif" font-size="14.00"> mean mappability bedGraph</text>
</g>
<!-- bedtools map &#45;o mean&#45;&gt;ClinVar regions with\n mean mappability bedGraph -->
<g id="edge16" class="edge"><title>bedtools map &#45;o mean&#45;&gt;ClinVar regions with\n mean mappability bedGraph</title>
<path fill="none" stroke="black" d="M186.388,-978.261C193.615,-967.365 201.774,-955.063 209.12,-943.988"/>
<polygon fill="black" stroke="black" points="212.193,-945.687 214.804,-935.419 206.36,-941.818 212.193,-945.687"/>
</g>
<!-- paste -->
<g id="node18" class="node"><title>paste</title>
<polygon fill="#d9d9d9" stroke="#d9d9d9" points="516,-846 476.514,-828 516,-810 555.486,-828 516,-846"/>
<text text-anchor="middle" x="516" y="-823.8" font-family="Times,serif" font-size="14.00">paste</text>
</g>
<!-- ClinVar regions with\n min mappability bedGraph&#45;&gt;paste -->
<g id="edge17" class="edge"><title>ClinVar regions with\n min mappability bedGraph&#45;&gt;paste</title>
<path fill="none" stroke="black" d="M516.689,-884.126C516.579,-875.291 516.454,-865.301 516.341,-856.276"/>
<polygon fill="black" stroke="black" points="519.84,-856.207 516.216,-846.251 512.841,-856.294 519.84,-856.207"/>
</g>
<!-- ClinVar regions with\n mean mappability bedGraph&#45;&gt;paste -->
<g id="edge19" class="edge"><title>ClinVar regions with\n mean mappability bedGraph&#45;&gt;paste</title>
<path fill="none" stroke="black" d="M302.55,-888.916C360.251,-872.719 438.791,-850.673 482.727,-838.34"/>
<polygon fill="black" stroke="black" points="483.917,-841.641 492.599,-835.569 482.025,-834.902 483.917,-841.641"/>
</g>
<!-- ClinVar regions with min and\n mean mappability bedGraph -->
<g id="node19" class="node"><title>ClinVar regions with min and\n mean mappability bedGraph</title>
<ellipse fill="none" stroke="black" cx="516" cy="-746" rx="128.167" ry="25.4118"/>
<text text-anchor="middle" x="516" y="-748.8" font-family="Times,serif" font-size="14.00">ClinVar regions with min and</text>
<text text-anchor="middle" x="516" y="-734.8" font-family="Times,serif" font-size="14.00"> mean mappability bedGraph</text>
</g>
<!-- paste&#45;&gt;ClinVar regions with min and\n mean mappability bedGraph -->
<g id="edge18" class="edge"><title>paste&#45;&gt;ClinVar regions with min and\n mean mappability bedGraph</title>
<path fill="none" stroke="black" d="M516,-809.641C516,-801.474 516,-791.43 516,-781.795"/>
<polygon fill="black" stroke="black" points="519.5,-781.609 516,-771.609 512.5,-781.609 519.5,-781.609"/>
</g>
<!-- Mappability Distribution in ClinVar regions -->
<g id="node20" class="node"><title>Mappability Distribution in ClinVar regions</title>
<polygon fill="gray" stroke="gray" points="805.32,-670 544.68,-670 544.68,-634 805.32,-634 805.32,-670"/>
<text text-anchor="middle" x="675" y="-647.8" font-family="Times,serif" font-size="14.00">Mappability Distribution in ClinVar regions</text>
</g>
<!-- ClinVar regions with min and\n mean mappability bedGraph&#45;&gt;Mappability Distribution in ClinVar regions -->
<g id="edge20" class="edge"><title>ClinVar regions with min and\n mean mappability bedGraph&#45;&gt;Mappability Distribution in ClinVar regions</title>
<path fill="none" stroke="black" stroke-dasharray="5,2" d="M556.122,-721.785C580.758,-707.53 612.143,-689.37 636.478,-675.289"/>
<polygon fill="black" stroke="black" points="638.528,-678.147 645.431,-670.109 635.023,-672.088 638.528,-678.147"/>
<text text-anchor="middle" x="667.65" y="-690.8" font-family="Times,serif" font-size="14.00">Display in Tableau</text>
</g>
<!-- awk &#39;$11 &lt;= min_cutoff { print }&#39; -->
<g id="node23" class="node"><title>awk &#39;$11 &lt;= min_cutoff { print }&#39;</title>
<polygon fill="#d9d9d9" stroke="#d9d9d9" points="516,-494 334.826,-476 516,-458 697.174,-476 516,-494"/>
<text text-anchor="middle" x="516" y="-471.8" font-family="Times,serif" font-size="14.00">awk &#39;$11 &lt;= min_cutoff { print }&#39;</text>
</g>
<!-- ClinVar regions with min and\n mean mappability bedGraph&#45;&gt;awk &#39;$11 &lt;= min_cutoff { print }&#39; -->
<g id="edge24" class="edge"><title>ClinVar regions with min and\n mean mappability bedGraph&#45;&gt;awk &#39;$11 &lt;= min_cutoff { print }&#39;</title>
<path fill="none" stroke="black" d="M516,-720.268C516,-670.062 516,-556.538 516,-504.274"/>
<polygon fill="black" stroke="black" points="519.5,-504.095 516,-494.096 512.5,-504.096 519.5,-504.095"/>
</g>
<!-- low mappability cutoff value\n(min mappability &lt;= 0.01) -->
<g id="node22" class="node"><title>low mappability cutoff value\n(min mappability &lt;= 0.01)</title>
<ellipse fill="none" stroke="black" cx="675" cy="-558" rx="125.166" ry="25.4118"/>
<text text-anchor="middle" x="675" y="-560.8" font-family="Times,serif" font-size="14.00">low mappability cutoff value</text>
<text text-anchor="middle" x="675" y="-546.8" font-family="Times,serif" font-size="14.00">(min mappability &lt;= 0.01)</text>
</g>
<!-- Mappability Distribution in ClinVar regions&#45;&gt;low mappability cutoff value\n(min mappability &lt;= 0.01) -->
<g id="edge21" class="edge"><title>Mappability Distribution in ClinVar regions&#45;&gt;low mappability cutoff value\n(min mappability &lt;= 0.01)</title>
<path fill="none" stroke="black" stroke-dasharray="5,2" d="M675,-633.696C675,-622.413 675,-607.297 675,-593.615"/>
<polygon fill="black" stroke="black" points="678.5,-593.518 675,-583.518 671.5,-593.518 678.5,-593.518"/>
<text text-anchor="middle" x="733.909" y="-604.8" font-family="Times,serif" font-size="14.00">Examine distribution</text>
</g>
<!-- Examine Data -->
<!-- low mappability cutoff value\n(min mappability &lt;= 0.01)&#45;&gt;awk &#39;$11 &lt;= min_cutoff { print }&#39; -->
<g id="edge22" class="edge"><title>low mappability cutoff value\n(min mappability &lt;= 0.01)&#45;&gt;awk &#39;$11 &lt;= min_cutoff { print }&#39;</title>
<path fill="none" stroke="black" d="M629.437,-534.075C605.402,-521.982 576.273,-507.326 553.551,-495.893"/>
<polygon fill="black" stroke="black" points="555.06,-492.735 544.554,-491.367 551.914,-498.988 555.06,-492.735"/>
</g>
<!-- low mappability cutoff value\n(min mappability &lt;= 0.01)&#45;&gt;awk_again -->
<g id="edge33" class="edge"><title>low mappability cutoff value\n(min mappability &lt;= 0.01)&#45;&gt;awk_again</title>
<path fill="none" stroke="black" d="M727.951,-534.822C758.6,-521.984 796.599,-506.069 824.966,-494.187"/>
<polygon fill="black" stroke="black" points="826.321,-497.414 834.193,-490.322 823.617,-490.958 826.321,-497.414"/>
</g>
<!-- low mappability ClinVar regions -->
<g id="node24" class="node"><title>low mappability ClinVar regions</title>
<ellipse fill="none" stroke="black" cx="516" cy="-402" rx="125.19" ry="18"/>
<text text-anchor="middle" x="516" y="-397.8" font-family="Times,serif" font-size="14.00">low mappability ClinVar regions</text>
</g>
<!-- awk &#39;$11 &lt;= min_cutoff { print }&#39;&#45;&gt;low mappability ClinVar regions -->
<g id="edge23" class="edge"><title>awk &#39;$11 &lt;= min_cutoff { print }&#39;&#45;&gt;low mappability ClinVar regions</title>
<path fill="none" stroke="black" d="M516,-457.937C516,-449.807 516,-439.876 516,-430.705"/>
<polygon fill="black" stroke="black" points="519.5,-430.441 516,-420.441 512.5,-430.441 519.5,-430.441"/>
</g>
<!-- sorted low mappability ClinVar regions -->
<g id="node25" class="node"><title>sorted low mappability ClinVar regions</title>
<ellipse fill="none" stroke="black" cx="516" cy="-316" rx="149.424" ry="18"/>
<text text-anchor="middle" x="516" y="-311.8" font-family="Times,serif" font-size="14.00">sorted low mappability ClinVar regions</text>
</g>
<!-- low mappability ClinVar regions&#45;&gt;sorted low mappability ClinVar regions -->
<g id="edge25" class="edge"><title>low mappability ClinVar regions&#45;&gt;sorted low mappability ClinVar regions</title>
<path fill="none" stroke="black" d="M516,-383.595C516,-372.257 516,-357.227 516,-344.315"/>
<polygon fill="black" stroke="black" points="519.5,-344.095 516,-334.095 512.5,-344.095 519.5,-344.095"/>
<text text-anchor="middle" x="562.662" y="-354.8" font-family="Times,serif" font-size="14.00">sort &#45;k1,1 &#45;k2,2n</text>
</g>
<!-- BAM_PROC_2 -->
<!-- sorted low mappability ClinVar regions&#45;&gt;BAM_PROC_2 -->
<g id="edge26" class="edge"><title>sorted low mappability ClinVar regions&#45;&gt;BAM_PROC_2</title>
<path fill="none" stroke="black" stroke-dasharray="1,5" d="M514.134,-297.697C512.433,-281.923 509.892,-258.364 507.922,-240.094"/>
<polygon fill="black" stroke="black" points="511.391,-239.614 506.838,-230.047 504.431,-240.365 511.391,-239.614"/>
<text text-anchor="middle" x="567.831" y="-268.8" font-family="Times,serif" font-size="14.00">to BAM processing</text>
</g>
<!-- bedtools intersect &#45;u_0 -->
<g id="node34" class="node"><title>bedtools intersect &#45;u_0</title>
<polygon fill="#d9d9d9" stroke="#d9d9d9" points="866,-248 589.611,-212 866,-176 1142.39,-212 866,-248"/>
<text text-anchor="middle" x="866" y="-214.8" font-family="Times,serif" font-size="14.00">bedtools intersect &#45;sorted </text>
<text text-anchor="middle" x="866" y="-200.8" font-family="Times,serif" font-size="14.00">&#45;a &lt;low map. regions&gt; &#45;b &lt;ClinVar low map.&gt;</text>
</g>
<!-- sorted low mappability ClinVar regions&#45;&gt;bedtools intersect &#45;u_0 -->
<g id="edge40" class="edge"><title>sorted low mappability ClinVar regions&#45;&gt;bedtools intersect &#45;u_0</title>
<path fill="none" stroke="black" d="M570.303,-299.174C624.363,-283.42 708.383,-258.934 773.066,-240.084"/>
<polygon fill="black" stroke="black" points="774.246,-243.385 782.868,-237.227 772.288,-236.665 774.246,-243.385"/>
<text text-anchor="middle" x="730.578" y="-268.8" font-family="Times,serif" font-size="14.00">ClinVar low map.</text>
</g>
<!-- 0 mappability regions BED -->
<g id="node28" class="node"><title>0 mappability regions BED</title>
<ellipse fill="none" stroke="black" cx="781" cy="-1396" rx="107.189" ry="18"/>
<text text-anchor="middle" x="781" y="-1391.8" font-family="Times,serif" font-size="14.00">0 mappability regions BED</text>
</g>
<!-- bedtools complement&#45;&gt;0 mappability regions BED -->
<g id="edge28" class="edge"><title>bedtools complement&#45;&gt;0 mappability regions BED</title>
<path fill="none" stroke="black" d="M781,-1451.94C781,-1443.81 781,-1433.88 781,-1424.7"/>
<polygon fill="black" stroke="black" points="784.5,-1424.44 781,-1414.44 777.5,-1424.44 784.5,-1424.44"/>
</g>
<!-- 0 mappability regions BED&#45;&gt;0 mappability regions bedGraph -->
<g id="edge35" class="edge"><title>0 mappability regions BED&#45;&gt;0 mappability regions bedGraph</title>
<path fill="none" stroke="black" d="M781,-1377.6C781,-1366.26 781,-1351.23 781,-1338.32"/>
<polygon fill="black" stroke="black" points="784.5,-1338.1 781,-1328.1 777.5,-1338.1 784.5,-1338.1"/>
<text text-anchor="middle" x="842.229" y="-1348.8" font-family="Times,serif" font-size="14.00">awk &#39;{ print $0&quot;\t&quot;0 }&#39;</text>
</g>
<!-- grch38 .genome file -->
<g id="node30" class="node"><title>grch38 .genome file</title>
<ellipse fill="none" stroke="black" cx="802" cy="-1544" rx="80.3865" ry="18"/>
<text text-anchor="middle" x="802" y="-1539.8" font-family="Times,serif" font-size="14.00">grch38 .genome file</text>
</g>
<!-- grch38 .fai file&#45;&gt;grch38 .genome file -->
<g id="edge30" class="edge"><title>grch38 .fai file&#45;&gt;grch38 .genome file</title>
<path fill="none" stroke="black" d="M802,-1611.6C802,-1600.26 802,-1585.23 802,-1572.32"/>
<polygon fill="black" stroke="black" points="805.5,-1572.1 802,-1562.1 798.5,-1572.1 805.5,-1572.1"/>
<text text-anchor="middle" x="827.464" y="-1582.8" font-family="Times,serif" font-size="14.00">cut &#45;f 1,2</text>
</g>
<!-- grch38 .genome file&#45;&gt;bedtools complement -->
<g id="edge31" class="edge"><title>grch38 .genome file&#45;&gt;bedtools complement</title>
<path fill="none" stroke="black" d="M797.023,-1525.94C794.529,-1517.39 791.454,-1506.84 788.667,-1497.29"/>
<polygon fill="black" stroke="black" points="791.957,-1496.06 785.796,-1487.44 785.237,-1498.02 791.957,-1496.06"/>
</g>
<!-- &lt;=0.01 mappability regions bedGraph -->
<g id="node32" class="node"><title>&lt;=0.01 mappability regions bedGraph</title>
<ellipse fill="none" stroke="black" cx="866" cy="-402" rx="145.005" ry="18"/>
<text text-anchor="middle" x="866" y="-397.8" font-family="Times,serif" font-size="14.00">&lt;=0.01 mappability regions bedGraph</text>
</g>
<!-- awk_again&#45;&gt;&lt;=0.01 mappability regions bedGraph -->
<g id="edge34" class="edge"><title>awk_again&#45;&gt;&lt;=0.01 mappability regions bedGraph</title>
<path fill="none" stroke="black" d="M866,-457.937C866,-449.807 866,-439.876 866,-430.705"/>
<polygon fill="black" stroke="black" points="869.5,-430.441 866,-420.441 862.5,-430.441 869.5,-430.441"/>
</g>
<!-- sorted low mappability regions -->
<g id="node33" class="node"><title>sorted low mappability regions</title>
<ellipse fill="none" stroke="black" cx="866" cy="-316" rx="119.342" ry="18"/>
<text text-anchor="middle" x="866" y="-311.8" font-family="Times,serif" font-size="14.00">sorted low mappability regions</text>
</g>
<!-- &lt;=0.01 mappability regions bedGraph&#45;&gt;sorted low mappability regions -->
<g id="edge36" class="edge"><title>&lt;=0.01 mappability regions bedGraph&#45;&gt;sorted low mappability regions</title>
<path fill="none" stroke="black" d="M866,-383.595C866,-372.257 866,-357.227 866,-344.315"/>
<polygon fill="black" stroke="black" points="869.5,-344.095 866,-334.095 862.5,-344.095 869.5,-344.095"/>
<text text-anchor="middle" x="912.662" y="-354.8" font-family="Times,serif" font-size="14.00">sort &#45;k1,1 &#45;k2,2n</text>
</g>
<!-- sorted low mappability regions&#45;&gt;bedtools intersect &#45;u_0 -->
<g id="edge37" class="edge"><title>sorted low mappability regions&#45;&gt;bedtools intersect &#45;u_0</title>
<path fill="none" stroke="black" d="M866,-297.697C866,-286.812 866,-272.219 866,-258.216"/>
<polygon fill="black" stroke="black" points="869.5,-258.185 866,-248.185 862.5,-258.185 869.5,-258.185"/>
<text text-anchor="middle" x="914.409" y="-268.8" font-family="Times,serif" font-size="14.00">low map. regions</text>
</g>
<!-- sorted low mappability regions\nin ClinVar annotations -->
<g id="node35" class="node"><title>sorted low mappability regions\nin ClinVar annotations</title>
<ellipse fill="none" stroke="black" cx="866" cy="-112" rx="134.317" ry="25.4118"/>
<text text-anchor="middle" x="866" y="-114.8" font-family="Times,serif" font-size="14.00">sorted low mappability regions</text>
<text text-anchor="middle" x="866" y="-100.8" font-family="Times,serif" font-size="14.00">in ClinVar annotations</text>
</g>
<!-- bedtools intersect &#45;u_0&#45;&gt;sorted low mappability regions\nin ClinVar annotations -->
<g id="edge38" class="edge"><title>bedtools intersect &#45;u_0&#45;&gt;sorted low mappability regions\nin ClinVar annotations</title>
<path fill="none" stroke="black" d="M866,-175.897C866,-166.817 866,-157.044 866,-147.972"/>
<polygon fill="black" stroke="black" points="869.5,-147.727 866,-137.727 862.5,-147.727 869.5,-147.727"/>
</g>
<!-- BAM_PROC_3 -->
<!-- sorted low mappability regions\nin ClinVar annotations&#45;&gt;BAM_PROC_3 -->
<g id="edge39" class="edge"><title>sorted low mappability regions\nin ClinVar annotations&#45;&gt;BAM_PROC_3</title>
<path fill="none" stroke="black" stroke-dasharray="1,5" d="M866,-86.3457C866,-73.9541 866,-58.9071 866,-46.1818"/>
<polygon fill="black" stroke="black" points="869.5,-46.1477 866,-36.1477 862.5,-46.1478 869.5,-46.1477"/>
<text text-anchor="middle" x="920.831" y="-56.8" font-family="Times,serif" font-size="14.00">to BAM processing</text>
</g>
</g>
</svg>
