<?xml version="1.0" encoding="UTF-8" standalone="no"?>
<!DOCTYPE svg PUBLIC "-//W3C//DTD SVG 1.1//EN"
 "http://www.w3.org/Graphics/SVG/1.1/DTD/svg11.dtd">
<!-- Generated by graphviz version 2.47.3 (20210619.1520)
 -->
<!-- Title: workflow Pages: 1 -->
<svg width="1101pt" height="1357pt"
 viewBox="0.00 0.00 1101.23 1357.17" xmlns="http://www.w3.org/2000/svg" xmlns:xlink="http://www.w3.org/1999/xlink">
<g id="graph0" class="graph" transform="scale(1 1) rotate(0) translate(4 1353.17)">
<title>workflow</title>
<polygon fill="white" stroke="transparent" points="-4,4 -4,-1353.17 1097.23,-1353.17 1097.23,4 -4,4"/>
<!-- ref fasta -->
<g id="node1" class="node">
<title>ref fasta</title>
<polygon fill="none" stroke="black" points="485.81,-1244.17 456.52,-1262.17 397.94,-1262.17 368.66,-1244.17 397.94,-1226.17 456.52,-1226.17 485.81,-1244.17"/>
<text text-anchor="middle" x="427.23" y="-1240.47" font-family="Times,serif" font-size="14.00">ref FASTA</text>
</g>
<!-- MethylDackel extract &#45;@ 16 &#45;q &lt;cutoff&gt;\n&#45;&#45;CHH &#45;&#45;CHG &#45;&#45;OT 2,0,0,97_2 -->
<g id="node5" class="node">
<title>MethylDackel extract &#45;@ 16 &#45;q &lt;cutoff&gt;\n&#45;&#45;CHH &#45;&#45;CHG &#45;&#45;OT 2,0,0,97_2</title>
<polygon fill="#d9d9d9" stroke="#d9d9d9" points="719.23,-1175.17 460.23,-1137.17 719.23,-1099.17 978.23,-1137.17 719.23,-1175.17"/>
<text text-anchor="middle" x="719.23" y="-1140.97" font-family="Times,serif" font-size="14.00">MethylDackel extract &#45;@ 16 &#45;m &lt;Bismap&gt; </text>
<text text-anchor="middle" x="719.23" y="-1125.97" font-family="Times,serif" font-size="14.00">&#45;q &lt;cutoff&gt; &#45;&#45;CHH &#45;&#45;CHG &#45;&#45;OT 2,0,0,97</text>
</g>
<!-- ref fasta&#45;&gt;MethylDackel extract &#45;@ 16 &#45;q &lt;cutoff&gt;\n&#45;&#45;CHH &#45;&#45;CHG &#45;&#45;OT 2,0,0,97_2 -->
<g id="edge5" class="edge">
<title>ref fasta&#45;&gt;MethylDackel extract &#45;@ 16 &#45;q &lt;cutoff&gt;\n&#45;&#45;CHH &#45;&#45;CHG &#45;&#45;OT 2,0,0,97_2</title>
<path fill="none" stroke="black" d="M463.33,-1230.19C506.24,-1214.76 579.22,-1188.52 636.29,-1168"/>
<polygon fill="black" stroke="black" points="637.8,-1171.18 646.02,-1164.5 635.43,-1164.59 637.8,-1171.18"/>
</g>
<!-- mass mapping CSV -->
<g id="node2" class="node">
<title>mass mapping CSV</title>
<polygon fill="none" stroke="black" points="327.43,-570.56 250.83,-588.56 97.63,-588.56 21.03,-570.56 97.63,-552.56 250.83,-552.56 327.43,-570.56"/>
<text text-anchor="middle" x="174.23" y="-566.86" font-family="Times,serif" font-size="14.00">BAM name&#45;&gt;mass mapping CSV</text>
</g>
<!-- add_params_1 -->
<g id="node23" class="node">
<title>add_params_1</title>
<polygon fill="#d9d9d9" stroke="#d9d9d9" points="202.23,-253.74 72.53,-235.74 202.23,-217.74 331.93,-235.74 202.23,-253.74"/>
<text text-anchor="middle" x="202.23" y="-232.04" font-family="Times,serif" font-size="14.00">python add_params.py</text>
</g>
<!-- mass mapping CSV&#45;&gt;add_params_1 -->
<g id="edge26" class="edge">
<title>mass mapping CSV&#45;&gt;add_params_1</title>
<path fill="none" stroke="black" d="M175.7,-552.14C180.29,-497.53 194.43,-329.46 199.97,-263.61"/>
<polygon fill="black" stroke="black" points="203.46,-263.85 200.81,-253.6 196.49,-263.27 203.46,-263.85"/>
</g>
<!-- add_params_2 -->
<g id="node24" class="node">
<title>add_params_2</title>
<polygon fill="#d9d9d9" stroke="#d9d9d9" points="870.23,-472.69 740.53,-454.69 870.23,-436.69 999.93,-454.69 870.23,-472.69"/>
<text text-anchor="middle" x="870.23" y="-450.99" font-family="Times,serif" font-size="14.00">python add_params.py</text>
</g>
<!-- mass mapping CSV&#45;&gt;add_params_2 -->
<g id="edge27" class="edge">
<title>mass mapping CSV&#45;&gt;add_params_2</title>
<path fill="none" stroke="black" d="M259.38,-554.55C284.11,-550.58 311.19,-546.59 336.23,-543.69 446.45,-530.93 475.48,-541.97 585.23,-525.69 587.29,-525.39 729.21,-493.19 731.23,-492.69 760.58,-485.47 793.25,-476.81 819.54,-469.68"/>
<polygon fill="black" stroke="black" points="820.55,-473.03 829.28,-467.03 818.71,-466.28 820.55,-473.03"/>
</g>
<!-- Bismap complete bedGraph -->
<g id="node3" class="node">
<title>Bismap complete bedGraph</title>
<ellipse fill="none" stroke="black" cx="614.23" cy="-1244.17" rx="110.48" ry="18"/>
<text text-anchor="middle" x="614.23" y="-1240.47" font-family="Times,serif" font-size="14.00">Bismap complete bedGraph</text>
</g>
<!-- Bismap complete bedGraph&#45;&gt;MethylDackel extract &#45;@ 16 &#45;q &lt;cutoff&gt;\n&#45;&#45;CHH &#45;&#45;CHG &#45;&#45;OT 2,0,0,97_2 -->
<g id="edge2" class="edge">
<title>Bismap complete bedGraph&#45;&gt;MethylDackel extract &#45;@ 16 &#45;q &lt;cutoff&gt;\n&#45;&#45;CHH &#45;&#45;CHG &#45;&#45;OT 2,0,0,97_2</title>
<path fill="none" stroke="black" d="M631.1,-1226.3C644.07,-1213.33 662.54,-1194.87 679.22,-1178.19"/>
<polygon fill="black" stroke="black" points="682.13,-1180.23 686.73,-1170.68 677.18,-1175.28 682.13,-1180.23"/>
<text text-anchor="middle" x="685.73" y="-1196.97" font-family="Times,serif" font-size="14.00">Bismap</text>
</g>
<!-- PREPROC_1 -->
<!-- PREPROC_1&#45;&gt;Bismap complete bedGraph -->
<g id="edge1" class="edge">
<title>PREPROC_1&#45;&gt;Bismap complete bedGraph</title>
<path fill="none" stroke="black" stroke-dasharray="1,5" d="M614.23,-1312.97C614.23,-1301.34 614.23,-1285.72 614.23,-1272.41"/>
<polygon fill="black" stroke="black" points="617.73,-1272.35 614.23,-1262.35 610.73,-1272.35 617.73,-1272.35"/>
<text text-anchor="middle" x="667.23" y="-1283.97" font-family="Times,serif" font-size="14.00">from preprocessing</text>
</g>
<!-- CpG -->
<g id="node12" class="node">
<title>CpG</title>
<ellipse fill="none" stroke="black" cx="644.23" cy="-1044.17" rx="27.1" ry="18"/>
<text text-anchor="middle" x="644.23" y="-1040.47" font-family="Times,serif" font-size="14.00">CpG</text>
</g>
<!-- MethylDackel extract &#45;@ 16 &#45;q &lt;cutoff&gt;\n&#45;&#45;CHH &#45;&#45;CHG &#45;&#45;OT 2,0,0,97_2&#45;&gt;CpG -->
<g id="edge13" class="edge">
<title>MethylDackel extract &#45;@ 16 &#45;q &lt;cutoff&gt;\n&#45;&#45;CHH &#45;&#45;CHG &#45;&#45;OT 2,0,0,97_2&#45;&gt;CpG</title>
<path fill="none" stroke="black" d="M691.94,-1103.06C682.43,-1091.51 671.96,-1078.81 663.26,-1068.26"/>
<polygon fill="black" stroke="black" points="665.77,-1065.81 656.71,-1060.32 660.37,-1070.26 665.77,-1065.81"/>
</g>
<!-- CHG -->
<g id="node13" class="node">
<title>CHG</title>
<ellipse fill="none" stroke="black" cx="719.23" cy="-1044.17" rx="29.5" ry="18"/>
<text text-anchor="middle" x="719.23" y="-1040.47" font-family="Times,serif" font-size="14.00">CHG</text>
</g>
<!-- MethylDackel extract &#45;@ 16 &#45;q &lt;cutoff&gt;\n&#45;&#45;CHH &#45;&#45;CHG &#45;&#45;OT 2,0,0,97_2&#45;&gt;CHG -->
<g id="edge12" class="edge">
<title>MethylDackel extract &#45;@ 16 &#45;q &lt;cutoff&gt;\n&#45;&#45;CHH &#45;&#45;CHG &#45;&#45;OT 2,0,0,97_2&#45;&gt;CHG</title>
<path fill="none" stroke="black" d="M719.23,-1099.16C719.23,-1090.16 719.23,-1080.71 719.23,-1072.27"/>
<polygon fill="black" stroke="black" points="722.73,-1072.24 719.23,-1062.24 715.73,-1072.24 722.73,-1072.24"/>
</g>
<!-- CHH -->
<g id="node14" class="node">
<title>CHH</title>
<ellipse fill="none" stroke="black" cx="795.23" cy="-1044.17" rx="29.5" ry="18"/>
<text text-anchor="middle" x="795.23" y="-1040.47" font-family="Times,serif" font-size="14.00">CHH</text>
</g>
<!-- MethylDackel extract &#45;@ 16 &#45;q &lt;cutoff&gt;\n&#45;&#45;CHH &#45;&#45;CHG &#45;&#45;OT 2,0,0,97_2&#45;&gt;CHH -->
<g id="edge14" class="edge">
<title>MethylDackel extract &#45;@ 16 &#45;q &lt;cutoff&gt;\n&#45;&#45;CHH &#45;&#45;CHG &#45;&#45;OT 2,0,0,97_2&#45;&gt;CHH</title>
<path fill="none" stroke="black" d="M746.89,-1103.06C756.4,-1091.68 766.84,-1079.17 775.59,-1068.7"/>
<polygon fill="black" stroke="black" points="778.46,-1070.72 782.18,-1060.8 773.08,-1066.23 778.46,-1070.72"/>
</g>
<!-- Methylation sequencing reads -->
<g id="node6" class="node">
<title>Methylation sequencing reads</title>
<polygon fill="none" stroke="black" points="970.41,-1331.17 902.82,-1349.17 767.64,-1349.17 700.06,-1331.17 767.64,-1313.17 902.82,-1313.17 970.41,-1331.17"/>
<text text-anchor="middle" x="835.23" y="-1327.47" font-family="Times,serif" font-size="14.00">Methylation sequencing reads</text>
</g>
<!-- sorted alignment BAM -->
<g id="node7" class="node">
<title>sorted alignment BAM</title>
<ellipse fill="none" stroke="black" cx="835.23" cy="-1244.17" rx="92.88" ry="18"/>
<text text-anchor="middle" x="835.23" y="-1240.47" font-family="Times,serif" font-size="14.00">sorted alignment BAM</text>
</g>
<!-- Methylation sequencing reads&#45;&gt;sorted alignment BAM -->
<g id="edge3" class="edge">
<title>Methylation sequencing reads&#45;&gt;sorted alignment BAM</title>
<path fill="none" stroke="black" d="M835.23,-1312.97C835.23,-1301.34 835.23,-1285.72 835.23,-1272.41"/>
<polygon fill="black" stroke="black" points="838.73,-1272.35 835.23,-1262.35 831.73,-1272.35 838.73,-1272.35"/>
<text text-anchor="middle" x="854.23" y="-1283.97" font-family="Times,serif" font-size="14.00">aligner</text>
</g>
<!-- sorted alignment BAM&#45;&gt;MethylDackel extract &#45;@ 16 &#45;q &lt;cutoff&gt;\n&#45;&#45;CHH &#45;&#45;CHG &#45;&#45;OT 2,0,0,97_2 -->
<g id="edge11" class="edge">
<title>sorted alignment BAM&#45;&gt;MethylDackel extract &#45;@ 16 &#45;q &lt;cutoff&gt;\n&#45;&#45;CHH &#45;&#45;CHG &#45;&#45;OT 2,0,0,97_2</title>
<path fill="none" stroke="black" d="M816.6,-1226.3C802.03,-1213.12 781.18,-1194.25 762.51,-1177.35"/>
<polygon fill="black" stroke="black" points="764.43,-1174.37 754.67,-1170.25 759.74,-1179.56 764.43,-1174.37"/>
</g>
<!-- MapQ cutoff -->
<g id="node8" class="node">
<title>MapQ cutoff</title>
<polygon fill="none" stroke="black" points="1078.32,-1244.17 1045.28,-1262.17 979.19,-1262.17 946.15,-1244.17 979.19,-1226.17 1045.28,-1226.17 1078.32,-1244.17"/>
<text text-anchor="middle" x="1012.23" y="-1240.47" font-family="Times,serif" font-size="14.00">MapQ cutoff</text>
</g>
<!-- MapQ cutoff&#45;&gt;MethylDackel extract &#45;@ 16 &#45;q &lt;cutoff&gt;\n&#45;&#45;CHH &#45;&#45;CHG &#45;&#45;OT 2,0,0,97_2 -->
<g id="edge4" class="edge">
<title>MapQ cutoff&#45;&gt;MethylDackel extract &#45;@ 16 &#45;q &lt;cutoff&gt;\n&#45;&#45;CHH &#45;&#45;CHG &#45;&#45;OT 2,0,0,97_2</title>
<path fill="none" stroke="black" d="M973.32,-1229.23C929.91,-1213.67 858.41,-1188.05 802.3,-1167.94"/>
<polygon fill="black" stroke="black" points="803.32,-1164.59 792.72,-1164.51 800.96,-1171.18 803.32,-1164.59"/>
<text text-anchor="middle" x="924.73" y="-1196.97" font-family="Times,serif" font-size="14.00">cutoff</text>
</g>
<!-- sort &#45;k1,1 &#45;k2,2n_2 -->
<g id="node9" class="node">
<title>sort &#45;k1,1 &#45;k2,2n_2</title>
<polygon fill="#d9d9d9" stroke="#d9d9d9" points="719.23,-989.17 620.19,-971.17 719.23,-953.17 818.27,-971.17 719.23,-989.17"/>
<text text-anchor="middle" x="719.23" y="-967.47" font-family="Times,serif" font-size="14.00">sort &#45;k1,1 &#45;k2,2n</text>
</g>
<!-- sorted bedGraph -->
<g id="node10" class="node">
<title>sorted bedGraph</title>
<ellipse fill="none" stroke="black" cx="719.23" cy="-898.17" rx="69.59" ry="18"/>
<text text-anchor="middle" x="719.23" y="-894.47" font-family="Times,serif" font-size="14.00">sorted bedGraph</text>
</g>
<!-- sort &#45;k1,1 &#45;k2,2n_2&#45;&gt;sorted bedGraph -->
<g id="edge6" class="edge">
<title>sort &#45;k1,1 &#45;k2,2n_2&#45;&gt;sorted bedGraph</title>
<path fill="none" stroke="black" d="M719.23,-952.99C719.23,-944.96 719.23,-935.22 719.23,-926.24"/>
<polygon fill="black" stroke="black" points="722.73,-926.2 719.23,-916.2 715.73,-926.2 722.73,-926.2"/>
</g>
<!-- sorted bedGraph\n(no headers) -->
<g id="node11" class="node">
<title>sorted bedGraph\n(no headers)</title>
<ellipse fill="none" stroke="black" cx="719.23" cy="-802.3" rx="75.82" ry="26.74"/>
<text text-anchor="middle" x="719.23" y="-806.1" font-family="Times,serif" font-size="14.00">sorted bedGraph</text>
<text text-anchor="middle" x="719.23" y="-791.1" font-family="Times,serif" font-size="14.00">(no headers)</text>
</g>
<!-- sorted bedGraph&#45;&gt;sorted bedGraph\n(no headers) -->
<g id="edge7" class="edge">
<title>sorted bedGraph&#45;&gt;sorted bedGraph\n(no headers)</title>
<path fill="none" stroke="black" d="M719.23,-879.96C719.23,-868.65 719.23,-853.44 719.23,-839.55"/>
<polygon fill="black" stroke="black" points="722.73,-839.27 719.23,-829.27 715.73,-839.27 722.73,-839.27"/>
<text text-anchor="middle" x="747.23" y="-850.97" font-family="Times,serif" font-size="14.00">head &#45;n &#45;3</text>
</g>
<!-- bedtools intersect &#45;u_2 -->
<g id="node15" class="node">
<title>bedtools intersect &#45;u_2</title>
<polygon fill="#d9d9d9" stroke="#d9d9d9" points="848.23,-724.43 603.23,-686.43 848.23,-648.43 1093.23,-686.43 848.23,-724.43"/>
<text text-anchor="middle" x="848.23" y="-690.23" font-family="Times,serif" font-size="14.00">bedtools intersect &#45;u &#45;sorted </text>
<text text-anchor="middle" x="848.23" y="-675.23" font-family="Times,serif" font-size="14.00">&#45;a &lt;methyl calls&gt; &#45;b &lt;low map. regions&gt;</text>
</g>
<!-- sorted bedGraph\n(no headers)&#45;&gt;bedtools intersect &#45;u_2 -->
<g id="edge15" class="edge">
<title>sorted bedGraph\n(no headers)&#45;&gt;bedtools intersect &#45;u_2</title>
<path fill="none" stroke="black" d="M746.59,-777.15C763.57,-762.17 785.75,-742.59 805.06,-725.54"/>
<polygon fill="black" stroke="black" points="807.4,-728.15 812.58,-718.91 802.76,-722.9 807.4,-728.15"/>
<text text-anchor="middle" x="817.73" y="-746.23" font-family="Times,serif" font-size="14.00">methyl calls</text>
</g>
<!-- CpG&#45;&gt;sort &#45;k1,1 &#45;k2,2n_2 -->
<g id="edge8" class="edge">
<title>CpG&#45;&gt;sort &#45;k1,1 &#45;k2,2n_2</title>
<path fill="none" stroke="black" d="M659.41,-1028.81C670.08,-1018.7 684.55,-1005 696.59,-993.61"/>
<polygon fill="black" stroke="black" points="699.22,-995.94 704.08,-986.52 694.41,-990.85 699.22,-995.94"/>
</g>
<!-- CHG&#45;&gt;sort &#45;k1,1 &#45;k2,2n_2 -->
<g id="edge9" class="edge">
<title>CHG&#45;&gt;sort &#45;k1,1 &#45;k2,2n_2</title>
<path fill="none" stroke="black" d="M719.23,-1025.99C719.23,-1017.96 719.23,-1008.22 719.23,-999.24"/>
<polygon fill="black" stroke="black" points="722.73,-999.2 719.23,-989.2 715.73,-999.2 722.73,-999.2"/>
</g>
<!-- CHH&#45;&gt;sort &#45;k1,1 &#45;k2,2n_2 -->
<g id="edge10" class="edge">
<title>CHH&#45;&gt;sort &#45;k1,1 &#45;k2,2n_2</title>
<path fill="none" stroke="black" d="M779.85,-1028.81C769.04,-1018.7 754.38,-1005 742.18,-993.61"/>
<polygon fill="black" stroke="black" points="744.29,-990.79 734.59,-986.52 739.51,-995.9 744.29,-990.79"/>
</g>
<!-- methylation calls in low\nmappability regions in ClinVar regions -->
<g id="node21" class="node">
<title>methylation calls in low\nmappability regions in ClinVar regions</title>
<ellipse fill="none" stroke="black" cx="848.23" cy="-570.56" rx="161.85" ry="26.74"/>
<text text-anchor="middle" x="848.23" y="-574.36" font-family="Times,serif" font-size="14.00">methylation calls in low</text>
<text text-anchor="middle" x="848.23" y="-559.36" font-family="Times,serif" font-size="14.00">mappability regions in ClinVar regions</text>
</g>
<!-- bedtools intersect &#45;u_2&#45;&gt;methylation calls in low\nmappability regions in ClinVar regions -->
<g id="edge20" class="edge">
<title>bedtools intersect &#45;u_2&#45;&gt;methylation calls in low\nmappability regions in ClinVar regions</title>
<path fill="none" stroke="black" d="M848.23,-648.15C848.23,-635.28 848.23,-620.88 848.23,-608.07"/>
<polygon fill="black" stroke="black" points="851.73,-607.75 848.23,-597.75 844.73,-607.75 851.73,-607.75"/>
</g>
<!-- sorted low mappability regions\nin ClinVar annotations 2 -->
<g id="node16" class="node">
<title>sorted low mappability regions\nin ClinVar annotations 2</title>
<ellipse fill="none" stroke="black" cx="944.23" cy="-802.3" rx="131.54" ry="26.74"/>
<text text-anchor="middle" x="944.23" y="-806.1" font-family="Times,serif" font-size="14.00">sorted low mappability regions</text>
<text text-anchor="middle" x="944.23" y="-791.1" font-family="Times,serif" font-size="14.00">in ClinVar annotations</text>
</g>
<!-- sorted low mappability regions\nin ClinVar annotations 2&#45;&gt;bedtools intersect &#45;u_2 -->
<g id="edge17" class="edge">
<title>sorted low mappability regions\nin ClinVar annotations 2&#45;&gt;bedtools intersect &#45;u_2</title>
<path fill="none" stroke="black" d="M922.69,-775.75C910.81,-761.66 895.79,-743.85 882.36,-727.91"/>
<polygon fill="black" stroke="black" points="885.03,-725.66 875.91,-720.27 879.68,-730.17 885.03,-725.66"/>
<text text-anchor="middle" x="952.23" y="-746.23" font-family="Times,serif" font-size="14.00">low map. regions</text>
</g>
<!-- PREPROC_2 -->
<!-- PREPROC_2&#45;&gt;sorted low mappability regions\nin ClinVar annotations 2 -->
<g id="edge16" class="edge">
<title>PREPROC_2&#45;&gt;sorted low mappability regions\nin ClinVar annotations 2</title>
<path fill="none" stroke="black" stroke-dasharray="1,5" d="M944.23,-879.96C944.23,-868.65 944.23,-853.44 944.23,-839.55"/>
<polygon fill="black" stroke="black" points="947.73,-839.27 944.23,-829.27 940.73,-839.27 947.73,-839.27"/>
<text text-anchor="middle" x="997.23" y="-850.97" font-family="Times,serif" font-size="14.00">from preprocessing</text>
</g>
<!-- sorted low mappability ClinVar regions 2 -->
<g id="node18" class="node">
<title>sorted low mappability ClinVar regions 2</title>
<ellipse fill="none" stroke="black" cx="496.23" cy="-570.56" rx="150.57" ry="18"/>
<text text-anchor="middle" x="496.23" y="-566.86" font-family="Times,serif" font-size="14.00">sorted low mappability ClinVar regions</text>
</g>
<!-- bedtools intersect &#45;u_3b -->
<g id="node20" class="node">
<title>bedtools intersect &#45;u_3b</title>
<polygon fill="#d9d9d9" stroke="#d9d9d9" points="462.23,-492.69 202.23,-454.69 462.23,-416.69 722.23,-454.69 462.23,-492.69"/>
<text text-anchor="middle" x="462.23" y="-458.49" font-family="Times,serif" font-size="14.00">bedtools intersect &#45;wa &#45;sorted </text>
<text text-anchor="middle" x="462.23" y="-443.49" font-family="Times,serif" font-size="14.00">&#45;a &lt;ClinVar low map.&gt; &#45;b &lt;low map. calls&gt;</text>
</g>
<!-- sorted low mappability ClinVar regions 2&#45;&gt;bedtools intersect &#45;u_3b -->
<g id="edge19" class="edge">
<title>sorted low mappability ClinVar regions 2&#45;&gt;bedtools intersect &#45;u_3b</title>
<path fill="none" stroke="black" d="M491.07,-552.27C487.02,-538.73 481.21,-519.24 475.85,-501.31"/>
<polygon fill="black" stroke="black" points="479.16,-500.14 472.94,-491.56 472.45,-502.15 479.16,-500.14"/>
<text text-anchor="middle" x="532.23" y="-514.49" font-family="Times,serif" font-size="14.00">ClinVar low map.</text>
</g>
<!-- PREPROC_3 -->
<!-- PREPROC_3&#45;&gt;sorted low mappability ClinVar regions 2 -->
<g id="edge18" class="edge">
<title>PREPROC_3&#45;&gt;sorted low mappability ClinVar regions 2</title>
<path fill="none" stroke="black" stroke-dasharray="1,5" d="M496.23,-668.14C496.23,-649.72 496.23,-620.32 496.23,-598.79"/>
<polygon fill="black" stroke="black" points="499.73,-598.65 496.23,-588.65 492.73,-598.65 499.73,-598.65"/>
<text text-anchor="middle" x="549.23" y="-619.23" font-family="Times,serif" font-size="14.00">from preprocessing</text>
</g>
<!-- ClinVar regions for each low&#45;mappability methyl call -->
<g id="node22" class="node">
<title>ClinVar regions for each low&#45;mappability methyl call</title>
<ellipse fill="none" stroke="black" cx="418.23" cy="-342.22" rx="200.66" ry="18"/>
<text text-anchor="middle" x="418.23" y="-338.52" font-family="Times,serif" font-size="14.00">ClinVar regions for each low&#45;mappability methyl call</text>
</g>
<!-- bedtools intersect &#45;u_3b&#45;&gt;ClinVar regions for each low&#45;mappability methyl call -->
<g id="edge22" class="edge">
<title>bedtools intersect &#45;u_3b&#45;&gt;ClinVar regions for each low&#45;mappability methyl call</title>
<path fill="none" stroke="black" d="M448.19,-418.43C441.9,-402.63 434.6,-384.31 428.78,-369.7"/>
<polygon fill="black" stroke="black" points="431.97,-368.26 425.02,-360.26 425.47,-370.85 431.97,-368.26"/>
</g>
<!-- methylation calls in low\nmappability regions in ClinVar regions&#45;&gt;bedtools intersect &#45;u_3b -->
<g id="edge21" class="edge">
<title>methylation calls in low\nmappability regions in ClinVar regions&#45;&gt;bedtools intersect &#45;u_3b</title>
<path fill="none" stroke="black" d="M771.05,-546.79C709.21,-528.55 622.2,-502.88 556.29,-483.44"/>
<polygon fill="black" stroke="black" points="556.89,-479.97 546.31,-480.5 554.91,-486.68 556.89,-479.97"/>
<text text-anchor="middle" x="730.73" y="-514.49" font-family="Times,serif" font-size="14.00">low map. calls</text>
</g>
<!-- methylation calls in low\nmappability regions in ClinVar regions&#45;&gt;add_params_2 -->
<g id="edge28" class="edge">
<title>methylation calls in low\nmappability regions in ClinVar regions&#45;&gt;add_params_2</title>
<path fill="none" stroke="black" d="M853.28,-543.44C856.8,-525.22 861.49,-500.97 865.04,-482.58"/>
<polygon fill="black" stroke="black" points="868.52,-483 866.98,-472.52 861.65,-481.67 868.52,-483"/>
</g>
<!-- ClinVar regions for each low&#45;mappability methyl call&#45;&gt;add_params_1 -->
<g id="edge23" class="edge">
<title>ClinVar regions for each low&#45;mappability methyl call&#45;&gt;add_params_1</title>
<path fill="none" stroke="black" d="M383.53,-324.43C343.89,-305.26 279.32,-274.03 238.89,-254.47"/>
<polygon fill="black" stroke="black" points="240.18,-251.21 229.66,-250 237.13,-257.51 240.18,-251.21"/>
</g>
<!-- ClinVar regions for each low&#45;mappability methyl\n call with identifier columns -->
<g id="node25" class="node">
<title>ClinVar regions for each low&#45;mappability methyl\n call with identifier columns</title>
<ellipse fill="none" stroke="black" cx="202.23" cy="-153.87" rx="202.47" ry="26.74"/>
<text text-anchor="middle" x="202.23" y="-157.67" font-family="Times,serif" font-size="14.00">ClinVar regions for each low&#45;mappability methyl</text>
<text text-anchor="middle" x="202.23" y="-142.67" font-family="Times,serif" font-size="14.00"> call with identifier columns</text>
</g>
<!-- add_params_1&#45;&gt;ClinVar regions for each low&#45;mappability methyl\n call with identifier columns -->
<g id="edge24" class="edge">
<title>add_params_1&#45;&gt;ClinVar regions for each low&#45;mappability methyl\n call with identifier columns</title>
<path fill="none" stroke="black" d="M202.23,-217.41C202.23,-209.68 202.23,-200.26 202.23,-191.1"/>
<polygon fill="black" stroke="black" points="205.73,-190.97 202.23,-180.97 198.73,-190.97 205.73,-190.97"/>
</g>
<!-- methylation calls in low\nmappability regions in ClinVar regions\nwith identifier columns -->
<g id="node28" class="node">
<title>methylation calls in low\nmappability regions in ClinVar regions\nwith identifier columns</title>
<ellipse fill="none" stroke="black" cx="870.23" cy="-342.22" rx="161.85" ry="37.45"/>
<text text-anchor="middle" x="870.23" y="-353.52" font-family="Times,serif" font-size="14.00">methylation calls in low</text>
<text text-anchor="middle" x="870.23" y="-338.52" font-family="Times,serif" font-size="14.00">mappability regions in ClinVar regions</text>
<text text-anchor="middle" x="870.23" y="-323.52" font-family="Times,serif" font-size="14.00">with identifier columns</text>
</g>
<!-- add_params_2&#45;&gt;methylation calls in low\nmappability regions in ClinVar regions\nwith identifier columns -->
<g id="edge29" class="edge">
<title>add_params_2&#45;&gt;methylation calls in low\nmappability regions in ClinVar regions\nwith identifier columns</title>
<path fill="none" stroke="black" d="M870.23,-436.43C870.23,-423.97 870.23,-406.51 870.23,-390.06"/>
<polygon fill="black" stroke="black" points="873.73,-390 870.23,-380 866.73,-390 873.73,-390"/>
</g>
<!-- ClinVar regions with count \nof low&#45;mappability methyl calls -->
<g id="node26" class="node">
<title>ClinVar regions with count \nof low&#45;mappability methyl calls</title>
<polygon fill="none" stroke="black" points="401.35,-76 84.6,-76 3.12,0 319.86,0 401.35,-76"/>
<text text-anchor="middle" x="202.23" y="-41.8" font-family="Times,serif" font-size="14.00">ClinVar regions with count </text>
<text text-anchor="middle" x="202.23" y="-26.8" font-family="Times,serif" font-size="14.00">of low&#45;mappability methyl calls</text>
</g>
<!-- ClinVar regions for each low&#45;mappability methyl\n call with identifier columns&#45;&gt;ClinVar regions with count \nof low&#45;mappability methyl calls -->
<g id="edge25" class="edge">
<title>ClinVar regions for each low&#45;mappability methyl\n call with identifier columns&#45;&gt;ClinVar regions with count \nof low&#45;mappability methyl calls</title>
<path fill="none" stroke="black" d="M202.23,-126.75C202.23,-114.82 202.23,-100.3 202.23,-86.54"/>
<polygon fill="black" stroke="black" points="205.73,-86.22 202.23,-76.22 198.73,-86.22 205.73,-86.22"/>
<text text-anchor="middle" x="262.23" y="-97.8" font-family="Times,serif" font-size="14.00">count_low_map_calls</text>
</g>
<!-- low&#45;mappability methyl call data -->
<g id="node27" class="node">
<title>low&#45;mappability methyl call data</title>
<polygon fill="gray" stroke="gray" points="1059.1,-253.74 758.66,-253.74 681.37,-217.74 981.81,-217.74 1059.1,-253.74"/>
<text text-anchor="middle" x="870.23" y="-232.04" font-family="Times,serif" font-size="14.00">low&#45;mappability methyl call data</text>
</g>
<!-- methylation calls in low\nmappability regions in ClinVar regions\nwith identifier columns&#45;&gt;low&#45;mappability methyl call data -->
<g id="edge30" class="edge">
<title>methylation calls in low\nmappability regions in ClinVar regions\nwith identifier columns&#45;&gt;low&#45;mappability methyl call data</title>
<path fill="none" stroke="black" stroke-dasharray="5,2" d="M870.23,-304.68C870.23,-291.3 870.23,-276.4 870.23,-263.97"/>
<polygon fill="black" stroke="black" points="873.73,-263.79 870.23,-253.79 866.73,-263.79 873.73,-263.79"/>
<text text-anchor="middle" x="922.23" y="-275.54" font-family="Times,serif" font-size="14.00">Display in Tableau</text>
</g>
</g>
</svg>
