<?xml version="1.0" encoding="UTF-8" standalone="no"?>
<!DOCTYPE svg PUBLIC "-//W3C//DTD SVG 1.1//EN"
 "http://www.w3.org/Graphics/SVG/1.1/DTD/svg11.dtd">
<!-- Generated by graphviz version 2.47.3 (20210619.1520)
 -->
<!-- Title: workflow Pages: 1 -->
<svg width="1152pt" height="1708pt"
 viewBox="0.00 0.00 1152.00 1707.96" xmlns="http://www.w3.org/2000/svg" xmlns:xlink="http://www.w3.org/1999/xlink">
<g id="graph0" class="graph" transform="scale(1 1) rotate(0) translate(4 1703.96)">
<title>workflow</title>
<polygon fill="white" stroke="transparent" points="-4,4 -4,-1703.96 1148,-1703.96 1148,4 -4,4"/>
<!-- ClinVar regions BED -->
<g id="node1" class="node">
<title>ClinVar regions BED</title>
<polygon fill="none" stroke="black" points="544.63,-1128.96 494.82,-1146.96 395.18,-1146.96 345.37,-1128.96 395.18,-1110.96 494.82,-1110.96 544.63,-1128.96"/>
<text text-anchor="middle" x="445" y="-1125.26" font-family="Times,serif" font-size="14.00">ClinVar regions BED</text>
</g>
<!-- bedtools map &#45;o min -->
<g id="node9" class="node">
<title>bedtools map &#45;o min</title>
<polygon fill="#d9d9d9" stroke="#d9d9d9" points="519,-1059.96 352,-1021.96 519,-983.96 686,-1021.96 519,-1059.96"/>
<text text-anchor="middle" x="519" y="-1025.76" font-family="Times,serif" font-size="14.00">bedtools map &#45;o min </text>
<text text-anchor="middle" x="519" y="-1010.76" font-family="Times,serif" font-size="14.00">&#45;a &lt;ClinVar&gt; &#45;b &lt;Bismap&gt;</text>
</g>
<!-- ClinVar regions BED&#45;&gt;bedtools map &#45;o min -->
<g id="edge6" class="edge">
<title>ClinVar regions BED&#45;&gt;bedtools map &#45;o min</title>
<path fill="none" stroke="black" d="M457.22,-1110.62C466.24,-1097.82 478.89,-1079.87 490.4,-1063.54"/>
<polygon fill="black" stroke="black" points="493.39,-1065.37 496.29,-1055.18 487.67,-1061.34 493.39,-1065.37"/>
<text text-anchor="middle" x="501.5" y="-1081.76" font-family="Times,serif" font-size="14.00">ClinVar</text>
</g>
<!-- bedtools map &#45;o mean -->
<g id="node10" class="node">
<title>bedtools map &#45;o mean</title>
<polygon fill="#d9d9d9" stroke="#d9d9d9" points="167,-1059.96 0,-1021.96 167,-983.96 334,-1021.96 167,-1059.96"/>
<text text-anchor="middle" x="167" y="-1025.76" font-family="Times,serif" font-size="14.00">bedtools map &#45;o mean </text>
<text text-anchor="middle" x="167" y="-1010.76" font-family="Times,serif" font-size="14.00">&#45;a &lt;ClinVar&gt; &#45;b &lt;Bismap&gt;</text>
</g>
<!-- ClinVar regions BED&#45;&gt;bedtools map &#45;o mean -->
<g id="edge8" class="edge">
<title>ClinVar regions BED&#45;&gt;bedtools map &#45;o mean</title>
<path fill="none" stroke="black" d="M399.72,-1110.86C355.92,-1094.32 288.89,-1069 238,-1049.78"/>
<polygon fill="black" stroke="black" points="238.96,-1046.4 228.37,-1046.14 236.49,-1052.95 238.96,-1046.4"/>
<text text-anchor="middle" x="369.5" y="-1081.76" font-family="Times,serif" font-size="14.00">ClinVar</text>
</g>
<!-- grch38 fasta 2 -->
<g id="node2" class="node">
<title>grch38 fasta 2</title>
<polygon fill="none" stroke="black" points="914.08,-1681.96 883.04,-1699.96 820.96,-1699.96 789.92,-1681.96 820.96,-1663.96 883.04,-1663.96 914.08,-1681.96"/>
<text text-anchor="middle" x="852" y="-1678.26" font-family="Times,serif" font-size="14.00">grch38 fasta</text>
</g>
<!-- grch38 .fai file -->
<g id="node24" class="node">
<title>grch38 .fai file</title>
<ellipse fill="none" stroke="black" cx="852" cy="-1594.96" rx="63.09" ry="18"/>
<text text-anchor="middle" x="852" y="-1591.26" font-family="Times,serif" font-size="14.00">grch38 .fai file</text>
</g>
<!-- grch38 fasta 2&#45;&gt;grch38 .fai file -->
<g id="edge24" class="edge">
<title>grch38 fasta 2&#45;&gt;grch38 .fai file</title>
<path fill="none" stroke="black" d="M852,-1663.76C852,-1652.12 852,-1636.51 852,-1623.2"/>
<polygon fill="black" stroke="black" points="855.5,-1623.14 852,-1613.14 848.5,-1623.14 855.5,-1623.14"/>
<text text-anchor="middle" x="892.5" y="-1634.76" font-family="Times,serif" font-size="14.00">samtools faidx</text>
</g>
<!-- Bismap bedGraph -->
<g id="node3" class="node">
<title>Bismap bedGraph</title>
<ellipse fill="none" stroke="black" cx="677" cy="-1507.96" rx="75.29" ry="18"/>
<text text-anchor="middle" x="677" y="-1504.26" font-family="Times,serif" font-size="14.00">Bismap bedGraph</text>
</g>
<!-- sort &#45;k1,1 &#45;k2,2n_again -->
<g id="node4" class="node">
<title>sort &#45;k1,1 &#45;k2,2n_again</title>
<polygon fill="#d9d9d9" stroke="#d9d9d9" points="689,-1219.96 589.96,-1201.96 689,-1183.96 788.04,-1201.96 689,-1219.96"/>
<text text-anchor="middle" x="689" y="-1198.26" font-family="Times,serif" font-size="14.00">sort &#45;k1,1 &#45;k2,2n</text>
</g>
<!-- Bismap bedGraph&#45;&gt;sort &#45;k1,1 &#45;k2,2n_again -->
<g id="edge1" class="edge">
<title>Bismap bedGraph&#45;&gt;sort &#45;k1,1 &#45;k2,2n_again</title>
<path fill="none" stroke="black" d="M677,-1489.74C677,-1475.37 677,-1454.33 677,-1435.96 677,-1435.96 677,-1435.96 677,-1273.96 677,-1258.97 679.63,-1242.44 682.43,-1229.1"/>
<polygon fill="black" stroke="black" points="685.88,-1229.71 684.67,-1219.18 679.06,-1228.17 685.88,-1229.71"/>
</g>
<!-- bedtools complement -->
<g id="node22" class="node">
<title>bedtools complement</title>
<polygon fill="#d9d9d9" stroke="#d9d9d9" points="830,-1452.96 706.67,-1434.96 830,-1416.96 953.33,-1434.96 830,-1452.96"/>
<text text-anchor="middle" x="830" y="-1431.26" font-family="Times,serif" font-size="14.00">bedtools complement</text>
</g>
<!-- Bismap bedGraph&#45;&gt;bedtools complement -->
<g id="edge22" class="edge">
<title>Bismap bedGraph&#45;&gt;bedtools complement</title>
<path fill="none" stroke="black" d="M709.82,-1491.73C734.11,-1480.46 767.24,-1465.08 792.57,-1453.33"/>
<polygon fill="black" stroke="black" points="794.26,-1456.41 801.85,-1449.02 791.31,-1450.06 794.26,-1456.41"/>
</g>
<!-- Bismap complete bedGraph -->
<g id="node5" class="node">
<title>Bismap complete bedGraph</title>
<ellipse fill="none" stroke="black" cx="689" cy="-1128.96" rx="110.48" ry="18"/>
<text text-anchor="middle" x="689" y="-1125.26" font-family="Times,serif" font-size="14.00">Bismap complete bedGraph</text>
</g>
<!-- sort &#45;k1,1 &#45;k2,2n_again&#45;&gt;Bismap complete bedGraph -->
<g id="edge2" class="edge">
<title>sort &#45;k1,1 &#45;k2,2n_again&#45;&gt;Bismap complete bedGraph</title>
<path fill="none" stroke="black" d="M689,-1183.77C689,-1175.75 689,-1166.01 689,-1157.03"/>
<polygon fill="black" stroke="black" points="692.5,-1156.99 689,-1146.99 685.5,-1156.99 692.5,-1156.99"/>
</g>
<!-- BAM_PROC_1 -->
<!-- Bismap complete bedGraph&#45;&gt;BAM_PROC_1 -->
<g id="edge3" class="edge">
<title>Bismap complete bedGraph&#45;&gt;BAM_PROC_1</title>
<path fill="none" stroke="black" stroke-dasharray="1,5" d="M704.44,-1111.12C709.5,-1105.44 715.09,-1099.01 720,-1092.96 731.74,-1078.5 744.21,-1061.77 753.99,-1048.29"/>
<polygon fill="black" stroke="black" points="756.99,-1050.12 760,-1039.96 751.31,-1046.02 756.99,-1050.12"/>
<text text-anchor="middle" x="786" y="-1081.76" font-family="Times,serif" font-size="14.00">to BAM processing</text>
</g>
<!-- Bismap complete bedGraph&#45;&gt;bedtools map &#45;o min -->
<g id="edge7" class="edge">
<title>Bismap complete bedGraph&#45;&gt;bedtools map &#45;o min</title>
<path fill="none" stroke="black" d="M675.31,-1111.08C666.14,-1100.57 653.34,-1087.3 640,-1077.96 624.85,-1067.35 607.33,-1057.99 590.4,-1050.14"/>
<polygon fill="black" stroke="black" points="591.63,-1046.86 581.07,-1045.94 588.75,-1053.24 591.63,-1046.86"/>
<text text-anchor="middle" x="679.5" y="-1081.76" font-family="Times,serif" font-size="14.00">Bismap</text>
</g>
<!-- Bismap complete bedGraph&#45;&gt;bedtools map &#45;o mean -->
<g id="edge9" class="edge">
<title>Bismap complete bedGraph&#45;&gt;bedtools map &#45;o mean</title>
<path fill="none" stroke="black" d="M646.63,-1112.3C614.3,-1100.99 568.41,-1086.29 527,-1077.96 446.44,-1061.76 424.22,-1072.43 343,-1059.96 314.96,-1055.66 284.66,-1049.75 257.23,-1043.91"/>
<polygon fill="black" stroke="black" points="257.78,-1040.45 247.27,-1041.77 256.31,-1047.3 257.78,-1040.45"/>
<text text-anchor="middle" x="607.5" y="-1081.76" font-family="Times,serif" font-size="14.00">Bismap</text>
</g>
<!-- awk_again -->
<g id="node26" class="node">
<title>awk_again</title>
<polygon fill="#d9d9d9" stroke="#d9d9d9" points="869,-500.74 715.5,-482.74 869,-464.74 1022.5,-482.74 869,-500.74"/>
<text text-anchor="middle" x="869" y="-479.04" font-family="Times,serif" font-size="14.00">awk &#39; if $4&lt;=0.01 { print }&#39;</text>
</g>
<!-- Bismap complete bedGraph&#45;&gt;awk_again -->
<g id="edge27" class="edge">
<title>Bismap complete bedGraph&#45;&gt;awk_again</title>
<path fill="none" stroke="black" d="M770.82,-1116.77C801.88,-1111.04 832.54,-1103.11 844,-1092.96 868.73,-1071.06 869,-1056 869,-1022.96 869,-1022.96 869,-1022.96 869,-563.61 869,-546.2 869,-526.66 869,-511.27"/>
<polygon fill="black" stroke="black" points="872.5,-510.88 869,-500.88 865.5,-510.88 872.5,-510.88"/>
</g>
<!-- 0 mappability regions bedGraph -->
<g id="node7" class="node">
<title>0 mappability regions bedGraph</title>
<ellipse fill="none" stroke="black" cx="830" cy="-1274.96" rx="125.38" ry="18"/>
<text text-anchor="middle" x="830" y="-1271.26" font-family="Times,serif" font-size="14.00">0 mappability regions bedGraph</text>
</g>
<!-- 0 mappability regions bedGraph&#45;&gt;sort &#45;k1,1 &#45;k2,2n_again -->
<g id="edge4" class="edge">
<title>0 mappability regions bedGraph&#45;&gt;sort &#45;k1,1 &#45;k2,2n_again</title>
<path fill="none" stroke="black" d="M797.3,-1257.49C775.09,-1246.31 745.77,-1231.55 723.24,-1220.2"/>
<polygon fill="black" stroke="black" points="724.55,-1216.94 714.05,-1215.57 721.4,-1223.2 724.55,-1216.94"/>
</g>
<!-- Bismap bigWig -->
<g id="node8" class="node">
<title>Bismap bigWig</title>
<polygon fill="none" stroke="black" points="754.1,-1594.96 715.55,-1612.96 638.45,-1612.96 599.9,-1594.96 638.45,-1576.96 715.55,-1576.96 754.1,-1594.96"/>
<text text-anchor="middle" x="677" y="-1591.26" font-family="Times,serif" font-size="14.00">Bismap bigWig</text>
</g>
<!-- Bismap bigWig&#45;&gt;Bismap bedGraph -->
<g id="edge5" class="edge">
<title>Bismap bigWig&#45;&gt;Bismap bedGraph</title>
<path fill="none" stroke="black" d="M677,-1576.76C677,-1565.12 677,-1549.51 677,-1536.2"/>
<polygon fill="black" stroke="black" points="680.5,-1536.14 677,-1526.14 673.5,-1536.14 680.5,-1536.14"/>
<text text-anchor="middle" x="733" y="-1547.76" font-family="Times,serif" font-size="14.00">bigWigToBedGraph</text>
</g>
<!-- ClinVar regions with\n min mappability bedGraph -->
<g id="node11" class="node">
<title>ClinVar regions with\n min mappability bedGraph</title>
<ellipse fill="none" stroke="black" cx="517" cy="-920.09" rx="118.59" ry="26.74"/>
<text text-anchor="middle" x="517" y="-923.89" font-family="Times,serif" font-size="14.00">ClinVar regions with</text>
<text text-anchor="middle" x="517" y="-908.89" font-family="Times,serif" font-size="14.00"> min mappability bedGraph</text>
</g>
<!-- bedtools map &#45;o min&#45;&gt;ClinVar regions with\n min mappability bedGraph -->
<g id="edge10" class="edge">
<title>bedtools map &#45;o min&#45;&gt;ClinVar regions with\n min mappability bedGraph</title>
<path fill="none" stroke="black" d="M518.26,-984.06C518.09,-975.37 517.9,-966.11 517.73,-957.44"/>
<polygon fill="black" stroke="black" points="521.22,-957.17 517.52,-947.24 514.22,-957.31 521.22,-957.17"/>
</g>
<!-- ClinVar regions with\n mean mappability bedGraph -->
<g id="node12" class="node">
<title>ClinVar regions with\n mean mappability bedGraph</title>
<ellipse fill="none" stroke="black" cx="233" cy="-920.09" rx="124.4" ry="26.74"/>
<text text-anchor="middle" x="233" y="-923.89" font-family="Times,serif" font-size="14.00">ClinVar regions with</text>
<text text-anchor="middle" x="233" y="-908.89" font-family="Times,serif" font-size="14.00"> mean mappability bedGraph</text>
</g>
<!-- bedtools map &#45;o mean&#45;&gt;ClinVar regions with\n mean mappability bedGraph -->
<g id="edge11" class="edge">
<title>bedtools map &#45;o mean&#45;&gt;ClinVar regions with\n mean mappability bedGraph</title>
<path fill="none" stroke="black" d="M188.43,-988.54C195.5,-977.84 203.38,-965.92 210.52,-955.1"/>
<polygon fill="black" stroke="black" points="213.47,-956.99 216.06,-946.72 207.63,-953.13 213.47,-956.99"/>
</g>
<!-- paste -->
<g id="node13" class="node">
<title>paste</title>
<polygon fill="#d9d9d9" stroke="#d9d9d9" points="515,-856.22 474.61,-838.22 515,-820.22 555.39,-838.22 515,-856.22"/>
<text text-anchor="middle" x="515" y="-834.52" font-family="Times,serif" font-size="14.00">paste</text>
</g>
<!-- ClinVar regions with\n min mappability bedGraph&#45;&gt;paste -->
<g id="edge12" class="edge">
<title>ClinVar regions with\n min mappability bedGraph&#45;&gt;paste</title>
<path fill="none" stroke="black" d="M516.35,-892.94C516.13,-884.49 515.9,-875.11 515.69,-866.58"/>
<polygon fill="black" stroke="black" points="519.18,-866.28 515.43,-856.37 512.18,-866.45 519.18,-866.28"/>
</g>
<!-- ClinVar regions with\n mean mappability bedGraph&#45;&gt;paste -->
<g id="edge14" class="edge">
<title>ClinVar regions with\n mean mappability bedGraph&#45;&gt;paste</title>
<path fill="none" stroke="black" d="M306.36,-898.31C363.16,-882.22 439.17,-860.7 482.01,-848.56"/>
<polygon fill="black" stroke="black" points="482.98,-851.93 491.65,-845.84 481.07,-845.19 482.98,-851.93"/>
</g>
<!-- ClinVar regions with min and\n mean mappability bedGraph -->
<g id="node14" class="node">
<title>ClinVar regions with min and\n mean mappability bedGraph</title>
<ellipse fill="none" stroke="black" cx="515" cy="-756.35" rx="126.64" ry="26.74"/>
<text text-anchor="middle" x="515" y="-760.15" font-family="Times,serif" font-size="14.00">ClinVar regions with min and</text>
<text text-anchor="middle" x="515" y="-745.15" font-family="Times,serif" font-size="14.00"> mean mappability bedGraph</text>
</g>
<!-- paste&#45;&gt;ClinVar regions with min and\n mean mappability bedGraph -->
<g id="edge13" class="edge">
<title>paste&#45;&gt;ClinVar regions with min and\n mean mappability bedGraph</title>
<path fill="none" stroke="black" d="M515,-819.89C515,-812.16 515,-802.74 515,-793.58"/>
<polygon fill="black" stroke="black" points="518.5,-793.45 515,-783.45 511.5,-793.45 518.5,-793.45"/>
</g>
<!-- Mappability Distribution in ClinVar regions -->
<g id="node15" class="node">
<title>Mappability Distribution in ClinVar regions</title>
<polygon fill="gray" stroke="gray" points="795,-678.48 539,-678.48 539,-642.48 795,-642.48 795,-678.48"/>
<text text-anchor="middle" x="667" y="-656.78" font-family="Times,serif" font-size="14.00">Mappability Distribution in ClinVar regions</text>
</g>
<!-- ClinVar regions with min and\n mean mappability bedGraph&#45;&gt;Mappability Distribution in ClinVar regions -->
<g id="edge15" class="edge">
<title>ClinVar regions with min and\n mean mappability bedGraph&#45;&gt;Mappability Distribution in ClinVar regions</title>
<path fill="none" stroke="black" stroke-dasharray="5,2" d="M554.94,-730.69C578.39,-716.2 607.8,-698.04 630.61,-683.95"/>
<polygon fill="black" stroke="black" points="632.64,-686.81 639.31,-678.58 628.97,-680.85 632.64,-686.81"/>
<text text-anchor="middle" x="662" y="-700.28" font-family="Times,serif" font-size="14.00">Display in Tableau</text>
</g>
<!-- awk &#39;$11 &lt;= min_cutoff { print }&#39; -->
<g id="node18" class="node">
<title>awk &#39;$11 &lt;= min_cutoff { print }&#39;</title>
<polygon fill="#d9d9d9" stroke="#d9d9d9" points="511,-500.74 324.32,-482.74 511,-464.74 697.68,-482.74 511,-500.74"/>
<text text-anchor="middle" x="511" y="-479.04" font-family="Times,serif" font-size="14.00">awk &#39;$11 &lt;= min_cutoff { print }&#39;</text>
</g>
<!-- ClinVar regions with min and\n mean mappability bedGraph&#45;&gt;awk &#39;$11 &lt;= min_cutoff { print }&#39; -->
<g id="edge19" class="edge">
<title>ClinVar regions with min and\n mean mappability bedGraph&#45;&gt;awk &#39;$11 &lt;= min_cutoff { print }&#39;</title>
<path fill="none" stroke="black" d="M514.62,-729.31C513.86,-677.86 512.18,-563.66 511.4,-511.14"/>
<polygon fill="black" stroke="black" points="514.9,-510.86 511.25,-500.91 507.9,-510.96 514.9,-510.86"/>
</g>
<!-- low mappability cutoff value\n(min mappability &lt;= 0.01) -->
<g id="node17" class="node">
<title>low mappability cutoff value\n(min mappability &lt;= 0.01)</title>
<ellipse fill="none" stroke="black" cx="667" cy="-564.61" rx="123.99" ry="26.74"/>
<text text-anchor="middle" x="667" y="-568.41" font-family="Times,serif" font-size="14.00">low mappability cutoff value</text>
<text text-anchor="middle" x="667" y="-553.41" font-family="Times,serif" font-size="14.00">(min mappability &lt;= 0.01)</text>
</g>
<!-- Mappability Distribution in ClinVar regions&#45;&gt;low mappability cutoff value\n(min mappability &lt;= 0.01) -->
<g id="edge16" class="edge">
<title>Mappability Distribution in ClinVar regions&#45;&gt;low mappability cutoff value\n(min mappability &lt;= 0.01)</title>
<path fill="none" stroke="black" stroke-dasharray="5,2" d="M667,-642.26C667,-630.96 667,-615.75 667,-601.86"/>
<polygon fill="black" stroke="black" points="670.5,-601.58 667,-591.58 663.5,-601.58 670.5,-601.58"/>
<text text-anchor="middle" x="724.5" y="-613.28" font-family="Times,serif" font-size="14.00">Examine distribution</text>
</g>
<!-- Examine Data -->
<!-- low mappability cutoff value\n(min mappability &lt;= 0.01)&#45;&gt;awk &#39;$11 &lt;= min_cutoff { print }&#39; -->
<g id="edge17" class="edge">
<title>low mappability cutoff value\n(min mappability &lt;= 0.01)&#45;&gt;awk &#39;$11 &lt;= min_cutoff { print }&#39;</title>
<path fill="none" stroke="black" d="M620.19,-539.65C597.21,-527.88 569.9,-513.9 548.34,-502.86"/>
<polygon fill="black" stroke="black" points="549.68,-499.61 539.18,-498.17 546.49,-505.84 549.68,-499.61"/>
</g>
<!-- low mappability cutoff value\n(min mappability &lt;= 0.01)&#45;&gt;awk_again -->
<g id="edge28" class="edge">
<title>low mappability cutoff value\n(min mappability &lt;= 0.01)&#45;&gt;awk_again</title>
<path fill="none" stroke="black" d="M724.61,-540.83C756.88,-528.07 796.45,-512.43 826,-500.74"/>
<polygon fill="black" stroke="black" points="827.59,-503.88 835.61,-496.94 825.02,-497.37 827.59,-503.88"/>
</g>
<!-- low mappability ClinVar regions -->
<g id="node19" class="node">
<title>low mappability ClinVar regions</title>
<ellipse fill="none" stroke="black" cx="511" cy="-409.74" rx="126.98" ry="18"/>
<text text-anchor="middle" x="511" y="-406.04" font-family="Times,serif" font-size="14.00">low mappability ClinVar regions</text>
</g>
<!-- awk &#39;$11 &lt;= min_cutoff { print }&#39;&#45;&gt;low mappability ClinVar regions -->
<g id="edge18" class="edge">
<title>awk &#39;$11 &lt;= min_cutoff { print }&#39;&#45;&gt;low mappability ClinVar regions</title>
<path fill="none" stroke="black" d="M511,-464.55C511,-456.53 511,-446.79 511,-437.81"/>
<polygon fill="black" stroke="black" points="514.5,-437.77 511,-427.77 507.5,-437.77 514.5,-437.77"/>
</g>
<!-- sorted low mappability ClinVar regions -->
<g id="node20" class="node">
<title>sorted low mappability ClinVar regions</title>
<ellipse fill="none" stroke="black" cx="511" cy="-322.74" rx="150.57" ry="18"/>
<text text-anchor="middle" x="511" y="-319.04" font-family="Times,serif" font-size="14.00">sorted low mappability ClinVar regions</text>
</g>
<!-- low mappability ClinVar regions&#45;&gt;sorted low mappability ClinVar regions -->
<g id="edge20" class="edge">
<title>low mappability ClinVar regions&#45;&gt;sorted low mappability ClinVar regions</title>
<path fill="none" stroke="black" d="M511,-391.54C511,-379.9 511,-364.29 511,-350.98"/>
<polygon fill="black" stroke="black" points="514.5,-350.92 511,-340.92 507.5,-350.92 514.5,-350.92"/>
<text text-anchor="middle" x="557" y="-362.54" font-family="Times,serif" font-size="14.00">sort &#45;k1,1 &#45;k2,2n</text>
</g>
<!-- BAM_PROC_2 -->
<!-- sorted low mappability ClinVar regions&#45;&gt;BAM_PROC_2 -->
<g id="edge21" class="edge">
<title>sorted low mappability ClinVar regions&#45;&gt;BAM_PROC_2</title>
<path fill="none" stroke="black" stroke-dasharray="1,5" d="M510.5,-304.4C510.03,-287.96 509.32,-263.02 508.78,-243.93"/>
<polygon fill="black" stroke="black" points="512.27,-243.65 508.49,-233.76 505.27,-243.85 512.27,-243.65"/>
<text text-anchor="middle" x="564" y="-275.54" font-family="Times,serif" font-size="14.00">to BAM processing</text>
</g>
<!-- bedtools intersect &#45;u_0 -->
<g id="node29" class="node">
<title>bedtools intersect &#45;u_0</title>
<polygon fill="#d9d9d9" stroke="#d9d9d9" points="869,-253.74 594,-215.74 869,-177.74 1144,-215.74 869,-253.74"/>
<text text-anchor="middle" x="869" y="-219.54" font-family="Times,serif" font-size="14.00">bedtools intersect &#45;sorted </text>
<text text-anchor="middle" x="869" y="-204.54" font-family="Times,serif" font-size="14.00">&#45;a &lt;low map. regions&gt; &#45;b &lt;ClinVar low map.&gt;</text>
</g>
<!-- sorted low mappability ClinVar regions&#45;&gt;bedtools intersect &#45;u_0 -->
<g id="edge35" class="edge">
<title>sorted low mappability ClinVar regions&#45;&gt;bedtools intersect &#45;u_0</title>
<path fill="none" stroke="black" d="M564.98,-305.91C620.09,-289.74 706.78,-264.32 773.51,-244.75"/>
<polygon fill="black" stroke="black" points="774.59,-248.08 783.2,-241.9 772.62,-241.36 774.59,-248.08"/>
<text text-anchor="middle" x="729" y="-275.54" font-family="Times,serif" font-size="14.00">ClinVar low map.</text>
</g>
<!-- 0 mappability regions BED -->
<g id="node23" class="node">
<title>0 mappability regions BED</title>
<ellipse fill="none" stroke="black" cx="830" cy="-1361.96" rx="108.58" ry="18"/>
<text text-anchor="middle" x="830" y="-1358.26" font-family="Times,serif" font-size="14.00">0 mappability regions BED</text>
</g>
<!-- bedtools complement&#45;&gt;0 mappability regions BED -->
<g id="edge23" class="edge">
<title>bedtools complement&#45;&gt;0 mappability regions BED</title>
<path fill="none" stroke="black" d="M830,-1416.77C830,-1408.75 830,-1399.01 830,-1390.03"/>
<polygon fill="black" stroke="black" points="833.5,-1389.99 830,-1379.99 826.5,-1389.99 833.5,-1389.99"/>
</g>
<!-- 0 mappability regions BED&#45;&gt;0 mappability regions bedGraph -->
<g id="edge30" class="edge">
<title>0 mappability regions BED&#45;&gt;0 mappability regions bedGraph</title>
<path fill="none" stroke="black" d="M830,-1343.76C830,-1332.12 830,-1316.51 830,-1303.2"/>
<polygon fill="black" stroke="black" points="833.5,-1303.14 830,-1293.14 826.5,-1303.14 833.5,-1303.14"/>
<text text-anchor="middle" x="890.5" y="-1314.76" font-family="Times,serif" font-size="14.00">awk &#39;{ print $0&quot;\t&quot;0 }&#39;</text>
</g>
<!-- grch38 .genome file -->
<g id="node25" class="node">
<title>grch38 .genome file</title>
<ellipse fill="none" stroke="black" cx="852" cy="-1507.96" rx="81.79" ry="18"/>
<text text-anchor="middle" x="852" y="-1504.26" font-family="Times,serif" font-size="14.00">grch38 .genome file</text>
</g>
<!-- grch38 .fai file&#45;&gt;grch38 .genome file -->
<g id="edge25" class="edge">
<title>grch38 .fai file&#45;&gt;grch38 .genome file</title>
<path fill="none" stroke="black" d="M852,-1576.76C852,-1565.12 852,-1549.51 852,-1536.2"/>
<polygon fill="black" stroke="black" points="855.5,-1536.14 852,-1526.14 848.5,-1536.14 855.5,-1536.14"/>
<text text-anchor="middle" x="877.5" y="-1547.76" font-family="Times,serif" font-size="14.00">cut &#45;f 1,2</text>
</g>
<!-- grch38 .genome file&#45;&gt;bedtools complement -->
<g id="edge26" class="edge">
<title>grch38 .genome file&#45;&gt;bedtools complement</title>
<path fill="none" stroke="black" d="M846.67,-1489.77C844.12,-1481.54 841.01,-1471.51 838.17,-1462.34"/>
<polygon fill="black" stroke="black" points="841.43,-1461.02 835.13,-1452.5 834.74,-1463.09 841.43,-1461.02"/>
</g>
<!-- &lt;=0.01 mappability regions bedGraph -->
<g id="node27" class="node">
<title>&lt;=0.01 mappability regions bedGraph</title>
<ellipse fill="none" stroke="black" cx="869" cy="-409.74" rx="147.57" ry="18"/>
<text text-anchor="middle" x="869" y="-406.04" font-family="Times,serif" font-size="14.00">&lt;=0.01 mappability regions bedGraph</text>
</g>
<!-- awk_again&#45;&gt;&lt;=0.01 mappability regions bedGraph -->
<g id="edge29" class="edge">
<title>awk_again&#45;&gt;&lt;=0.01 mappability regions bedGraph</title>
<path fill="none" stroke="black" d="M869,-464.55C869,-456.53 869,-446.79 869,-437.81"/>
<polygon fill="black" stroke="black" points="872.5,-437.77 869,-427.77 865.5,-437.77 872.5,-437.77"/>
</g>
<!-- sorted low mappability regions -->
<g id="node28" class="node">
<title>sorted low mappability regions</title>
<ellipse fill="none" stroke="black" cx="869" cy="-322.74" rx="120.78" ry="18"/>
<text text-anchor="middle" x="869" y="-319.04" font-family="Times,serif" font-size="14.00">sorted low mappability regions</text>
</g>
<!-- &lt;=0.01 mappability regions bedGraph&#45;&gt;sorted low mappability regions -->
<g id="edge31" class="edge">
<title>&lt;=0.01 mappability regions bedGraph&#45;&gt;sorted low mappability regions</title>
<path fill="none" stroke="black" d="M869,-391.54C869,-379.9 869,-364.29 869,-350.98"/>
<polygon fill="black" stroke="black" points="872.5,-350.92 869,-340.92 865.5,-350.92 872.5,-350.92"/>
<text text-anchor="middle" x="915" y="-362.54" font-family="Times,serif" font-size="14.00">sort &#45;k1,1 &#45;k2,2n</text>
</g>
<!-- sorted low mappability regions&#45;&gt;bedtools intersect &#45;u_0 -->
<g id="edge32" class="edge">
<title>sorted low mappability regions&#45;&gt;bedtools intersect &#45;u_0</title>
<path fill="none" stroke="black" d="M869,-304.4C869,-293.43 869,-278.68 869,-264.4"/>
<polygon fill="black" stroke="black" points="872.5,-264.15 869,-254.15 865.5,-264.15 872.5,-264.15"/>
<text text-anchor="middle" x="917" y="-275.54" font-family="Times,serif" font-size="14.00">low map. regions</text>
</g>
<!-- sorted low mappability regions\nin ClinVar annotations -->
<g id="node30" class="node">
<title>sorted low mappability regions\nin ClinVar annotations</title>
<ellipse fill="none" stroke="black" cx="869" cy="-113.87" rx="131.54" ry="26.74"/>
<text text-anchor="middle" x="869" y="-117.67" font-family="Times,serif" font-size="14.00">sorted low mappability regions</text>
<text text-anchor="middle" x="869" y="-102.67" font-family="Times,serif" font-size="14.00">in ClinVar annotations</text>
</g>
<!-- bedtools intersect &#45;u_0&#45;&gt;sorted low mappability regions\nin ClinVar annotations -->
<g id="edge33" class="edge">
<title>bedtools intersect &#45;u_0&#45;&gt;sorted low mappability regions\nin ClinVar annotations</title>
<path fill="none" stroke="black" d="M869,-177.55C869,-168.88 869,-159.65 869,-151.03"/>
<polygon fill="black" stroke="black" points="872.5,-150.87 869,-140.87 865.5,-150.87 872.5,-150.87"/>
</g>
<!-- BAM_PROC_3 -->
<!-- sorted low mappability regions\nin ClinVar annotations&#45;&gt;BAM_PROC_3 -->
<g id="edge34" class="edge">
<title>sorted low mappability regions\nin ClinVar annotations&#45;&gt;BAM_PROC_3</title>
<path fill="none" stroke="black" stroke-dasharray="1,5" d="M869,-86.97C869,-74.34 869,-59.14 869,-46.32"/>
<polygon fill="black" stroke="black" points="872.5,-46.22 869,-36.22 865.5,-46.22 872.5,-46.22"/>
<text text-anchor="middle" x="923" y="-57.8" font-family="Times,serif" font-size="14.00">to BAM processing</text>
</g>
</g>
</svg>
