<?xml version="1.0" encoding="UTF-8" standalone="no"?>
<!DOCTYPE svg PUBLIC "-//W3C//DTD SVG 1.1//EN"
 "http://www.w3.org/Graphics/SVG/1.1/DTD/svg11.dtd">
<!-- Generated by graphviz version 2.47.3 (20210619.1520)
 -->
<!-- Title: workflow Pages: 1 -->
<svg width="4166pt" height="982pt"
 viewBox="0.00 0.00 4166.47 982.48" xmlns="http://www.w3.org/2000/svg" xmlns:xlink="http://www.w3.org/1999/xlink">
<g id="graph0" class="graph" transform="scale(1 1) rotate(0) translate(4 978.48)">
<title>workflow</title>
<polygon fill="white" stroke="transparent" points="-4,4 -4,-978.48 4162.47,-978.48 4162.47,4 -4,4"/>
<!-- BAMPROC_1a -->
<!-- unfiltered methyl calls bedGraph -->
<g id="node2" class="node">
<title>unfiltered methyl calls bedGraph</title>
<ellipse fill="none" stroke="black" cx="1349.99" cy="-869.48" rx="127.28" ry="18"/>
<text text-anchor="middle" x="1349.99" y="-865.78" font-family="Times,serif" font-size="14.00">unfiltered methyl calls bedGraph</text>
</g>
<!-- BAMPROC_1a&#45;&gt;unfiltered methyl calls bedGraph -->
<g id="edge1" class="edge">
<title>BAMPROC_1a&#45;&gt;unfiltered methyl calls bedGraph</title>
<path fill="none" stroke="black" stroke-dasharray="1,5" d="M1349.99,-938.28C1349.99,-926.64 1349.99,-911.03 1349.99,-897.72"/>
<polygon fill="black" stroke="black" points="1353.49,-897.66 1349.99,-887.66 1346.49,-897.66 1353.49,-897.66"/>
<text text-anchor="middle" x="1411.99" y="-909.28" font-family="Times,serif" font-size="14.00">from BAM processing</text>
</g>
<!-- bedtools intersect &#45;v_1 -->
<g id="node25" class="node">
<title>bedtools intersect &#45;v_1</title>
<polygon fill="#d9d9d9" stroke="#d9d9d9" points="1504.99,-800.48 1285.99,-762.48 1504.99,-724.48 1723.99,-762.48 1504.99,-800.48"/>
<text text-anchor="middle" x="1504.99" y="-766.28" font-family="Times,serif" font-size="14.00">bedtools intersect &#45;sorted &#45;v </text>
<text text-anchor="middle" x="1504.99" y="-751.28" font-family="Times,serif" font-size="14.00">&#45;a &lt;unfilt.&gt; &#45;b &lt;filt.&gt; | cut &#45;f 1&#45;10,12</text>
</g>
<!-- unfiltered methyl calls bedGraph&#45;&gt;bedtools intersect &#45;v_1 -->
<g id="edge13" class="edge">
<title>unfiltered methyl calls bedGraph&#45;&gt;bedtools intersect &#45;v_1</title>
<path fill="none" stroke="black" d="M1374.89,-851.61C1395.9,-837.38 1426.66,-816.54 1453,-798.7"/>
<polygon fill="black" stroke="black" points="1455.06,-801.53 1461.38,-793.03 1451.13,-795.74 1455.06,-801.53"/>
<text text-anchor="middle" x="1448.99" y="-822.28" font-family="Times,serif" font-size="14.00">unfiltered</text>
</g>
<!-- BAMPROC_2a -->
<!-- unfiltered clinvar methylation call data -->
<g id="node4" class="node">
<title>unfiltered clinvar methylation call data</title>
<ellipse fill="none" stroke="black" cx="2824.99" cy="-869.48" rx="148.37" ry="18"/>
<text text-anchor="middle" x="2824.99" y="-865.78" font-family="Times,serif" font-size="14.00">unfiltered clinvar methylation call data</text>
</g>
<!-- BAMPROC_2a&#45;&gt;unfiltered clinvar methylation call data -->
<g id="edge2" class="edge">
<title>BAMPROC_2a&#45;&gt;unfiltered clinvar methylation call data</title>
<path fill="none" stroke="black" stroke-dasharray="1,5" d="M2824.99,-938.28C2824.99,-926.64 2824.99,-911.03 2824.99,-897.72"/>
<polygon fill="black" stroke="black" points="2828.49,-897.66 2824.99,-887.66 2821.49,-897.66 2828.49,-897.66"/>
<text text-anchor="middle" x="2886.99" y="-909.28" font-family="Times,serif" font-size="14.00">from BAM processing</text>
</g>
<!-- bedtools intersect &#45;v_2 -->
<g id="node26" class="node">
<title>bedtools intersect &#45;v_2</title>
<polygon fill="#d9d9d9" stroke="#d9d9d9" points="3035.99,-800.48 2816.99,-762.48 3035.99,-724.48 3254.99,-762.48 3035.99,-800.48"/>
<text text-anchor="middle" x="3035.99" y="-766.28" font-family="Times,serif" font-size="14.00">bedtools intersect &#45;sorted &#45;v </text>
<text text-anchor="middle" x="3035.99" y="-751.28" font-family="Times,serif" font-size="14.00">&#45;a &lt;unfilt.&gt; &#45;b &lt;filt.&gt; | cut &#45;f 1&#45;10,12</text>
</g>
<!-- unfiltered clinvar methylation call data&#45;&gt;bedtools intersect &#45;v_2 -->
<g id="edge15" class="edge">
<title>unfiltered clinvar methylation call data&#45;&gt;bedtools intersect &#45;v_2</title>
<path fill="none" stroke="black" d="M2858.42,-851.84C2888.63,-836.81 2933.94,-814.26 2971.23,-795.71"/>
<polygon fill="black" stroke="black" points="2973.13,-798.67 2980.52,-791.08 2970.01,-792.4 2973.13,-798.67"/>
<text text-anchor="middle" x="2950.99" y="-822.28" font-family="Times,serif" font-size="14.00">unfiltered</text>
</g>
<!-- BAMPROC_4a -->
<!-- unfiltered mixed methylation calls -->
<g id="node6" class="node">
<title>unfiltered mixed methylation calls</title>
<ellipse fill="none" stroke="black" cx="384.99" cy="-869.48" rx="132.68" ry="18"/>
<text text-anchor="middle" x="384.99" y="-865.78" font-family="Times,serif" font-size="14.00">unfiltered mixed methylation calls</text>
</g>
<!-- BAMPROC_4a&#45;&gt;unfiltered mixed methylation calls -->
<g id="edge3" class="edge">
<title>BAMPROC_4a&#45;&gt;unfiltered mixed methylation calls</title>
<path fill="none" stroke="black" stroke-dasharray="1,5" d="M384.99,-938.28C384.99,-926.64 384.99,-911.03 384.99,-897.72"/>
<polygon fill="black" stroke="black" points="388.49,-897.66 384.99,-887.66 381.49,-897.66 388.49,-897.66"/>
<text text-anchor="middle" x="446.99" y="-909.28" font-family="Times,serif" font-size="14.00">from BAM processing</text>
</g>
<!-- bedtools intersect &#45;wa_wb_3 -->
<g id="node27" class="node">
<title>bedtools intersect &#45;wa_wb_3</title>
<polygon fill="#d9d9d9" stroke="#d9d9d9" points="301.99,-800.48 1.99,-762.48 301.99,-724.48 601.99,-762.48 301.99,-800.48"/>
<text text-anchor="middle" x="301.99" y="-766.28" font-family="Times,serif" font-size="14.00">bedtools intersect &#45;sorted &#45;wa &#45;wb</text>
<text text-anchor="middle" x="301.99" y="-751.28" font-family="Times,serif" font-size="14.00"> &#45;a &lt;unfilt. mixed&gt; &#45;b &lt;filt. pure&gt; | cut &#45;f 1&#45;6,16&#45;24</text>
</g>
<!-- unfiltered mixed methylation calls&#45;&gt;bedtools intersect &#45;wa_wb_3 -->
<g id="edge17" class="edge">
<title>unfiltered mixed methylation calls&#45;&gt;bedtools intersect &#45;wa_wb_3</title>
<path fill="none" stroke="black" d="M371.28,-851.14C361.48,-838.74 347.85,-821.5 335.27,-805.58"/>
<polygon fill="black" stroke="black" points="337.76,-803.09 328.81,-797.41 332.27,-807.43 337.76,-803.09"/>
<text text-anchor="middle" x="381.99" y="-822.28" font-family="Times,serif" font-size="14.00">unfiltered</text>
</g>
<!-- BAMPROC_5 -->
<!-- ClinVar regions -->
<g id="node8" class="node">
<title>ClinVar regions</title>
<ellipse fill="none" stroke="black" cx="824.99" cy="-655.48" rx="66.09" ry="18"/>
<text text-anchor="middle" x="824.99" y="-651.78" font-family="Times,serif" font-size="14.00">ClinVar regions</text>
</g>
<!-- BAMPROC_5&#45;&gt;ClinVar regions -->
<g id="edge4" class="edge">
<title>BAMPROC_5&#45;&gt;ClinVar regions</title>
<path fill="none" stroke="black" stroke-dasharray="1,5" d="M824.99,-744.14C824.99,-727.7 824.99,-702.76 824.99,-683.67"/>
<polygon fill="black" stroke="black" points="828.49,-683.5 824.99,-673.5 821.49,-683.5 828.49,-683.5"/>
<text text-anchor="middle" x="877.99" y="-695.28" font-family="Times,serif" font-size="14.00">from preprocessing</text>
</g>
<!-- bedtools intersect &#45;wa_4 -->
<g id="node28" class="node">
<title>bedtools intersect &#45;wa_4</title>
<polygon fill="#d9d9d9" stroke="#d9d9d9" points="649.99,-586.48 468.99,-548.48 649.99,-510.48 830.99,-548.48 649.99,-586.48"/>
<text text-anchor="middle" x="649.99" y="-552.28" font-family="Times,serif" font-size="14.00">bedtools intersect &#45;wa &#45;sorted </text>
<text text-anchor="middle" x="649.99" y="-537.28" font-family="Times,serif" font-size="14.00">&#45;a &lt;clinvar&gt; &#45;b &lt;miscalls&gt;</text>
</g>
<!-- ClinVar regions&#45;&gt;bedtools intersect &#45;wa_4 -->
<g id="edge40" class="edge">
<title>ClinVar regions&#45;&gt;bedtools intersect &#45;wa_4</title>
<path fill="none" stroke="black" d="M798.79,-638.76C773.95,-623.86 735.87,-601.01 704.45,-582.15"/>
<polygon fill="black" stroke="black" points="706.15,-579.1 695.78,-576.95 702.55,-585.1 706.15,-579.1"/>
<text text-anchor="middle" x="782.99" y="-608.28" font-family="Times,serif" font-size="14.00">clinvar</text>
</g>
<!-- bedtools intersect &#45;wa_5 -->
<g id="node29" class="node">
<title>bedtools intersect &#45;wa_5</title>
<polygon fill="#d9d9d9" stroke="#d9d9d9" points="1050.99,-586.48 869.99,-548.48 1050.99,-510.48 1231.99,-548.48 1050.99,-586.48"/>
<text text-anchor="middle" x="1050.99" y="-552.28" font-family="Times,serif" font-size="14.00">bedtools intersect &#45;wa &#45;sorted </text>
<text text-anchor="middle" x="1050.99" y="-537.28" font-family="Times,serif" font-size="14.00">&#45;a &lt;clinvar&gt; &#45;b &lt;miscalls&gt;</text>
</g>
<!-- ClinVar regions&#45;&gt;bedtools intersect &#45;wa_5 -->
<g id="edge30" class="edge">
<title>ClinVar regions&#45;&gt;bedtools intersect &#45;wa_5</title>
<path fill="none" stroke="black" d="M856.89,-639.66C890.44,-624.07 944.16,-599.11 986.59,-579.4"/>
<polygon fill="black" stroke="black" points="988.14,-582.54 995.73,-575.15 985.19,-576.19 988.14,-582.54"/>
<text text-anchor="middle" x="950.99" y="-608.28" font-family="Times,serif" font-size="14.00">clinvar</text>
</g>
<!-- BAMPROC_6 -->
<!-- low map. ClinVar regions -->
<g id="node10" class="node">
<title>low map. ClinVar regions</title>
<ellipse fill="none" stroke="black" cx="2212.99" cy="-432.61" rx="102.88" ry="18"/>
<text text-anchor="middle" x="2212.99" y="-428.91" font-family="Times,serif" font-size="14.00">low map. ClinVar regions</text>
</g>
<!-- BAMPROC_6&#45;&gt;low map. ClinVar regions -->
<g id="edge5" class="edge">
<title>BAMPROC_6&#45;&gt;low map. ClinVar regions</title>
<path fill="none" stroke="black" stroke-dasharray="1,5" d="M2212.99,-530.19C2212.99,-511.77 2212.99,-482.37 2212.99,-460.84"/>
<polygon fill="black" stroke="black" points="2216.49,-460.69 2212.99,-450.69 2209.49,-460.69 2216.49,-460.69"/>
<text text-anchor="middle" x="2265.99" y="-481.28" font-family="Times,serif" font-size="14.00">from preprocessing</text>
</g>
<!-- bedtools intersect &#45;wa_6 -->
<g id="node30" class="node">
<title>bedtools intersect &#45;wa_6</title>
<polygon fill="#d9d9d9" stroke="#d9d9d9" points="2238.99,-354.74 2057.99,-316.74 2238.99,-278.74 2419.99,-316.74 2238.99,-354.74"/>
<text text-anchor="middle" x="2238.99" y="-320.54" font-family="Times,serif" font-size="14.00">bedtools intersect &#45;wa &#45;sorted </text>
<text text-anchor="middle" x="2238.99" y="-305.54" font-family="Times,serif" font-size="14.00">&#45;a &lt;clinvar&gt; &#45;b &lt;miscalls&gt;</text>
</g>
<!-- low map. ClinVar regions&#45;&gt;bedtools intersect &#45;wa_6 -->
<g id="edge31" class="edge">
<title>low map. ClinVar regions&#45;&gt;bedtools intersect &#45;wa_6</title>
<path fill="none" stroke="black" d="M2216.94,-414.32C2220.05,-400.67 2224.55,-380.98 2228.67,-362.94"/>
<polygon fill="black" stroke="black" points="2232.09,-363.67 2230.91,-353.14 2225.27,-362.11 2232.09,-363.67"/>
<text text-anchor="middle" x="2244.99" y="-376.54" font-family="Times,serif" font-size="14.00">clinvar</text>
</g>
<!-- BAMPROC_7a -->
<!-- unfiltered low map. methylation call data -->
<g id="node12" class="node">
<title>unfiltered low map. methylation call data</title>
<ellipse fill="none" stroke="black" cx="2069.99" cy="-655.48" rx="157.07" ry="18"/>
<text text-anchor="middle" x="2069.99" y="-651.78" font-family="Times,serif" font-size="14.00">unfiltered low map. methylation call data</text>
</g>
<!-- BAMPROC_7a&#45;&gt;unfiltered low map. methylation call data -->
<g id="edge6" class="edge">
<title>BAMPROC_7a&#45;&gt;unfiltered low map. methylation call data</title>
<path fill="none" stroke="black" stroke-dasharray="1,5" d="M2069.99,-744.14C2069.99,-727.7 2069.99,-702.76 2069.99,-683.67"/>
<polygon fill="black" stroke="black" points="2073.49,-683.5 2069.99,-673.5 2066.49,-683.5 2073.49,-683.5"/>
<text text-anchor="middle" x="2131.99" y="-695.28" font-family="Times,serif" font-size="14.00">from BAM processing</text>
</g>
<!-- bedtools intersect &#45;v_7 -->
<g id="node31" class="node">
<title>bedtools intersect &#45;v_7</title>
<polygon fill="#d9d9d9" stroke="#d9d9d9" points="2512.99,-586.48 2293.99,-548.48 2512.99,-510.48 2731.99,-548.48 2512.99,-586.48"/>
<text text-anchor="middle" x="2512.99" y="-552.28" font-family="Times,serif" font-size="14.00">bedtools intersect &#45;sorted &#45;v </text>
<text text-anchor="middle" x="2512.99" y="-537.28" font-family="Times,serif" font-size="14.00">&#45;a &lt;unfilt.&gt; &#45;b &lt;filt.&gt; | cut &#45;f 1&#45;10,12</text>
</g>
<!-- unfiltered low map. methylation call data&#45;&gt;bedtools intersect &#45;v_7 -->
<g id="edge19" class="edge">
<title>unfiltered low map. methylation call data&#45;&gt;bedtools intersect &#45;v_7</title>
<path fill="none" stroke="black" d="M2135.36,-638.99C2208.51,-621.65 2327.91,-593.35 2412.85,-573.21"/>
<polygon fill="black" stroke="black" points="2413.85,-576.58 2422.77,-570.86 2412.24,-569.76 2413.85,-576.58"/>
<text text-anchor="middle" x="2304.99" y="-608.28" font-family="Times,serif" font-size="14.00">unfiltered</text>
</g>
<!-- bedtools intersect &#45;v_9 -->
<g id="node33" class="node">
<title>bedtools intersect &#45;v_9</title>
<polygon fill="#d9d9d9" stroke="#d9d9d9" points="1949.99,-586.48 1777.99,-548.48 1949.99,-510.48 2121.99,-548.48 1949.99,-586.48"/>
<text text-anchor="middle" x="1949.99" y="-552.28" font-family="Times,serif" font-size="14.00">bedtools intersect &#45;sorted &#45;v </text>
<text text-anchor="middle" x="1949.99" y="-537.28" font-family="Times,serif" font-size="14.00">&#45;a &lt;unfilt.&gt; &#45;b &lt;filt.&gt;</text>
</g>
<!-- unfiltered low map. methylation call data&#45;&gt;bedtools intersect &#45;v_9 -->
<g id="edge37" class="edge">
<title>unfiltered low map. methylation call data&#45;&gt;bedtools intersect &#45;v_9</title>
<path fill="none" stroke="black" d="M2050.71,-637.61C2034.73,-623.63 2011.46,-603.26 1991.3,-585.63"/>
<polygon fill="black" stroke="black" points="1993.59,-582.98 1983.76,-579.03 1988.98,-588.24 1993.59,-582.98"/>
<text text-anchor="middle" x="2053.99" y="-608.28" font-family="Times,serif" font-size="14.00">unfiltered</text>
</g>
<!-- BAMPROC_8a -->
<!-- unfiltered low map. clinvar methylation call data -->
<g id="node14" class="node">
<title>unfiltered low map. clinvar methylation call data</title>
<ellipse fill="none" stroke="black" cx="3604.99" cy="-869.48" rx="184.67" ry="18"/>
<text text-anchor="middle" x="3604.99" y="-865.78" font-family="Times,serif" font-size="14.00">unfiltered low map. clinvar methylation call data</text>
</g>
<!-- BAMPROC_8a&#45;&gt;unfiltered low map. clinvar methylation call data -->
<g id="edge7" class="edge">
<title>BAMPROC_8a&#45;&gt;unfiltered low map. clinvar methylation call data</title>
<path fill="none" stroke="black" stroke-dasharray="1,5" d="M3604.99,-938.28C3604.99,-926.64 3604.99,-911.03 3604.99,-897.72"/>
<polygon fill="black" stroke="black" points="3608.49,-897.66 3604.99,-887.66 3601.49,-897.66 3608.49,-897.66"/>
<text text-anchor="middle" x="3666.99" y="-909.28" font-family="Times,serif" font-size="14.00">from BAM processing</text>
</g>
<!-- bedtools intersect &#45;v_8 -->
<g id="node32" class="node">
<title>bedtools intersect &#45;v_8</title>
<polygon fill="#d9d9d9" stroke="#d9d9d9" points="3716.99,-800.48 3497.99,-762.48 3716.99,-724.48 3935.99,-762.48 3716.99,-800.48"/>
<text text-anchor="middle" x="3716.99" y="-766.28" font-family="Times,serif" font-size="14.00">bedtools intersect &#45;sorted &#45;v </text>
<text text-anchor="middle" x="3716.99" y="-751.28" font-family="Times,serif" font-size="14.00">&#45;a &lt;unfilt.&gt; &#45;b &lt;filt.&gt; | cut &#45;f 1&#45;10,12</text>
</g>
<!-- unfiltered low map. clinvar methylation call data&#45;&gt;bedtools intersect &#45;v_8 -->
<g id="edge21" class="edge">
<title>unfiltered low map. clinvar methylation call data&#45;&gt;bedtools intersect &#45;v_8</title>
<path fill="none" stroke="black" d="M3623.48,-851.14C3637.73,-837.79 3657.96,-818.82 3675.97,-801.94"/>
<polygon fill="black" stroke="black" points="3678.62,-804.25 3683.52,-794.85 3673.83,-799.14 3678.62,-804.25"/>
<text text-anchor="middle" x="3683.99" y="-822.28" font-family="Times,serif" font-size="14.00">unfiltered</text>
</g>
<!-- BAMPROC_1b -->
<!-- filtered methyl calls bedGraph -->
<g id="node16" class="node">
<title>filtered methyl calls bedGraph</title>
<ellipse fill="none" stroke="black" cx="1613.99" cy="-869.48" rx="118.08" ry="18"/>
<text text-anchor="middle" x="1613.99" y="-865.78" font-family="Times,serif" font-size="14.00">filtered methyl calls bedGraph</text>
</g>
<!-- BAMPROC_1b&#45;&gt;filtered methyl calls bedGraph -->
<g id="edge8" class="edge">
<title>BAMPROC_1b&#45;&gt;filtered methyl calls bedGraph</title>
<path fill="none" stroke="black" stroke-dasharray="1,5" d="M1613.99,-938.28C1613.99,-926.64 1613.99,-911.03 1613.99,-897.72"/>
<polygon fill="black" stroke="black" points="1617.49,-897.66 1613.99,-887.66 1610.49,-897.66 1617.49,-897.66"/>
<text text-anchor="middle" x="1675.99" y="-909.28" font-family="Times,serif" font-size="14.00">from BAM processing</text>
</g>
<!-- filtered methyl calls bedGraph&#45;&gt;bedtools intersect &#45;v_1 -->
<g id="edge14" class="edge">
<title>filtered methyl calls bedGraph&#45;&gt;bedtools intersect &#45;v_1</title>
<path fill="none" stroke="black" d="M1596.48,-851.61C1582.68,-838.32 1562.9,-819.26 1545.25,-802.27"/>
<polygon fill="black" stroke="black" points="1547.48,-799.55 1537.85,-795.13 1542.62,-804.59 1547.48,-799.55"/>
<text text-anchor="middle" x="1595.49" y="-822.28" font-family="Times,serif" font-size="14.00">filtered</text>
</g>
<!-- BAMPROC_2b -->
<!-- filtered clinvar methylation call data -->
<g id="node18" class="node">
<title>filtered clinvar methylation call data</title>
<ellipse fill="none" stroke="black" cx="3130.99" cy="-869.48" rx="139.98" ry="18"/>
<text text-anchor="middle" x="3130.99" y="-865.78" font-family="Times,serif" font-size="14.00">filtered clinvar methylation call data</text>
</g>
<!-- BAMPROC_2b&#45;&gt;filtered clinvar methylation call data -->
<g id="edge9" class="edge">
<title>BAMPROC_2b&#45;&gt;filtered clinvar methylation call data</title>
<path fill="none" stroke="black" stroke-dasharray="1,5" d="M3130.99,-938.28C3130.99,-926.64 3130.99,-911.03 3130.99,-897.72"/>
<polygon fill="black" stroke="black" points="3134.49,-897.66 3130.99,-887.66 3127.49,-897.66 3134.49,-897.66"/>
<text text-anchor="middle" x="3192.99" y="-909.28" font-family="Times,serif" font-size="14.00">from BAM processing</text>
</g>
<!-- filtered clinvar methylation call data&#45;&gt;bedtools intersect &#45;v_2 -->
<g id="edge16" class="edge">
<title>filtered clinvar methylation call data&#45;&gt;bedtools intersect &#45;v_2</title>
<path fill="none" stroke="black" d="M3115.3,-851.14C3103.51,-838.11 3086.88,-819.73 3071.89,-803.16"/>
<polygon fill="black" stroke="black" points="3074.45,-800.77 3065.14,-795.7 3069.26,-805.47 3074.45,-800.77"/>
<text text-anchor="middle" x="3117.49" y="-822.28" font-family="Times,serif" font-size="14.00">filtered</text>
</g>
<!-- BAMPROC_3b -->
<!-- filtered pure methylation calls -->
<g id="node20" class="node">
<title>filtered pure methylation calls</title>
<ellipse fill="none" stroke="black" cx="116.99" cy="-869.48" rx="116.98" ry="18"/>
<text text-anchor="middle" x="116.99" y="-865.78" font-family="Times,serif" font-size="14.00">filtered pure methylation calls</text>
</g>
<!-- BAMPROC_3b&#45;&gt;filtered pure methylation calls -->
<g id="edge10" class="edge">
<title>BAMPROC_3b&#45;&gt;filtered pure methylation calls</title>
<path fill="none" stroke="black" stroke-dasharray="1,5" d="M116.99,-938.28C116.99,-926.64 116.99,-911.03 116.99,-897.72"/>
<polygon fill="black" stroke="black" points="120.49,-897.66 116.99,-887.66 113.49,-897.66 120.49,-897.66"/>
<text text-anchor="middle" x="178.99" y="-909.28" font-family="Times,serif" font-size="14.00">from BAM processing</text>
</g>
<!-- filtered pure methylation calls&#45;&gt;bedtools intersect &#45;wa_wb_3 -->
<g id="edge18" class="edge">
<title>filtered pure methylation calls&#45;&gt;bedtools intersect &#45;wa_wb_3</title>
<path fill="none" stroke="black" d="M146.3,-851.84C171.36,-837.62 208.25,-816.68 239.84,-798.76"/>
<polygon fill="black" stroke="black" points="241.62,-801.77 248.59,-793.79 238.17,-795.68 241.62,-801.77"/>
<text text-anchor="middle" x="223.49" y="-822.28" font-family="Times,serif" font-size="14.00">filtered</text>
</g>
<!-- BAMPROC_7b -->
<!-- filtered low map. methylation call data -->
<g id="node22" class="node">
<title>filtered low map. methylation call data</title>
<ellipse fill="none" stroke="black" cx="2512.99" cy="-655.48" rx="148.67" ry="18"/>
<text text-anchor="middle" x="2512.99" y="-651.78" font-family="Times,serif" font-size="14.00">filtered low map. methylation call data</text>
</g>
<!-- BAMPROC_7b&#45;&gt;filtered low map. methylation call data -->
<g id="edge11" class="edge">
<title>BAMPROC_7b&#45;&gt;filtered low map. methylation call data</title>
<path fill="none" stroke="black" stroke-dasharray="1,5" d="M2512.99,-744.14C2512.99,-727.7 2512.99,-702.76 2512.99,-683.67"/>
<polygon fill="black" stroke="black" points="2516.49,-683.5 2512.99,-673.5 2509.49,-683.5 2516.49,-683.5"/>
<text text-anchor="middle" x="2574.99" y="-695.28" font-family="Times,serif" font-size="14.00">from BAM processing</text>
</g>
<!-- filtered low map. methylation call data&#45;&gt;bedtools intersect &#45;v_7 -->
<g id="edge20" class="edge">
<title>filtered low map. methylation call data&#45;&gt;bedtools intersect &#45;v_7</title>
<path fill="none" stroke="black" d="M2512.99,-637.14C2512.99,-626.17 2512.99,-611.42 2512.99,-597.14"/>
<polygon fill="black" stroke="black" points="2516.49,-596.89 2512.99,-586.89 2509.49,-596.89 2516.49,-596.89"/>
<text text-anchor="middle" x="2532.49" y="-608.28" font-family="Times,serif" font-size="14.00">filtered</text>
</g>
<!-- BAMPROC_8b -->
<!-- filtered low map. clinvar methylation call data -->
<g id="node24" class="node">
<title>filtered low map. clinvar methylation call data</title>
<ellipse fill="none" stroke="black" cx="3982.99" cy="-869.48" rx="175.47" ry="18"/>
<text text-anchor="middle" x="3982.99" y="-865.78" font-family="Times,serif" font-size="14.00">filtered low map. clinvar methylation call data</text>
</g>
<!-- BAMPROC_8b&#45;&gt;filtered low map. clinvar methylation call data -->
<g id="edge12" class="edge">
<title>BAMPROC_8b&#45;&gt;filtered low map. clinvar methylation call data</title>
<path fill="none" stroke="black" stroke-dasharray="1,5" d="M3982.99,-938.28C3982.99,-926.64 3982.99,-911.03 3982.99,-897.72"/>
<polygon fill="black" stroke="black" points="3986.49,-897.66 3982.99,-887.66 3979.49,-897.66 3986.49,-897.66"/>
<text text-anchor="middle" x="4044.99" y="-909.28" font-family="Times,serif" font-size="14.00">from BAM processing</text>
</g>
<!-- filtered low map. clinvar methylation call data&#45;&gt;bedtools intersect &#45;v_8 -->
<g id="edge22" class="edge">
<title>filtered low map. clinvar methylation call data&#45;&gt;bedtools intersect &#45;v_8</title>
<path fill="none" stroke="black" d="M3941.13,-851.96C3901.15,-836.18 3839.99,-812.03 3791.66,-792.95"/>
<polygon fill="black" stroke="black" points="3792.76,-789.63 3782.17,-789.21 3790.19,-796.14 3792.76,-789.63"/>
<text text-anchor="middle" x="3909.49" y="-822.28" font-family="Times,serif" font-size="14.00">filtered</text>
</g>
<!-- miscalled methyl calls bedGraph -->
<g id="node34" class="node">
<title>miscalled methyl calls bedGraph</title>
<ellipse fill="none" stroke="black" cx="1504.99" cy="-655.48" rx="128.08" ry="18"/>
<text text-anchor="middle" x="1504.99" y="-651.78" font-family="Times,serif" font-size="14.00">miscalled methyl calls bedGraph</text>
</g>
<!-- bedtools intersect &#45;v_1&#45;&gt;miscalled methyl calls bedGraph -->
<g id="edge23" class="edge">
<title>bedtools intersect &#45;v_1&#45;&gt;miscalled methyl calls bedGraph</title>
<path fill="none" stroke="black" d="M1504.99,-724.46C1504.99,-711.04 1504.99,-696.13 1504.99,-683.7"/>
<polygon fill="black" stroke="black" points="1508.49,-683.52 1504.99,-673.52 1501.49,-683.52 1508.49,-683.52"/>
</g>
<!-- miscalled clinvar methylation call data -->
<g id="node35" class="node">
<title>miscalled clinvar methylation call data</title>
<ellipse fill="none" stroke="black" cx="3035.99" cy="-655.48" rx="148.67" ry="18"/>
<text text-anchor="middle" x="3035.99" y="-651.78" font-family="Times,serif" font-size="14.00">miscalled clinvar methylation call data</text>
</g>
<!-- bedtools intersect &#45;v_2&#45;&gt;miscalled clinvar methylation call data -->
<g id="edge24" class="edge">
<title>bedtools intersect &#45;v_2&#45;&gt;miscalled clinvar methylation call data</title>
<path fill="none" stroke="black" d="M3035.99,-724.46C3035.99,-711.04 3035.99,-696.13 3035.99,-683.7"/>
<polygon fill="black" stroke="black" points="3039.49,-683.52 3035.99,-673.52 3032.49,-683.52 3039.49,-683.52"/>
</g>
<!-- resolved methylation calls -->
<g id="node36" class="node">
<title>resolved methylation calls</title>
<ellipse fill="none" stroke="black" cx="301.99" cy="-655.48" rx="103.98" ry="18"/>
<text text-anchor="middle" x="301.99" y="-651.78" font-family="Times,serif" font-size="14.00">resolved methylation calls</text>
</g>
<!-- bedtools intersect &#45;wa_wb_3&#45;&gt;resolved methylation calls -->
<g id="edge25" class="edge">
<title>bedtools intersect &#45;wa_wb_3&#45;&gt;resolved methylation calls</title>
<path fill="none" stroke="black" d="M301.99,-724.46C301.99,-711.04 301.99,-696.13 301.99,-683.7"/>
<polygon fill="black" stroke="black" points="305.49,-683.52 301.99,-673.52 298.49,-683.52 305.49,-683.52"/>
</g>
<!-- ClinVar regions with resolved calls\nwith duplicates -->
<g id="node44" class="node">
<title>ClinVar regions with resolved calls\nwith duplicates</title>
<ellipse fill="none" stroke="black" cx="644.99" cy="-432.61" rx="147.16" ry="26.74"/>
<text text-anchor="middle" x="644.99" y="-436.41" font-family="Times,serif" font-size="14.00">ClinVar regions with resolved calls</text>
<text text-anchor="middle" x="644.99" y="-421.41" font-family="Times,serif" font-size="14.00">with duplicates</text>
</g>
<!-- bedtools intersect &#45;wa_4&#45;&gt;ClinVar regions with resolved calls\nwith duplicates -->
<g id="edge41" class="edge">
<title>bedtools intersect &#45;wa_4&#45;&gt;ClinVar regions with resolved calls\nwith duplicates</title>
<path fill="none" stroke="black" d="M648.37,-510.51C647.79,-497.39 647.14,-482.66 646.57,-469.62"/>
<polygon fill="black" stroke="black" points="650.07,-469.43 646.13,-459.59 643.07,-469.74 650.07,-469.43"/>
</g>
<!-- ClinVar regions with methylation miscalls\nwith duplicates -->
<g id="node39" class="node">
<title>ClinVar regions with methylation miscalls\nwith duplicates</title>
<ellipse fill="none" stroke="black" cx="1227.99" cy="-432.61" rx="175.23" ry="26.74"/>
<text text-anchor="middle" x="1227.99" y="-436.41" font-family="Times,serif" font-size="14.00">ClinVar regions with methylation miscalls</text>
<text text-anchor="middle" x="1227.99" y="-421.41" font-family="Times,serif" font-size="14.00">with duplicates</text>
</g>
<!-- bedtools intersect &#45;wa_5&#45;&gt;ClinVar regions with methylation miscalls\nwith duplicates -->
<g id="edge32" class="edge">
<title>bedtools intersect &#45;wa_5&#45;&gt;ClinVar regions with methylation miscalls\nwith duplicates</title>
<path fill="none" stroke="black" d="M1094.74,-519.33C1120.59,-502.71 1153.34,-481.63 1179.91,-464.54"/>
<polygon fill="black" stroke="black" points="1182.14,-467.27 1188.66,-458.91 1178.36,-461.38 1182.14,-467.27"/>
</g>
<!-- low map. ClinVar regions with methylation miscalls\nwith duplicates -->
<g id="node40" class="node">
<title>low map. ClinVar regions with methylation miscalls\nwith duplicates</title>
<ellipse fill="none" stroke="black" cx="2238.99" cy="-200.87" rx="214.01" ry="26.74"/>
<text text-anchor="middle" x="2238.99" y="-204.67" font-family="Times,serif" font-size="14.00">low map. ClinVar regions with methylation miscalls</text>
<text text-anchor="middle" x="2238.99" y="-189.67" font-family="Times,serif" font-size="14.00">with duplicates</text>
</g>
<!-- bedtools intersect &#45;wa_6&#45;&gt;low map. ClinVar regions with methylation miscalls\nwith duplicates -->
<g id="edge33" class="edge">
<title>bedtools intersect &#45;wa_6&#45;&gt;low map. ClinVar regions with methylation miscalls\nwith duplicates</title>
<path fill="none" stroke="black" d="M2238.99,-278.45C2238.99,-265.58 2238.99,-251.19 2238.99,-238.38"/>
<polygon fill="black" stroke="black" points="2242.49,-238.06 2238.99,-228.06 2235.49,-238.06 2242.49,-238.06"/>
</g>
<!-- miscalled low map. methylation call data -->
<g id="node37" class="node">
<title>miscalled low map. methylation call data</title>
<ellipse fill="none" stroke="black" cx="2512.99" cy="-432.61" rx="157.87" ry="18"/>
<text text-anchor="middle" x="2512.99" y="-428.91" font-family="Times,serif" font-size="14.00">miscalled low map. methylation call data</text>
</g>
<!-- bedtools intersect &#45;v_7&#45;&gt;miscalled low map. methylation call data -->
<g id="edge26" class="edge">
<title>bedtools intersect &#45;v_7&#45;&gt;miscalled low map. methylation call data</title>
<path fill="none" stroke="black" d="M2512.99,-510.19C2512.99,-494.12 2512.99,-475.66 2512.99,-460.89"/>
<polygon fill="black" stroke="black" points="2516.49,-460.88 2512.99,-450.88 2509.49,-460.88 2516.49,-460.88"/>
</g>
<!-- miscalled low map. clinvar methylation call data -->
<g id="node38" class="node">
<title>miscalled low map. clinvar methylation call data</title>
<ellipse fill="none" stroke="black" cx="3716.99" cy="-655.48" rx="184.67" ry="18"/>
<text text-anchor="middle" x="3716.99" y="-651.78" font-family="Times,serif" font-size="14.00">miscalled low map. clinvar methylation call data</text>
</g>
<!-- bedtools intersect &#45;v_8&#45;&gt;miscalled low map. clinvar methylation call data -->
<g id="edge27" class="edge">
<title>bedtools intersect &#45;v_8&#45;&gt;miscalled low map. clinvar methylation call data</title>
<path fill="none" stroke="black" d="M3716.99,-724.46C3716.99,-711.04 3716.99,-696.13 3716.99,-683.7"/>
<polygon fill="black" stroke="black" points="3720.49,-683.52 3716.99,-673.52 3713.49,-683.52 3720.49,-683.52"/>
</g>
<!-- underfiltered methylation calls -->
<g id="node43" class="node">
<title>underfiltered methylation calls</title>
<ellipse fill="none" stroke="black" cx="1886.99" cy="-432.61" rx="118.88" ry="18"/>
<text text-anchor="middle" x="1886.99" y="-428.91" font-family="Times,serif" font-size="14.00">underfiltered methylation calls</text>
</g>
<!-- bedtools intersect &#45;v_9&#45;&gt;underfiltered methylation calls -->
<g id="edge38" class="edge">
<title>bedtools intersect &#45;v_9&#45;&gt;underfiltered methylation calls</title>
<path fill="none" stroke="black" d="M1931.6,-514.24C1921.94,-496.79 1910.29,-475.72 1901.31,-459.5"/>
<polygon fill="black" stroke="black" points="1904.28,-457.63 1896.38,-450.57 1898.15,-461.02 1904.28,-457.63"/>
</g>
<!-- miscalled methyl calls bedGraph&#45;&gt;bedtools intersect &#45;wa_5 -->
<g id="edge28" class="edge">
<title>miscalled methyl calls bedGraph&#45;&gt;bedtools intersect &#45;wa_5</title>
<path fill="none" stroke="black" d="M1441.38,-639.77C1364.23,-621.93 1233.51,-591.69 1144.79,-571.17"/>
<polygon fill="black" stroke="black" points="1145.53,-567.75 1135,-568.91 1143.95,-574.57 1145.53,-567.75"/>
<text text-anchor="middle" x="1368.99" y="-608.28" font-family="Times,serif" font-size="14.00">miscalls</text>
</g>
<!-- miscalled methyl calls bedGraph&#45;&gt;bedtools intersect &#45;v_9 -->
<g id="edge36" class="edge">
<title>miscalled methyl calls bedGraph&#45;&gt;bedtools intersect &#45;v_9</title>
<path fill="none" stroke="black" d="M1567.8,-639.66C1643.7,-621.75 1771.99,-591.48 1858.78,-571"/>
<polygon fill="black" stroke="black" points="1859.7,-574.38 1868.63,-568.68 1858.09,-567.57 1859.7,-574.38"/>
<text text-anchor="middle" x="1741.49" y="-608.28" font-family="Times,serif" font-size="14.00">miscalled</text>
</g>
<!-- miscalled methyl calls bedGraph with params -->
<g id="node53" class="node">
<title>miscalled methyl calls bedGraph with params</title>
<polygon fill="none" stroke="black" points="1760.27,-566.48 1354.18,-566.48 1249.71,-530.48 1655.8,-530.48 1760.27,-566.48"/>
<text text-anchor="middle" x="1504.99" y="-544.78" font-family="Times,serif" font-size="14.00">miscalled methyl calls bedGraph with params</text>
</g>
<!-- miscalled methyl calls bedGraph&#45;&gt;miscalled methyl calls bedGraph with params -->
<g id="edge50" class="edge">
<title>miscalled methyl calls bedGraph&#45;&gt;miscalled methyl calls bedGraph with params</title>
<path fill="none" stroke="black" d="M1504.99,-637.14C1504.99,-620.7 1504.99,-595.76 1504.99,-576.67"/>
<polygon fill="black" stroke="black" points="1508.49,-576.5 1504.99,-566.5 1501.49,-576.5 1508.49,-576.5"/>
<text text-anchor="middle" x="1546.99" y="-608.28" font-family="Times,serif" font-size="14.00">add_params.py</text>
</g>
<!-- miscalled clinvar methylation call data with params -->
<g id="node50" class="node">
<title>miscalled clinvar methylation call data with params</title>
<polygon fill="none" stroke="black" points="3321.75,-566.48 2867.17,-566.48 2750.23,-530.48 3204.81,-530.48 3321.75,-566.48"/>
<text text-anchor="middle" x="3035.99" y="-544.78" font-family="Times,serif" font-size="14.00">miscalled clinvar methylation call data with params</text>
</g>
<!-- miscalled clinvar methylation call data&#45;&gt;miscalled clinvar methylation call data with params -->
<g id="edge47" class="edge">
<title>miscalled clinvar methylation call data&#45;&gt;miscalled clinvar methylation call data with params</title>
<path fill="none" stroke="black" d="M3035.99,-637.14C3035.99,-620.7 3035.99,-595.76 3035.99,-576.67"/>
<polygon fill="black" stroke="black" points="3039.49,-576.5 3035.99,-566.5 3032.49,-576.5 3039.49,-576.5"/>
<text text-anchor="middle" x="3077.99" y="-608.28" font-family="Times,serif" font-size="14.00">add_params.py</text>
</g>
<!-- resolved methylation calls&#45;&gt;bedtools intersect &#45;wa_4 -->
<g id="edge39" class="edge">
<title>resolved methylation calls&#45;&gt;bedtools intersect &#45;wa_4</title>
<path fill="none" stroke="black" d="M351.48,-639.55C407.82,-622.55 500.73,-594.52 567.95,-574.23"/>
<polygon fill="black" stroke="black" points="569.11,-577.54 577.67,-571.3 567.09,-570.84 569.11,-577.54"/>
<text text-anchor="middle" x="488.99" y="-608.28" font-family="Times,serif" font-size="14.00">resolved</text>
</g>
<!-- resolved methylation calls with params -->
<g id="node54" class="node">
<title>resolved methylation calls with params</title>
<polygon fill="none" stroke="black" points="451.25,-566.48 100.87,-566.48 10.73,-530.48 361.11,-530.48 451.25,-566.48"/>
<text text-anchor="middle" x="230.99" y="-544.78" font-family="Times,serif" font-size="14.00">resolved methylation calls with params</text>
</g>
<!-- resolved methylation calls&#45;&gt;resolved methylation calls with params -->
<g id="edge51" class="edge">
<title>resolved methylation calls&#45;&gt;resolved methylation calls with params</title>
<path fill="none" stroke="black" d="M290.27,-637.14C278.79,-620.17 261.18,-594.12 248.13,-574.83"/>
<polygon fill="black" stroke="black" points="251,-572.82 242.5,-566.5 245.2,-576.74 251,-572.82"/>
<text text-anchor="middle" x="319.99" y="-608.28" font-family="Times,serif" font-size="14.00">add_params.py</text>
</g>
<!-- miscalled low map. methylation call data&#45;&gt;bedtools intersect &#45;wa_6 -->
<g id="edge29" class="edge">
<title>miscalled low map. methylation call data&#45;&gt;bedtools intersect &#45;wa_6</title>
<path fill="none" stroke="black" d="M2473.44,-415.17C2430.19,-397.2 2360.07,-368.06 2307.77,-346.32"/>
<polygon fill="black" stroke="black" points="2308.8,-342.96 2298.22,-342.36 2306.11,-349.43 2308.8,-342.96"/>
<text text-anchor="middle" x="2423.99" y="-376.54" font-family="Times,serif" font-size="14.00">miscalls</text>
</g>
<!-- miscalled low map. methylation call data with params -->
<g id="node52" class="node">
<title>miscalled low map. methylation call data with params</title>
<polygon fill="none" stroke="black" points="3036.44,-334.74 2560.08,-334.74 2437.54,-298.74 2913.9,-298.74 3036.44,-334.74"/>
<text text-anchor="middle" x="2736.99" y="-313.04" font-family="Times,serif" font-size="14.00">miscalled low map. methylation call data with params</text>
</g>
<!-- miscalled low map. methylation call data&#45;&gt;miscalled low map. methylation call data with params -->
<g id="edge49" class="edge">
<title>miscalled low map. methylation call data&#45;&gt;miscalled low map. methylation call data with params</title>
<path fill="none" stroke="black" d="M2546.04,-414.81C2585.38,-394.81 2651.17,-361.37 2694.32,-339.43"/>
<polygon fill="black" stroke="black" points="2696.11,-342.45 2703.44,-334.8 2692.94,-336.21 2696.11,-342.45"/>
<text text-anchor="middle" x="2666.99" y="-376.54" font-family="Times,serif" font-size="14.00">add_params.py</text>
</g>
<!-- miscalled low map. clinvar methylation call data with params -->
<g id="node51" class="node">
<title>miscalled low map. clinvar methylation call data with params</title>
<polygon fill="none" stroke="black" points="4056.48,-566.48 3516.43,-566.48 3377.5,-530.48 3917.55,-530.48 4056.48,-566.48"/>
<text text-anchor="middle" x="3716.99" y="-544.78" font-family="Times,serif" font-size="14.00">miscalled low map. clinvar methylation call data with params</text>
</g>
<!-- miscalled low map. clinvar methylation call data&#45;&gt;miscalled low map. clinvar methylation call data with params -->
<g id="edge48" class="edge">
<title>miscalled low map. clinvar methylation call data&#45;&gt;miscalled low map. clinvar methylation call data with params</title>
<path fill="none" stroke="black" d="M3716.99,-637.14C3716.99,-620.7 3716.99,-595.76 3716.99,-576.67"/>
<polygon fill="black" stroke="black" points="3720.49,-576.5 3716.99,-566.5 3713.49,-576.5 3720.49,-576.5"/>
<text text-anchor="middle" x="3758.99" y="-608.28" font-family="Times,serif" font-size="14.00">add_params.py</text>
</g>
<!-- ClinVar regions with count of methylation miscalls -->
<g id="node41" class="node">
<title>ClinVar regions with count of methylation miscalls</title>
<ellipse fill="none" stroke="black" cx="1311.99" cy="-316.74" rx="192.27" ry="18"/>
<text text-anchor="middle" x="1311.99" y="-313.04" font-family="Times,serif" font-size="14.00">ClinVar regions with count of methylation miscalls</text>
</g>
<!-- ClinVar regions with methylation miscalls\nwith duplicates&#45;&gt;ClinVar regions with count of methylation miscalls -->
<g id="edge34" class="edge">
<title>ClinVar regions with methylation miscalls\nwith duplicates&#45;&gt;ClinVar regions with count of methylation miscalls</title>
<path fill="none" stroke="black" d="M1247.05,-405.77C1260.9,-386.99 1279.56,-361.71 1293.32,-343.05"/>
<polygon fill="black" stroke="black" points="1296.14,-345.12 1299.26,-334.99 1290.51,-340.96 1296.14,-345.12"/>
<text text-anchor="middle" x="1309.49" y="-376.54" font-family="Times,serif" font-size="14.00">count_calls.py</text>
</g>
<!-- low map. ClinVar regions with count of methylation miscalls -->
<g id="node42" class="node">
<title>low map. ClinVar regions with count of methylation miscalls</title>
<ellipse fill="none" stroke="black" cx="2238.99" cy="-105" rx="228.56" ry="18"/>
<text text-anchor="middle" x="2238.99" y="-101.3" font-family="Times,serif" font-size="14.00">low map. ClinVar regions with count of methylation miscalls</text>
</g>
<!-- low map. ClinVar regions with methylation miscalls\nwith duplicates&#45;&gt;low map. ClinVar regions with count of methylation miscalls -->
<g id="edge35" class="edge">
<title>low map. ClinVar regions with methylation miscalls\nwith duplicates&#45;&gt;low map. ClinVar regions with count of methylation miscalls</title>
<path fill="none" stroke="black" d="M2238.99,-173.97C2238.99,-161.34 2238.99,-146.14 2238.99,-133.32"/>
<polygon fill="black" stroke="black" points="2242.49,-133.22 2238.99,-123.22 2235.49,-133.22 2242.49,-133.22"/>
<text text-anchor="middle" x="2278.49" y="-144.8" font-family="Times,serif" font-size="14.00">count_calls.py</text>
</g>
<!-- ClinVar regions with count of methylation miscalls with params -->
<g id="node48" class="node">
<title>ClinVar regions with count of methylation miscalls with params</title>
<polygon fill="none" stroke="black" points="1667.85,-218.87 1109.71,-218.87 966.13,-182.87 1524.27,-182.87 1667.85,-218.87"/>
<text text-anchor="middle" x="1316.99" y="-197.17" font-family="Times,serif" font-size="14.00">ClinVar regions with count of methylation miscalls with params</text>
</g>
<!-- ClinVar regions with count of methylation miscalls&#45;&gt;ClinVar regions with count of methylation miscalls with params -->
<g id="edge45" class="edge">
<title>ClinVar regions with count of methylation miscalls&#45;&gt;ClinVar regions with count of methylation miscalls with params</title>
<path fill="none" stroke="black" d="M1312.75,-298.45C1313.56,-280.03 1314.85,-250.63 1315.79,-229.1"/>
<polygon fill="black" stroke="black" points="1319.3,-229.1 1316.24,-218.95 1312.3,-228.79 1319.3,-229.1"/>
<text text-anchor="middle" x="1356.99" y="-249.54" font-family="Times,serif" font-size="14.00">add_params.py</text>
</g>
<!-- low map. ClinVar regions with count of methylation miscalls with params -->
<g id="node47" class="node">
<title>low map. ClinVar regions with count of methylation miscalls with params</title>
<polygon fill="none" stroke="black" points="2642.18,-36 2000.8,-36 1835.8,0 2477.18,0 2642.18,-36"/>
<text text-anchor="middle" x="2238.99" y="-14.3" font-family="Times,serif" font-size="14.00">low map. ClinVar regions with count of methylation miscalls with params</text>
</g>
<!-- low map. ClinVar regions with count of methylation miscalls&#45;&gt;low map. ClinVar regions with count of methylation miscalls with params -->
<g id="edge44" class="edge">
<title>low map. ClinVar regions with count of methylation miscalls&#45;&gt;low map. ClinVar regions with count of methylation miscalls with params</title>
<path fill="none" stroke="black" d="M2238.99,-86.8C2238.99,-75.16 2238.99,-59.55 2238.99,-46.24"/>
<polygon fill="black" stroke="black" points="2242.49,-46.18 2238.99,-36.18 2235.49,-46.18 2242.49,-46.18"/>
<text text-anchor="middle" x="2280.99" y="-57.8" font-family="Times,serif" font-size="14.00">add_params.py</text>
</g>
<!-- underfiltered methylation calls with params -->
<g id="node49" class="node">
<title>underfiltered methylation calls with params</title>
<polygon fill="none" stroke="black" points="2040.08,-334.74 1654.97,-334.74 1555.9,-298.74 1941.01,-298.74 2040.08,-334.74"/>
<text text-anchor="middle" x="1797.99" y="-313.04" font-family="Times,serif" font-size="14.00">underfiltered methylation calls with params</text>
</g>
<!-- underfiltered methylation calls&#45;&gt;underfiltered methylation calls with params -->
<g id="edge46" class="edge">
<title>underfiltered methylation calls&#45;&gt;underfiltered methylation calls with params</title>
<path fill="none" stroke="black" d="M1873.47,-414.32C1858.62,-395.31 1834.62,-364.61 1817.68,-342.93"/>
<polygon fill="black" stroke="black" points="1820.26,-340.55 1811.34,-334.82 1814.74,-344.86 1820.26,-340.55"/>
<text text-anchor="middle" x="1892.99" y="-376.54" font-family="Times,serif" font-size="14.00">add_params.py</text>
</g>
<!-- ClinVar regions with count of resolved calls -->
<g id="node45" class="node">
<title>ClinVar regions with count of resolved calls</title>
<ellipse fill="none" stroke="black" cx="640.99" cy="-316.74" rx="167.07" ry="18"/>
<text text-anchor="middle" x="640.99" y="-313.04" font-family="Times,serif" font-size="14.00">ClinVar regions with count of resolved calls</text>
</g>
<!-- ClinVar regions with resolved calls\nwith duplicates&#45;&gt;ClinVar regions with count of resolved calls -->
<g id="edge42" class="edge">
<title>ClinVar regions with resolved calls\nwith duplicates&#45;&gt;ClinVar regions with count of resolved calls</title>
<path fill="none" stroke="black" d="M644.07,-405.49C643.44,-387.37 642.59,-363.31 641.95,-344.96"/>
<polygon fill="black" stroke="black" points="645.44,-344.78 641.59,-334.91 638.45,-345.02 645.44,-344.78"/>
<text text-anchor="middle" x="683.49" y="-376.54" font-family="Times,serif" font-size="14.00">count_calls.py</text>
</g>
<!-- ClinVar regions with count of resolved calls with params -->
<g id="node46" class="node">
<title>ClinVar regions with count of resolved calls with params</title>
<polygon fill="none" stroke="black" points="948.62,-218.87 451.3,-218.87 323.36,-182.87 820.68,-182.87 948.62,-218.87"/>
<text text-anchor="middle" x="635.99" y="-197.17" font-family="Times,serif" font-size="14.00">ClinVar regions with count of resolved calls with params</text>
</g>
<!-- ClinVar regions with count of resolved calls&#45;&gt;ClinVar regions with count of resolved calls with params -->
<g id="edge43" class="edge">
<title>ClinVar regions with count of resolved calls&#45;&gt;ClinVar regions with count of resolved calls with params</title>
<path fill="none" stroke="black" d="M640.23,-298.45C639.42,-280.03 638.13,-250.63 637.19,-229.1"/>
<polygon fill="black" stroke="black" points="640.68,-228.79 636.74,-218.95 633.68,-229.1 640.68,-228.79"/>
<text text-anchor="middle" x="680.99" y="-249.54" font-family="Times,serif" font-size="14.00">add_params.py</text>
</g>
</g>
</svg>
