<?xml version="1.0" encoding="UTF-8" standalone="no"?>
<!DOCTYPE svg PUBLIC "-//W3C//DTD SVG 1.1//EN"
 "http://www.w3.org/Graphics/SVG/1.1/DTD/svg11.dtd">
<!-- Generated by graphviz version 2.47.3 (20210619.1520)
 -->
<!-- Title: workflow Pages: 1 -->
<svg width="1183pt" height="1139pt"
 viewBox="0.00 0.00 1183.15 1139.43" xmlns="http://www.w3.org/2000/svg" xmlns:xlink="http://www.w3.org/1999/xlink">
<g id="graph0" class="graph" transform="scale(1 1) rotate(0) translate(4 1135.43)">
<title>workflow</title>
<polygon fill="white" stroke="transparent" points="-4,4 -4,-1135.43 1179.15,-1135.43 1179.15,4 -4,4"/>
<!-- grch38 fasta -->
<g id="node1" class="node">
<title>grch38 fasta</title>
<polygon fill="none" stroke="black" points="124.37,-1026.43 93.33,-1044.43 31.25,-1044.43 0.21,-1026.43 31.25,-1008.43 93.33,-1008.43 124.37,-1026.43"/>
<text text-anchor="middle" x="62.29" y="-1022.73" font-family="Times,serif" font-size="14.00">grch38 fasta</text>
</g>
<!-- MethylDackel extract &#45;@ 16 &#45;q &lt;cutoff&gt;\n&#45;&#45;CHH &#45;&#45;CHG &#45;&#45;OT 2,0,0,97_2 -->
<g id="node4" class="node">
<title>MethylDackel extract &#45;@ 16 &#45;q &lt;cutoff&gt;\n&#45;&#45;CHH &#45;&#45;CHG &#45;&#45;OT 2,0,0,97_2</title>
<polygon fill="#d9d9d9" stroke="#d9d9d9" points="358.29,-957.43 99.29,-919.43 358.29,-881.43 617.29,-919.43 358.29,-957.43"/>
<text text-anchor="middle" x="358.29" y="-923.23" font-family="Times,serif" font-size="14.00">MethylDackel extract &#45;@ 16 &#45;m &lt;Bismap&gt; </text>
<text text-anchor="middle" x="358.29" y="-908.23" font-family="Times,serif" font-size="14.00">&#45;q &lt;cutoff&gt; &#45;&#45;CHH &#45;&#45;CHG &#45;&#45;OT 2,0,0,97</text>
</g>
<!-- grch38 fasta&#45;&gt;MethylDackel extract &#45;@ 16 &#45;q &lt;cutoff&gt;\n&#45;&#45;CHH &#45;&#45;CHG &#45;&#45;OT 2,0,0,97_2 -->
<g id="edge5" class="edge">
<title>grch38 fasta&#45;&gt;MethylDackel extract &#45;@ 16 &#45;q &lt;cutoff&gt;\n&#45;&#45;CHH &#45;&#45;CHG &#45;&#45;OT 2,0,0,97_2</title>
<path fill="none" stroke="black" d="M99.78,-1012.14C143.55,-996.61 217.27,-970.46 274.81,-950.05"/>
<polygon fill="black" stroke="black" points="276.01,-953.34 284.26,-946.69 273.67,-946.74 276.01,-953.34"/>
</g>
<!-- Bismap complete bedGraph -->
<g id="node2" class="node">
<title>Bismap complete bedGraph</title>
<ellipse fill="none" stroke="black" cx="253.29" cy="-1026.43" rx="110.48" ry="18"/>
<text text-anchor="middle" x="253.29" y="-1022.73" font-family="Times,serif" font-size="14.00">Bismap complete bedGraph</text>
</g>
<!-- Bismap complete bedGraph&#45;&gt;MethylDackel extract &#45;@ 16 &#45;q &lt;cutoff&gt;\n&#45;&#45;CHH &#45;&#45;CHG &#45;&#45;OT 2,0,0,97_2 -->
<g id="edge2" class="edge">
<title>Bismap complete bedGraph&#45;&gt;MethylDackel extract &#45;@ 16 &#45;q &lt;cutoff&gt;\n&#45;&#45;CHH &#45;&#45;CHG &#45;&#45;OT 2,0,0,97_2</title>
<path fill="none" stroke="black" d="M270.16,-1008.56C283.13,-995.59 301.59,-977.13 318.27,-960.45"/>
<polygon fill="black" stroke="black" points="321.19,-962.49 325.78,-952.94 316.24,-957.54 321.19,-962.49"/>
<text text-anchor="middle" x="324.79" y="-979.23" font-family="Times,serif" font-size="14.00">Bismap</text>
</g>
<!-- PREPROC_1 -->
<!-- PREPROC_1&#45;&gt;Bismap complete bedGraph -->
<g id="edge1" class="edge">
<title>PREPROC_1&#45;&gt;Bismap complete bedGraph</title>
<path fill="none" stroke="black" stroke-dasharray="1,5" d="M253.29,-1095.23C253.29,-1083.6 253.29,-1067.98 253.29,-1054.67"/>
<polygon fill="black" stroke="black" points="256.79,-1054.61 253.29,-1044.61 249.79,-1054.61 256.79,-1054.61"/>
<text text-anchor="middle" x="306.29" y="-1066.23" font-family="Times,serif" font-size="14.00">from preprocessing</text>
</g>
<!-- CpG -->
<g id="node11" class="node">
<title>CpG</title>
<ellipse fill="none" stroke="black" cx="283.29" cy="-826.43" rx="27.1" ry="18"/>
<text text-anchor="middle" x="283.29" y="-822.73" font-family="Times,serif" font-size="14.00">CpG</text>
</g>
<!-- MethylDackel extract &#45;@ 16 &#45;q &lt;cutoff&gt;\n&#45;&#45;CHH &#45;&#45;CHG &#45;&#45;OT 2,0,0,97_2&#45;&gt;CpG -->
<g id="edge13" class="edge">
<title>MethylDackel extract &#45;@ 16 &#45;q &lt;cutoff&gt;\n&#45;&#45;CHH &#45;&#45;CHG &#45;&#45;OT 2,0,0,97_2&#45;&gt;CpG</title>
<path fill="none" stroke="black" d="M331,-885.32C321.48,-873.77 311.02,-861.07 302.32,-850.52"/>
<polygon fill="black" stroke="black" points="304.83,-848.07 295.77,-842.58 299.43,-852.52 304.83,-848.07"/>
</g>
<!-- CHG -->
<g id="node12" class="node">
<title>CHG</title>
<ellipse fill="none" stroke="black" cx="358.29" cy="-826.43" rx="29.5" ry="18"/>
<text text-anchor="middle" x="358.29" y="-822.73" font-family="Times,serif" font-size="14.00">CHG</text>
</g>
<!-- MethylDackel extract &#45;@ 16 &#45;q &lt;cutoff&gt;\n&#45;&#45;CHH &#45;&#45;CHG &#45;&#45;OT 2,0,0,97_2&#45;&gt;CHG -->
<g id="edge12" class="edge">
<title>MethylDackel extract &#45;@ 16 &#45;q &lt;cutoff&gt;\n&#45;&#45;CHH &#45;&#45;CHG &#45;&#45;OT 2,0,0,97_2&#45;&gt;CHG</title>
<path fill="none" stroke="black" d="M358.29,-881.42C358.29,-872.42 358.29,-862.97 358.29,-854.53"/>
<polygon fill="black" stroke="black" points="361.79,-854.5 358.29,-844.5 354.79,-854.5 361.79,-854.5"/>
</g>
<!-- CHH -->
<g id="node13" class="node">
<title>CHH</title>
<ellipse fill="none" stroke="black" cx="434.29" cy="-826.43" rx="29.5" ry="18"/>
<text text-anchor="middle" x="434.29" y="-822.73" font-family="Times,serif" font-size="14.00">CHH</text>
</g>
<!-- MethylDackel extract &#45;@ 16 &#45;q &lt;cutoff&gt;\n&#45;&#45;CHH &#45;&#45;CHG &#45;&#45;OT 2,0,0,97_2&#45;&gt;CHH -->
<g id="edge14" class="edge">
<title>MethylDackel extract &#45;@ 16 &#45;q &lt;cutoff&gt;\n&#45;&#45;CHH &#45;&#45;CHG &#45;&#45;OT 2,0,0,97_2&#45;&gt;CHH</title>
<path fill="none" stroke="black" d="M385.94,-885.32C395.45,-873.93 405.9,-861.43 414.64,-850.96"/>
<polygon fill="black" stroke="black" points="417.51,-852.98 421.24,-843.06 412.14,-848.49 417.51,-852.98"/>
</g>
<!-- Methylation sequencing reads -->
<g id="node5" class="node">
<title>Methylation sequencing reads</title>
<polygon fill="none" stroke="black" points="609.47,-1113.43 541.88,-1131.43 406.7,-1131.43 339.11,-1113.43 406.7,-1095.43 541.88,-1095.43 609.47,-1113.43"/>
<text text-anchor="middle" x="474.29" y="-1109.73" font-family="Times,serif" font-size="14.00">Methylation sequencing reads</text>
</g>
<!-- sorted alignment BAM -->
<g id="node6" class="node">
<title>sorted alignment BAM</title>
<ellipse fill="none" stroke="black" cx="474.29" cy="-1026.43" rx="92.88" ry="18"/>
<text text-anchor="middle" x="474.29" y="-1022.73" font-family="Times,serif" font-size="14.00">sorted alignment BAM</text>
</g>
<!-- Methylation sequencing reads&#45;&gt;sorted alignment BAM -->
<g id="edge3" class="edge">
<title>Methylation sequencing reads&#45;&gt;sorted alignment BAM</title>
<path fill="none" stroke="black" d="M474.29,-1095.23C474.29,-1083.6 474.29,-1067.98 474.29,-1054.67"/>
<polygon fill="black" stroke="black" points="477.79,-1054.61 474.29,-1044.61 470.79,-1054.61 477.79,-1054.61"/>
<text text-anchor="middle" x="493.29" y="-1066.23" font-family="Times,serif" font-size="14.00">aligner</text>
</g>
<!-- sorted alignment BAM&#45;&gt;MethylDackel extract &#45;@ 16 &#45;q &lt;cutoff&gt;\n&#45;&#45;CHH &#45;&#45;CHG &#45;&#45;OT 2,0,0,97_2 -->
<g id="edge11" class="edge">
<title>sorted alignment BAM&#45;&gt;MethylDackel extract &#45;@ 16 &#45;q &lt;cutoff&gt;\n&#45;&#45;CHH &#45;&#45;CHG &#45;&#45;OT 2,0,0,97_2</title>
<path fill="none" stroke="black" d="M455.65,-1008.56C441.08,-995.38 420.24,-976.51 401.57,-959.61"/>
<polygon fill="black" stroke="black" points="403.49,-956.63 393.73,-952.51 398.79,-961.82 403.49,-956.63"/>
</g>
<!-- MapQ cutoff -->
<g id="node7" class="node">
<title>MapQ cutoff</title>
<polygon fill="none" stroke="black" points="717.38,-1026.43 684.33,-1044.43 618.25,-1044.43 585.2,-1026.43 618.25,-1008.43 684.33,-1008.43 717.38,-1026.43"/>
<text text-anchor="middle" x="651.29" y="-1022.73" font-family="Times,serif" font-size="14.00">MapQ cutoff</text>
</g>
<!-- MapQ cutoff&#45;&gt;MethylDackel extract &#45;@ 16 &#45;q &lt;cutoff&gt;\n&#45;&#45;CHH &#45;&#45;CHG &#45;&#45;OT 2,0,0,97_2 -->
<g id="edge4" class="edge">
<title>MapQ cutoff&#45;&gt;MethylDackel extract &#45;@ 16 &#45;q &lt;cutoff&gt;\n&#45;&#45;CHH &#45;&#45;CHG &#45;&#45;OT 2,0,0,97_2</title>
<path fill="none" stroke="black" d="M612.38,-1011.49C568.97,-995.93 497.47,-970.31 441.36,-950.2"/>
<polygon fill="black" stroke="black" points="442.38,-946.85 431.78,-946.77 440.02,-953.44 442.38,-946.85"/>
<text text-anchor="middle" x="563.79" y="-979.23" font-family="Times,serif" font-size="14.00">cutoff</text>
</g>
<!-- sort &#45;k1,1 &#45;k2,2n_2 -->
<g id="node8" class="node">
<title>sort &#45;k1,1 &#45;k2,2n_2</title>
<polygon fill="#d9d9d9" stroke="#d9d9d9" points="358.29,-771.43 259.25,-753.43 358.29,-735.43 457.33,-753.43 358.29,-771.43"/>
<text text-anchor="middle" x="358.29" y="-749.73" font-family="Times,serif" font-size="14.00">sort &#45;k1,1 &#45;k2,2n</text>
</g>
<!-- sorted bedGraph -->
<g id="node9" class="node">
<title>sorted bedGraph</title>
<ellipse fill="none" stroke="black" cx="358.29" cy="-680.43" rx="69.59" ry="18"/>
<text text-anchor="middle" x="358.29" y="-676.73" font-family="Times,serif" font-size="14.00">sorted bedGraph</text>
</g>
<!-- sort &#45;k1,1 &#45;k2,2n_2&#45;&gt;sorted bedGraph -->
<g id="edge6" class="edge">
<title>sort &#45;k1,1 &#45;k2,2n_2&#45;&gt;sorted bedGraph</title>
<path fill="none" stroke="black" d="M358.29,-735.25C358.29,-727.22 358.29,-717.48 358.29,-708.5"/>
<polygon fill="black" stroke="black" points="361.79,-708.46 358.29,-698.46 354.79,-708.46 361.79,-708.46"/>
</g>
<!-- sorted bedGraph\n(no headers) -->
<g id="node10" class="node">
<title>sorted bedGraph\n(no headers)</title>
<ellipse fill="none" stroke="black" cx="358.29" cy="-584.56" rx="75.82" ry="26.74"/>
<text text-anchor="middle" x="358.29" y="-588.36" font-family="Times,serif" font-size="14.00">sorted bedGraph</text>
<text text-anchor="middle" x="358.29" y="-573.36" font-family="Times,serif" font-size="14.00">(no headers)</text>
</g>
<!-- sorted bedGraph&#45;&gt;sorted bedGraph\n(no headers) -->
<g id="edge7" class="edge">
<title>sorted bedGraph&#45;&gt;sorted bedGraph\n(no headers)</title>
<path fill="none" stroke="black" d="M358.29,-662.22C358.29,-650.91 358.29,-635.7 358.29,-621.81"/>
<polygon fill="black" stroke="black" points="361.79,-621.53 358.29,-611.53 354.79,-621.53 361.79,-621.53"/>
<text text-anchor="middle" x="386.29" y="-633.23" font-family="Times,serif" font-size="14.00">head &#45;n &#45;3</text>
</g>
<!-- bedtools intersect &#45;u_2 -->
<g id="node14" class="node">
<title>bedtools intersect &#45;u_2</title>
<polygon fill="#d9d9d9" stroke="#d9d9d9" points="470.29,-506.69 225.29,-468.69 470.29,-430.69 715.29,-468.69 470.29,-506.69"/>
<text text-anchor="middle" x="470.29" y="-472.49" font-family="Times,serif" font-size="14.00">bedtools intersect &#45;u &#45;sorted </text>
<text text-anchor="middle" x="470.29" y="-457.49" font-family="Times,serif" font-size="14.00">&#45;a &lt;methyl calls&gt; &#45;b &lt;low map. regions&gt;</text>
</g>
<!-- sorted bedGraph\n(no headers)&#45;&gt;bedtools intersect &#45;u_2 -->
<g id="edge15" class="edge">
<title>sorted bedGraph\n(no headers)&#45;&gt;bedtools intersect &#45;u_2</title>
<path fill="none" stroke="black" d="M382.59,-558.86C396.76,-544.45 414.97,-525.93 431.12,-509.52"/>
<polygon fill="black" stroke="black" points="433.86,-511.72 438.38,-502.14 428.87,-506.82 433.86,-511.72"/>
<text text-anchor="middle" x="447.79" y="-528.49" font-family="Times,serif" font-size="14.00">methyl calls</text>
</g>
<!-- CpG&#45;&gt;sort &#45;k1,1 &#45;k2,2n_2 -->
<g id="edge8" class="edge">
<title>CpG&#45;&gt;sort &#45;k1,1 &#45;k2,2n_2</title>
<path fill="none" stroke="black" d="M298.47,-811.07C309.14,-800.96 323.61,-787.26 335.64,-775.87"/>
<polygon fill="black" stroke="black" points="338.28,-778.2 343.14,-768.78 333.47,-773.11 338.28,-778.2"/>
</g>
<!-- CHG&#45;&gt;sort &#45;k1,1 &#45;k2,2n_2 -->
<g id="edge9" class="edge">
<title>CHG&#45;&gt;sort &#45;k1,1 &#45;k2,2n_2</title>
<path fill="none" stroke="black" d="M358.29,-808.25C358.29,-800.22 358.29,-790.48 358.29,-781.5"/>
<polygon fill="black" stroke="black" points="361.79,-781.46 358.29,-771.46 354.79,-781.46 361.79,-781.46"/>
</g>
<!-- CHH&#45;&gt;sort &#45;k1,1 &#45;k2,2n_2 -->
<g id="edge10" class="edge">
<title>CHH&#45;&gt;sort &#45;k1,1 &#45;k2,2n_2</title>
<path fill="none" stroke="black" d="M418.91,-811.07C408.09,-800.96 393.43,-787.26 381.24,-775.87"/>
<polygon fill="black" stroke="black" points="383.34,-773.05 373.65,-768.78 378.57,-778.16 383.34,-773.05"/>
</g>
<!-- methylation calls in low\nmappability regions in ClinVar regions -->
<g id="node20" class="node">
<title>methylation calls in low\nmappability regions in ClinVar regions</title>
<ellipse fill="none" stroke="black" cx="470.29" cy="-352.82" rx="161.85" ry="26.74"/>
<text text-anchor="middle" x="470.29" y="-356.62" font-family="Times,serif" font-size="14.00">methylation calls in low</text>
<text text-anchor="middle" x="470.29" y="-341.62" font-family="Times,serif" font-size="14.00">mappability regions in ClinVar regions</text>
</g>
<!-- bedtools intersect &#45;u_2&#45;&gt;methylation calls in low\nmappability regions in ClinVar regions -->
<g id="edge20" class="edge">
<title>bedtools intersect &#45;u_2&#45;&gt;methylation calls in low\nmappability regions in ClinVar regions</title>
<path fill="none" stroke="black" d="M470.29,-430.41C470.29,-417.54 470.29,-403.14 470.29,-390.33"/>
<polygon fill="black" stroke="black" points="473.79,-390.01 470.29,-380.01 466.79,-390.01 473.79,-390.01"/>
</g>
<!-- sorted low mappability regions\nin ClinVar annotations 2 -->
<g id="node15" class="node">
<title>sorted low mappability regions\nin ClinVar annotations 2</title>
<ellipse fill="none" stroke="black" cx="583.29" cy="-584.56" rx="131.54" ry="26.74"/>
<text text-anchor="middle" x="583.29" y="-588.36" font-family="Times,serif" font-size="14.00">sorted low mappability regions</text>
<text text-anchor="middle" x="583.29" y="-573.36" font-family="Times,serif" font-size="14.00">in ClinVar annotations</text>
</g>
<!-- sorted low mappability regions\nin ClinVar annotations 2&#45;&gt;bedtools intersect &#45;u_2 -->
<g id="edge17" class="edge">
<title>sorted low mappability regions\nin ClinVar annotations 2&#45;&gt;bedtools intersect &#45;u_2</title>
<path fill="none" stroke="black" d="M557.93,-558.01C543.71,-543.68 525.66,-525.49 509.65,-509.35"/>
<polygon fill="black" stroke="black" points="511.98,-506.74 502.45,-502.1 507.01,-511.67 511.98,-506.74"/>
<text text-anchor="middle" x="584.29" y="-528.49" font-family="Times,serif" font-size="14.00">low map. regions</text>
</g>
<!-- PREPROC_2 -->
<!-- PREPROC_2&#45;&gt;sorted low mappability regions\nin ClinVar annotations 2 -->
<g id="edge16" class="edge">
<title>PREPROC_2&#45;&gt;sorted low mappability regions\nin ClinVar annotations 2</title>
<path fill="none" stroke="black" stroke-dasharray="1,5" d="M583.29,-662.22C583.29,-650.91 583.29,-635.7 583.29,-621.81"/>
<polygon fill="black" stroke="black" points="586.79,-621.53 583.29,-611.53 579.79,-621.53 586.79,-621.53"/>
<text text-anchor="middle" x="636.29" y="-633.23" font-family="Times,serif" font-size="14.00">from preprocessing</text>
</g>
<!-- sorted low mappability ClinVar regions 2 -->
<g id="node17" class="node">
<title>sorted low mappability ClinVar regions 2</title>
<ellipse fill="none" stroke="black" cx="833.29" cy="-352.82" rx="150.57" ry="18"/>
<text text-anchor="middle" x="833.29" y="-349.12" font-family="Times,serif" font-size="14.00">sorted low mappability ClinVar regions</text>
</g>
<!-- bedtools intersect &#45;u_3b -->
<g id="node19" class="node">
<title>bedtools intersect &#45;u_3b</title>
<polygon fill="#d9d9d9" stroke="#d9d9d9" points="833.29,-274.95 573.29,-236.95 833.29,-198.95 1093.29,-236.95 833.29,-274.95"/>
<text text-anchor="middle" x="833.29" y="-240.75" font-family="Times,serif" font-size="14.00">bedtools intersect &#45;wa &#45;sorted </text>
<text text-anchor="middle" x="833.29" y="-225.75" font-family="Times,serif" font-size="14.00">&#45;a &lt;ClinVar low map.&gt; &#45;b &lt;low map. calls&gt;</text>
</g>
<!-- sorted low mappability ClinVar regions 2&#45;&gt;bedtools intersect &#45;u_3b -->
<g id="edge19" class="edge">
<title>sorted low mappability ClinVar regions 2&#45;&gt;bedtools intersect &#45;u_3b</title>
<path fill="none" stroke="black" d="M833.29,-334.53C833.29,-321.42 833.29,-302.75 833.29,-285.32"/>
<polygon fill="black" stroke="black" points="836.79,-285.24 833.29,-275.24 829.79,-285.24 836.79,-285.24"/>
<text text-anchor="middle" x="882.29" y="-296.75" font-family="Times,serif" font-size="14.00">ClinVar low map.</text>
</g>
<!-- PREPROC_3 -->
<!-- PREPROC_3&#45;&gt;sorted low mappability ClinVar regions 2 -->
<g id="edge18" class="edge">
<title>PREPROC_3&#45;&gt;sorted low mappability ClinVar regions 2</title>
<path fill="none" stroke="black" stroke-dasharray="1,5" d="M833.29,-450.4C833.29,-431.98 833.29,-402.58 833.29,-381.05"/>
<polygon fill="black" stroke="black" points="836.79,-380.91 833.29,-370.91 829.79,-380.91 836.79,-380.91"/>
<text text-anchor="middle" x="886.29" y="-401.49" font-family="Times,serif" font-size="14.00">from preprocessing</text>
</g>
<!-- ClinVar regions for each low&#45;mappability methyl call -->
<g id="node21" class="node">
<title>ClinVar regions for each low&#45;mappability methyl call</title>
<ellipse fill="none" stroke="black" cx="847.29" cy="-124.48" rx="200.66" ry="18"/>
<text text-anchor="middle" x="847.29" y="-120.78" font-family="Times,serif" font-size="14.00">ClinVar regions for each low&#45;mappability methyl call</text>
</g>
<!-- bedtools intersect &#45;u_3b&#45;&gt;ClinVar regions for each low&#45;mappability methyl call -->
<g id="edge22" class="edge">
<title>bedtools intersect &#45;u_3b&#45;&gt;ClinVar regions for each low&#45;mappability methyl call</title>
<path fill="none" stroke="black" d="M837.91,-199.47C839.84,-184.25 842.05,-166.86 843.83,-152.77"/>
<polygon fill="black" stroke="black" points="847.32,-153.09 845.1,-142.73 840.37,-152.21 847.32,-153.09"/>
</g>
<!-- methylation calls in low\nmappability regions in ClinVar regions&#45;&gt;bedtools intersect &#45;u_3b -->
<g id="edge21" class="edge">
<title>methylation calls in low\nmappability regions in ClinVar regions&#45;&gt;bedtools intersect &#45;u_3b</title>
<path fill="none" stroke="black" d="M543.75,-328.78C601.27,-310.74 681.55,-285.55 742.99,-266.28"/>
<polygon fill="black" stroke="black" points="744.19,-269.57 752.68,-263.24 742.09,-262.89 744.19,-269.57"/>
<text text-anchor="middle" x="691.79" y="-296.75" font-family="Times,serif" font-size="14.00">low map. calls</text>
</g>
<!-- awk \&#39;{ print $0&quot;\\t&lt;aligner&gt;&quot; }\&#39; -->
<g id="node24" class="node">
<title>awk \&#39;{ print $0&quot;\\t&lt;aligner&gt;&quot; }\&#39;</title>
<polygon fill="#d9d9d9" stroke="#d9d9d9" points="380.29,-254.95 210.2,-236.95 380.29,-218.95 550.38,-236.95 380.29,-254.95"/>
<text text-anchor="middle" x="380.29" y="-233.25" font-family="Times,serif" font-size="14.00">awk &#39;{ print $0&quot;\t&lt;aligner&gt;&quot; }&#39;</text>
</g>
<!-- methylation calls in low\nmappability regions in ClinVar regions&#45;&gt;awk \&#39;{ print $0&quot;\\t&lt;aligner&gt;&quot; }\&#39; -->
<g id="edge24" class="edge">
<title>methylation calls in low\nmappability regions in ClinVar regions&#45;&gt;awk \&#39;{ print $0&quot;\\t&lt;aligner&gt;&quot; }\&#39;</title>
<path fill="none" stroke="black" d="M449.87,-325.98C434.67,-306.75 414.07,-280.69 399.23,-261.92"/>
<polygon fill="black" stroke="black" points="401.81,-259.53 392.86,-253.86 396.32,-263.88 401.81,-259.53"/>
</g>
<!-- ClinVar regions with count of low&#45;mappability methyl calls -->
<g id="node22" class="node">
<title>ClinVar regions with count of low&#45;mappability methyl calls</title>
<polygon fill="none" stroke="black" points="1175.01,-36 655.27,-36 521.57,0 1041.31,0 1175.01,-36"/>
<text text-anchor="middle" x="848.29" y="-14.3" font-family="Times,serif" font-size="14.00">ClinVar regions with count of low&#45;mappability methyl calls</text>
</g>
<!-- ClinVar regions for each low&#45;mappability methyl call&#45;&gt;ClinVar regions with count of low&#45;mappability methyl calls -->
<g id="edge23" class="edge">
<title>ClinVar regions for each low&#45;mappability methyl call&#45;&gt;ClinVar regions with count of low&#45;mappability methyl calls</title>
<path fill="none" stroke="black" d="M847.46,-106.22C847.61,-89.97 847.85,-65.34 848.03,-46.4"/>
<polygon fill="black" stroke="black" points="851.53,-46.31 848.13,-36.28 844.53,-46.24 851.53,-46.31"/>
<text text-anchor="middle" x="907.29" y="-57.8" font-family="Times,serif" font-size="14.00">count_low_map_calls</text>
</g>
<!-- low&#45;mappability methyl call data -->
<g id="node23" class="node">
<title>low&#45;mappability methyl call data</title>
<polygon fill="gray" stroke="gray" points="503.15,-36 202.71,-36 125.43,0 425.87,0 503.15,-36"/>
<text text-anchor="middle" x="314.29" y="-14.3" font-family="Times,serif" font-size="14.00">low&#45;mappability methyl call data</text>
</g>
<!-- methylation calls in low\nmappability regions in ClinVar regions\nwith identifier column -->
<g id="node25" class="node">
<title>methylation calls in low\nmappability regions in ClinVar regions\nwith identifier column</title>
<ellipse fill="none" stroke="black" cx="335.29" cy="-124.48" rx="161.85" ry="37.45"/>
<text text-anchor="middle" x="335.29" y="-135.78" font-family="Times,serif" font-size="14.00">methylation calls in low</text>
<text text-anchor="middle" x="335.29" y="-120.78" font-family="Times,serif" font-size="14.00">mappability regions in ClinVar regions</text>
<text text-anchor="middle" x="335.29" y="-105.78" font-family="Times,serif" font-size="14.00">with identifier column</text>
</g>
<!-- awk \&#39;{ print $0&quot;\\t&lt;aligner&gt;&quot; }\&#39;&#45;&gt;methylation calls in low\nmappability regions in ClinVar regions\nwith identifier column -->
<g id="edge25" class="edge">
<title>awk \&#39;{ print $0&quot;\\t&lt;aligner&gt;&quot; }\&#39;&#45;&gt;methylation calls in low\nmappability regions in ClinVar regions\nwith identifier column</title>
<path fill="none" stroke="black" d="M373.65,-219.65C368.45,-206.89 360.96,-188.49 353.97,-171.33"/>
<polygon fill="black" stroke="black" points="357.17,-169.91 350.15,-161.97 350.68,-172.55 357.17,-169.91"/>
</g>
<!-- methylation calls in low\nmappability regions in ClinVar regions\nwith identifier column&#45;&gt;low&#45;mappability methyl call data -->
<g id="edge26" class="edge">
<title>methylation calls in low\nmappability regions in ClinVar regions\nwith identifier column&#45;&gt;low&#45;mappability methyl call data</title>
<path fill="none" stroke="black" stroke-dasharray="5,2" d="M327.95,-86.94C325.23,-73.42 322.2,-58.36 319.69,-45.86"/>
<polygon fill="black" stroke="black" points="323.12,-45.17 317.72,-36.05 316.26,-46.54 323.12,-45.17"/>
<text text-anchor="middle" x="376.29" y="-57.8" font-family="Times,serif" font-size="14.00">Display in Tableau</text>
</g>
</g>
</svg>
