<?xml version="1.0" encoding="UTF-8" standalone="no"?>
<!DOCTYPE svg PUBLIC "-//W3C//DTD SVG 1.1//EN"
 "http://www.w3.org/Graphics/SVG/1.1/DTD/svg11.dtd">
<!-- Generated by graphviz version 2.47.3 (20210619.1520)
 -->
<!-- Title: workflow Pages: 1 -->
<svg width="1930pt" height="554pt"
 viewBox="0.00 0.00 1930.22 553.74" xmlns="http://www.w3.org/2000/svg" xmlns:xlink="http://www.w3.org/1999/xlink">
<g id="graph0" class="graph" transform="scale(1 1) rotate(0) translate(4 549.74)">
<title>workflow</title>
<polygon fill="white" stroke="transparent" points="-4,4 -4,-549.74 1926.22,-549.74 1926.22,4 -4,4"/>
<!-- PREPROC_1 -->
<!-- Low&#45;mappability Regions -->
<g id="node4" class="node">
<title>Low&#45;mappability Regions</title>
<ellipse fill="none" stroke="black" cx="678.83" cy="-172.87" rx="103.18" ry="18"/>
<text text-anchor="middle" x="678.83" y="-169.17" font-family="Times,serif" font-size="14.00">Low&#45;mappability Regions</text>
</g>
<!-- PREPROC_1&#45;&gt;Low&#45;mappability Regions -->
<g id="edge1" class="edge">
<title>PREPROC_1&#45;&gt;Low&#45;mappability Regions</title>
<path fill="none" stroke="black" stroke-dasharray="1,5" d="M678.83,-270.45C678.83,-252.03 678.83,-222.63 678.83,-201.1"/>
<polygon fill="black" stroke="black" points="682.33,-200.95 678.83,-190.95 675.33,-200.95 682.33,-200.95"/>
<text text-anchor="middle" x="733.83" y="-221.54" font-family="Times,serif" font-size="14.00">From Preprocessing</text>
</g>
<!-- PREPROC_2 -->
<!-- Low&#45;mappability ClinVar Genes -->
<g id="node5" class="node">
<title>Low&#45;mappability ClinVar Genes</title>
<ellipse fill="none" stroke="black" cx="925.83" cy="-172.87" rx="126.18" ry="18"/>
<text text-anchor="middle" x="925.83" y="-169.17" font-family="Times,serif" font-size="14.00">Low&#45;mappability ClinVar Genes</text>
</g>
<!-- PREPROC_2&#45;&gt;Low&#45;mappability ClinVar Genes -->
<g id="edge2" class="edge">
<title>PREPROC_2&#45;&gt;Low&#45;mappability ClinVar Genes</title>
<path fill="none" stroke="black" stroke-dasharray="1,5" d="M925.83,-270.45C925.83,-252.03 925.83,-222.63 925.83,-201.1"/>
<polygon fill="black" stroke="black" points="929.33,-200.95 925.83,-190.95 922.33,-200.95 929.33,-200.95"/>
<text text-anchor="middle" x="980.83" y="-221.54" font-family="Times,serif" font-size="14.00">From Preprocessing</text>
</g>
<!-- PREPROC_3 -->
<!-- Low&#45;mappability Regions \nin ClinVar Genes -->
<g id="node6" class="node">
<title>Low&#45;mappability Regions \nin ClinVar Genes</title>
<ellipse fill="none" stroke="black" cx="1184.83" cy="-172.87" rx="115.02" ry="26.74"/>
<text text-anchor="middle" x="1184.83" y="-176.67" font-family="Times,serif" font-size="14.00">Low&#45;mappability Regions </text>
<text text-anchor="middle" x="1184.83" y="-161.67" font-family="Times,serif" font-size="14.00">in ClinVar Genes</text>
</g>
<!-- PREPROC_3&#45;&gt;Low&#45;mappability Regions \nin ClinVar Genes -->
<g id="edge3" class="edge">
<title>PREPROC_3&#45;&gt;Low&#45;mappability Regions \nin ClinVar Genes</title>
<path fill="none" stroke="black" stroke-dasharray="1,5" d="M1184.83,-270.45C1184.83,-254.45 1184.83,-230.15 1184.83,-209.94"/>
<polygon fill="black" stroke="black" points="1188.33,-209.8 1184.83,-199.8 1181.33,-209.8 1188.33,-209.8"/>
<text text-anchor="middle" x="1239.83" y="-221.54" font-family="Times,serif" font-size="14.00">From Preprocessing</text>
</g>
<!-- Intersect_3 -->
<g id="node15" class="node">
<title>Intersect_3</title>
<polygon fill="#d9d9d9" stroke="#d9d9d9" points="1285.83,-109 1165.52,-91 1285.83,-73 1406.15,-91 1285.83,-109"/>
<text text-anchor="middle" x="1285.83" y="-87.3" font-family="Times,serif" font-size="14.00">Intersect and Process</text>
</g>
<!-- Low&#45;mappability Regions&#45;&gt;Intersect_3 -->
<g id="edge15" class="edge">
<title>Low&#45;mappability Regions&#45;&gt;Intersect_3</title>
<path fill="none" stroke="black" d="M734.4,-157.67C752.33,-153.45 772.34,-149.13 790.83,-146 932.98,-121.92 1100,-106.29 1199.16,-98.33"/>
<polygon fill="black" stroke="black" points="1199.44,-101.82 1209.13,-97.54 1198.88,-94.84 1199.44,-101.82"/>
</g>
<!-- Low&#45;mappability ClinVar Genes&#45;&gt;Intersect_3 -->
<g id="edge16" class="edge">
<title>Low&#45;mappability ClinVar Genes&#45;&gt;Intersect_3</title>
<path fill="none" stroke="black" d="M991.03,-157.41C1059.31,-142.26 1165.41,-118.72 1229.97,-104.39"/>
<polygon fill="black" stroke="black" points="1230.96,-107.76 1239.97,-102.18 1229.44,-100.93 1230.96,-107.76"/>
</g>
<!-- Low&#45;mappability Regions \nin ClinVar Genes&#45;&gt;Intersect_3 -->
<g id="edge17" class="edge">
<title>Low&#45;mappability Regions \nin ClinVar Genes&#45;&gt;Intersect_3</title>
<path fill="none" stroke="black" d="M1216.51,-146.82C1230.28,-135.93 1246.22,-123.33 1259.34,-112.95"/>
<polygon fill="black" stroke="black" points="1261.83,-115.45 1267.5,-106.5 1257.49,-109.96 1261.83,-115.45"/>
</g>
<!-- Genome -->
<g id="node7" class="node">
<title>Genome</title>
<polygon fill="none" stroke="black" points="1415.9,-527.74 1392.37,-545.74 1345.3,-545.74 1321.77,-527.74 1345.3,-509.74 1392.37,-509.74 1415.9,-527.74"/>
<text text-anchor="middle" x="1368.83" y="-524.04" font-family="Times,serif" font-size="14.00">Genome</text>
</g>
<!-- Intersect_1 -->
<g id="node10" class="node">
<title>Intersect_1</title>
<polygon fill="#d9d9d9" stroke="#d9d9d9" points="1478.83,-472.74 1377.62,-454.74 1478.83,-436.74 1580.05,-454.74 1478.83,-472.74"/>
<text text-anchor="middle" x="1478.83" y="-451.04" font-family="Times,serif" font-size="14.00">Call Methylation</text>
</g>
<!-- Genome&#45;&gt;Intersect_1 -->
<g id="edge4" class="edge">
<title>Genome&#45;&gt;Intersect_1</title>
<path fill="none" stroke="black" d="M1393.8,-510.63C1410.31,-499.97 1432.04,-485.94 1449.4,-474.74"/>
<polygon fill="black" stroke="black" points="1451.53,-477.53 1458.03,-469.17 1447.73,-471.65 1451.53,-477.53"/>
</g>
<!-- Bismap -->
<g id="node8" class="node">
<title>Bismap</title>
<polygon fill="none" stroke="black" points="1522.89,-527.74 1500.86,-545.74 1456.81,-545.74 1434.78,-527.74 1456.81,-509.74 1500.86,-509.74 1522.89,-527.74"/>
<text text-anchor="middle" x="1478.83" y="-524.04" font-family="Times,serif" font-size="14.00">Bismap</text>
</g>
<!-- Bismap&#45;&gt;Intersect_1 -->
<g id="edge6" class="edge">
<title>Bismap&#45;&gt;Intersect_1</title>
<path fill="none" stroke="black" d="M1478.83,-509.55C1478.83,-501.53 1478.83,-491.79 1478.83,-482.81"/>
<polygon fill="black" stroke="black" points="1482.33,-482.77 1478.83,-472.77 1475.33,-482.77 1482.33,-482.77"/>
</g>
<!-- BAMs -->
<g id="node9" class="node">
<title>BAMs</title>
<polygon fill="none" stroke="black" points="1620.39,-527.74 1600.61,-545.74 1561.06,-545.74 1541.28,-527.74 1561.06,-509.74 1600.61,-509.74 1620.39,-527.74"/>
<text text-anchor="middle" x="1580.83" y="-524.04" font-family="Times,serif" font-size="14.00">BAMs</text>
</g>
<!-- BAMs&#45;&gt;Intersect_1 -->
<g id="edge5" class="edge">
<title>BAMs&#45;&gt;Intersect_1</title>
<path fill="none" stroke="black" d="M1558.95,-511.51C1543.84,-500.99 1523.6,-486.9 1507.24,-475.51"/>
<polygon fill="black" stroke="black" points="1508.82,-472.34 1498.61,-469.5 1504.82,-478.09 1508.82,-472.34"/>
</g>
<!-- Unfiltered Calls -->
<g id="node11" class="node">
<title>Unfiltered Calls</title>
<polygon fill="none" stroke="black" points="1477.14,-399.74 1320.76,-399.74 1280.53,-363.74 1436.91,-363.74 1477.14,-399.74"/>
<text text-anchor="middle" x="1378.83" y="-378.04" font-family="Times,serif" font-size="14.00">Unfiltered Calls</text>
</g>
<!-- Intersect_1&#45;&gt;Unfiltered Calls -->
<g id="edge7" class="edge">
<title>Intersect_1&#45;&gt;Unfiltered Calls</title>
<path fill="none" stroke="black" d="M1459.55,-440.05C1445.95,-430.39 1427.4,-417.22 1411.51,-405.94"/>
<polygon fill="black" stroke="black" points="1413.19,-402.84 1403.01,-399.9 1409.14,-408.55 1413.19,-402.84"/>
</g>
<!-- Filtered Calls -->
<g id="node12" class="node">
<title>Filtered Calls</title>
<polygon fill="none" stroke="black" points="1666.36,-399.74 1530.31,-399.74 1495.31,-363.74 1631.36,-363.74 1666.36,-399.74"/>
<text text-anchor="middle" x="1580.83" y="-378.04" font-family="Times,serif" font-size="14.00">Filtered Calls</text>
</g>
<!-- Intersect_1&#45;&gt;Filtered Calls -->
<g id="edge8" class="edge">
<title>Intersect_1&#45;&gt;Filtered Calls</title>
<path fill="none" stroke="black" d="M1498.5,-440.05C1512.5,-430.31 1531.65,-416.98 1547.95,-405.63"/>
<polygon fill="black" stroke="black" points="1549.97,-408.49 1556.18,-399.9 1545.97,-402.75 1549.97,-408.49"/>
</g>
<!-- Intersect_2 -->
<g id="node13" class="node">
<title>Intersect_2</title>
<polygon fill="#d9d9d9" stroke="#d9d9d9" points="1466.83,-326.74 1355.83,-288.74 1466.83,-250.74 1577.83,-288.74 1466.83,-326.74"/>
<text text-anchor="middle" x="1466.83" y="-292.54" font-family="Times,serif" font-size="14.00">Subtract Filtered </text>
<text text-anchor="middle" x="1466.83" y="-277.54" font-family="Times,serif" font-size="14.00">from Unfiltered</text>
</g>
<!-- Unfiltered Calls&#45;&gt;Intersect_2 -->
<g id="edge9" class="edge">
<title>Unfiltered Calls&#45;&gt;Intersect_2</title>
<path fill="none" stroke="black" d="M1395.39,-363.62C1405.89,-352.76 1419.86,-338.31 1432.67,-325.07"/>
<polygon fill="black" stroke="black" points="1435.2,-327.49 1439.63,-317.87 1430.17,-322.62 1435.2,-327.49"/>
</g>
<!-- Unfiltered Calls&#45;&gt;Intersect_3 -->
<g id="edge12" class="edge">
<title>Unfiltered Calls&#45;&gt;Intersect_3</title>
<path fill="none" stroke="black" d="M1366.63,-363.49C1359.89,-353.24 1351.89,-339.74 1346.83,-326.74 1317.07,-250.24 1333.48,-224.3 1308.83,-146 1305.86,-136.54 1301.82,-126.46 1297.95,-117.61"/>
<polygon fill="black" stroke="black" points="1301.03,-115.91 1293.73,-108.23 1294.65,-118.78 1301.03,-115.91"/>
</g>
<!-- Filtered Calls&#45;&gt;Intersect_2 -->
<g id="edge10" class="edge">
<title>Filtered Calls&#45;&gt;Intersect_2</title>
<path fill="none" stroke="black" d="M1559.39,-363.62C1544.74,-351.93 1524.86,-336.06 1507.29,-322.03"/>
<polygon fill="black" stroke="black" points="1509.4,-319.24 1499.4,-315.74 1505.03,-324.71 1509.4,-319.24"/>
</g>
<!-- Filtered Calls&#45;&gt;Intersect_3 -->
<g id="edge13" class="edge">
<title>Filtered Calls&#45;&gt;Intersect_3</title>
<path fill="none" stroke="black" d="M1585.71,-363.69C1592.1,-338.22 1600.94,-289.12 1586.83,-250.74 1565.76,-193.4 1549.66,-178.34 1497.83,-146 1457.86,-121.05 1406.85,-107.6 1364.88,-100.37"/>
<polygon fill="black" stroke="black" points="1365.4,-96.91 1354.97,-98.74 1364.27,-103.82 1365.4,-96.91"/>
</g>
<!-- Miscalls -->
<g id="node14" class="node">
<title>Miscalls</title>
<polygon fill="none" stroke="black" points="1488.91,-190.87 1393.35,-190.87 1368.76,-154.87 1464.32,-154.87 1488.91,-190.87"/>
<text text-anchor="middle" x="1428.83" y="-169.17" font-family="Times,serif" font-size="14.00">Miscalls</text>
</g>
<!-- Intersect_2&#45;&gt;Miscalls -->
<g id="edge11" class="edge">
<title>Intersect_2&#45;&gt;Miscalls</title>
<path fill="none" stroke="black" d="M1455.74,-254.5C1450.06,-237.48 1443.24,-217.03 1437.88,-200.98"/>
<polygon fill="black" stroke="black" points="1441.09,-199.53 1434.6,-191.15 1434.45,-201.74 1441.09,-199.53"/>
</g>
<!-- Miscalls&#45;&gt;Intersect_3 -->
<g id="edge14" class="edge">
<title>Miscalls&#45;&gt;Intersect_3</title>
<path fill="none" stroke="black" d="M1398.16,-154.74C1374.83,-141.71 1342.78,-123.81 1318.89,-110.46"/>
<polygon fill="black" stroke="black" points="1320.28,-107.23 1309.84,-105.41 1316.87,-113.34 1320.28,-107.23"/>
</g>
<!-- Low&#45;mappability Calls and Miscalls -->
<g id="node16" class="node">
<title>Low&#45;mappability Calls and Miscalls</title>
<polygon fill="none" stroke="black" points="411.5,-36 84.33,-36 0.17,0 327.34,0 411.5,-36"/>
<text text-anchor="middle" x="205.83" y="-14.3" font-family="Times,serif" font-size="14.00">Low&#45;mappability Calls and Miscalls</text>
</g>
<!-- Intersect_3&#45;&gt;Low&#45;mappability Calls and Miscalls -->
<g id="edge18" class="edge">
<title>Intersect_3&#45;&gt;Low&#45;mappability Calls and Miscalls</title>
<path fill="none" stroke="black" d="M1203.51,-85.32C1049.7,-76.46 708.26,-56.33 420.83,-36 420.49,-35.98 420.15,-35.95 419.81,-35.93"/>
<polygon fill="black" stroke="black" points="420.04,-32.43 409.81,-35.21 419.54,-39.42 420.04,-32.43"/>
</g>
<!-- ClinVar Gene Calls and Miscalls -->
<g id="node17" class="node">
<title>ClinVar Gene Calls and Miscalls</title>
<polygon fill="none" stroke="black" points="803.39,-36 506.62,-36 430.28,0 727.05,0 803.39,-36"/>
<text text-anchor="middle" x="616.83" y="-14.3" font-family="Times,serif" font-size="14.00">ClinVar Gene Calls and Miscalls</text>
</g>
<!-- Intersect_3&#45;&gt;ClinVar Gene Calls and Miscalls -->
<g id="edge19" class="edge">
<title>Intersect_3&#45;&gt;ClinVar Gene Calls and Miscalls</title>
<path fill="none" stroke="black" d="M1219.24,-82.93C1119.43,-72.34 927.78,-52 787.35,-37.1"/>
<polygon fill="black" stroke="black" points="787.65,-33.61 777.33,-36.03 786.91,-40.57 787.65,-33.61"/>
</g>
<!-- ClinVar Gene Low&#45;mappability Calls and Miscalls -->
<g id="node18" class="node">
<title>ClinVar Gene Low&#45;mappability Calls and Miscalls</title>
<polygon fill="none" stroke="black" points="1382.16,-36 936.22,-36 821.51,0 1267.45,0 1382.16,-36"/>
<text text-anchor="middle" x="1101.83" y="-14.3" font-family="Times,serif" font-size="14.00">ClinVar Gene Low&#45;mappability Calls and Miscalls</text>
</g>
<!-- Intersect_3&#45;&gt;ClinVar Gene Low&#45;mappability Calls and Miscalls -->
<g id="edge20" class="edge">
<title>Intersect_3&#45;&gt;ClinVar Gene Low&#45;mappability Calls and Miscalls</title>
<path fill="none" stroke="black" d="M1253.78,-77.63C1226.72,-67.19 1187.41,-52.02 1155.55,-39.73"/>
<polygon fill="black" stroke="black" points="1156.51,-36.35 1145.92,-36.01 1153.99,-42.88 1156.51,-36.35"/>
</g>
<!-- Pure Calls -->
<g id="node19" class="node">
<title>Pure Calls</title>
<polygon fill="none" stroke="black" points="1539.46,-36 1428.7,-36 1400.21,0 1510.97,0 1539.46,-36"/>
<text text-anchor="middle" x="1469.83" y="-14.3" font-family="Times,serif" font-size="14.00">Pure Calls</text>
</g>
<!-- Intersect_3&#45;&gt;Pure Calls -->
<g id="edge21" class="edge">
<title>Intersect_3&#45;&gt;Pure Calls</title>
<path fill="none" stroke="black" d="M1317.89,-77.63C1345.51,-66.98 1385.89,-51.39 1418.09,-38.97"/>
<polygon fill="black" stroke="black" points="1419.73,-42.09 1427.79,-35.22 1417.21,-35.56 1419.73,-42.09"/>
</g>
<!-- Mixed Calls -->
<g id="node20" class="node">
<title>Mixed Calls</title>
<polygon fill="none" stroke="black" points="1717.93,-36 1590.52,-36 1557.74,0 1685.15,0 1717.93,-36"/>
<text text-anchor="middle" x="1637.83" y="-14.3" font-family="Times,serif" font-size="14.00">Mixed Calls</text>
</g>
<!-- Intersect_3&#45;&gt;Mixed Calls -->
<g id="edge22" class="edge">
<title>Intersect_3&#45;&gt;Mixed Calls</title>
<path fill="none" stroke="black" d="M1334.41,-80.2C1396.97,-67.58 1505.81,-45.63 1574.72,-31.73"/>
<polygon fill="black" stroke="black" points="1575.48,-35.15 1584.59,-29.74 1574.09,-28.29 1575.48,-35.15"/>
</g>
<!-- Resolved Calls -->
<g id="node21" class="node">
<title>Resolved Calls</title>
<polygon fill="none" stroke="black" points="1922.11,-36 1773.73,-36 1735.56,0 1883.94,0 1922.11,-36"/>
<text text-anchor="middle" x="1828.83" y="-14.3" font-family="Times,serif" font-size="14.00">Resolved Calls</text>
</g>
<!-- Intersect_3&#45;&gt;Resolved Calls -->
<g id="edge23" class="edge">
<title>Intersect_3&#45;&gt;Resolved Calls</title>
<path fill="none" stroke="black" d="M1351.7,-82.84C1438.01,-73.24 1594,-55.19 1726.83,-36 1736.56,-34.59 1746.8,-33.01 1756.87,-31.39"/>
<polygon fill="black" stroke="black" points="1757.56,-34.83 1766.87,-29.77 1756.44,-27.92 1757.56,-34.83"/>
</g>
</g>
</svg>
