<?xml version="1.0" encoding="UTF-8" standalone="no"?>
<!DOCTYPE svg PUBLIC "-//W3C//DTD SVG 1.1//EN"
 "http://www.w3.org/Graphics/SVG/1.1/DTD/svg11.dtd">
<!-- Generated by graphviz version 2.47.3 (20210619.1520)
 -->
<!-- Title: workflow Pages: 1 -->
<svg width="784pt" height="451pt"
 viewBox="0.00 0.00 783.69 451.00" xmlns="http://www.w3.org/2000/svg" xmlns:xlink="http://www.w3.org/1999/xlink">
<g id="graph0" class="graph" transform="scale(1 1) rotate(0) translate(4 447)">
<title>workflow</title>
<polygon fill="white" stroke="transparent" points="-4,4 -4,-447 779.69,-447 779.69,4 -4,4"/>
<!-- Reference FASTA -->
<g id="node1" class="node">
<title>Reference FASTA</title>
<polygon fill="none" stroke="black" points="600.72,-338 556.41,-356 467.8,-356 423.49,-338 467.8,-320 556.41,-320 600.72,-338"/>
<text text-anchor="middle" x="512.1" y="-334.3" font-family="Times,serif" font-size="14.00">Reference FASTA</text>
</g>
<!-- Bismark -->
<g id="node5" class="node">
<title>Bismark</title>
<polygon fill="#d9d9d9" stroke="#d9d9d9" points="192.1,-196 -0.1,-178 192.1,-160 384.31,-178 192.1,-196"/>
<text text-anchor="middle" x="192.1" y="-174.3" font-family="Times,serif" font-size="14.00">bismark &#45;1 &lt;read 1s&gt; &#45;2 &lt;read 2s&gt;</text>
</g>
<!-- Reference FASTA&#45;&gt;Bismark -->
<g id="edge9" class="edge">
<title>Reference FASTA&#45;&gt;Bismark</title>
<path fill="none" stroke="black" d="M505.53,-319.93C495.54,-296.44 474.26,-254.6 442.1,-233 405,-208.08 358.42,-194.41 315.56,-186.99"/>
<polygon fill="black" stroke="black" points="316.05,-183.53 305.62,-185.37 314.92,-190.44 316.05,-183.53"/>
</g>
<!-- bwa&#45;meth -->
<g id="node6" class="node">
<title>bwa&#45;meth</title>
<polygon fill="#d9d9d9" stroke="#d9d9d9" points="589.1,-196 402.43,-178 589.1,-160 775.78,-178 589.1,-196"/>
<text text-anchor="middle" x="589.1" y="-174.3" font-family="Times,serif" font-size="14.00">bwameth.py &lt;read 1s&gt; &lt;read 2s&gt;</text>
</g>
<!-- Reference FASTA&#45;&gt;bwa&#45;meth -->
<g id="edge10" class="edge">
<title>Reference FASTA&#45;&gt;bwa&#45;meth</title>
<path fill="none" stroke="black" d="M516.79,-319.82C522.92,-298.68 534.69,-262.04 550.1,-233 555.61,-222.63 562.88,-211.99 569.66,-202.92"/>
<polygon fill="black" stroke="black" points="572.6,-204.84 575.92,-194.78 567.05,-200.57 572.6,-204.84"/>
</g>
<!-- Bismark Index -->
<g id="node9" class="node">
<title>Bismark Index</title>
<ellipse fill="none" stroke="black" cx="369.1" cy="-251" rx="63.89" ry="18"/>
<text text-anchor="middle" x="369.1" y="-247.3" font-family="Times,serif" font-size="14.00">Bismark Index</text>
</g>
<!-- Reference FASTA&#45;&gt;Bismark Index -->
<g id="edge7" class="edge">
<title>Reference FASTA&#45;&gt;Bismark Index</title>
<path fill="none" stroke="black" d="M435.06,-333.18C386.97,-329 331.39,-320.25 316.1,-302 307.24,-291.42 315.56,-280.77 328.03,-272.04"/>
<polygon fill="black" stroke="black" points="330.08,-274.89 336.68,-266.6 326.35,-268.96 330.08,-274.89"/>
<text text-anchor="middle" x="397.6" y="-290.8" font-family="Times,serif" font-size="14.00">bismark_genome_preparation</text>
</g>
<!-- bwa&#45;meth Index -->
<g id="node10" class="node">
<title>bwa&#45;meth Index</title>
<ellipse fill="none" stroke="black" cx="628.1" cy="-251" rx="68.79" ry="18"/>
<text text-anchor="middle" x="628.1" y="-247.3" font-family="Times,serif" font-size="14.00">bwa&#45;meth Index</text>
</g>
<!-- Reference FASTA&#45;&gt;bwa&#45;meth Index -->
<g id="edge8" class="edge">
<title>Reference FASTA&#45;&gt;bwa&#45;meth Index</title>
<path fill="none" stroke="black" d="M535.58,-319.8C553.46,-306.7 578.21,-288.56 597.62,-274.34"/>
<polygon fill="black" stroke="black" points="599.85,-277.04 605.85,-268.31 595.71,-271.4 599.85,-277.04"/>
<text text-anchor="middle" x="627.1" y="-290.8" font-family="Times,serif" font-size="14.00">bwameth.py index</text>
</g>
<!-- Input BAMs -->
<g id="node2" class="node">
<title>Input BAMs</title>
<polygon fill="none" stroke="black" points="236.69,-425 204.4,-443 139.81,-443 107.52,-425 139.81,-407 204.4,-407 236.69,-425"/>
<text text-anchor="middle" x="172.1" y="-421.3" font-family="Times,serif" font-size="14.00">Input BAMs</text>
</g>
<!-- Collated BAMs -->
<g id="node7" class="node">
<title>Collated BAMs</title>
<ellipse fill="none" stroke="black" cx="172.1" cy="-338" rx="66.89" ry="18"/>
<text text-anchor="middle" x="172.1" y="-334.3" font-family="Times,serif" font-size="14.00">Collated BAMs</text>
</g>
<!-- Input BAMs&#45;&gt;Collated BAMs -->
<g id="edge1" class="edge">
<title>Input BAMs&#45;&gt;Collated BAMs</title>
<path fill="none" stroke="black" d="M172.1,-406.8C172.1,-395.16 172.1,-379.55 172.1,-366.24"/>
<polygon fill="black" stroke="black" points="175.6,-366.18 172.1,-356.18 168.6,-366.18 175.6,-366.18"/>
<text text-anchor="middle" x="216.6" y="-377.8" font-family="Times,serif" font-size="14.00">samtools collate</text>
</g>
<!-- Final Bismark BAMs -->
<g id="node3" class="node">
<title>Final Bismark BAMs</title>
<polygon fill="none" stroke="black" points="320.9,-36 116.02,-36 63.31,0 268.19,0 320.9,-36"/>
<text text-anchor="middle" x="192.1" y="-14.3" font-family="Times,serif" font-size="14.00">Final Bismark BAMs</text>
</g>
<!-- Final bwa&#45;meth BAMs -->
<g id="node4" class="node">
<title>Final bwa&#45;meth BAMs</title>
<polygon fill="none" stroke="black" points="725.14,-123 508.73,-123 453.06,-87 669.47,-87 725.14,-123"/>
<text text-anchor="middle" x="589.1" y="-101.3" font-family="Times,serif" font-size="14.00">Final bwa&#45;meth BAMs</text>
</g>
<!-- Realigned Bismark BAMs -->
<g id="node11" class="node">
<title>Realigned Bismark BAMs</title>
<ellipse fill="none" stroke="black" cx="192.1" cy="-105" rx="105.08" ry="18"/>
<text text-anchor="middle" x="192.1" y="-101.3" font-family="Times,serif" font-size="14.00">Realigned Bismark BAMs</text>
</g>
<!-- Bismark&#45;&gt;Realigned Bismark BAMs -->
<g id="edge11" class="edge">
<title>Bismark&#45;&gt;Realigned Bismark BAMs</title>
<path fill="none" stroke="black" d="M192.1,-159.81C192.1,-151.79 192.1,-142.05 192.1,-133.07"/>
<polygon fill="black" stroke="black" points="195.6,-133.03 192.1,-123.03 188.6,-133.03 195.6,-133.03"/>
</g>
<!-- bwa&#45;meth&#45;&gt;Final bwa&#45;meth BAMs -->
<g id="edge13" class="edge">
<title>bwa&#45;meth&#45;&gt;Final bwa&#45;meth BAMs</title>
<path fill="none" stroke="black" d="M589.1,-159.81C589.1,-151.79 589.1,-142.05 589.1,-133.07"/>
<polygon fill="black" stroke="black" points="592.6,-133.03 589.1,-123.03 585.6,-133.03 592.6,-133.03"/>
</g>
<!-- Split Read 1/Read 2 FASTQs -->
<g id="node8" class="node">
<title>Split Read 1/Read 2 FASTQs</title>
<ellipse fill="none" stroke="black" cx="172.1" cy="-251" rx="115.88" ry="18"/>
<text text-anchor="middle" x="172.1" y="-247.3" font-family="Times,serif" font-size="14.00">Split Read 1/Read 2 FASTQs</text>
</g>
<!-- Collated BAMs&#45;&gt;Split Read 1/Read 2 FASTQs -->
<g id="edge2" class="edge">
<title>Collated BAMs&#45;&gt;Split Read 1/Read 2 FASTQs</title>
<path fill="none" stroke="black" d="M172.1,-319.8C172.1,-308.16 172.1,-292.55 172.1,-279.24"/>
<polygon fill="black" stroke="black" points="175.6,-279.18 172.1,-269.18 168.6,-279.18 175.6,-279.18"/>
<text text-anchor="middle" x="211.6" y="-290.8" font-family="Times,serif" font-size="14.00">samtools fastq</text>
</g>
<!-- Split Read 1/Read 2 FASTQs&#45;&gt;Bismark -->
<g id="edge3" class="edge">
<title>Split Read 1/Read 2 FASTQs&#45;&gt;Bismark</title>
<path fill="none" stroke="black" d="M176.95,-232.81C179.23,-224.7 182.01,-214.84 184.56,-205.78"/>
<polygon fill="black" stroke="black" points="187.96,-206.6 187.31,-196.03 181.23,-204.71 187.96,-206.6"/>
</g>
<!-- Split Read 1/Read 2 FASTQs&#45;&gt;bwa&#45;meth -->
<g id="edge4" class="edge">
<title>Split Read 1/Read 2 FASTQs&#45;&gt;bwa&#45;meth</title>
<path fill="none" stroke="black" d="M247.14,-237.22C323.1,-224.29 439.84,-204.41 515.34,-191.56"/>
<polygon fill="black" stroke="black" points="515.99,-195 525.26,-189.87 514.81,-188.1 515.99,-195"/>
</g>
<!-- Bismark Index&#45;&gt;Bismark -->
<g id="edge5" class="edge">
<title>Bismark Index&#45;&gt;Bismark</title>
<path fill="none" stroke="black" d="M333.71,-235.8C305.58,-224.52 266.09,-208.68 235.96,-196.59"/>
<polygon fill="black" stroke="black" points="237.12,-193.28 226.53,-192.81 234.51,-199.78 237.12,-193.28"/>
</g>
<!-- bwa&#45;meth Index&#45;&gt;bwa&#45;meth -->
<g id="edge6" class="edge">
<title>bwa&#45;meth Index&#45;&gt;bwa&#45;meth</title>
<path fill="none" stroke="black" d="M618.66,-232.81C614,-224.32 608.27,-213.9 603.11,-204.49"/>
<polygon fill="black" stroke="black" points="606.07,-202.62 598.19,-195.54 599.94,-205.99 606.07,-202.62"/>
</g>
<!-- Realigned Bismark BAMs&#45;&gt;Final Bismark BAMs -->
<g id="edge12" class="edge">
<title>Realigned Bismark BAMs&#45;&gt;Final Bismark BAMs</title>
<path fill="none" stroke="black" d="M192.1,-86.8C192.1,-75.16 192.1,-59.55 192.1,-46.24"/>
<polygon fill="black" stroke="black" points="195.6,-46.18 192.1,-36.18 188.6,-46.18 195.6,-46.18"/>
<text text-anchor="middle" x="249.1" y="-57.8" font-family="Times,serif" font-size="14.00">deduplicate_bismark</text>
</g>
</g>
</svg>
