<?xml version="1.0" encoding="UTF-8" standalone="no"?>
<!DOCTYPE svg PUBLIC "-//W3C//DTD SVG 1.1//EN"
 "http://www.w3.org/Graphics/SVG/1.1/DTD/svg11.dtd">
<!-- Generated by graphviz version 2.47.3 (20210619.1520)
 -->
<!-- Title: workflow Pages: 1 -->
<svg width="567pt" height="451pt"
 viewBox="0.00 0.00 566.84 451.00" xmlns="http://www.w3.org/2000/svg" xmlns:xlink="http://www.w3.org/1999/xlink">
<g id="graph0" class="graph" transform="scale(1 1) rotate(0) translate(4 447)">
<title>workflow</title>
<polygon fill="white" stroke="transparent" points="-4,4 -4,-447 562.84,-447 562.84,4 -4,4"/>
<!-- Reference Genome -->
<g id="node1" class="node">
<title>Reference Genome</title>
<polygon fill="none" stroke="black" points="465.56,-338 419.75,-356 328.13,-356 282.32,-338 328.13,-320 419.75,-320 465.56,-338"/>
<text text-anchor="middle" x="373.94" y="-334.3" font-family="Times,serif" font-size="14.00">Reference Genome</text>
</g>
<!-- Bismark -->
<g id="node5" class="node">
<title>Bismark</title>
<polygon fill="#d9d9d9" stroke="#d9d9d9" points="170.94,-196 114.81,-178 170.94,-160 227.08,-178 170.94,-196"/>
<text text-anchor="middle" x="170.94" y="-174.3" font-family="Times,serif" font-size="14.00">bismark</text>
</g>
<!-- Reference Genome&#45;&gt;Bismark -->
<g id="edge9" class="edge">
<title>Reference Genome&#45;&gt;Bismark</title>
<path fill="none" stroke="black" d="M364.68,-319.63C358.73,-309.44 350.37,-296.69 340.94,-287 299.89,-244.77 239.26,-211.35 202.59,-193.44"/>
<polygon fill="black" stroke="black" points="203.89,-190.18 193.36,-189.01 200.87,-196.49 203.89,-190.18"/>
</g>
<!-- bwa&#45;meth -->
<g id="node6" class="node">
<title>bwa&#45;meth</title>
<polygon fill="#d9d9d9" stroke="#d9d9d9" points="393.94,-196 316.53,-178 393.94,-160 471.36,-178 393.94,-196"/>
<text text-anchor="middle" x="393.94" y="-174.3" font-family="Times,serif" font-size="14.00">bwameth.py</text>
</g>
<!-- Reference Genome&#45;&gt;bwa&#45;meth -->
<g id="edge10" class="edge">
<title>Reference Genome&#45;&gt;bwa&#45;meth</title>
<path fill="none" stroke="black" d="M376.12,-319.79C379.6,-292.34 386.42,-238.43 390.54,-205.87"/>
<polygon fill="black" stroke="black" points="394.05,-206.07 391.83,-195.71 387.1,-205.19 394.05,-206.07"/>
</g>
<!-- Bismark Index -->
<g id="node9" class="node">
<title>Bismark Index</title>
<ellipse fill="none" stroke="black" cx="190.94" cy="-251" rx="63.89" ry="18"/>
<text text-anchor="middle" x="190.94" y="-247.3" font-family="Times,serif" font-size="14.00">Bismark Index</text>
</g>
<!-- Reference Genome&#45;&gt;Bismark Index -->
<g id="edge7" class="edge">
<title>Reference Genome&#45;&gt;Bismark Index</title>
<path fill="none" stroke="black" d="M294.8,-332.99C247.21,-328.74 193.01,-319.99 177.94,-302 172.4,-295.38 172.87,-286.66 175.61,-278.36"/>
<polygon fill="black" stroke="black" points="178.91,-279.53 179.64,-268.96 172.48,-276.77 178.91,-279.53"/>
<text text-anchor="middle" x="259.44" y="-290.8" font-family="Times,serif" font-size="14.00">bismark_genome_preparation</text>
</g>
<!-- bwa&#45;meth Index -->
<g id="node10" class="node">
<title>bwa&#45;meth Index</title>
<ellipse fill="none" stroke="black" cx="489.94" cy="-251" rx="68.79" ry="18"/>
<text text-anchor="middle" x="489.94" y="-247.3" font-family="Times,serif" font-size="14.00">bwa&#45;meth Index</text>
</g>
<!-- Reference Genome&#45;&gt;bwa&#45;meth Index -->
<g id="edge8" class="edge">
<title>Reference Genome&#45;&gt;bwa&#45;meth Index</title>
<path fill="none" stroke="black" d="M397.42,-319.8C415.3,-306.7 440.05,-288.56 459.46,-274.34"/>
<polygon fill="black" stroke="black" points="461.69,-277.04 467.69,-268.31 457.55,-271.4 461.69,-277.04"/>
<text text-anchor="middle" x="488.94" y="-290.8" font-family="Times,serif" font-size="14.00">bwameth.py index</text>
</g>
<!-- Input BAMs -->
<g id="node2" class="node">
<title>Input BAMs</title>
<polygon fill="none" stroke="black" points="131.53,-425 99.24,-443 34.65,-443 2.36,-425 34.65,-407 99.24,-407 131.53,-425"/>
<text text-anchor="middle" x="66.94" y="-421.3" font-family="Times,serif" font-size="14.00">Input BAMs</text>
</g>
<!-- Collated BAMs -->
<g id="node7" class="node">
<title>Collated BAMs</title>
<ellipse fill="none" stroke="black" cx="66.94" cy="-338" rx="66.89" ry="18"/>
<text text-anchor="middle" x="66.94" y="-334.3" font-family="Times,serif" font-size="14.00">Collated BAMs</text>
</g>
<!-- Input BAMs&#45;&gt;Collated BAMs -->
<g id="edge1" class="edge">
<title>Input BAMs&#45;&gt;Collated BAMs</title>
<path fill="none" stroke="black" d="M66.94,-406.8C66.94,-395.16 66.94,-379.55 66.94,-366.24"/>
<polygon fill="black" stroke="black" points="70.44,-366.18 66.94,-356.18 63.44,-366.18 70.44,-366.18"/>
<text text-anchor="middle" x="111.44" y="-377.8" font-family="Times,serif" font-size="14.00">samtools collate</text>
</g>
<!-- Final Bismark BAMs -->
<g id="node3" class="node">
<title>Final Bismark BAMs</title>
<polygon fill="none" stroke="black" points="264.74,-36 59.86,-36 7.15,0 212.03,0 264.74,-36"/>
<text text-anchor="middle" x="135.94" y="-14.3" font-family="Times,serif" font-size="14.00">Final Bismark BAMs</text>
</g>
<!-- Final bwa&#45;meth BAMs -->
<g id="node4" class="node">
<title>Final bwa&#45;meth BAMs</title>
<polygon fill="none" stroke="black" points="531.99,-123 315.57,-123 259.9,-87 476.31,-87 531.99,-123"/>
<text text-anchor="middle" x="395.94" y="-101.3" font-family="Times,serif" font-size="14.00">Final bwa&#45;meth BAMs</text>
</g>
<!-- Realigned Bismark BAMs -->
<g id="node11" class="node">
<title>Realigned Bismark BAMs</title>
<ellipse fill="none" stroke="black" cx="135.94" cy="-105" rx="105.08" ry="18"/>
<text text-anchor="middle" x="135.94" y="-101.3" font-family="Times,serif" font-size="14.00">Realigned Bismark BAMs</text>
</g>
<!-- Bismark&#45;&gt;Realigned Bismark BAMs -->
<g id="edge11" class="edge">
<title>Bismark&#45;&gt;Realigned Bismark BAMs</title>
<path fill="none" stroke="black" d="M163.69,-162.29C159.44,-153.67 153.95,-142.53 148.97,-132.43"/>
<polygon fill="black" stroke="black" points="151.98,-130.61 144.42,-123.19 145.7,-133.71 151.98,-130.61"/>
</g>
<!-- bwa&#45;meth&#45;&gt;Final bwa&#45;meth BAMs -->
<g id="edge13" class="edge">
<title>bwa&#45;meth&#45;&gt;Final bwa&#45;meth BAMs</title>
<path fill="none" stroke="black" d="M394.43,-159.81C394.65,-151.79 394.93,-142.05 395.18,-133.07"/>
<polygon fill="black" stroke="black" points="398.68,-133.12 395.46,-123.03 391.68,-132.93 398.68,-133.12"/>
</g>
<!-- FASTQs -->
<g id="node8" class="node">
<title>FASTQs</title>
<ellipse fill="none" stroke="black" cx="66.94" cy="-251" rx="42.49" ry="18"/>
<text text-anchor="middle" x="66.94" y="-247.3" font-family="Times,serif" font-size="14.00">FASTQs</text>
</g>
<!-- Collated BAMs&#45;&gt;FASTQs -->
<g id="edge2" class="edge">
<title>Collated BAMs&#45;&gt;FASTQs</title>
<path fill="none" stroke="black" d="M66.94,-319.8C66.94,-308.16 66.94,-292.55 66.94,-279.24"/>
<polygon fill="black" stroke="black" points="70.44,-279.18 66.94,-269.18 63.44,-279.18 70.44,-279.18"/>
<text text-anchor="middle" x="106.44" y="-290.8" font-family="Times,serif" font-size="14.00">samtools fastq</text>
</g>
<!-- FASTQs&#45;&gt;Bismark -->
<g id="edge3" class="edge">
<title>FASTQs&#45;&gt;Bismark</title>
<path fill="none" stroke="black" d="M88.49,-235.29C105.01,-224.01 127.86,-208.42 145.31,-196.5"/>
<polygon fill="black" stroke="black" points="147.6,-199.17 153.89,-190.65 143.65,-193.39 147.6,-199.17"/>
</g>
<!-- FASTQs&#45;&gt;bwa&#45;meth -->
<g id="edge4" class="edge">
<title>FASTQs&#45;&gt;bwa&#45;meth</title>
<path fill="none" stroke="black" d="M98.31,-238.84C104.76,-236.75 111.54,-234.69 117.94,-233 194.17,-212.93 284.03,-196.69 340,-187.44"/>
<polygon fill="black" stroke="black" points="340.75,-190.87 350.05,-185.8 339.62,-183.96 340.75,-190.87"/>
</g>
<!-- Bismark Index&#45;&gt;Bismark -->
<g id="edge5" class="edge">
<title>Bismark Index&#45;&gt;Bismark</title>
<path fill="none" stroke="black" d="M186.1,-232.81C183.75,-224.46 180.87,-214.25 178.26,-204.98"/>
<polygon fill="black" stroke="black" points="181.55,-203.73 175.47,-195.06 174.81,-205.63 181.55,-203.73"/>
</g>
<!-- bwa&#45;meth Index&#45;&gt;bwa&#45;meth -->
<g id="edge6" class="edge">
<title>bwa&#45;meth Index&#45;&gt;bwa&#45;meth</title>
<path fill="none" stroke="black" d="M468.16,-233.89C453.82,-223.29 434.99,-209.36 419.88,-198.18"/>
<polygon fill="black" stroke="black" points="421.6,-195.1 411.48,-191.97 417.44,-200.73 421.6,-195.1"/>
</g>
<!-- Realigned Bismark BAMs&#45;&gt;Final Bismark BAMs -->
<g id="edge12" class="edge">
<title>Realigned Bismark BAMs&#45;&gt;Final Bismark BAMs</title>
<path fill="none" stroke="black" d="M135.94,-86.8C135.94,-75.16 135.94,-59.55 135.94,-46.24"/>
<polygon fill="black" stroke="black" points="139.44,-46.18 135.94,-36.18 132.44,-46.18 139.44,-46.18"/>
<text text-anchor="middle" x="192.94" y="-57.8" font-family="Times,serif" font-size="14.00">deduplicate_bismark</text>
</g>
</g>
</svg>
