<?xml version="1.0" encoding="UTF-8" standalone="no"?>
<!DOCTYPE svg PUBLIC "-//W3C//DTD SVG 1.1//EN"
 "http://www.w3.org/Graphics/SVG/1.1/DTD/svg11.dtd">
<!-- Generated by graphviz version 2.47.3 (20210619.1520)
 -->
<!-- Title: workflow Pages: 1 -->
<svg width="779pt" height="609pt"
 viewBox="0.00 0.00 778.84 609.00" xmlns="http://www.w3.org/2000/svg" xmlns:xlink="http://www.w3.org/1999/xlink">
<g id="graph0" class="graph" transform="scale(1 1) rotate(0) translate(4 605)">
<title>workflow</title>
<polygon fill="white" stroke="transparent" points="-4,4 -4,-605 774.84,-605 774.84,4 -4,4"/>
<!-- ClinVar VCF -->
<g id="node1" class="node">
<title>ClinVar VCF</title>
<polygon fill="none" stroke="black" points="176.59,-583 143.29,-601 76.71,-601 43.41,-583 76.71,-565 143.29,-565 176.59,-583"/>
<text text-anchor="middle" x="110" y="-579.3" font-family="Times,serif" font-size="14.00">ClinVar VCF</text>
</g>
<!-- ClinVar BED -->
<g id="node5" class="node">
<title>ClinVar BED</title>
<ellipse fill="none" stroke="black" cx="115" cy="-496" rx="57.69" ry="18"/>
<text text-anchor="middle" x="115" y="-492.3" font-family="Times,serif" font-size="14.00">ClinVar BED</text>
</g>
<!-- ClinVar VCF&#45;&gt;ClinVar BED -->
<g id="edge1" class="edge">
<title>ClinVar VCF&#45;&gt;ClinVar BED</title>
<path fill="none" stroke="black" d="M111.01,-564.8C111.7,-553.16 112.61,-537.55 113.4,-524.24"/>
<polygon fill="black" stroke="black" points="116.9,-524.36 113.99,-514.18 109.91,-523.95 116.9,-524.36"/>
<text text-anchor="middle" x="135" y="-535.8" font-family="Times,serif" font-size="14.00">vcf2bed</text>
</g>
<!-- GRCh38 &#45;&gt; T2Tv1.0 chain file -->
<g id="node2" class="node">
<title>GRCh38 &#45;&gt; T2Tv1.0 chain file</title>
<polygon fill="none" stroke="black" points="662.68,-310 592.84,-328 453.16,-328 383.32,-310 453.16,-292 592.84,-292 662.68,-310"/>
<text text-anchor="middle" x="523" y="-306.3" font-family="Times,serif" font-size="14.00">GRCh38 &#45;&gt; T2Tv1.0 chain file</text>
</g>
<!-- CrossMap1 -->
<g id="node9" class="node">
<title>CrossMap1</title>
<polygon fill="#d9d9d9" stroke="#d9d9d9" points="356,-255 124.24,-237 356,-219 587.76,-237 356,-255"/>
<text text-anchor="middle" x="356" y="-233.3" font-family="Times,serif" font-size="14.00">CrossMap.py bed &lt;chain file&gt; &lt;BED file&gt;</text>
</g>
<!-- GRCh38 &#45;&gt; T2Tv1.0 chain file&#45;&gt;CrossMap1 -->
<g id="edge3" class="edge">
<title>GRCh38 &#45;&gt; T2Tv1.0 chain file&#45;&gt;CrossMap1</title>
<path fill="none" stroke="black" d="M483,-291.99C457.84,-281.3 425.38,-267.5 399.57,-256.52"/>
<polygon fill="black" stroke="black" points="400.61,-253.16 390.04,-252.47 397.87,-259.6 400.61,-253.16"/>
</g>
<!-- T2Tv1.0 &#45;&gt; T2Tv1.1 chain file -->
<g id="node3" class="node">
<title>T2Tv1.0 &#45;&gt; T2Tv1.1 chain file</title>
<polygon fill="none" stroke="black" points="770.68,-164 701.34,-182 562.66,-182 493.32,-164 562.66,-146 701.34,-146 770.68,-164"/>
<text text-anchor="middle" x="632" y="-160.3" font-family="Times,serif" font-size="14.00">T2Tv1.0 &#45;&gt; T2Tv1.1 chain file</text>
</g>
<!-- CrossMap2 -->
<g id="node10" class="node">
<title>CrossMap2</title>
<polygon fill="#d9d9d9" stroke="#d9d9d9" points="494,-109 262.24,-91 494,-73 725.76,-91 494,-109"/>
<text text-anchor="middle" x="494" y="-87.3" font-family="Times,serif" font-size="14.00">CrossMap.py bed &lt;chain file&gt; &lt;BED file&gt;</text>
</g>
<!-- T2Tv1.0 &#45;&gt; T2Tv1.1 chain file&#45;&gt;CrossMap2 -->
<g id="edge10" class="edge">
<title>T2Tv1.0 &#45;&gt; T2Tv1.1 chain file&#45;&gt;CrossMap2</title>
<path fill="none" stroke="black" d="M598.95,-145.99C578.8,-135.63 552.99,-122.35 532,-111.55"/>
<polygon fill="black" stroke="black" points="533.53,-108.4 523.04,-106.94 530.33,-114.63 533.53,-108.4"/>
</g>
<!-- GENCODE GFF -->
<g id="node4" class="node">
<title>GENCODE GFF</title>
<polygon fill="none" stroke="black" points="359.61,-583 318.3,-601 235.7,-601 194.39,-583 235.7,-565 318.3,-565 359.61,-583"/>
<text text-anchor="middle" x="277" y="-579.3" font-family="Times,serif" font-size="14.00">GENCODE GFF</text>
</g>
<!-- GENCODE BED -->
<g id="node6" class="node">
<title>GENCODE BED</title>
<ellipse fill="none" stroke="black" cx="273" cy="-496" rx="72.59" ry="18"/>
<text text-anchor="middle" x="273" y="-492.3" font-family="Times,serif" font-size="14.00">GENCODE BED</text>
</g>
<!-- GENCODE GFF&#45;&gt;GENCODE BED -->
<g id="edge2" class="edge">
<title>GENCODE GFF&#45;&gt;GENCODE BED</title>
<path fill="none" stroke="black" d="M276.19,-564.8C275.64,-553.16 274.91,-537.55 274.28,-524.24"/>
<polygon fill="black" stroke="black" points="277.77,-524 273.81,-514.18 270.78,-524.33 277.77,-524"/>
<text text-anchor="middle" x="297.5" y="-535.8" font-family="Times,serif" font-size="14.00">gff2bed</text>
</g>
<!-- bedtools intersect &#45;u -->
<g id="node11" class="node">
<title>bedtools intersect &#45;u</title>
<polygon fill="#d9d9d9" stroke="#d9d9d9" points="189,-441 0,-403 189,-365 378,-403 189,-441"/>
<text text-anchor="middle" x="189" y="-406.8" font-family="Times,serif" font-size="14.00">bedtools intersect &#45;u </text>
<text text-anchor="middle" x="189" y="-391.8" font-family="Times,serif" font-size="14.00">&#45;a &lt;GENCODE&gt; &#45;b &lt;ClinVar&gt;</text>
</g>
<!-- ClinVar BED&#45;&gt;bedtools intersect &#45;u -->
<g id="edge6" class="edge">
<title>ClinVar BED&#45;&gt;bedtools intersect &#45;u</title>
<path fill="none" stroke="black" d="M128.57,-478.31C136.45,-468.63 146.72,-455.99 156.56,-443.89"/>
<polygon fill="black" stroke="black" points="159.34,-446.02 162.93,-436.06 153.91,-441.61 159.34,-446.02"/>
</g>
<!-- GENCODE BED&#45;&gt;bedtools intersect &#45;u -->
<g id="edge5" class="edge">
<title>GENCODE BED&#45;&gt;bedtools intersect &#45;u</title>
<path fill="none" stroke="black" d="M257.59,-478.31C248.41,-468.37 236.36,-455.31 224.92,-442.91"/>
<polygon fill="black" stroke="black" points="227.26,-440.29 217.9,-435.31 222.12,-445.04 227.26,-440.29"/>
</g>
<!-- ClinVar GRCh38 regions BED -->
<g id="node7" class="node">
<title>ClinVar GRCh38 regions BED</title>
<polygon fill="none" stroke="black" points="365.09,-328 84.97,-328 12.91,-292 293.03,-292 365.09,-328"/>
<text text-anchor="middle" x="189" y="-306.3" font-family="Times,serif" font-size="14.00">ClinVar GRCh38 regions BED</text>
</g>
<!-- ClinVar GRCh38 regions BED&#45;&gt;CrossMap1 -->
<g id="edge7" class="edge">
<title>ClinVar GRCh38 regions BED&#45;&gt;CrossMap1</title>
<path fill="none" stroke="black" d="M229,-291.99C254.16,-281.3 286.62,-267.5 312.43,-256.52"/>
<polygon fill="black" stroke="black" points="314.13,-259.6 321.96,-252.47 311.39,-253.16 314.13,-259.6"/>
</g>
<!-- ClinVar T2Tv1.1 regions BED -->
<g id="node8" class="node">
<title>ClinVar T2Tv1.1 regions BED</title>
<polygon fill="none" stroke="black" points="669.18,-36 390.51,-36 318.82,0 597.49,0 669.18,-36"/>
<text text-anchor="middle" x="494" y="-14.3" font-family="Times,serif" font-size="14.00">ClinVar T2Tv1.1 regions BED</text>
</g>
<!-- ClinVar T2Tv1.0 regions BED -->
<g id="node12" class="node">
<title>ClinVar T2Tv1.0 regions BED</title>
<ellipse fill="none" stroke="black" cx="356" cy="-164" rx="119.68" ry="18"/>
<text text-anchor="middle" x="356" y="-160.3" font-family="Times,serif" font-size="14.00">ClinVar T2Tv1.0 regions BED</text>
</g>
<!-- CrossMap1&#45;&gt;ClinVar T2Tv1.0 regions BED -->
<g id="edge8" class="edge">
<title>CrossMap1&#45;&gt;ClinVar T2Tv1.0 regions BED</title>
<path fill="none" stroke="black" d="M356,-218.81C356,-210.79 356,-201.05 356,-192.07"/>
<polygon fill="black" stroke="black" points="359.5,-192.03 356,-182.03 352.5,-192.03 359.5,-192.03"/>
</g>
<!-- CrossMap2&#45;&gt;ClinVar T2Tv1.1 regions BED -->
<g id="edge11" class="edge">
<title>CrossMap2&#45;&gt;ClinVar T2Tv1.1 regions BED</title>
<path fill="none" stroke="black" d="M494,-72.81C494,-64.79 494,-55.05 494,-46.07"/>
<polygon fill="black" stroke="black" points="497.5,-46.03 494,-36.03 490.5,-46.03 497.5,-46.03"/>
</g>
<!-- bedtools intersect &#45;u&#45;&gt;ClinVar GRCh38 regions BED -->
<g id="edge4" class="edge">
<title>bedtools intersect &#45;u&#45;&gt;ClinVar GRCh38 regions BED</title>
<path fill="none" stroke="black" d="M189,-364.99C189,-355.99 189,-346.54 189,-338.1"/>
<polygon fill="black" stroke="black" points="192.5,-338.06 189,-328.06 185.5,-338.06 192.5,-338.06"/>
</g>
<!-- ClinVar T2Tv1.0 regions BED&#45;&gt;CrossMap2 -->
<g id="edge9" class="edge">
<title>ClinVar T2Tv1.0 regions BED&#45;&gt;CrossMap2</title>
<path fill="none" stroke="black" d="M388.01,-146.53C408.26,-136.11 434.55,-122.59 455.88,-111.61"/>
<polygon fill="black" stroke="black" points="457.7,-114.61 464.99,-106.93 454.49,-108.39 457.7,-114.61"/>
</g>
</g>
</svg>
