<?xml version="1.0" encoding="UTF-8" standalone="no"?>
<!DOCTYPE svg PUBLIC "-//W3C//DTD SVG 1.1//EN"
 "http://www.w3.org/Graphics/SVG/1.1/DTD/svg11.dtd">
<!-- Generated by graphviz version 2.50.0 (0)
 -->
<!-- Title: workflow Pages: 1 -->
<svg width="710pt" height="350pt"
 viewBox="0.00 0.00 709.78 349.74" xmlns="http://www.w3.org/2000/svg" xmlns:xlink="http://www.w3.org/1999/xlink">
<g id="graph0" class="graph" transform="scale(1 1) rotate(0) translate(4 345.74)">
<title>workflow</title>
<polygon fill="white" stroke="transparent" points="-4,4 -4,-345.74 705.78,-345.74 705.78,4 -4,4"/>
<!-- Genome -->
<g id="node1" class="node">
<title>Genome</title>
<polygon fill="none" stroke="black" points="130.91,-323.74 107.37,-341.74 60.31,-341.74 36.78,-323.74 60.31,-305.74 107.37,-305.74 130.91,-323.74"/>
<text text-anchor="middle" x="83.84" y="-320.04" font-family="Times,serif" font-size="14.00">Genome</text>
</g>
<!-- Total C/CpG Counts -->
<g id="node6" class="node">
<title>Total C/CpG Counts</title>
<ellipse fill="none" stroke="black" cx="83.84" cy="-242.87" rx="83.69" ry="18"/>
<text text-anchor="middle" x="83.84" y="-239.17" font-family="Times,serif" font-size="14.00">Total C/CpG Counts</text>
</g>
<!-- Genome&#45;&gt;Total C/CpG Counts -->
<g id="edge3" class="edge">
<title>Genome&#45;&gt;Total C/CpG Counts</title>
<path fill="none" stroke="black" d="M83.84,-305.63C83.84,-295.6 83.84,-282.71 83.84,-271.29"/>
<polygon fill="black" stroke="black" points="87.34,-270.95 83.84,-260.95 80.34,-270.95 87.34,-270.95"/>
</g>
<!-- BEDs -->
<g id="node2" class="node">
<title>BEDs</title>
<polygon fill="none" stroke="black" points="471.39,-323.74 453.12,-341.74 416.57,-341.74 398.29,-323.74 416.57,-305.74 453.12,-305.74 471.39,-323.74"/>
<text text-anchor="middle" x="434.84" y="-320.04" font-family="Times,serif" font-size="14.00">BEDs</text>
</g>
<!-- Per&#45;chromosome Call Counts -->
<g id="node4" class="node">
<title>Per&#45;chromosome Call Counts</title>
<ellipse fill="none" stroke="black" cx="301.84" cy="-242.87" rx="116.18" ry="18"/>
<text text-anchor="middle" x="301.84" y="-239.17" font-family="Times,serif" font-size="14.00">Per&#45;chromosome Call Counts</text>
</g>
<!-- BEDs&#45;&gt;Per&#45;chromosome Call Counts -->
<g id="edge1" class="edge">
<title>BEDs&#45;&gt;Per&#45;chromosome Call Counts</title>
<path fill="none" stroke="black" d="M412.58,-309.54C392.39,-297.56 362.23,-279.68 338.48,-265.6"/>
<polygon fill="black" stroke="black" points="340.11,-262.5 329.73,-260.41 336.54,-268.52 340.11,-262.5"/>
</g>
<!-- Per&#45;chromosome Gene Counts \nwith Calls -->
<g id="node5" class="node">
<title>Per&#45;chromosome Gene Counts \nwith Calls</title>
<ellipse fill="none" stroke="black" cx="568.84" cy="-242.87" rx="132.87" ry="26.74"/>
<text text-anchor="middle" x="568.84" y="-246.67" font-family="Times,serif" font-size="14.00">Per&#45;chromosome Gene Counts </text>
<text text-anchor="middle" x="568.84" y="-231.67" font-family="Times,serif" font-size="14.00">with Calls</text>
</g>
<!-- BEDs&#45;&gt;Per&#45;chromosome Gene Counts \nwith Calls -->
<g id="edge2" class="edge">
<title>BEDs&#45;&gt;Per&#45;chromosome Gene Counts \nwith Calls</title>
<path fill="none" stroke="black" d="M457.27,-309.54C473.9,-299.75 497.22,-286.03 518.25,-273.65"/>
<polygon fill="black" stroke="black" points="520.25,-276.53 527.09,-268.44 516.7,-270.5 520.25,-276.53"/>
</g>
<!-- Summarize Calls -->
<g id="node3" class="node">
<title>Summarize Calls</title>
<polygon fill="#d9d9d9" stroke="#d9d9d9" points="301.84,-180 199.79,-162 301.84,-144 403.9,-162 301.84,-180"/>
<text text-anchor="middle" x="301.84" y="-158.3" font-family="Times,serif" font-size="14.00">Summarize Calls</text>
</g>
<!-- Call Count Summaries -->
<g id="node7" class="node">
<title>Call Count Summaries</title>
<polygon fill="none" stroke="black" points="436.98,-108 222.01,-108 166.71,-72 381.68,-72 436.98,-108"/>
<text text-anchor="middle" x="301.84" y="-86.3" font-family="Times,serif" font-size="14.00">Call Count Summaries</text>
</g>
<!-- Summarize Calls&#45;&gt;Call Count Summaries -->
<g id="edge7" class="edge">
<title>Summarize Calls&#45;&gt;Call Count Summaries</title>
<path fill="none" stroke="black" d="M301.84,-143.7C301.84,-135.98 301.84,-126.71 301.84,-118.11"/>
<polygon fill="black" stroke="black" points="305.34,-118.1 301.84,-108.1 298.34,-118.1 305.34,-118.1"/>
</g>
<!-- Per&#45;chromosome Call Counts&#45;&gt;Summarize Calls -->
<g id="edge4" class="edge">
<title>Per&#45;chromosome Call Counts&#45;&gt;Summarize Calls</title>
<path fill="none" stroke="black" d="M301.84,-224.76C301.84,-214.73 301.84,-201.84 301.84,-190.42"/>
<polygon fill="black" stroke="black" points="305.34,-190.08 301.84,-180.08 298.34,-190.08 305.34,-190.08"/>
</g>
<!-- Per&#45;chromosome Gene Counts \nwith Calls&#45;&gt;Summarize Calls -->
<g id="edge5" class="edge">
<title>Per&#45;chromosome Gene Counts \nwith Calls&#45;&gt;Summarize Calls</title>
<path fill="none" stroke="black" d="M495.88,-220.32C448.53,-206.33 388.28,-188.53 347.57,-176.51"/>
<polygon fill="black" stroke="black" points="348.5,-173.13 337.92,-173.66 346.52,-179.85 348.5,-173.13"/>
</g>
<!-- Total C/CpG Counts&#45;&gt;Summarize Calls -->
<g id="edge6" class="edge">
<title>Total C/CpG Counts&#45;&gt;Summarize Calls</title>
<path fill="none" stroke="black" d="M124.59,-227.13C163.45,-213.07 221.66,-192.01 260.66,-177.9"/>
<polygon fill="black" stroke="black" points="261.92,-181.16 270.14,-174.47 259.54,-174.58 261.92,-181.16"/>
</g>
<!-- Sankey Diagrams -->
<g id="node8" class="node">
<title>Sankey Diagrams</title>
<polygon fill="none" stroke="black" points="409.71,-36 238.12,-36 193.98,0 365.57,0 409.71,-36"/>
<text text-anchor="middle" x="301.84" y="-14.3" font-family="Times,serif" font-size="14.00">Sankey Diagrams</text>
</g>
<!-- Call Count Summaries&#45;&gt;Sankey Diagrams -->
<g id="edge8" class="edge">
<title>Call Count Summaries&#45;&gt;Sankey Diagrams</title>
<path fill="none" stroke="black" d="M301.84,-71.7C301.84,-63.98 301.84,-54.71 301.84,-46.11"/>
<polygon fill="black" stroke="black" points="305.34,-46.1 301.84,-36.1 298.34,-46.1 305.34,-46.1"/>
</g>
</g>
</svg>
