<?xml version="1.0" encoding="UTF-8" standalone="no"?>
<!DOCTYPE svg PUBLIC "-//W3C//DTD SVG 1.1//EN"
 "http://www.w3.org/Graphics/SVG/1.1/DTD/svg11.dtd">
<!-- Generated by graphviz version 2.50.0 (0)
 -->
<!-- Title: workflow Pages: 1 -->
<svg width="662pt" height="495pt"
 viewBox="0.00 0.00 661.72 494.74" xmlns="http://www.w3.org/2000/svg" xmlns:xlink="http://www.w3.org/1999/xlink">
<g id="graph0" class="graph" transform="scale(1 1) rotate(0) translate(4 490.74)">
<title>workflow</title>
<polygon fill="white" stroke="transparent" points="-4,4 -4,-490.74 657.72,-490.74 657.72,4 -4,4"/>
<!-- Genome -->
<g id="node1" class="node">
<title>Genome</title>
<polygon fill="none" stroke="black" points="170.78,-468.74 147.25,-486.74 100.19,-486.74 76.66,-468.74 100.19,-450.74 147.25,-450.74 170.78,-468.74"/>
<text text-anchor="middle" x="123.72" y="-465.04" font-family="Times,serif" font-size="14.00">Genome</text>
</g>
<!-- Intersect_3 -->
<g id="node7" class="node">
<title>Intersect_3</title>
<polygon fill="#d9d9d9" stroke="#d9d9d9" points="173.72,-413.74 -0.22,-395.74 173.72,-377.74 347.66,-395.74 173.72,-413.74"/>
<text text-anchor="middle" x="173.72" y="-392.04" font-family="Times,serif" font-size="14.00">Find Low&#45;Mappability Regions</text>
</g>
<!-- Genome&#45;&gt;Intersect_3 -->
<g id="edge5" class="edge">
<title>Genome&#45;&gt;Intersect_3</title>
<path fill="none" stroke="black" d="M135.82,-450.55C142.02,-441.75 149.67,-430.89 156.47,-421.23"/>
<polygon fill="black" stroke="black" points="159.52,-422.99 162.41,-412.8 153.79,-418.96 159.52,-422.99"/>
</g>
<!-- ClinVar -->
<g id="node2" class="node">
<title>ClinVar</title>
<polygon fill="none" stroke="black" points="394.78,-468.74 372.75,-486.74 328.69,-486.74 306.66,-468.74 328.69,-450.74 372.75,-450.74 394.78,-468.74"/>
<text text-anchor="middle" x="350.72" y="-465.04" font-family="Times,serif" font-size="14.00">ClinVar</text>
</g>
<!-- Intersect_1 -->
<g id="node5" class="node">
<title>Intersect_1</title>
<polygon fill="#d9d9d9" stroke="#d9d9d9" points="423.72,-413.74 365.91,-395.74 423.72,-377.74 481.53,-395.74 423.72,-413.74"/>
<text text-anchor="middle" x="423.72" y="-392.04" font-family="Times,serif" font-size="14.00">Intersect</text>
</g>
<!-- ClinVar&#45;&gt;Intersect_1 -->
<g id="edge1" class="edge">
<title>ClinVar&#45;&gt;Intersect_1</title>
<path fill="none" stroke="black" d="M368.39,-450.55C378.71,-440.51 391.8,-427.78 402.66,-417.23"/>
<polygon fill="black" stroke="black" points="405.37,-419.47 410.1,-409.99 400.49,-414.45 405.37,-419.47"/>
</g>
<!-- GENCODE -->
<g id="node3" class="node">
<title>GENCODE</title>
<polygon fill="none" stroke="black" points="534.3,-468.74 504.01,-486.74 443.43,-486.74 413.14,-468.74 443.43,-450.74 504.01,-450.74 534.3,-468.74"/>
<text text-anchor="middle" x="473.72" y="-465.04" font-family="Times,serif" font-size="14.00">GENCODE</text>
</g>
<!-- GENCODE&#45;&gt;Intersect_1 -->
<g id="edge2" class="edge">
<title>GENCODE&#45;&gt;Intersect_1</title>
<path fill="none" stroke="black" d="M461.62,-450.55C455,-441.16 446.72,-429.4 439.6,-419.28"/>
<polygon fill="black" stroke="black" points="442.32,-417.07 433.7,-410.91 436.59,-421.1 442.32,-417.07"/>
</g>
<!-- Bismap -->
<g id="node4" class="node">
<title>Bismap</title>
<polygon fill="none" stroke="black" points="277.78,-468.74 255.75,-486.74 211.69,-486.74 189.66,-468.74 211.69,-450.74 255.75,-450.74 277.78,-468.74"/>
<text text-anchor="middle" x="233.72" y="-465.04" font-family="Times,serif" font-size="14.00">Bismap</text>
</g>
<!-- Bismap&#45;&gt;Intersect_3 -->
<g id="edge4" class="edge">
<title>Bismap&#45;&gt;Intersect_3</title>
<path fill="none" stroke="black" d="M219.2,-450.55C211.61,-441.58 202.2,-430.45 193.92,-420.64"/>
<polygon fill="black" stroke="black" points="196.42,-418.17 187.29,-412.8 191.07,-422.69 196.42,-418.17"/>
</g>
<!-- ClinVar Genes -->
<g id="node6" class="node">
<title>ClinVar Genes</title>
<ellipse fill="none" stroke="black" cx="422.72" cy="-322.74" rx="62.29" ry="18"/>
<text text-anchor="middle" x="422.72" y="-319.04" font-family="Times,serif" font-size="14.00">ClinVar Genes</text>
</g>
<!-- Intersect_1&#45;&gt;ClinVar Genes -->
<g id="edge3" class="edge">
<title>Intersect_1&#45;&gt;ClinVar Genes</title>
<path fill="none" stroke="black" d="M423.48,-377.55C423.37,-369.53 423.23,-359.79 423.1,-350.81"/>
<polygon fill="black" stroke="black" points="426.6,-350.72 422.96,-340.77 419.6,-350.82 426.6,-350.72"/>
</g>
<!-- Intersect_2 -->
<g id="node9" class="node">
<title>Intersect_2</title>
<polygon fill="#d9d9d9" stroke="#d9d9d9" points="422.72,-253.74 261.72,-215.74 422.72,-177.74 583.72,-215.74 422.72,-253.74"/>
<text text-anchor="middle" x="422.72" y="-219.54" font-family="Times,serif" font-size="14.00">Intersect with</text>
<text text-anchor="middle" x="422.72" y="-204.54" font-family="Times,serif" font-size="14.00">Low&#45;Mappability Regions</text>
</g>
<!-- ClinVar Genes&#45;&gt;Intersect_2 -->
<g id="edge7" class="edge">
<title>ClinVar Genes&#45;&gt;Intersect_2</title>
<path fill="none" stroke="black" d="M422.72,-304.4C422.72,-293.43 422.72,-278.68 422.72,-264.4"/>
<polygon fill="black" stroke="black" points="426.22,-264.15 422.72,-254.15 419.22,-264.15 426.22,-264.15"/>
</g>
<!-- Low&#45;Mappability Regions -->
<g id="node8" class="node">
<title>Low&#45;Mappability Regions</title>
<ellipse fill="none" stroke="black" cx="175.72" cy="-322.74" rx="104.78" ry="18"/>
<text text-anchor="middle" x="175.72" y="-319.04" font-family="Times,serif" font-size="14.00">Low&#45;Mappability Regions</text>
</g>
<!-- Intersect_3&#45;&gt;Low&#45;Mappability Regions -->
<g id="edge6" class="edge">
<title>Intersect_3&#45;&gt;Low&#45;Mappability Regions</title>
<path fill="none" stroke="black" d="M174.2,-377.55C174.43,-369.53 174.71,-359.79 174.96,-350.81"/>
<polygon fill="black" stroke="black" points="178.46,-350.86 175.24,-340.77 171.46,-350.67 178.46,-350.86"/>
</g>
<!-- Low&#45;Mappability Regions&#45;&gt;Intersect_2 -->
<g id="edge8" class="edge">
<title>Low&#45;Mappability Regions&#45;&gt;Intersect_2</title>
<path fill="none" stroke="black" d="M241.44,-308.73C263.6,-303.26 288.17,-295.98 309.72,-286.74 332.45,-277 355.94,-263.15 375.58,-250.34"/>
<polygon fill="black" stroke="black" points="377.64,-253.18 384.04,-244.73 373.77,-247.34 377.64,-253.18"/>
</g>
<!-- BAM_PROC_1 -->
<!-- Low&#45;Mappability Regions&#45;&gt;BAM_PROC_1 -->
<g id="edge11" class="edge">
<title>Low&#45;Mappability Regions&#45;&gt;BAM_PROC_1</title>
<path fill="none" stroke="black" stroke-dasharray="1,5" d="M175.72,-304.4C175.72,-287.96 175.72,-263.02 175.72,-243.93"/>
<polygon fill="black" stroke="black" points="179.22,-243.76 175.72,-233.76 172.22,-243.76 179.22,-243.76"/>
<text text-anchor="middle" x="240.72" y="-275.54" font-family="Times,serif" font-size="14.00">To Methylation Calling</text>
</g>
<!-- Low&#45;Mappability ClinVar Genes -->
<g id="node10" class="node">
<title>Low&#45;Mappability ClinVar Genes</title>
<ellipse fill="none" stroke="black" cx="262.72" cy="-113.87" rx="127.28" ry="18"/>
<text text-anchor="middle" x="262.72" y="-110.17" font-family="Times,serif" font-size="14.00">Low&#45;Mappability ClinVar Genes</text>
</g>
<!-- Intersect_2&#45;&gt;Low&#45;Mappability ClinVar Genes -->
<g id="edge9" class="edge">
<title>Intersect_2&#45;&gt;Low&#45;Mappability ClinVar Genes</title>
<path fill="none" stroke="black" d="M379.42,-187.71C353.98,-171.83 322.22,-152.01 298.26,-137.05"/>
<polygon fill="black" stroke="black" points="299.82,-133.9 289.49,-131.58 296.12,-139.84 299.82,-133.9"/>
</g>
<!-- Low&#45;Mappability Regions \nin ClinVar Genes -->
<g id="node11" class="node">
<title>Low&#45;Mappability Regions \nin ClinVar Genes</title>
<ellipse fill="none" stroke="black" cx="523.72" cy="-113.87" rx="115.93" ry="26.74"/>
<text text-anchor="middle" x="523.72" y="-117.67" font-family="Times,serif" font-size="14.00">Low&#45;Mappability Regions </text>
<text text-anchor="middle" x="523.72" y="-102.67" font-family="Times,serif" font-size="14.00">in ClinVar Genes</text>
</g>
<!-- Intersect_2&#45;&gt;Low&#45;Mappability Regions \nin ClinVar Genes -->
<g id="edge10" class="edge">
<title>Intersect_2&#45;&gt;Low&#45;Mappability Regions \nin ClinVar Genes</title>
<path fill="none" stroke="black" d="M453.02,-184.78C464.96,-172.98 478.69,-159.39 490.86,-147.36"/>
<polygon fill="black" stroke="black" points="493.56,-149.62 498.21,-140.1 488.64,-144.64 493.56,-149.62"/>
</g>
<!-- BAM_PROC_2 -->
<!-- Low&#45;Mappability ClinVar Genes&#45;&gt;BAM_PROC_2 -->
<g id="edge12" class="edge">
<title>Low&#45;Mappability ClinVar Genes&#45;&gt;BAM_PROC_2</title>
<path fill="none" stroke="black" stroke-dasharray="1,5" d="M262.72,-95.65C262.72,-81.89 262.72,-62.34 262.72,-46.43"/>
<polygon fill="black" stroke="black" points="266.22,-46.11 262.72,-36.11 259.22,-46.11 266.22,-46.11"/>
<text text-anchor="middle" x="327.72" y="-57.8" font-family="Times,serif" font-size="14.00">To Methylation Calling</text>
</g>
<!-- BAM_PROC_3 -->
<!-- Low&#45;Mappability Regions \nin ClinVar Genes&#45;&gt;BAM_PROC_3 -->
<g id="edge13" class="edge">
<title>Low&#45;Mappability Regions \nin ClinVar Genes&#45;&gt;BAM_PROC_3</title>
<path fill="none" stroke="black" stroke-dasharray="1,5" d="M523.72,-86.97C523.72,-74.34 523.72,-59.14 523.72,-46.32"/>
<polygon fill="black" stroke="black" points="527.22,-46.22 523.72,-36.22 520.22,-46.22 527.22,-46.22"/>
<text text-anchor="middle" x="588.72" y="-57.8" font-family="Times,serif" font-size="14.00">To Methylation Calling</text>
</g>
</g>
</svg>
