<?xml version="1.0" encoding="UTF-8" standalone="no"?>
<!DOCTYPE svg PUBLIC "-//W3C//DTD SVG 1.1//EN"
 "http://www.w3.org/Graphics/SVG/1.1/DTD/svg11.dtd">
<!-- Generated by graphviz version 2.47.3 (20210619.1520)
 -->
<!-- Title: workflow Pages: 1 -->
<svg width="642pt" height="495pt"
 viewBox="0.00 0.00 641.53 494.74" xmlns="http://www.w3.org/2000/svg" xmlns:xlink="http://www.w3.org/1999/xlink">
<g id="graph0" class="graph" transform="scale(1 1) rotate(0) translate(4 490.74)">
<title>workflow</title>
<polygon fill="white" stroke="transparent" points="-4,4 -4,-490.74 637.53,-490.74 637.53,4 -4,4"/>
<!-- Genome -->
<g id="node1" class="node">
<title>Genome</title>
<polygon fill="none" stroke="black" points="158.59,-468.74 135.06,-486.74 88,-486.74 64.47,-468.74 88,-450.74 135.06,-450.74 158.59,-468.74"/>
<text text-anchor="middle" x="111.53" y="-465.04" font-family="Times,serif" font-size="14.00">Genome</text>
</g>
<!-- Intersect_3 -->
<g id="node7" class="node">
<title>Intersect_3</title>
<polygon fill="#d9d9d9" stroke="#d9d9d9" points="164.53,-413.74 -0.03,-395.74 164.53,-377.74 329.09,-395.74 164.53,-413.74"/>
<text text-anchor="middle" x="164.53" y="-392.04" font-family="Times,serif" font-size="14.00">Find low&#45;mappability regions</text>
</g>
<!-- Genome&#45;&gt;Intersect_3 -->
<g id="edge5" class="edge">
<title>Genome&#45;&gt;Intersect_3</title>
<path fill="none" stroke="black" d="M124.36,-450.55C130.99,-441.67 139.2,-430.67 146.47,-420.94"/>
<polygon fill="black" stroke="black" points="149.37,-422.9 152.54,-412.8 143.76,-418.72 149.37,-422.9"/>
</g>
<!-- ClinVar -->
<g id="node2" class="node">
<title>ClinVar</title>
<polygon fill="none" stroke="black" points="377.59,-468.74 355.56,-486.74 311.5,-486.74 289.47,-468.74 311.5,-450.74 355.56,-450.74 377.59,-468.74"/>
<text text-anchor="middle" x="333.53" y="-465.04" font-family="Times,serif" font-size="14.00">ClinVar</text>
</g>
<!-- Intersect_1 -->
<g id="node5" class="node">
<title>Intersect_1</title>
<polygon fill="#d9d9d9" stroke="#d9d9d9" points="404.53,-413.74 346.72,-395.74 404.53,-377.74 462.34,-395.74 404.53,-413.74"/>
<text text-anchor="middle" x="404.53" y="-392.04" font-family="Times,serif" font-size="14.00">Intersect</text>
</g>
<!-- ClinVar&#45;&gt;Intersect_1 -->
<g id="edge1" class="edge">
<title>ClinVar&#45;&gt;Intersect_1</title>
<path fill="none" stroke="black" d="M350.72,-450.55C360.76,-440.51 373.49,-427.78 384.04,-417.23"/>
<polygon fill="black" stroke="black" points="386.68,-419.54 391.28,-409.99 381.73,-414.59 386.68,-419.54"/>
</g>
<!-- GENCODE -->
<g id="node3" class="node">
<title>GENCODE</title>
<polygon fill="none" stroke="black" points="517.11,-468.74 486.82,-486.74 426.24,-486.74 395.95,-468.74 426.24,-450.74 486.82,-450.74 517.11,-468.74"/>
<text text-anchor="middle" x="456.53" y="-465.04" font-family="Times,serif" font-size="14.00">GENCODE</text>
</g>
<!-- GENCODE&#45;&gt;Intersect_1 -->
<g id="edge2" class="edge">
<title>GENCODE&#45;&gt;Intersect_1</title>
<path fill="none" stroke="black" d="M443.94,-450.55C436.99,-441.06 428.28,-429.17 420.81,-418.98"/>
<polygon fill="black" stroke="black" points="423.64,-416.91 414.9,-410.91 417.99,-421.04 423.64,-416.91"/>
</g>
<!-- Bismap -->
<g id="node4" class="node">
<title>Bismap</title>
<polygon fill="none" stroke="black" points="265.59,-468.74 243.56,-486.74 199.5,-486.74 177.47,-468.74 199.5,-450.74 243.56,-450.74 265.59,-468.74"/>
<text text-anchor="middle" x="221.53" y="-465.04" font-family="Times,serif" font-size="14.00">Bismap</text>
</g>
<!-- Bismap&#45;&gt;Intersect_3 -->
<g id="edge4" class="edge">
<title>Bismap&#45;&gt;Intersect_3</title>
<path fill="none" stroke="black" d="M207.73,-450.55C200.52,-441.58 191.59,-430.45 183.72,-420.64"/>
<polygon fill="black" stroke="black" points="186.41,-418.4 177.42,-412.8 180.95,-422.78 186.41,-418.4"/>
</g>
<!-- ClinVar Genes -->
<g id="node6" class="node">
<title>ClinVar Genes</title>
<ellipse fill="none" stroke="black" cx="403.53" cy="-322.74" rx="62.29" ry="18"/>
<text text-anchor="middle" x="403.53" y="-319.04" font-family="Times,serif" font-size="14.00">ClinVar Genes</text>
</g>
<!-- Intersect_1&#45;&gt;ClinVar Genes -->
<g id="edge3" class="edge">
<title>Intersect_1&#45;&gt;ClinVar Genes</title>
<path fill="none" stroke="black" d="M404.29,-377.55C404.17,-369.53 404.04,-359.79 403.91,-350.81"/>
<polygon fill="black" stroke="black" points="407.41,-350.72 403.77,-340.77 400.41,-350.82 407.41,-350.72"/>
</g>
<!-- Intersect_2 -->
<g id="node9" class="node">
<title>Intersect_2</title>
<polygon fill="#d9d9d9" stroke="#d9d9d9" points="403.53,-253.74 253.53,-215.74 403.53,-177.74 553.53,-215.74 403.53,-253.74"/>
<text text-anchor="middle" x="403.53" y="-219.54" font-family="Times,serif" font-size="14.00">Intersect with</text>
<text text-anchor="middle" x="403.53" y="-204.54" font-family="Times,serif" font-size="14.00">low&#45;mappability regions</text>
</g>
<!-- ClinVar Genes&#45;&gt;Intersect_2 -->
<g id="edge7" class="edge">
<title>ClinVar Genes&#45;&gt;Intersect_2</title>
<path fill="none" stroke="black" d="M403.53,-304.4C403.53,-293.43 403.53,-278.68 403.53,-264.4"/>
<polygon fill="black" stroke="black" points="407.03,-264.15 403.53,-254.15 400.03,-264.15 407.03,-264.15"/>
</g>
<!-- Low&#45;mappability Regions -->
<g id="node8" class="node">
<title>Low&#45;mappability Regions</title>
<ellipse fill="none" stroke="black" cx="167.53" cy="-322.74" rx="103.18" ry="18"/>
<text text-anchor="middle" x="167.53" y="-319.04" font-family="Times,serif" font-size="14.00">Low&#45;mappability Regions</text>
</g>
<!-- Intersect_3&#45;&gt;Low&#45;mappability Regions -->
<g id="edge6" class="edge">
<title>Intersect_3&#45;&gt;Low&#45;mappability Regions</title>
<path fill="none" stroke="black" d="M165.26,-377.55C165.59,-369.53 166.01,-359.79 166.39,-350.81"/>
<polygon fill="black" stroke="black" points="169.88,-350.91 166.81,-340.77 162.89,-350.61 169.88,-350.91"/>
</g>
<!-- Low&#45;mappability Regions&#45;&gt;Intersect_2 -->
<g id="edge8" class="edge">
<title>Low&#45;mappability Regions&#45;&gt;Intersect_2</title>
<path fill="none" stroke="black" d="M234.87,-308.97C256.69,-303.57 280.64,-296.28 301.53,-286.74 322.01,-277.38 342.82,-263.95 360.26,-251.35"/>
<polygon fill="black" stroke="black" points="362.56,-254 368.54,-245.25 358.41,-248.37 362.56,-254"/>
</g>
<!-- BAM_PROC_1 -->
<!-- Low&#45;mappability Regions&#45;&gt;BAM_PROC_1 -->
<g id="edge11" class="edge">
<title>Low&#45;mappability Regions&#45;&gt;BAM_PROC_1</title>
<path fill="none" stroke="black" stroke-dasharray="1,5" d="M167.53,-304.4C167.53,-287.96 167.53,-263.02 167.53,-243.93"/>
<polygon fill="black" stroke="black" points="171.03,-243.76 167.53,-233.76 164.03,-243.76 171.03,-243.76"/>
<text text-anchor="middle" x="232.53" y="-275.54" font-family="Times,serif" font-size="14.00">To Methylation Calling</text>
</g>
<!-- Low&#45;mappability ClinVar Genes -->
<g id="node10" class="node">
<title>Low&#45;mappability ClinVar Genes</title>
<ellipse fill="none" stroke="black" cx="244.53" cy="-113.87" rx="126.18" ry="18"/>
<text text-anchor="middle" x="244.53" y="-110.17" font-family="Times,serif" font-size="14.00">Low&#45;mappability ClinVar Genes</text>
</g>
<!-- Intersect_2&#45;&gt;Low&#45;mappability ClinVar Genes -->
<g id="edge9" class="edge">
<title>Intersect_2&#45;&gt;Low&#45;mappability ClinVar Genes</title>
<path fill="none" stroke="black" d="M361.34,-188.24C335.94,-172.28 303.96,-152.2 279.89,-137.08"/>
<polygon fill="black" stroke="black" points="281.74,-134.11 271.41,-131.75 278.02,-140.04 281.74,-134.11"/>
</g>
<!-- Low&#45;mappability Regions \nin ClinVar Genes -->
<g id="node11" class="node">
<title>Low&#45;mappability Regions \nin ClinVar Genes</title>
<ellipse fill="none" stroke="black" cx="503.53" cy="-113.87" rx="115.02" ry="26.74"/>
<text text-anchor="middle" x="503.53" y="-117.67" font-family="Times,serif" font-size="14.00">Low&#45;mappability Regions </text>
<text text-anchor="middle" x="503.53" y="-102.67" font-family="Times,serif" font-size="14.00">in ClinVar Genes</text>
</g>
<!-- Intersect_2&#45;&gt;Low&#45;mappability Regions \nin ClinVar Genes -->
<g id="edge10" class="edge">
<title>Intersect_2&#45;&gt;Low&#45;mappability Regions \nin ClinVar Genes</title>
<path fill="none" stroke="black" d="M433.26,-185.05C445.09,-173.24 458.73,-159.61 470.83,-147.53"/>
<polygon fill="black" stroke="black" points="473.53,-149.77 478.14,-140.23 468.59,-144.82 473.53,-149.77"/>
</g>
<!-- BAM_PROC_2 -->
<!-- Low&#45;mappability ClinVar Genes&#45;&gt;BAM_PROC_2 -->
<g id="edge12" class="edge">
<title>Low&#45;mappability ClinVar Genes&#45;&gt;BAM_PROC_2</title>
<path fill="none" stroke="black" stroke-dasharray="1,5" d="M244.53,-95.65C244.53,-81.89 244.53,-62.34 244.53,-46.43"/>
<polygon fill="black" stroke="black" points="248.03,-46.11 244.53,-36.11 241.03,-46.11 248.03,-46.11"/>
<text text-anchor="middle" x="309.53" y="-57.8" font-family="Times,serif" font-size="14.00">To Methylation Calling</text>
</g>
<!-- BAM_PROC_3 -->
<!-- Low&#45;mappability Regions \nin ClinVar Genes&#45;&gt;BAM_PROC_3 -->
<g id="edge13" class="edge">
<title>Low&#45;mappability Regions \nin ClinVar Genes&#45;&gt;BAM_PROC_3</title>
<path fill="none" stroke="black" stroke-dasharray="1,5" d="M503.53,-86.97C503.53,-74.34 503.53,-59.14 503.53,-46.32"/>
<polygon fill="black" stroke="black" points="507.03,-46.22 503.53,-36.22 500.03,-46.22 507.03,-46.22"/>
<text text-anchor="middle" x="568.53" y="-57.8" font-family="Times,serif" font-size="14.00">To Methylation Calling</text>
</g>
</g>
</svg>
