<?xml version="1.0" encoding="UTF-8" standalone="no"?>
<!DOCTYPE svg PUBLIC "-//W3C//DTD SVG 1.1//EN"
 "http://www.w3.org/Graphics/SVG/1.1/DTD/svg11.dtd">
<!-- Generated by graphviz version 2.50.0 (0)
 -->
<!-- Title: workflow Pages: 1 -->
<svg width="1268pt" height="594pt"
 viewBox="0.00 0.00 1267.77 593.74" xmlns="http://www.w3.org/2000/svg" xmlns:xlink="http://www.w3.org/1999/xlink">
<g id="graph0" class="graph" transform="scale(1 1) rotate(0) translate(4 589.74)">
<title>workflow</title>
<polygon fill="white" stroke="transparent" points="-4,4 -4,-589.74 1263.77,-589.74 1263.77,4 -4,4"/>
<!-- PREPROC_1 -->
<!-- Low&#45;Mappability Regions -->
<g id="node4" class="node">
<title>Low&#45;Mappability Regions</title>
<ellipse fill="none" stroke="black" cx="104.64" cy="-212.87" rx="104.78" ry="18"/>
<text text-anchor="middle" x="104.64" y="-209.17" font-family="Times,serif" font-size="14.00">Low&#45;Mappability Regions</text>
</g>
<!-- PREPROC_1&#45;&gt;Low&#45;Mappability Regions -->
<g id="edge1" class="edge">
<title>PREPROC_1&#45;&gt;Low&#45;Mappability Regions</title>
<path fill="none" stroke="black" stroke-dasharray="1,5" d="M104.64,-310.45C104.64,-292.03 104.64,-262.63 104.64,-241.1"/>
<polygon fill="black" stroke="black" points="108.14,-240.95 104.64,-230.95 101.14,-240.95 108.14,-240.95"/>
<text text-anchor="middle" x="159.64" y="-261.54" font-family="Times,serif" font-size="14.00">From Preprocessing</text>
</g>
<!-- PREPROC_2 -->
<!-- Low&#45;Mappability ClinVar Genes -->
<g id="node5" class="node">
<title>Low&#45;Mappability ClinVar Genes</title>
<ellipse fill="none" stroke="black" cx="354.64" cy="-212.87" rx="127.28" ry="18"/>
<text text-anchor="middle" x="354.64" y="-209.17" font-family="Times,serif" font-size="14.00">Low&#45;Mappability ClinVar Genes</text>
</g>
<!-- PREPROC_2&#45;&gt;Low&#45;Mappability ClinVar Genes -->
<g id="edge2" class="edge">
<title>PREPROC_2&#45;&gt;Low&#45;Mappability ClinVar Genes</title>
<path fill="none" stroke="black" stroke-dasharray="1,5" d="M354.64,-310.45C354.64,-292.03 354.64,-262.63 354.64,-241.1"/>
<polygon fill="black" stroke="black" points="358.14,-240.95 354.64,-230.95 351.14,-240.95 358.14,-240.95"/>
<text text-anchor="middle" x="409.64" y="-261.54" font-family="Times,serif" font-size="14.00">From Preprocessing</text>
</g>
<!-- PREPROC_3 -->
<!-- Low&#45;Mappability Regions \nin ClinVar Genes -->
<g id="node6" class="node">
<title>Low&#45;Mappability Regions \nin ClinVar Genes</title>
<ellipse fill="none" stroke="black" cx="615.64" cy="-212.87" rx="115.93" ry="26.74"/>
<text text-anchor="middle" x="615.64" y="-216.67" font-family="Times,serif" font-size="14.00">Low&#45;Mappability Regions </text>
<text text-anchor="middle" x="615.64" y="-201.67" font-family="Times,serif" font-size="14.00">in ClinVar Genes</text>
</g>
<!-- PREPROC_3&#45;&gt;Low&#45;Mappability Regions \nin ClinVar Genes -->
<g id="edge3" class="edge">
<title>PREPROC_3&#45;&gt;Low&#45;Mappability Regions \nin ClinVar Genes</title>
<path fill="none" stroke="black" stroke-dasharray="1,5" d="M615.64,-310.45C615.64,-294.45 615.64,-270.15 615.64,-249.94"/>
<polygon fill="black" stroke="black" points="619.14,-249.8 615.64,-239.8 612.14,-249.8 619.14,-249.8"/>
<text text-anchor="middle" x="670.64" y="-261.54" font-family="Times,serif" font-size="14.00">From Preprocessing</text>
</g>
<!-- Intersect_3 -->
<g id="node15" class="node">
<title>Intersect_3</title>
<polygon fill="#d9d9d9" stroke="#d9d9d9" points="723.64,-149 603.32,-131 723.64,-113 843.96,-131 723.64,-149"/>
<text text-anchor="middle" x="723.64" y="-127.3" font-family="Times,serif" font-size="14.00">Intersect and Process</text>
</g>
<!-- Low&#45;Mappability Regions&#45;&gt;Intersect_3 -->
<g id="edge15" class="edge">
<title>Low&#45;Mappability Regions&#45;&gt;Intersect_3</title>
<path fill="none" stroke="black" d="M161.21,-197.66C179.45,-193.45 199.82,-189.13 218.64,-186 364.12,-161.8 535.06,-146.17 636.1,-138.24"/>
<polygon fill="black" stroke="black" points="636.56,-141.72 646.26,-137.45 636.02,-134.74 636.56,-141.72"/>
</g>
<!-- Low&#45;Mappability ClinVar Genes&#45;&gt;Intersect_3 -->
<g id="edge16" class="edge">
<title>Low&#45;Mappability ClinVar Genes&#45;&gt;Intersect_3</title>
<path fill="none" stroke="black" d="M421.04,-197.5C491.3,-182.29 600.98,-158.55 667.21,-144.21"/>
<polygon fill="black" stroke="black" points="668.02,-147.62 677.06,-142.08 666.54,-140.78 668.02,-147.62"/>
</g>
<!-- Low&#45;Mappability Regions \nin ClinVar Genes&#45;&gt;Intersect_3 -->
<g id="edge17" class="edge">
<title>Low&#45;Mappability Regions \nin ClinVar Genes&#45;&gt;Intersect_3</title>
<path fill="none" stroke="black" d="M649.22,-187.04C664.19,-175.96 681.62,-163.07 695.85,-152.55"/>
<polygon fill="black" stroke="black" points="698.28,-155.11 704.24,-146.35 694.12,-149.48 698.28,-155.11"/>
</g>
<!-- Genome -->
<g id="node7" class="node">
<title>Genome</title>
<polygon fill="none" stroke="black" points="835.7,-567.74 812.17,-585.74 765.11,-585.74 741.58,-567.74 765.11,-549.74 812.17,-549.74 835.7,-567.74"/>
<text text-anchor="middle" x="788.64" y="-564.04" font-family="Times,serif" font-size="14.00">Genome</text>
</g>
<!-- Intersect_1 -->
<g id="node10" class="node">
<title>Intersect_1</title>
<polygon fill="#d9d9d9" stroke="#d9d9d9" points="898.64,-512.74 797.43,-494.74 898.64,-476.74 999.86,-494.74 898.64,-512.74"/>
<text text-anchor="middle" x="898.64" y="-491.04" font-family="Times,serif" font-size="14.00">Call Methylation</text>
</g>
<!-- Genome&#45;&gt;Intersect_1 -->
<g id="edge4" class="edge">
<title>Genome&#45;&gt;Intersect_1</title>
<path fill="none" stroke="black" d="M813.6,-550.63C830.12,-539.97 851.85,-525.94 869.21,-514.74"/>
<polygon fill="black" stroke="black" points="871.34,-517.53 877.84,-509.17 867.54,-511.65 871.34,-517.53"/>
</g>
<!-- Bismap -->
<g id="node8" class="node">
<title>Bismap</title>
<polygon fill="none" stroke="black" points="942.7,-567.74 920.67,-585.74 876.61,-585.74 854.58,-567.74 876.61,-549.74 920.67,-549.74 942.7,-567.74"/>
<text text-anchor="middle" x="898.64" y="-564.04" font-family="Times,serif" font-size="14.00">Bismap</text>
</g>
<!-- Bismap&#45;&gt;Intersect_1 -->
<g id="edge6" class="edge">
<title>Bismap&#45;&gt;Intersect_1</title>
<path fill="none" stroke="black" d="M898.64,-549.55C898.64,-541.53 898.64,-531.79 898.64,-522.81"/>
<polygon fill="black" stroke="black" points="902.14,-522.77 898.64,-512.77 895.14,-522.77 902.14,-522.77"/>
</g>
<!-- BAMs -->
<g id="node9" class="node">
<title>BAMs</title>
<polygon fill="none" stroke="black" points="1040.19,-567.74 1020.42,-585.74 980.86,-585.74 961.09,-567.74 980.86,-549.74 1020.42,-549.74 1040.19,-567.74"/>
<text text-anchor="middle" x="1000.64" y="-564.04" font-family="Times,serif" font-size="14.00">BAMs</text>
</g>
<!-- BAMs&#45;&gt;Intersect_1 -->
<g id="edge5" class="edge">
<title>BAMs&#45;&gt;Intersect_1</title>
<path fill="none" stroke="black" d="M978.76,-551.51C963.65,-540.99 943.4,-526.9 927.04,-515.51"/>
<polygon fill="black" stroke="black" points="928.62,-512.34 918.41,-509.5 924.62,-518.09 928.62,-512.34"/>
</g>
<!-- Unfiltered Calls -->
<g id="node11" class="node">
<title>Unfiltered Calls</title>
<polygon fill="none" stroke="black" points="896.85,-439.74 739.03,-439.74 698.43,-403.74 856.25,-403.74 896.85,-439.74"/>
<text text-anchor="middle" x="797.64" y="-418.04" font-family="Times,serif" font-size="14.00">Unfiltered Calls</text>
</g>
<!-- Intersect_1&#45;&gt;Unfiltered Calls -->
<g id="edge7" class="edge">
<title>Intersect_1&#45;&gt;Unfiltered Calls</title>
<path fill="none" stroke="black" d="M879.17,-480.05C865.43,-470.39 846.69,-457.22 830.65,-445.94"/>
<polygon fill="black" stroke="black" points="832.25,-442.79 822.06,-439.9 828.23,-448.52 832.25,-442.79"/>
</g>
<!-- Filtered Calls -->
<g id="node12" class="node">
<title>Filtered Calls</title>
<polygon fill="none" stroke="black" points="1086.17,-439.74 950.11,-439.74 915.11,-403.74 1051.17,-403.74 1086.17,-439.74"/>
<text text-anchor="middle" x="1000.64" y="-418.04" font-family="Times,serif" font-size="14.00">Filtered Calls</text>
</g>
<!-- Intersect_1&#45;&gt;Filtered Calls -->
<g id="edge8" class="edge">
<title>Intersect_1&#45;&gt;Filtered Calls</title>
<path fill="none" stroke="black" d="M918.31,-480.05C932.31,-470.31 951.45,-456.98 967.76,-445.63"/>
<polygon fill="black" stroke="black" points="969.77,-448.49 975.98,-439.9 965.77,-442.75 969.77,-448.49"/>
</g>
<!-- Intersect_2 -->
<g id="node13" class="node">
<title>Intersect_2</title>
<polygon fill="#d9d9d9" stroke="#d9d9d9" points="898.64,-366.74 787.64,-328.74 898.64,-290.74 1009.64,-328.74 898.64,-366.74"/>
<text text-anchor="middle" x="898.64" y="-332.54" font-family="Times,serif" font-size="14.00">Subtract Filtered </text>
<text text-anchor="middle" x="898.64" y="-317.54" font-family="Times,serif" font-size="14.00">from Unfiltered</text>
</g>
<!-- Unfiltered Calls&#45;&gt;Intersect_2 -->
<g id="edge9" class="edge">
<title>Unfiltered Calls&#45;&gt;Intersect_2</title>
<path fill="none" stroke="black" d="M816.64,-403.62C829.1,-392.4 845.81,-377.34 860.9,-363.74"/>
<polygon fill="black" stroke="black" points="863.52,-366.09 868.61,-356.8 858.84,-360.89 863.52,-366.09"/>
</g>
<!-- Unfiltered Calls&#45;&gt;Intersect_3 -->
<g id="edge12" class="edge">
<title>Unfiltered Calls&#45;&gt;Intersect_3</title>
<path fill="none" stroke="black" d="M790.89,-403.42C786.97,-392.91 782.12,-379.18 778.64,-366.74 756.53,-287.69 761.43,-265.41 740.64,-186 738.24,-176.84 735.24,-166.93 732.43,-158.13"/>
<polygon fill="black" stroke="black" points="735.7,-156.85 729.27,-148.42 729.04,-159.01 735.7,-156.85"/>
</g>
<!-- Filtered Calls&#45;&gt;Intersect_2 -->
<g id="edge10" class="edge">
<title>Filtered Calls&#45;&gt;Intersect_2</title>
<path fill="none" stroke="black" d="M981.46,-403.62C968.87,-392.4 951.99,-377.34 936.76,-363.74"/>
<polygon fill="black" stroke="black" points="938.76,-360.84 928.97,-356.8 934.1,-366.07 938.76,-360.84"/>
</g>
<!-- Filtered Calls&#45;&gt;Intersect_3 -->
<g id="edge13" class="edge">
<title>Filtered Calls&#45;&gt;Intersect_3</title>
<path fill="none" stroke="black" d="M1007.84,-403.47C1017.33,-378.15 1031.42,-329.71 1018.64,-290.74 1000.63,-235.84 989.65,-218.14 941.64,-186 902.49,-159.8 851.74,-146.3 809.06,-139.35"/>
<polygon fill="black" stroke="black" points="809.38,-135.86 798.96,-137.8 808.31,-142.78 809.38,-135.86"/>
</g>
<!-- Miscalls -->
<g id="node14" class="node">
<title>Miscalls</title>
<polygon fill="none" stroke="black" points="932.71,-230.87 837.15,-230.87 812.57,-194.87 908.13,-194.87 932.71,-230.87"/>
<text text-anchor="middle" x="872.64" y="-209.17" font-family="Times,serif" font-size="14.00">Miscalls</text>
</g>
<!-- Intersect_2&#45;&gt;Miscalls -->
<g id="edge11" class="edge">
<title>Intersect_2&#45;&gt;Miscalls</title>
<path fill="none" stroke="black" d="M890.77,-293.27C886.96,-276.57 882.44,-256.8 878.87,-241.16"/>
<polygon fill="black" stroke="black" points="882.21,-240.06 876.57,-231.09 875.39,-241.61 882.21,-240.06"/>
</g>
<!-- Miscalls&#45;&gt;Intersect_3 -->
<g id="edge14" class="edge">
<title>Miscalls&#45;&gt;Intersect_3</title>
<path fill="none" stroke="black" d="M840.68,-194.74C816.26,-181.65 782.68,-163.65 757.75,-150.28"/>
<polygon fill="black" stroke="black" points="759.12,-147.05 748.65,-145.41 755.81,-153.22 759.12,-147.05"/>
</g>
<!-- Low&#45;Mappability and Unsupported Calls -->
<g id="node16" class="node">
<title>Low&#45;Mappability and Unsupported Calls</title>
<polygon fill="none" stroke="black" points="589.46,-56 223.87,-56 129.82,-20 495.41,-20 589.46,-56"/>
<text text-anchor="middle" x="359.64" y="-34.3" font-family="Times,serif" font-size="14.00">Low&#45;Mappability and Unsupported Calls</text>
</g>
<!-- Intersect_3&#45;&gt;Low&#45;Mappability and Unsupported Calls -->
<g id="edge18" class="edge">
<title>Intersect_3&#45;&gt;Low&#45;Mappability and Unsupported Calls</title>
<path fill="none" stroke="black" d="M680.81,-119.29C621.1,-104.37 511.81,-77.04 437.48,-58.46"/>
<polygon fill="black" stroke="black" points="438.23,-55.04 427.68,-56.01 436.54,-61.83 438.23,-55.04"/>
</g>
<!-- ClinVar Gene Calls -->
<g id="node17" class="node">
<title>ClinVar Gene Calls</title>
<polygon fill="none" stroke="black" points="839.66,-56 655.1,-56 607.62,-20 792.18,-20 839.66,-56"/>
<text text-anchor="middle" x="723.64" y="-34.3" font-family="Times,serif" font-size="14.00">ClinVar Gene Calls</text>
</g>
<!-- Intersect_3&#45;&gt;ClinVar Gene Calls -->
<g id="edge19" class="edge">
<title>Intersect_3&#45;&gt;ClinVar Gene Calls</title>
<path fill="none" stroke="black" d="M723.64,-112.88C723.64,-99.79 723.64,-81.48 723.64,-66.36"/>
<polygon fill="black" stroke="black" points="727.14,-66.04 723.64,-56.04 720.14,-66.04 727.14,-66.04"/>
</g>
<!-- ClinVar Gene Low&#45;Mappability \nand Unsupported Calls -->
<g id="node18" class="node">
<title>ClinVar Gene Low&#45;Mappability \nand Unsupported Calls</title>
<polygon fill="none" stroke="black" points="1259.9,-76 939.74,-76 857.38,0 1177.54,0 1259.9,-76"/>
<text text-anchor="middle" x="1058.64" y="-41.8" font-family="Times,serif" font-size="14.00">ClinVar Gene Low&#45;Mappability </text>
<text text-anchor="middle" x="1058.64" y="-26.8" font-family="Times,serif" font-size="14.00">and Unsupported Calls</text>
</g>
<!-- Intersect_3&#45;&gt;ClinVar Gene Low&#45;Mappability \nand Unsupported Calls -->
<g id="edge20" class="edge">
<title>Intersect_3&#45;&gt;ClinVar Gene Low&#45;Mappability \nand Unsupported Calls</title>
<path fill="none" stroke="black" d="M764.05,-119.02C804.11,-108.14 867.69,-90.87 925.55,-75.15"/>
<polygon fill="black" stroke="black" points="926.79,-78.44 935.53,-72.44 924.96,-71.69 926.79,-78.44"/>
</g>
</g>
</svg>
